<?xml version="1.0" encoding="UTF-8"?>
<svg id="Layer_2" data-name="Layer 2" xmlns="http://www.w3.org/2000/svg" viewBox="0 0 1140 1140">
  <g id="rocks768_06" data-name="rocks768_06">
    <rect width="1140" height="1140" fill="none"/>
    <path d="M858.19,550.25l-28.24-1.02-9.7,8.37,5.97,17.41,23.59-3.81,10.61-12.15-2.23-8.8Z" fill="#a4a2f9"/>
    <path d="M307.78,641.67l-11.86-9.77-6.94.3-3.15,9.27,11.44,6.2,8.57-1.58,1.94-4.43Z" fill="#a4a2f9"/>
    <path d="M324.7,807.49l-6.11,5.11,3.89,3.05,4.37.44s2.7-4.22,2.26-5.35c-.44-1.13-1.04-4.74-1.04-4.74l-3.37,1.49Z" fill="#a2a2dd"/>
    <path d="M390.99,616.46l-15.78,7.96-6.16,11.41,9.96-1.57,13.03-7.27,8.96-10.99-10,.46Z" fill="#a4a2f9"/>
    <path d="M759.48,228.69l-16.76,16.07-3.35,16.7,11.9-5.8,13.57-14.14,7.03-17.25-12.39,4.42Z" fill="#a2a2dd"/>
    <path d="M836.19,317.66l-5.6,1.87,1.87,7.47h4.67l3.73-3.74-4.67-5.6Z" fill="#a4a2f9"/>
    <path d="M250.76,744l-5.17,6.2,5.17,6.2,5.16-3.1,2.07-7.23-7.23-2.07Z" fill="#a2a2dd"/>
    <path d="M720.53,439.68l-3.17,3.17.79,6.35,6.35-1.59,1.58-3.96-5.55-3.97Z" fill="#a2a2dd"/>
    <path d="M730.98,671.39l-5.11,5.12,1.28,10.22,10.22-2.55,2.56-6.39-8.95-6.4Z" fill="#a2a2dd"/>
    <path d="M930.57,648l-8.24,12.36-1.03,11.34,8.24,9.27,7.21-8.24,8.25-12.37v-9.27l-14.43-3.09Z" fill="#a4a2f9"/>
    <path d="M768.9,809.1l-.65,14.29,6.84,5.31,12.35,1.92,1.9-11.57-8.94-11.9-11.5,1.96Z" fill="#444377"/>
    <g>
      <path d="M176.34,478.31l-21.23,12.53-.18,13.79,9.99,19.04,18.02,16.31,26.82,8.32,30.94-11.02-.1-27.36-26.43-19.35-37.83-12.26Z" fill="#7572cc"/>
      <path d="M176.34,478.31l26.18,14.7,11.26,1.9,21.24,21.17,5.67,21.2,5.38-7.54-.48-10.95,3.05-10.48-34.53-23.33-34.54-8.61-3.25,1.92Z" fill="#9e9ee8"/>
    </g>
    <g>
      <path d="M382.32,428.55l-51.73,56.31,25.87,51.14h45.88l25.41-51.14-10.04-30.91-17.56-23.49-17.83-1.91Z" fill="#5e56af"/>
      <path d="M379.17,536h23.17l25.41-51.14-10.04-30.91-17.56-23.49,3.31,37.61,8.63,20.41-32.92,47.52Z" fill="#7572cc"/>
    </g>
    <g>
      <path d="M901.34,759.55l-8.31.6.91,5.74,2.76,4.6,3.48,2.67,23.63,11.41,1.77-4.78-11.35-16.93-4.56-1.37-8.33-1.94Z" fill="#a4a2f9"/>
      <path d="M896.7,770.48l-2.76-4.6-.91-5.74,4.02-.29-1.06,4.33,2.17,4.95,2.01,4.02-3.48-2.67Z" fill="#e3e3ff"/>
    </g>
    <polygon points="735.47 386.75 743.19 381.21 760.92 378.12 765.46 385.6 759.76 395.87 744.81 404.95 733.78 398 735.47 386.75" fill="#a4a2f9"/>
    <polygon points="889.02 151.32 892.67 148.27 901.17 146.73 910.45 149.82 908.13 165.27 901.68 164.47 889 158.13 889.02 151.32" fill="#444377"/>
    <polygon points="229.93 179.01 225.09 183.85 226.3 193.53 235.98 191.11 238.4 185.06 229.93 179.01" fill="#a2a2dd"/>
    <polygon points="404.16 386.3 398.13 382.58 397.98 371.09 411.82 375.5 414.57 380.19 414.69 388.27 404.16 386.3" fill="#a4a2f9"/>
    <polygon points="272.98 415.37 267.56 423.9 279.96 427 284.61 424.52 286.51 418.83 284.56 413.99 272.98 415.37" fill="#444377"/>
  </g>
  <g id="rocks768_05" data-name="rocks768_05">
    <rect width="1140" height="1140" fill="none"/>
    <path d="M839.91,398l-11.11,9.28,7.07,5.55,7.93.8s4.9-7.67,4.11-9.73c-.79-2.06-1.89-8.61-1.89-8.61l-6.12,2.71Z" fill="#5e56af"/>
    <path d="M249.67,322.8l-.91-8.33-5.46-5.54-7.41-3.32-10.23,4.63,2.06,8.34,12.35,6.78,9.6-2.55Z" fill="#a2a2dd"/>
    <path d="M394.11,575.26l3.91,5.87h6.85l4.89-10.76-6.85-1.96h-8.8v6.85Z" fill="#a2a2dd"/>
    <g>
      <path d="M489.12,734.86l-33.9-8.07-16.5,9.93,9.32,17.99,26.88,8.74,14.08-11.82.12-16.76Z" fill="#5e56af"/>
      <path d="M489.12,734.86l-12.29,5.82-19.5-9.11-18.61,5.15.66-12.54,18.15-4.99,21.29,5.76,10.31,9.91Z" fill="#7572cc"/>
    </g>
    <g>
      <path d="M418.3,818.78l-12.76,6.47-1.25,8.57,4.41,11.7,11-4.05,5.95-13.64-7.36-9.04Z" fill="#444377"/>
      <path d="M405.82,823.39l-.28,1.86,12.12-2.84,4.34,2.19-.04,4.03,3.7-.8.18-5.07-1.9-6.52-8.21-.5-9.91,7.66Z" fill="#54548e"/>
    </g>
    <g>
      <path d="M393.3,316.78l-12.76,6.47-1.25,8.57,4.41,11.7,11-4.05,5.95-13.64-7.36-9.04Z" fill="#444377"/>
      <path d="M380.82,321.39l-.28,1.86,12.12-2.84,4.34,2.19-.04,4.03,3.7-.8.18-5.07-1.9-6.52-8.21-.5-9.91,7.66Z" fill="#54548e"/>
    </g>
    <g>
      <path d="M699.85,729.81l12.35,18.01,19.83,12.01,8.13-17.29-4.21-16-11.17-12.54-11.33-.02-13.6,15.82Z" fill="#444377"/>
      <path d="M699.85,729.81l15.55-12.41,12.57,4.7,7.98,4.45-11.17-12.54-12.57-5-6.76,2.74-5.6,18.07Z" fill="#54548e"/>
    </g>
    <g>
      <path d="M317.35,525.94l-21.8-1.37-21.68,8.22,8.61,17.05,15.19,6.55,16.76-1.07,6.99-8.91-4.08-20.46Z" fill="#444377"/>
      <path d="M317.35,525.94l.19,19.9-11.45,7-8.42,3.54,16.76-1.07,11.68-6.82,2.01-7.01-10.78-15.55Z" fill="#54548e"/>
    </g>
    <polygon points="942.07 206.96 922.85 223.92 919.96 235.45 922.51 246.97 936.76 247.14 956.14 237.71 964.3 213.23 942.07 206.96" fill="#a4a2f9"/>
    <polygon points="913.96 797.7 918.56 796.46 926.92 798.62 934.05 805.31 925.47 818.38 919.96 814.94 911.09 803.88 913.96 797.7" fill="#444377"/>
    <polygon points="807.63 80.85 788.26 88.12 787.05 101.44 801.58 106.28 810.06 99.01 817.32 86.91 807.63 80.85" fill="#a4a2f9"/>
    <path d="M313.53,111.02l-3.45,10.41,5.35,9.8,23.11,13.57,13.6-5.78s.04-23.51-3.52-24.26-18.63-11.38-18.63-11.38l-16.47,7.64Z" fill="#a4a2f9"/>
  </g>
  <g id="rocks768_04" data-name="rocks768_04">
    <rect width="1140" height="1140" fill="none"/>
    <g>
      <path d="M168.55,680.48l97.75-4.46,39.78,46.94,50.05,45.94,19.18,68.3-66.77,26.44-82.98-8.98-60.78-79.6,3.78-94.57Z" fill="#5e56af"/>
      <path d="M266.3,676.01l-2.4,11.44,25.8,27.28,12.53,41.64,67.94,62.5-14.04-49.98-50.05-45.94-39.78-46.94Z" fill="#7572cc"/>
    </g>
    <path d="M287.85,581.97l-13.17-21.85.2-3.13,1.36-5.6,6.74-10.72,4.19,1.27,6.88,7.28,5.43,12.47-5.04,14.43-6.58,5.86Z" fill="#a4a2f9"/>
    <path d="M347.33,867.03l6.54,9.34,8.4,1.86,5.6-7.46-3.73-5.6-11.21-2.8-5.6,4.66Z" fill="#a4a2f9"/>
    <path d="M316.67,382.41l-.69,7.9,6.62,6.14,12.79,8.27,2.26-7.75-7.99-8.65-13-5.91Z" fill="#a2a2dd"/>
    <g>
      <path d="M847.8,983.37l1.99,7.93,8.4.7,5.6-2.1-5.6-11.9-10.39,5.37Z" fill="#444377"/>
      <path d="M849.79,991.3l-4.2-7,3.19-4.92,4.51-1.38h4.9l-7,4.67-1.64,2.33.24,6.3Z" fill="#54548e"/>
    </g>
    <path d="M233.19,951l-22.6,26.94,11.3,13.41,21.86-1.46,13.29-23.18-9.89-13.3-13.96-2.41Z" fill="#5e56af"/>
    <g>
      <path d="M772.43,694.11l-12.18,49.56,8.75,36.75,65.66,40.5,50.79,2.23,14.56-59.23-38.22-63.8-44.38-10.91-44.98,4.9Z" fill="#5e56af"/>
      <path d="M769,780.42l-8.75-36.75,12.18-49.56,44.98-4.9,44.38,10.91-37.77,2.64-35.12,8.09-13.58,26.99-6.32,42.58Z" fill="#7572cc"/>
    </g>
    <polygon points="887.57 879.95 879.33 892.32 878.3 903.65 886.54 912.93 893.76 904.68 902 892.32 902 883.04 887.57 879.95" fill="#a4a2f9"/>
    <g>
      <polygon points="699.31 773.67 756.72 780.53 767.7 787.23 781.05 857.56 752.21 900.64 702.5 889.52 666.9 813.42 699.31 773.67" fill="#444377"/>
      <polygon points="756.72 780.53 738.71 788.66 715.89 778.46 707.86 788.41 697.91 787.27 684.46 815.07 666.9 813.42 673.07 773.75 720.4 764.77 740.2 770.46 756.72 780.53" fill="#54548e"/>
    </g>
    <polygon points="490.12 960.34 455.06 949.69 440.11 956.97 441.82 980.78 472.66 983.82 490 972.12 490.12 960.34" fill="#a4a2f9"/>
    <g>
      <path d="M923.25,428.41l-33.3,29.74-10.15,56.61,11.53,45.47,46.08,22.99,55.23-29.15-6.06-65.51-7.95-34.1-55.37-26.05Z" fill="#5e56af"/>
      <path d="M883.55,493.86l6.4-35.72,33.3-29.74-10.51,17.9-19.1,14.03-10.09,33.53Z" fill="#7572cc"/>
    </g>
  </g>
  <g id="rocks768_03" data-name="rocks768_03">
    <rect width="1140" height="1140" fill="none"/>
    <g>
      <path d="M147.21,944.26l-15.37-43.33-7.8-48.64,12.9-22.05,45.36,4.27,31.79,33.59,28.61,39.37-7.85,37.32-34.89,17.16-52.75-17.69Z" fill="#5e56af"/>
      <path d="M242.7,907.48l-28.61-39.37-31.79-33.59-45.36-4.27,39.04,16.74,27.15,48.94,31.72,48.87,7.85-37.32Z" fill="#7572cc"/>
    </g>
    <path d="M662.8,680.78l2.57,17.17,10.09-3.77,5.77-7.63s-4.79-9.8-7.39-10.29c-2.6-.48-9.99-3.44-9.99-3.44l-1.05,7.96Z" fill="#5e56af"/>
    <g>
      <path d="M962.64,673.25l-20.93,51.92,11.83,28.59,30.8-10.5,20.31-40.61-15.41-25.2-26.6-4.2Z" fill="#5e56af"/>
      <path d="M962.64,673.25l6.3,20.92-19.13,28.79,3.73,30.8-19.76-4.05-3.58-30.02,14.24-32.44,18.2-14Z" fill="#7572cc"/>
    </g>
    <g>
      <path d="M394.29,895.08l-35.44,35.77-18.15,42.89,11.95,52.03,58.44,10.61,49.22-57.67-15.52-67.59-30.63-19.22-19.86,3.19Z" fill="#444377"/>
      <path d="M453.5,949.1l-8.72-37.98-30.63-19.22-19.86,3.19,12.18,21.47,25.57,6.71,21.46,25.84Z" fill="#54548e"/>
    </g>
    <polygon points="863.77 583.46 848.05 595.49 843.49 605.49 842.21 612.24 845.26 618.69 848.54 619.91 868.36 620.69 878.81 604.17 877.53 587.92 863.77 583.46" fill="#a4a2f9"/>
    <polygon points="892.53 838.44 878.19 882 901.66 918.09 949.15 952.94 994 933.03 994 872.29 978.21 838.44 926.34 829.85 892.53 838.44" fill="#5e56af"/>
    <g>
      <polygon points="543.55 881.27 541.06 891.9 543.35 901.79 553.33 901.31 555.35 886.67 553.99 883.14 543.55 881.27" fill="#444377"/>
      <polygon points="543.55 881.27 550.98 884.88 553.99 883.14 552.24 878.63 550.3 876.87 544.48 877.33 543.55 881.27" fill="#54548e"/>
    </g>
  </g>
  <g id="rocks768_02" data-name="rocks768_02">
    <rect width="1140" height="1140" fill="none"/>
    <g>
      <path d="M765.24,569.86l-38.88-26.14,6.08-30.58,6.81-14.52,45.53-11.44,38,9.06,8.65,33.33-44.88,34.65-21.32,5.63Z" fill="#444377"/>
      <path d="M729.45,518.29l-10.06,20.2,22.5,24.45,23.35,6.92-20.47-14.59-14.28-19.67,3.97-19.73-2.01-2.73-3,5.15Z" fill="#54548e"/>
    </g>
    <g>
      <polygon points="633.37 846.74 634.19 855.22 638.48 857.29 645.91 856.95 653.65 853.69 660.18 846.51 661.25 835.21 652.67 831.24 642.74 836.69 633.37 846.74" fill="#7572cc"/>
      <polygon points="633.37 846.74 641.8 840.69 644.05 837.44 653.78 833.89 661.25 835.21 659.68 832.42 656.18 830.97 653.34 828.48 640.99 835.88 633.24 845.44 633.37 846.74" fill="#9e9ee8"/>
    </g>
    <g>
      <polygon points="912.03 213.12 868.53 222.63 845.07 252.42 854.71 291.02 883.21 316.71 909.09 321.82 946 279.04 946 225.94 912.03 213.12" fill="#444377"/>
      <polygon points="883.21 316.71 868.53 313.81 847.47 293.48 837 262.67 845.07 252.42 866.03 293 913.38 316.84 909.09 321.82 883.21 316.71" fill="#54548e"/>
    </g>
    <g>
      <polygon points="106.97 241.23 137.13 265.96 147.68 269.05 169.2 275.26 197.65 270.05 220.83 263.86 225.88 217.42 195.93 187.18 129.81 161.56 91.95 183.46 106.97 241.23" fill="#444377"/>
      <polygon points="225.88 217.42 195.93 187.18 187.12 202.98 191.7 217.21 213.46 232.95 217.64 245.5 211.16 244.17 200.94 253.09 193.39 267.3 178.27 264.2 147.68 269.05 167.94 275 197.89 275.33 220.83 263.86 225.88 217.42" fill="#54548e"/>
    </g>
    <g>
      <polygon points="139.57 590.65 166.74 600.57 199.52 618.9 248.61 684.24 236.81 742 161.3 742.66 119.07 699.01 99.38 646.4 139.57 590.65" fill="#444377"/>
      <polygon points="166.74 600.57 184.18 607.9 222.68 630.78 248.61 684.24 227.95 676.42 197.04 651.01 198.78 621.45 162.1 600.96 166.74 600.57" fill="#54548e"/>
    </g>
  </g>
  <g id="rocks768_01" data-name="rocks768_01">
    <rect width="1140" height="1140" fill="none"/>
    <g>
      <polygon points="907 813.79 899.49 781.54 893.71 775.13 881.86 762.16 858.57 756.79 838.5 754.12 808.54 793.13 812.77 830.15 845.48 875.75 884.96 869.76 907 813.79" fill="#444377"/>
      <polygon points="808.54 793.13 812.77 830.15 828.03 819.35 832.84 805.26 826.22 783.84 830.35 771.36 834.23 774.79 846.59 770.52 860.05 760.69 869.1 768.7 893.71 775.13 882.61 762.83 861.4 752.07 838.5 754.12 808.54 793.13" fill="#54548e"/>
    </g>
    <g>
      <polygon points="844.69 652.6 827.57 664.47 822.62 682.64 825.55 714.21 831.93 714.15 857.87 720.36 886.26 713.58 900.94 693.21 883.32 667.7 844.69 652.6" fill="#444377"/>
      <polygon points="827.57 664.47 825.31 680.48 830.1 709.33 831.93 714.15 825.55 714.21 821.45 710.39 821.08 677.91 827.57 664.47" fill="#54548e"/>
    </g>
    <g>
      <polygon points="423.37 745.82 423.49 710.95 403.3 686.74 357.18 660.5 351.15 669.33 317.76 698.96 299.87 744.4 313.73 784.07 365.62 784.33 423.37 745.82" fill="#444377"/>
      <polygon points="423.49 710.95 403.68 692.51 359.51 671.43 351.15 669.33 357.18 660.5 366.35 658.54 411.26 689.17 423.49 710.95" fill="#54548e"/>
    </g>
    <g>
      <polygon points="942.64 458.49 927.99 448.32 911.3 432.26 892.24 385.59 908.32 352.98 953.48 364.41 971.83 397.06 975.35 431.52 942.64 458.49" fill="#444377"/>
      <polygon points="927.99 448.32 918.73 441.22 899.34 421.55 892.24 385.59 903.34 393.49 917.81 413.49 912.14 430.85 930.82 448.82 927.99 448.32" fill="#54548e"/>
    </g>
    <g>
      <polygon points="325.21 904.01 321.23 879.53 308.6 865.77 294.68 862.62 266.42 883.43 258.61 908.82 271.7 935 302.83 934.62 325.21 904.01" fill="#5e56af"/>
      <polygon points="325.21 904.01 321.23 879.53 308.6 865.77 294.68 862.62 305.03 871.56 310.1 893.09 317.47 914.59 325.21 904.01" fill="#7572cc"/>
    </g>
    <g>
      <polygon points="201.79 434.11 225.48 372.16 218.05 324.61 194.34 300.25 111 314.19 62.58 363.85 54.89 440.92 117.54 478.12 201.79 434.11" fill="#5e56af"/>
      <polygon points="201.79 434.11 225.48 372.16 218.05 324.61 194.34 300.25 203.44 333.75 185.73 390.15 172.66 449.33 201.79 434.11" fill="#7572cc"/>
    </g>
    <g>
      <path d="M468.43,801.47l-3.43-.57-6.69,5.21-6.69,12.86,14.01,7.71,7-2.1,2.8-14.01-7-9.1Z" fill="#444377"/>
      <path d="M458.94,823c.07-.45,0-16.47,0-16.47l6.06-2.64v-2.98l-1.48-.25-7.16-.19-4.75,18.51,7.32,4.02h.01Z" fill="#54548e"/>
    </g>
    <g>
      <path d="M818.59,944.61l14.28-31.51,25.55-3.85,17.16,20.66-20.89,25.09h-30.29l-5.81-10.39Z" fill="#a4a2f9"/>
      <path d="M818.59,944.61l14.28-31.51,25.55-3.85-18.54,7.11-11.81,13.66-9.48,14.59Z" fill="#e3e3ff"/>
    </g>
  </g>
</svg>