<?xml version="1.0" encoding="UTF-8"?>
<svg id="Layer_2" data-name="Layer 2" xmlns="http://www.w3.org/2000/svg" viewBox="0 0 3320 1510">
  <g id="rocks2560_06" data-name="rocks2560_06">
    <rect width="3320" height="1510" fill="none"/>
    <path d="M2357.41,772.02l-27.04-8.21-11.52,5.61,1.32,18.36,23.78,2.35,13.36-9.03.1-9.08Z" fill="#a4a2f9"/>
    <path d="M895.78,588.67l-11.86-9.77-6.94.3-3.15,9.27,11.44,6.2,8.57-1.58,1.94-4.43Z" fill="#a4a2f9"/>
    <path d="M999.7,781.49l-6.11,5.11,3.89,3.05,4.37.44s2.7-4.22,2.26-5.35c-.44-1.13-1.04-4.74-1.04-4.74l-3.37,1.49Z" fill="#a2a2dd"/>
    <path d="M913.87,901.38l-20.73,10.46-8.09,14.99,13.08-2.06,17.11-9.55,11.77-14.44-13.14.6Z" fill="#a4a2f9"/>
    <path d="M2550.46,528.44l-20.73,10.46-8.09,14.99,13.08-2.06,17.11-9.55,11.77-14.44-13.14.6Z" fill="#a2a2dd"/>
    <path d="M2437.19,919l-5.6,1.87,1.87,7.47h4.67l3.73-3.74-4.67-5.6Z" fill="#a4a2f9"/>
    <path d="M984.76,916l-5.17,6.2,5.17,6.2,5.16-3.1,2.07-7.23-7.23-2.07Z" fill="#a2a2dd"/>
    <path d="M2423.32,787l-3.73,3.73.93,7.47,7.47-1.87,1.86-4.66-6.53-4.67Z" fill="#a2a2dd"/>
    <path d="M2112.98,932.39l-5.11,5.12,1.28,10.22,10.22-2.55,2.56-6.39-8.95-6.4Z" fill="#a2a2dd"/>
    <path d="M2591.86,694l-8.24,12.36-1.03,11.34,8.24,9.27,7.21-8.24,8.25-12.37v-9.27l-14.43-3.09Z" fill="#a4a2f9"/>
    <path d="M2261.9,1168.1l-.65,14.29,6.84,5.31,12.35,1.92,1.9-11.57-8.94-11.9-11.5,1.96Z" fill="#444377"/>
    <g>
      <path d="M956.8,957.61l-26.21,28.89,6.2,20.93,24.02,24.09,34.87,16.2h44.43l41.59-31.15-12.98-41.3-49.01-16.86-62.91-.8Z" fill="#7572cc"/>
      <path d="M956.8,957.61l46.46,9.95,17.91-2.41,42.02,22.04,18.51,29.38,4.6-13.91-5.85-16.32-.3-17.27-63.11-19.07-56.23,3.18-4.01,4.43Z" fill="#9e9ee8"/>
    </g>
    <g>
      <path d="M859.32,738l-51.73,56.31,25.87,51.14h45.88l25.41-51.14-10.04-30.91-17.56-23.49-17.83-1.91Z" fill="#5e56af"/>
      <path d="M856.17,845.45h23.17l25.41-51.14-10.04-30.91-17.56-23.49,3.31,37.61,8.63,20.41-32.92,47.52Z" fill="#7572cc"/>
    </g>
    <g>
      <path d="M2510.4,814.31h-18.46l1.1,12.83,5.37,10.59,7.26,6.45,50.4,28.94,4.67-10.27-22.4-39.2-9.85-3.74-18.09-5.6Z" fill="#a4a2f9"/>
      <path d="M2498.41,837.73l-5.37-10.59-1.1-12.83h8.92l-3.02,9.39,4.02,11.28,3.81,9.2-7.26-6.45Z" fill="#e3e3ff"/>
    </g>
    <polygon points="2868.98 591.9 2874.25 583.99 2889.75 574.85 2896.63 580.24 2894.92 591.87 2884.13 605.63 2871.36 603.03 2868.98 591.9" fill="#a4a2f9"/>
    <polygon points="2715.78 548.32 2719.43 545.27 2727.94 543.73 2737.21 546.82 2734.89 562.27 2728.45 561.47 2715.76 555.13 2715.78 548.32" fill="#444377"/>
    <polygon points="589.93 154.01 585.09 158.85 586.3 168.53 595.98 166.11 598.4 160.06 589.93 154.01" fill="#a2a2dd"/>
    <polygon points="586.07 450.74 579.2 449.02 575.57 438.12 590.1 438.12 594.14 441.76 596.71 449.43 586.07 450.74" fill="#a4a2f9"/>
    <polygon points="506.98 660.37 501.56 668.9 513.96 672 518.61 669.52 520.51 663.83 518.56 658.99 506.98 660.37" fill="#444377"/>
  </g>
  <g id="rocks2560_05" data-name="rocks2560_05">
    <rect width="3320" height="1510" fill="none"/>
    <path d="M2456.96,677.97l-20.37,17.02,12.96,10.17,14.55,1.46s8.98-14.06,7.54-17.84c-1.44-3.78-3.46-15.78-3.46-15.78l-11.22,4.97Z" fill="#5e56af"/>
    <path d="M1212.77,932l-8.38.28-5.94,5.03-3.87,7.14,3.84,10.55,8.47-1.42,7.69-11.81-1.82-9.77Z" fill="#a2a2dd"/>
    <path d="M819.11,669.26l3.91,5.87h6.85l4.89-10.76-6.85-1.96h-8.8v6.85Z" fill="#a2a2dd"/>
    <g>
      <path d="M910.12,1208.83l-51.92-20.93-28.59,11.83,10.5,30.8,40.61,20.31,25.2-15.41,4.2-26.6Z" fill="#5e56af"/>
      <path d="M910.12,1208.83l-20.92,6.3-28.79-19.13-30.8,3.73,4.05-19.76,30.02-3.58,32.44,14.24,14,18.2Z" fill="#7572cc"/>
    </g>
    <g>
      <path d="M742.82,786.56l-7.81,24.66-3.86,4.27h-32.03l-16.53-16.27,9.04-20.93,36.42-9.29,14.77,17.56Z" fill="#444377"/>
      <path d="M735.01,811.22l-2.07-8.59,6.39-9.18-3.7-4.36,1.33-4.28-11.1-8.23,2.19-7.58,16.92,6.02v21.55l-4.15,8.23-5.81,6.42Z" fill="#54548e"/>
    </g>
    <g>
      <path d="M998.16,841.51l-14.25,1.23-4.36,7.48-.28,12.5,11.72.36,10.62-10.43-3.45-11.14Z" fill="#444377"/>
      <path d="M984.86,841.12l-.95,1.62,12.3,1.9,3.21,3.65-1.54,3.72,3.73.64,2.06-4.64.68-6.76-7.43-3.53-12.06,3.4Z" fill="#54548e"/>
    </g>
    <g>
      <path d="M2405.05,881.43l20.66,7.09,23.08-2.19-3.79-18.72-12.92-10.33-16.45-3.4-9.1,6.74-1.48,20.81Z" fill="#444377"/>
      <path d="M2405.05,881.43l5.08-19.24,12.89-3.73,9.06-1.19-16.45-3.4-13.07,3.48-3.79,6.23,6.28,17.84Z" fill="#54548e"/>
    </g>
    <polygon points="2737.23 652.1 2712.03 656.77 2703.63 665.17 2699.89 676.37 2712.03 683.84 2733.5 685.7 2753.08 668.9 2737.23 652.1" fill="#a4a2f9"/>
    <polygon points="2442.8 1140.75 2446.46 1137.7 2454.96 1136.16 2464.24 1139.25 2461.92 1154.71 2455.47 1153.9 2442.79 1147.56 2442.8 1140.75" fill="#444377"/>
    <polygon points="371.63 565.85 352.26 573.12 351.05 586.44 365.58 591.28 374.06 584.01 381.32 571.91 371.63 565.85" fill="#a4a2f9"/>
    <path d="M609.31,301.23l-1.21,10.9,7.26,8.48,25.43,8.48,12.11-8.48s-4.84-23-8.48-23-20.58-7.26-20.58-7.26l-14.53,10.9Z" fill="#a4a2f9"/>
  </g>
  <g id="rocks2560_04" data-name="rocks2560_04">
    <rect width="3320" height="1510" fill="none"/>
    <g>
      <path d="M649.59,911.45l94.75-24.45,48.57,37.77,58.42,34.68,32.8,62.9-59.92,39.59-83.05,8.26-75.84-65.42-15.73-93.33Z" fill="#5e56af"/>
      <path d="M744.34,887v11.69l30.85,21.4,20.82,38.18,79.33,47.21-24.01-46.03-58.42-34.68-48.57-37.77Z" fill="#7572cc"/>
    </g>
    <path d="M787.85,757.97l-13.17-21.85.2-3.13,1.36-5.6,6.74-10.72,4.19,1.27,6.88,7.28,5.43,12.47-5.04,14.43-6.58,5.86Z" fill="#a4a2f9"/>
    <path d="M2496.33,720.03l6.54,9.34,8.4,1.86,5.6-7.46-3.73-5.6-11.21-2.8-5.6,4.66Z" fill="#a4a2f9"/>
    <path d="M729.46,529l-2.87,11.77,8.57,10.81,17.41,15.47,5.22-11.18-10.06-14.92-18.27-11.95Z" fill="#a2a2dd"/>
    <g>
      <path d="M2359.8,942.37l1.99,7.93,8.4.7,5.6-2.1-5.6-11.9-10.39,5.37Z" fill="#444377"/>
      <path d="M2361.79,950.3l-4.2-7,3.19-4.92,4.51-1.38h4.9l-7,4.67-1.64,2.33.24,6.3Z" fill="#54548e"/>
    </g>
    <path d="M1323.19,992l-22.6,26.94,11.3,13.41,21.86-1.46,13.29-23.18-9.89-13.3-13.96-2.41Z" fill="#5e56af"/>
    <g>
      <path d="M2087.43,986.11l-12.18,49.56,8.75,36.75,65.66,40.5,50.79,2.23,14.56-59.23-38.22-63.8-44.38-10.91-44.98,4.9Z" fill="#5e56af"/>
      <path d="M2084,1072.42l-8.75-36.75,12.18-49.56,44.98-4.9,44.38,10.91-37.77,2.64-35.12,8.09-13.58,26.99-6.32,42.58Z" fill="#7572cc"/>
    </g>
    <polygon points="2666.79 480.95 2658.55 493.32 2657.52 504.65 2665.76 513.93 2672.97 505.68 2681.22 493.32 2681.22 484.04 2666.79 480.95" fill="#a4a2f9"/>
    <g>
      <polygon points="2888.34 679.61 2907.84 662.61 2913.35 660.97 2940.71 677.63 2946.37 700.13 2927.76 713.3 2891.82 702.3 2888.34 679.61" fill="#444377"/>
      <polygon points="2907.84 662.61 2905.13 671.03 2894.9 675.54 2895.8 681.2 2892.43 684.16 2897.63 696.96 2891.82 702.3 2880.5 688.35 2891.71 669.94 2899.54 665.07 2907.84 662.61" fill="#54548e"/>
    </g>
    <polygon points="471.7 479.34 436.64 468.69 421.69 475.97 423.4 499.78 454.25 502.82 471.58 491.12 471.7 479.34" fill="#a4a2f9"/>
    <g>
      <path d="M2518.25,934l15.77,83.43,82.27,72.09,85.4,25.83,82.67-52.51,6.7-118.58-112.68-54.4-63.35-20.51-96.78,64.65Z" fill="#5e56af"/>
      <path d="M2585.93,1062.91l-51.91-45.48-15.77-83.43,18.84,34.69,4.11,44.88,44.73,49.34Z" fill="#7572cc"/>
    </g>
  </g>
  <g id="rocks2560_03" data-name="rocks2560_03">
    <rect width="3320" height="1510" fill="none"/>
    <g>
      <path d="M662.74,587l61.99,7.23,63.92,19.63,19.13,28.93-32.38,52.7-59.96,18.6-65.1,11.27-40.75-31.92v-52.78l53.15-53.66Z" fill="#5e56af"/>
      <path d="M650.34,725.36l65.1-11.27,59.96-18.6,32.38-52.7-43.78,37.53-75.88,3.76-78.53,9.36,40.75,31.92Z" fill="#7572cc"/>
    </g>
    <path d="M1107.64,1152.39l-10.32,24.46,16.18,3.11,13.6-5.36s1.55-16.61-1.46-19.31c-3.01-2.7-10.3-12.45-10.3-12.45l-7.7,9.55Z" fill="#5e56af"/>
    <g>
      <path d="M2558.64,587.25l-20.93,51.92,11.83,28.59,30.8-10.5,20.31-40.61-15.41-25.2-26.6-4.2Z" fill="#5e56af"/>
      <path d="M2558.64,587.25l6.3,20.92-19.13,28.79,3.73,30.8-19.76-4.05-3.58-30.02,14.24-32.44,18.2-14Z" fill="#7572cc"/>
    </g>
    <g>
      <path d="M778.43,975l-42.55,26.93-27.29,37.74v53.38l54.58,23.42,60.88-45.19v-69.35l-25.55-25.59-20.07-1.34Z" fill="#444377"/>
      <path d="M824.05,1040.9v-38.97l-25.55-25.59-20.07-1.34,7.07,23.65,23.42,12.26,15.13,29.99Z" fill="#54548e"/>
    </g>
    <polygon points="2740.77 337.46 2725.05 349.49 2720.49 359.49 2719.21 366.24 2722.26 372.69 2725.54 373.91 2745.36 374.69 2755.81 358.17 2754.53 341.92 2740.77 337.46" fill="#a4a2f9"/>
    <polygon points="2741.44 740.44 2727.11 784 2750.58 820.09 2798.07 854.94 2842.92 835.03 2842.92 774.29 2827.13 740.44 2775.25 731.85 2741.44 740.44" fill="#5e56af"/>
    <g>
      <polygon points="514.09 378.44 510.72 368.06 503.63 360.79 495.35 366.36 501.2 379.94 504.2 382.25 514.09 378.44" fill="#444377"/>
      <polygon points="514.09 378.44 505.86 379.21 504.2 382.25 508.02 385.2 510.6 385.7 515.34 382.29 514.09 378.44" fill="#54548e"/>
    </g>
  </g>
  <g id="rocks2560_02" data-name="rocks2560_02">
    <rect width="3320" height="1510" fill="none"/>
    <g>
      <path d="M2578.24,853.28l3.68-56.7,35.76-12.28,19.37-1.72,39.77,40.75,13.69,45.36-29.66,29.4-63.7-25.9-18.91-18.91Z" fill="#444377"/>
      <path d="M2610.45,784.3l-27.31,1.78-11.9,38.5,7,28.7,2.8-30.36,11.91-26.97,23.1-7.88,1.63-3.77h-7.23Z" fill="#54548e"/>
    </g>
    <g>
      <polygon points="2962.44 350.5 2984.33 340.38 2985.86 326.98 2978 307.47 2962.07 289.83 2936.79 279.1 2905.6 286.79 2903.01 313.43 2926.84 334.85 2962.44 350.5" fill="#7572cc"/>
      <polygon points="2962.44 350.5 2938.41 333.62 2927.63 330.67 2909.04 307.98 2905.6 286.79 2899.62 293.59 2899.01 304.3 2895.01 314.2 2926.33 340.29 2959.09 352.05 2962.44 350.5" fill="#9e9ee8"/>
    </g>
    <g>
      <polygon points="2868.65 376.25 2814.07 388.17 2784.65 425.55 2796.75 473.96 2832.49 506.2 2864.96 512.61 2911.26 458.94 2911.26 392.33 2868.65 376.25" fill="#444377"/>
      <polygon points="2832.49 506.2 2814.07 502.56 2787.67 477.06 2774.53 438.41 2784.65 425.55 2810.94 476.45 2870.34 506.37 2864.96 512.61 2832.49 506.2" fill="#54548e"/>
    </g>
    <polygon points="2384.92 1247.48 2345.09 1224.75 2305.04 1240.54 2261.41 1280.12 2271.98 1328.04 2331.49 1340.16 2367.81 1331.45 2386.58 1282.33 2384.92 1247.48" fill="#5e56af"/>
    <g>
      <polygon points="433.2 765.91 456.87 776.57 482.43 771.1 494.89 731.37 453.15 722.69 427.53 735.35 433.2 765.91" fill="#444377"/>
      <polygon points="456.87 776.57 474.3 770.8 487.28 745.86 487.15 729.76 494.89 731.37 502.8 758.44 488.23 774 465.71 780.56 456.87 776.57" fill="#54548e"/>
    </g>
    <g>
      <polygon points="267.27 406.97 301.78 425.13 312.74 426.05 335.06 427.8 361.89 416.99 383.35 406.26 378.96 359.76 343.55 336.15 273.63 324.34 240.94 353.4 267.27 406.97" fill="#444377"/>
      <polygon points="378.96 359.76 343.55 336.15 338.1 353.4 345.44 366.42 369.92 377.46 376.54 388.91 369.92 388.91 361.71 399.71 357.17 415.15 341.73 415.15 312.74 426.05 333.78 427.8 363.18 422.11 383.35 406.26 378.96 359.76" fill="#54548e"/>
    </g>
    <g>
      <polygon points="341.63 859.12 390.45 859.12 453.03 869.19 568.68 944.36 583.41 1042.77 464.07 1087.53 371.86 1042.77 310.19 970.77 341.63 859.12" fill="#444377"/>
      <polygon points="390.45 859.12 422.34 860.64 496.62 874.62 568.68 944.36 531.4 943.93 467.69 921.54 453.34 873.67 383.31 862.42 390.45 859.12" fill="#54548e"/>
    </g>
    <g>
      <path d="M2293.54,908.02l-32.07,26.21-18.81,53.18,27.54,91.98,115.42,58.3,61.05-42.4,33.14-44.02-8.97-62.15-107.91-74.54-69.39-6.56Z" fill="#5e56af"/>
      <path d="M2242.66,987.41l18.81-53.18,32.07-26.21,37.59,3.56-36.49,5.74-28.55,21.36-23.43,48.73Z" fill="#7572cc"/>
    </g>
  </g>
  <g id="rocks2560_01" data-name="rocks2560_01">
    <rect width="3320" height="1510" fill="none"/>
    <g>
      <polygon points="3118.6 919.2 3043.1 869.34 3018 864.7 2966.86 855.52 2902.43 874.33 2850.41 894.17 2849.85 1002.55 2926.19 1065.21 3084.93 1108.54 3167.09 1048.97 3118.6 919.2" fill="#444377"/>
      <polygon points="2849.85 1002.55 2926.19 1065.21 2942.74 1026.62 2928.79 994.87 2874.8 963.75 2862.14 935.78 2877.43 937.3 2898.87 914.26 2912.91 879.66 2948.55 883.21 3018 864.7 2969.82 855.82 2900.62 862.2 2850.41 894.17 2849.85 1002.55" fill="#54548e"/>
    </g>
    <g>
      <polygon points="2762.18 132.44 2750.58 185.77 2773.58 229.44 2835.6 284.7 2847.71 273.17 2908.53 238.73 2950.78 175.02 2942.54 109.76 2863.19 92.37 2762.18 132.44" fill="#444377"/>
      <polygon points="2750.58 185.77 2774.89 220.49 2835.6 267.21 2847.71 273.17 2835.6 284.7 2820.92 284.7 2762.18 223.13 2750.58 185.77" fill="#54548e"/>
    </g>
    <g>
      <polygon points="679.33 1399.82 690.07 1301.87 640.53 1227.81 518.72 1140.31 499.16 1163.31 396.47 1236.63 332.64 1359.02 359.78 1474.64 505.54 1490.86 679.33 1399.82" fill="#444377"/>
      <polygon points="690.07 1301.87 639.87 1244.12 522.03 1171.72 499.16 1163.31 518.72 1140.31 545.09 1137.54 662.19 1236.99 690.07 1301.87" fill="#54548e"/>
    </g>
    <g>
      <polygon points="2670.55 1409.1 2621.38 1374.98 2565.4 1321.1 2501.47 1164.56 2555.42 1055.16 2706.89 1093.5 2768.47 1203.02 2780.26 1318.63 2670.55 1409.1" fill="#444377"/>
      <polygon points="2621.38 1374.98 2590.33 1351.16 2525.3 1285.17 2501.47 1164.56 2538.71 1191.05 2587.23 1258.13 2568.22 1316.37 2630.88 1376.65 2621.38 1374.98" fill="#54548e"/>
    </g>
    <g>
      <polygon points="436.67 335.51 527.47 335.51 584.64 297.98 604.2 249.55 545.63 135.17 458.46 92 356.15 123.93 339.2 236.64 436.67 335.51" fill="#5e56af"/>
      <polygon points="436.67 335.51 527.47 335.51 584.64 297.98 604.2 249.55 565.81 281.67 485.03 287.32 402.97 301.33 436.67 335.51" fill="#7572cc"/>
    </g>
    <g>
      <polygon points="337.77 949.27 388.85 815.66 372.84 713.13 321.7 660.59 141.98 690.66 37.55 797.75 20.97 963.94 156.08 1044.17 337.77 949.27" fill="#5e56af"/>
      <polygon points="337.77 949.27 388.85 815.66 372.84 713.13 321.7 660.59 341.32 732.83 303.13 854.47 274.96 982.08 337.77 949.27" fill="#7572cc"/>
    </g>
    <g>
      <path d="M2597.85,911.39l-3.43-.57-6.69,5.21-6.69,12.86,14.01,7.71,7-2.1,2.8-14.01-7-9.1Z" fill="#444377"/>
      <path d="M2588.36,932.92c.07-.45,0-16.47,0-16.47l6.06-2.64v-2.98l-1.48-.25-7.16-.19-4.75,18.51,7.32,4.02h.01Z" fill="#54548e"/>
    </g>
    <g>
      <path d="M2214.59,968.36l14.28-31.51,25.55-3.85,17.16,20.66-20.89,25.09h-30.29l-5.81-10.39Z" fill="#a4a2f9"/>
      <path d="M2214.59,968.36l14.28-31.51,25.55-3.85-18.54,7.11-11.81,13.66-9.48,14.59Z" fill="#e3e3ff"/>
    </g>
  </g>
</svg>