<?xml version="1.0" encoding="UTF-8"?>
<svg xmlns="http://www.w3.org/2000/svg" xmlns:xlink="http://www.w3.org/1999/xlink" viewBox="0 0 768 1080">
  <defs>
    <radialGradient id="radial-gradient" cx="387" cy="297.57" fx="387" fy="297.57" r="1318.22" gradientTransform="translate(0 172.2) scale(1 .42)" gradientUnits="userSpaceOnUse">
      <stop offset="0" stop-color="#f8f8ff"/>
      <stop offset="1" stop-color="#fff" stop-opacity="0"/>
    </radialGradient>
    <linearGradient id="linear-gradient" x1="628.94" y1="559.67" x2="599.42" y2="392.8" gradientUnits="userSpaceOnUse">
      <stop offset="0" stop-color="#aea1e2"/>
      <stop offset="1" stop-color="#fff"/>
    </linearGradient>
    <linearGradient id="linear-gradient-2" x1="127.1" y1="566.27" x2="157.39" y2="398.07" xlink:href="#linear-gradient"/>
    <linearGradient id="linear-gradient-3" x1="378.12" y1="580.55" x2="378.12" y2="540.62" gradientUnits="userSpaceOnUse">
      <stop offset="0" stop-color="#c5c5ea" stop-opacity="0"/>
      <stop offset="1" stop-color="#c5c5ea"/>
    </linearGradient>
    <linearGradient id="linear-gradient-4" x1="386.52" y1="487.36" x2="386.52" y2="536.56" xlink:href="#linear-gradient-3"/>
    <linearGradient id="linear-gradient-5" x1="260.03" y1="514.5" x2="360.19" y2="540.72" xlink:href="#linear-gradient-3"/>
    <linearGradient id="linear-gradient-6" x1="498.09" y1="528.08" x2="389.31" y2="530.21" xlink:href="#linear-gradient-3"/>
    <linearGradient id="linear-gradient-7" x1="384" y1="461.74" x2="384" y2="1211.33" gradientUnits="userSpaceOnUse">
      <stop offset="0" stop-color="#f8f8ff"/>
      <stop offset=".13" stop-color="#ebebfc"/>
      <stop offset=".46" stop-color="#d3d3f7"/>
      <stop offset=".76" stop-color="#c5c4f4"/>
      <stop offset="1" stop-color="#c0bff3"/>
    </linearGradient>
    <linearGradient id="linear-gradient-8" x1="384" y1="433.31" x2="384" y2="1407.71" gradientUnits="userSpaceOnUse">
      <stop offset="0" stop-color="#c5c5ea" stop-opacity="0"/>
      <stop offset="1" stop-color="#7878b5"/>
    </linearGradient>
    <linearGradient id="linear-gradient-9" x1="211.07" y1="534" x2="263.9" y2="517.65" gradientUnits="userSpaceOnUse">
      <stop offset="0" stop-color="#c5c5ea" stop-opacity="0"/>
      <stop offset="1" stop-color="#7878ba"/>
    </linearGradient>
    <linearGradient id="linear-gradient-10" x1="224.82" y1="506.18" x2="262.68" y2="507.04" gradientUnits="userSpaceOnUse">
      <stop offset="0" stop-color="#c5c5ea" stop-opacity="0"/>
      <stop offset="1" stop-color="#b3b3e2"/>
    </linearGradient>
    <linearGradient id="linear-gradient-11" x1="245.5" y1="499.16" x2="290.74" y2="498.04" xlink:href="#linear-gradient-10"/>
    <linearGradient id="linear-gradient-12" x1="253.16" y1="492.53" x2="334.93" y2="490.51" xlink:href="#linear-gradient-10"/>
    <linearGradient id="linear-gradient-13" x1="186.63" y1="506.7" x2="217.95" y2="506.7" xlink:href="#linear-gradient-10"/>
    <linearGradient id="linear-gradient-14" x1="268.05" y1="611.87" x2="264.92" y2="529.9" gradientUnits="userSpaceOnUse">
      <stop offset="0" stop-color="#c5c5ea" stop-opacity="0"/>
      <stop offset="1" stop-color="#7b7baf"/>
    </linearGradient>
    <linearGradient id="linear-gradient-15" x1="243.49" y1="573.05" x2="258.9" y2="533.96" xlink:href="#linear-gradient-14"/>
    <linearGradient id="linear-gradient-16" x1="309.91" y1="568.26" x2="314.37" y2="553.36" xlink:href="#linear-gradient-10"/>
    <linearGradient id="linear-gradient-17" x1="356.13" y1="590.82" x2="353.37" y2="531.46" xlink:href="#linear-gradient-14"/>
    <linearGradient id="linear-gradient-18" x1="479.3" y1="491.13" x2="448.37" y2="491.13" xlink:href="#linear-gradient-10"/>
    <linearGradient id="linear-gradient-19" x1="518.66" y1="496.64" x2="477.66" y2="496.64" xlink:href="#linear-gradient-10"/>
    <linearGradient id="linear-gradient-20" x1="518.31" y1="503.29" x2="498.68" y2="503.29" xlink:href="#linear-gradient-10"/>
    <linearGradient id="linear-gradient-21" x1="559.36" y1="512.95" x2="517.95" y2="512.95" xlink:href="#linear-gradient-10"/>
    <linearGradient id="linear-gradient-22" x1="609.08" y1="511.24" x2="483.49" y2="510.01" xlink:href="#linear-gradient-10"/>
    <linearGradient id="linear-gradient-23" x1="265.04" y1="483.83" x2="478.04" y2="481.78" xlink:href="#linear-gradient-10"/>
    <linearGradient id="linear-gradient-24" x1="368.14" y1="478.07" x2="801.84" y2="473.89" xlink:href="#linear-gradient-10"/>
    <linearGradient id="linear-gradient-25" x1="-9356.39" y1="477.12" x2="-8922.69" y2="472.94" gradientTransform="translate(-9078.79) rotate(-180) scale(1 -1)" xlink:href="#linear-gradient-10"/>
    <linearGradient id="linear-gradient-26" x1="499.64" y1="566.78" x2="500.23" y2="541.95" xlink:href="#linear-gradient-14"/>
    <linearGradient id="linear-gradient-27" x1="596.21" y1="564.64" x2="509.89" y2="494.51" xlink:href="#linear-gradient-14"/>
    <linearGradient id="linear-gradient-28" x1="455.57" y1="646.35" x2="458.89" y2="505.57" xlink:href="#linear-gradient-14"/>
    <linearGradient id="linear-gradient-29" x1="478.33" y1="597.02" x2="479.43" y2="550.55" xlink:href="#linear-gradient-14"/>
    <linearGradient id="linear-gradient-30" x1="511.37" y1="485.84" x2="651.15" y2="493.99" xlink:href="#linear-gradient-3"/>
    <radialGradient id="radial-gradient-2" cx="384.4" cy="528.31" fx="384.4" fy="528.31" r="31.9" gradientUnits="userSpaceOnUse">
      <stop offset="0" stop-color="#c5c5ea" stop-opacity=".3"/>
      <stop offset="1" stop-color="#ababdb"/>
    </radialGradient>
    <linearGradient id="linear-gradient-31" x1="358.1" y1="535.85" x2="361.15" y2="525.65" xlink:href="#linear-gradient-10"/>
    <linearGradient id="linear-gradient-32" x1="357.78" y1="539.75" x2="360.45" y2="530.83" xlink:href="#linear-gradient-10"/>
    <linearGradient id="linear-gradient-33" x1="362.01" y1="533.89" x2="365.82" y2="521.16" xlink:href="#linear-gradient-10"/>
    <linearGradient id="linear-gradient-34" x1="368.39" y1="528.52" x2="370.25" y2="522.31" xlink:href="#linear-gradient-10"/>
    <linearGradient id="linear-gradient-35" x1="374.41" y1="535.49" x2="373.71" y2="539.9" xlink:href="#linear-gradient-10"/>
    <linearGradient id="linear-gradient-36" x1="374.77" y1="517.54" x2="373.72" y2="524.17" xlink:href="#linear-gradient-10"/>
    <linearGradient id="linear-gradient-37" x1="384.05" y1="517.69" x2="383.51" y2="521.13" xlink:href="#linear-gradient-10"/>
    <linearGradient id="linear-gradient-38" x1="391.62" y1="532.79" x2="390.72" y2="541.49" xlink:href="#linear-gradient-10"/>
    <linearGradient id="linear-gradient-39" x1="399.29" y1="530.89" x2="400.12" y2="538.62" xlink:href="#linear-gradient-10"/>
    <linearGradient id="linear-gradient-40" x1="399.35" y1="528.22" x2="408.26" y2="527.81" xlink:href="#linear-gradient-10"/>
    <linearGradient id="linear-gradient-41" x1="396.18" y1="518.67" x2="395.54" y2="522.74" xlink:href="#linear-gradient-10"/>
    <linearGradient id="linear-gradient-42" x1="405.27" y1="529.58" x2="403.68" y2="523.5" xlink:href="#linear-gradient-10"/>
    <linearGradient id="linear-gradient-43" x1="397.95" y1="526.29" x2="401.41" y2="522.15" xlink:href="#linear-gradient-10"/>
    <linearGradient id="linear-gradient-44" x1="371.41" y1="531.96" x2="370.77" y2="536.05" xlink:href="#linear-gradient-10"/>
  </defs>
  <g isolation="isolate">
    <g id="Layer_1" data-name="Layer 1">
      <rect y="0" width="768" height="490" fill="#dcd9ff"/>
      <rect width="768" height="1080" fill="url(#radial-gradient)" mix-blend-mode="screen"/>
      <path d="M768,361.81c-1.53.46-5.76,1.68-5.84,1.39-.09-.36-7.84,2.37-8.12,2.37s-5.65,5.65-5.65,5.65h-3.74s-5.65,3.92-5.65,4.2-6.11,1.73-6.11,1.73l-7.11,5.65-.91,5.29-4.83-.64-4.56,3.74-3.56,4.1h-4.56l-2.92,1.64-3.56-.73h-3.56l-2.1,2.28-2.74.73-3.28-1.09-6.02,3.92-.64,4.38h-4.1l-4.56,4.65,2.19,6.2-5.75.36-5.75,3.28-3.74,1-.91,4.56,1.55,3.28-6.84,1-5.75,4.29-5.47-1.92-.82-6.84-9.85-4.74-9.21.82-5.11,4.29-6.66,9.39-4.38,2.01-3.92,2.92s-4.74.64-5.2.64-11.04,2.88-11.04,2.88l-5.2,2.23-4.83-1.28,6.02-4.1-11.4-.27-9.21.91-4.01-3.83-4.83-.82-9.76-6.02-14.41-4.1-6.29,3.47-2.19,4.74h-2.83l-.46,1-2.55.82-.27,3.01,2.83,3.47-3.37,3.01.09,2.37,2.28.82-4.29.82-5.11-.82-9.3,4.29-5.29-.91-4.38,1.09-.64,3.37-4.71.95-5.14-2.04-6.57-1.04-3.1,1.95-6.02,2.1-7.84-.36-1.28,1.28h-12.59l-3.01,1.2,4.1,1.36,326.33,7.66v-109.01Z" fill="url(#linear-gradient)"/>
      <g>
        <path d="M631.31,432.87c-.78.29-7.19,2.01-7.19,2.01l-2.19-2.33,4.92-5.13,6.57.34,9.27-.55-.11-.91-9.85-4.74-9.21.82-5.11,4.29-6.66,9.39-4.38,2.01-3.92,2.92s-4.74.64-5.2.64-11.04,2.88-11.04,2.88l-5.2,2.23-4.83-1.28,6.02-4.1-11.4-.27-9.21.91,6.32-.63-4.12,3.22,6.23,3.69-8.21,1.67s-11.74-.44-12.31-.03c-.05.04-.05.04,0,0,0,0,0,0,0,0,.48-.35,5.33-3.97,5.33-3.97l-4.24-3.28-10.53,1.92-4.65-1.09,7.8-2.19.55-2.46-4.79,1.64-5.75-1.37h-3.69l11.08-6.02-5.39-3.99-6.64-1.89-6.29,3.47-2.19,4.74h-2.83l-.46,1-2.55.82-.27,3.01,2.83,3.47-3.37,3.01.09,2.37,2.28.82-4.29.82-5.11-.82-9.3,4.29-5.29-.91-4.38,1.09-.64,3.37-4.71.95-5.14-2.04-6.57-1.04-3.1,1.95-6.02,2.1-7.84-.36-1.28,1.28h-12.59l-3.01,1.2,30.46.25,17.1-1.45,3.87,1.2,17.06-3.59,47.47-6.36-2.19,3.8h7.25l3.01-4.48,21.07-.82,11.08-.82s24.9-7.11,26.68-7.25c.56-.04,2.79-.24,5.58-.48,1.78-3.17,4.76-8.41,5.3-8.92Z" fill="#fff"/>
        <path d="M739,375.41c0,.27-6.11,1.73-6.11,1.73l-7.11,5.65-.91,5.29-4.83-.64-4.56,3.74-3.56,4.1h-4.56l-2.92,1.64-3.56-.73h-3.56l-2.1,2.28-2.74.73-3.28-1.09-6.02,3.92-.64,4.38h-4.1l-4.56,4.65,2.19,6.2-5.75.36-5.75,3.28-3.74,1-.91,4.56,1.55,3.28-1.67,1.32-2.71,1.19-3.83,4.65s3.04.46,5.49.73l6.76-1.51,4.04-5.24.96-3.15,14.64-3.83-2.33-3.01,8.89-6.84h2.19l2.6-4.92,7.52-4.51,6.29-1.09,15.19-7.39,2.74-2.46,6.29-9.17,14.23-7.66-2.33-1.78-7.43.32Z" fill="#fff"/>
        <path d="M754.05,365.56c-.27,0-5.65,5.65-5.65,5.65l2.28,1.96,6.16-.14,1.64-4.51,2.46-4.65,1.23-.68c-.09-.36-7.84,2.37-8.12,2.37Z" fill="#fff"/>
      </g>
      <path d="M585.96,447.33l2.53-3.16c-.77.21-1.25.34-1.25.34l-5.2,2.23-4.83-1.28,3.28-2.23h-6.29l2.46,1.23-2.46,4.1,11.77-1.23Z" fill="#fafaff"/>
      <polygon points="0 493.06 308.6 462.04 298.48 458.7 288.18 456.42 282.34 455.77 271.39 450.86 271.39 447.49 262.82 445.48 260.07 445.48 256.71 443.46 253.15 442.84 247.23 439 242.03 439 237.65 437.91 233.82 437.91 232.18 437 218.5 441.1 201.71 446.85 205.82 452.96 201.17 452.69 197.34 451.5 183.02 450.22 180.65 448.22 173.9 447.58 169.52 446.3 169.52 443.93 156.93 438.64 151.83 438.46 139.79 433.17 132.04 429.76 125.19 431.53 132.76 436.63 129.03 439.37 123.1 441.01 119.54 438.37 116.53 433.81 109.96 432.62 92.91 424.78 91.63 418.85 88.9 415.93 86.34 412.83 72.48 410.55 61.53 410.55 56.06 407.63 51.87 407.08 52.32 403.16 47.31 391.3 40.92 385.47 30.62 384.1 30.25 379.08 20.31 373.34 8.82 373.34 4.81 373.89 0 368.43 0 493.06" fill="url(#linear-gradient-2)"/>
      <path d="M92.91,424.78l-1.28-5.93-2.74-2.92-2.55-3.1-13.86-2.28h-10.94l-5.47-2.92-4.2-.55.46-3.92-5.02-11.86-6.38-5.84-10.31-1.37-.36-5.02-9.94-5.75h-11.49l-4.01.55-4.81-5.46v11.23c5.73,1.98,11.25,3.92,11.92,4.26,1.46.73,10.76,10.58,10.76,10.58l.73,3.47-8.39-2.55-4.93.55-8.94-6.57-1.16,1.26v5.59l6.81,5.91,3.1,3.65,9.3,2.19-1.28-3.47,14.05,5.47-3.28-7.11,16.78,9.67,14.77,12.22,15.14-4.74,7.3,4.74-15.5,10.58-18.97-3.65-3.1.55-3.47-5.65-7.11-2.01,3.1-2.92-1.82-6.2-3.83,1.82-8.57-3.47,2.55,8.03-5.29,1.09-3.65-8.94-10.4,2.74-6.63-1.08v9.41l9.73-.67,10.58,6.2,11.67,2.92,20.25,7.11s-4.56-5.11-3.83-5.11,19.7,2.55,19.7,2.55l8.21-7.11,9.49-1.22,16.05,2.13-8.94-7.11Z" fill="#fff"/>
      <polygon points="86.52 437.36 85.07 440.65 100.93 447.03 120.82 448.67 128.66 447.94 122.28 443.46 123.1 441.01 119.54 438.37 116.53 433.81 109.96 432.62 97.65 436.45 86.52 437.36" fill="#fff"/>
      <polygon points="137.05 442.29 146.17 448.67 132.49 450.13 153.83 451.77 173.35 453.96 189.77 455.77 210.01 458.34 230.99 460 208.74 454.69 205.82 452.96 201.17 452.69 197.34 451.5 183.02 450.22 180.65 448.22 173.9 447.58 169.52 446.3 169.52 443.93 156.93 438.64 151.83 438.46 139.79 433.17 132.04 429.76 125.19 431.53 132.76 436.63 137.05 442.29" fill="#fff"/>
      <path d="M298.48,458.7l-10.31-2.28-5.84-.65-10.94-4.91v-3.37l-8.57-2.01h-2.75l-3.36-2.02-3.56-.62-5.93-3.83h-5.2l-4.38-1.09h-3.83l-1.64-.91-13.68,4.1-7.05,2.41,11.52.96,6.2,2.74s-8.21,3.65-7.3,3.65,11.86,5.65,12.4,5.65,21.34,1.09,21.34,1.09l19.85,2.39,16.05,2.05h17.09l-10.12-3.34Z" fill="#fff"/>
      <g>
        <path d="M550.53,449.93s0,0,0,0c-.05.04-.05.03,0,0Z" fill="none" stroke="#dddaf2" stroke-miterlimit="10" stroke-width=".75"/>
        <path d="M534.25,439.12l5.75,1.37,4.79-1.64-.55,2.46-7.8,2.19,4.65,1.09,10.53-1.92,4.24,3.28s-4.86,3.62-5.33,3.97c.57-.41,12.31.03,12.31.03l8.21-1.67-6.23-3.69,4.12-3.22-6.32.63-4.01-3.83-4.83-.82-9.76-6.02-7.77-2.21,5.39,3.99-11.08,6.02h3.69Z" fill="none" stroke="#dddaf2" stroke-miterlimit="10" stroke-width=".75"/>
      </g>
      <path d="M768,361.81c-.91,0-4.31,1.35-5.84,1.39,0,0,0,0,0,0h0s-1.23.68-1.23.68l-2.46,4.65-1.64,4.51-6.16.14-2.28-1.96h-3.74s-5.65,3.92-5.65,4.2l7.43-.32,2.33,1.78-14.23,7.66-6.29,9.17-2.74,2.46-15.19,7.39-6.29,1.09-7.52,4.51-2.6,4.93h-2.19l-8.89,6.84,2.33,3.01-14.64,3.83-.96,3.15-4.04,5.24-6.76,1.51c-2.44-.27-5.49-.73-5.49-.73l3.83-4.65,2.71-1.19,1.67-1.32h0s0,0,0,0l-6.84,1-5.75,4.29-5.47-1.92-.71-5.93-9.27.55-6.57-.34-4.92,5.13,2.19,2.33s6.41-1.72,7.19-2.01c-.54.51-3.52,5.75-5.3,8.92l-5.58.48-11.86,3.08-14.82,4.17-11.08.82-21.07.82-3.01,4.48h-7.25l2.19-3.8-18.23,2.44-29.25,3.92-17.06,3.59-3.87-1.2" fill="none" stroke="#dddaf2" stroke-miterlimit="10"/>
      <line x1="485.13" y1="460.6" x2="467.21" y2="462.11" fill="none" stroke="#c7c7e5" stroke-miterlimit="10" stroke-width=".5"/>
      <path d="M0,425.01h1.19s8.54-.6,8.54-.6l10.58,6.2,11.67,2.92,20.25,7.11s-4.56-5.11-3.83-5.11,19.7,2.55,19.7,2.55l8.21-7.11,9.49-1.22,16.05,2.13-8.94-7.11-1.28-5.93-2.74-2.92-2.55-3.1-13.86-2.28h-10.94l-5.47-2.92-4.2-.55.46-3.92-5.02-11.86-6.38-5.84-10.31-1.37-.36-5.02-9.94-5.75h-11.49l-4.01.55S.4,368.43,0,368.43" fill="none" stroke="#dddaf2" stroke-miterlimit="10"/>
      <polyline points="0 396.25 2 396.25 6.81 402.16 9.91 405.81 19.22 408 17.94 404.53 31.98 410 28.7 402.89 45.48 412.56 60.26 424.78 75.4 420.03 82.69 424.78 67.19 435.36 48.22 431.71 45.12 432.26 41.65 426.6 34.54 424.59 37.64 421.68 35.82 415.47 31.98 417.3 23.41 413.83 25.97 421.86 20.68 422.95 17.03 414.01 6.63 416.75 .81 415.8 0 415.8" fill="none" stroke="#dddaf2" stroke-miterlimit="10"/>
      <polyline points="0 389.39 1.16 389.39 10.1 395.96 15.02 395.41 23.41 397.96 22.68 394.5 11.92 383.92 5.48 381.57 .62 380.62 0 380.62" fill="none" stroke="#dddaf2" stroke-miterlimit="10"/>
      <polygon points="86.52 437.36 85.07 440.65 100.93 447.03 120.82 448.67 128.66 447.94 122.28 443.46 123.1 441.01 119.54 438.37 116.53 433.81 109.96 432.62 97.65 436.45 86.52 437.36" fill="none" stroke="#dddaf2" stroke-miterlimit="10"/>
      <polygon points="137.05 442.29 146.17 448.67 132.49 450.13 153.83 451.77 173.35 453.96 189.77 455.77 210.01 458.34 230.99 460 208.74 454.69 205.82 452.96 201.17 452.69 197.34 451.5 183.02 450.22 180.65 448.22 173.9 447.58 169.52 446.3 169.52 443.93 156.93 438.64 151.83 438.46 139.79 433.17 132.04 429.76 125.19 431.53 132.76 436.63 137.05 442.29" fill="none" stroke="#dddaf2" stroke-miterlimit="10"/>
      <path d="M298.48,458.7l-10.31-2.28-5.84-.65-10.94-4.91v-3.37l-8.57-2.01h-2.75l-3.36-2.02-3.56-.62-5.93-3.83h-5.2l-4.38-1.09h-3.83l-1.64-.91-13.68,4.1-7.05,2.41,11.52.96,6.2,2.74s-8.21,3.65-7.3,3.65,11.86,5.65,12.4,5.65,21.34,1.09,21.34,1.09l19.85,2.39,16.05,2.05h17.09l-10.12-3.34Z" fill="none" stroke="#dddaf2" stroke-miterlimit="10"/>
      <path d="M0,368.43c.53,0,4.81,5.46,4.81,5.46l4.01-.55h11.49l9.94,5.75.36,5.02,10.31,1.37,6.38,5.84,5.02,11.86-.46,3.92,4.2.55,5.47,2.92h10.94l13.86,2.28,2.55,3.1,2.74,2.92,1.28,5.93,17.06,7.84,6.57,1.19,3.01,4.56,3.56,2.64,5.93-1.64,3.74-2.74-7.57-5.11,6.84-1.77,7.75,3.41,12.04,5.29,5.11.18,12.59,5.29v2.37l4.38,1.28,6.75.64,2.37,2.01,14.32,1.28,3.83,1.19,4.65.27-4.1-6.11,16.78-5.75,13.68-4.1,1.64.91h3.83l4.38,1.09h5.2l5.93,3.83,3.56.62,3.36,2.02h2.75l8.57,2.01v3.37l10.94,4.91,5.84.65,10.31,2.28,10.12,3.34L0,493.06" fill="none" stroke="#bfb2ed" stroke-miterlimit="10"/>
      <path d="M768,470.81l-326.33-7.66-4.1-1.36,3.01-1.2h12.59l1.28-1.28,7.84.36,6.02-2.1,3.1-1.95,6.57,1.04,5.14,2.04,4.71-.95.64-3.37,4.38-1.09,5.29.91,9.3-4.29,5.11.82,4.29-.82-2.28-.82-.09-2.37,3.37-3.01-2.83-3.47.27-3.01,2.55-.82.46-1h2.83l2.19-4.74,6.29-3.47,14.41,4.1,9.76,6.02,4.83.82,4.01,3.83,9.21-.91,11.4.27-6.02,4.1,4.83,1.28,5.2-2.23s10.58-2.88,11.04-2.88,5.2-.64,5.2-.64l3.92-2.92,4.38-2.01,6.66-9.39,5.11-4.29,9.21-.82,9.85,4.74.82,6.84,5.47,1.92,5.75-4.29,6.84-1-1.55-3.28.91-4.56,3.74-1,5.75-3.28,5.75-.36-2.19-6.2,4.56-4.65h4.1l.64-4.38,6.02-3.92,3.28,1.09,2.74-.73,2.1-2.28h3.56l3.56.73,2.92-1.64h4.56l3.56-4.1,4.56-3.74,4.83.64.91-5.29,7.11-5.65s6.11-1.46,6.11-1.73,5.65-4.2,5.65-4.2h3.74s5.38-5.65,5.65-5.65,8.03-2.74,8.12-2.37c.08.3,4.45-1.4,5.84-1.4" fill="none" stroke="#bfb2ed" stroke-miterlimit="10"/>
      <g>
        <polygon points="224.79 435.52 231.09 437.16 244.63 438.8 231.91 435.52 224.79 435.52" fill="#e6e6fc" opacity=".3"/>
        <polygon points="397.44 420.44 395.8 418.96 387.41 420.44 390.24 420.44 397.44 420.44" fill="#e6e6fc" opacity=".3"/>
        <polygon points="243.81 432.8 227.25 428.56 227.25 427.06 211.66 425.42 226.71 429.93 243.81 432.8" fill="#e6e6fc" opacity=".3"/>
        <polygon points="237.75 421.75 219.63 416.82 212.84 412.31 201.64 411.35 196.4 407.93 188.22 403.69 185.28 400.41 177.76 398.76 171.87 395.69 182.99 396.99 192.31 399.86 208.83 401.36 231.24 404.65 249.56 408.07 260.19 410.94 291.11 414.18 303.87 417.1 268.04 406.02 241.06 390.15 230.59 381.53 218.98 381.53 196.08 373.18 202.62 372.13 184.79 359.5 154.2 328.04 145.17 323.38 146.35 306.69 138.77 306.69 130.16 298.49 150.28 302.18 138.77 292.74 101.85 231.86 85.07 173.21 65 106 79.1 112.39 68 85 73 68 68.08 0 0 0 0 365.02 10.92 368.8 42.81 377.42 42.16 374.14 71.44 384.81 67.19 386.59 104.97 401.36 152.57 409.98 173 413.95 170.34 413.79 182.52 416.94 191.39 417.44 209.98 420.79 229.93 422.84 237.75 421.75" fill="#e6e6fc" opacity=".3"/>
        <polygon points="488.92 425.93 480.89 426.84 471.59 428.33 484.45 427.83 488.92 425.93" fill="#e6e6fc" opacity=".3"/>
        <polygon points="449.7 437.06 447.42 436.42 444.05 437.06 449.7 437.06" fill="#e6e6fc" opacity=".3"/>
        <polygon points="476.61 430.93 472.5 430.49 466.94 432.41 476.61 430.93" fill="#e6e6fc" opacity=".3"/>
        <path d="M402.91,427.12l6.11.18,11.77-1,10.03-.76,4.74-1.73,11.04-.12,3.37-.58,13.22-2.01,15.41-3.01-8.05-.27,11.61-1.55,15.23-4.47-17.15.64-5.56.36h-3.89l-1.4,2.1-8.48.64-12.5,2.28s-2.83,2.64-3.1,2.64,4.2.73,4.2.73l-7.02,2.07h-7.21l5.29-2.07h-5.29l-6.29,2.07-17.97,1.03-17.69,3.54,9.58-.72Z" fill="#e6e6fc" opacity=".3"/>
        <polygon points="245.72 427.98 238.2 427.98 249.69 431.27 256.67 431.27 261.18 431.27 255.16 429.21 245.72 427.98" fill="#e6e6fc" opacity=".3"/>
        <polygon points="461.57 449.64 459.82 448.46 448.88 448.96 446.69 450.28 442.13 450.91 441.4 450.28 436.11 450.28 427.99 451.55 441.06 451.89 459.82 451.55 484.63 449.41 491.65 447.27 469.49 448.96 461.57 449.64" fill="#e6e6fc" opacity=".3"/>
        <path d="M768,0h-88l-6,119,9,21-13,27,18,3-50.88,64.18-44.74,71.41,14.27-4.88-57.19,62.57,4.83.36-12.4,8.12-18.15,8.76-3.83,6.75,1.19,4.2-2.28,1.46-1.73,3.37-6.84.46-5.93.91s-8.21,2.19-8.48,2.28c-.27.09,2.01,1,2.01,1l10.76-.82-9.94,2.46-15.56,6.29,20.49-2.55,29.46-6.02,21.62-7.57,15.42-2.74-1.92,4.65-5.02,2.19,1.64,1.28-10.4,3.37-12.68,5.93,19.43-3.28,6.2-1.73s-3.37,2.92-4.01,2.92c-.58,0,5.17.52,6.49.55-1.44.11-8.31.81-8.31.81l-14.32,6.29-11.13,1.55h-4.29l-9.67,3.92-16.6,1.36h16.33l6.26,1.33,27.79-3.61,10.71-4.67,21.88-5.52,17.57-1.8,2.52-2.97-9.83-1.17,29.27-6.47,40.52-10.39,1.48-1.91,11.35-1.91,17.18-7.13s-5.09-1.25-5.41-1.25,8.83-3.98,8.83-3.98l38.58-8.57s13.82-4.73,27.45-9.47V0Z" fill="#e6e6fc" opacity=".3"/>
        <polygon points="487.19 427.39 481.99 429.5 492.75 429.5 496.21 431.67 523.3 426.02 502.51 425.53 487.19 427.39" fill="#e6e6fc" opacity=".3"/>
        <path d="M299.31,422.69l-9.03-2.83h-14.5s-13.41-.91-13.13-.73c.27.18,8.66,2.83,8.94,2.92.27.09,19.88,2.46,19.88,2.46,0,0,4.38,1.55,4.74,1.55s11.67.27,11.67.27l5.75,1.92,12.68-.46-9.58-2.83-17.42-2.28Z" fill="#e6e6fc" opacity=".3"/>
        <polygon points="413.04 441.06 408.2 441.06 406.11 439.58 398.08 439.58 390.97 444.61 384.67 441.06 377.56 442.7 376.01 444.52 370.63 445.25 367.98 447.26 402.55 447.26 405.28 445.89 407.43 448.03 414.5 448.03 424.24 446.62 416.23 444.34 413.04 441.06" fill="#e6e6fc" opacity=".3"/>
        <path d="M352.93,419.99l-12.49,1.19,15.05,1.19s7.75-.46,8.39-.46,1.92-.73,1.92-.73h-8.57l-4.29-1.19Z" fill="#e6e6fc" opacity=".3"/>
      </g>
      <rect y="0" width="768" height="489.6" fill="none"/>
      <g>
        <path id="Orig_Path" data-name="Orig Path" d="M372.8,557.75h5.11l-.36,3.87h2.27l1.14-3.87,27.99-.56,14.42-1.31,3.59,2.99,4.26-2.34.32-1.78h4.19l3.77,3.12,1.07-1.62-1.14-2.12,17.19-2.37,32.61-5.06,28.84-10.55,5.01-4,.75-8.38s.78-1.04.99-1.04-2.69-.62-2.69-.62l-3.59-1.82-.7-.78.7-4.58-4.54-2.03-4.82.47-3.9-2.37-.13-.96-3.36-5.13-1.36-1.3-2.52-1.4-3.93-3.69-2.5-.58-8.22.39-.73-.72-1.14-.56-7.51-.95-9.38-2.76h-5.9l-5.33-1.75h-2.4l-3.36-1.37-9.73-.28h-4.33l-3.38-1.37-9.8-1.22-9.8-.94h-73.98l-10.28.77-5.67,2.04-2.56,1.67-8.62-.22-1.42-.61-2.1-.16-3.04.58-4.87.73-7.46-.06-8.67.75-8.33,1.04-2.96.56-1.9,1.62,1.9,1.62,10.63.5-1.08.39-6.59,1.7h-7.51l-3.55.81-2.98.75-5.25,3.06-1.47-1.58-1.17-.37-1.95,2.39.39,3.81-2.46.76-1.56,1.05-5.01,6.18-1.35,2.06-2.16.45-4.74,2.98,5.4,6.8,14.14,9.24,16.37,8.05s-5.18,3-4.91,2.93,4.52-.06,4.91-.12,4.45-1.25,4.45-1.25l26.85,5.06s-.57.81-.28.81,15.56,1.06,15.56,1.06l6.89.75,1.14.88,5.83.5,1.92.56,6.82.37.07,2.31,2.49-1.75,15.91.19,12.79-.31,1.28,2.06h1.35l1.14-2.06Z" fill="#eef"/>
        <path d="M383.04,517l-5.35,1.56-5.27-.03-3.76.69-6.16,2.75h-7.62s-5.95-.75-6.43,0-5.43,0-5.43,0h-7.13l3.08,1.59-.74,1.34-6.23,1.19-7.75-.17,5.23,1.93,6.41,1.25-3.1,2.62-3.32.85h3.32v2.73l-3.32,1.98-1.08,2.16s4.88.06,5.67-.1,6.29,0,6.29,0l1.23,2.72-1.25,2.71,7.01-1.52s-2.93,1.36-2.18,1.52,8.16-1.52,8.16-1.52l-.25,2.61-2.4,3.24s3.43-1.3,4.77-1.77,5.09-2.71,5.09-2.71l4.56-.52.64,2.96,5.11-4.39h5.75l1.55,3.21,3.32-3.21-.47,2.59v3.85l2.07-3.24,2.56-2.61,1.68.84,2.07,1.16,1.72-2,3.85,1.84,4.14,2.88-.56-3.2,1.18-2.15,1.89-1.6,5.28,2.22,2.95,1.84h3.36l-.89-1h4.73l5.71.68-2.58-2.11-1.54-1.84,5.91,1.08h5.57l-7.37-1.68-4.84-2.6,6.63-.34,7.51-1.06-3.37-.32,9.44-2.64h5.91l-12.47-1.85h-5.11l9.27-1.59,8.31-4.93,6.87-4.42-8.09,1.49-8.86,2.93,4.48-3.93,2.07-1.87-8.94,4.14h-3.91l4.87-4.14-7.35,2.87h-4.87l7.36-4.21h-4.92l-2.58-.76,2.58-3.22v-1.99l-6.35,3.82-5.47,1.39,2.28-2-6.3,3.53h-5.28l-2.52-1.53-3.14.92-3.86,1.04-2.71-1.96-2.84,1.56-.92-1.56h-2.56Z" fill="#fff"/>
        <polygon points="371.65 550.45 368.08 553.19 365.06 550.87 359.31 554.15 355.83 554.15 359.07 551.29 361.22 547.35 358.47 549.15 355.1 551.44 349.36 554.15 349.36 551.44 341.68 553.19 347.44 549.01 350.07 545.86 341.68 549.15 335.93 551.29 332.09 551.87 326.22 553.19 326.22 551.72 322.51 553.19 315.67 554.3 322.08 555 323.22 555.88 329.04 556.37 330.96 556.94 337.78 557.31 337.85 559.62 340.34 557.87 369.04 557.75 370.32 559.81 371.67 559.81 372.8 557.75 377.92 557.75 377.56 561.62 379.84 561.62 380.97 557.75 408.96 557.19 423.38 555.88 426.97 558.87 431.23 556.53 431.55 554.75 435.74 554.75 439.51 557.87 440.57 556.25 439.44 554.13 433.47 549.76 433.47 552.15 428.71 551.08 423.32 549.58 424.4 551.08 418.67 548.87 417.57 551.08 418.67 552.58 416.49 552.15 414.09 548.58 409.77 548.15 410.48 551.29 409.41 553.19 404.38 550.01 401.14 548.01 403.54 551.08 402.46 552.44 398.42 554.87 396.11 554.3 394.67 548.58 393.22 548.87 393.22 552.01 390.54 552.01 389.8 549.29 389 549.87 387.81 553.87 385.98 552.29 384 554.3 384.94 547.15 382.8 551.29 379 555.3 379.31 552.85 378.78 550.53 377.17 549.01 375.98 551.29 376.09 549.29 375.55 546.08 371.65 550.45" fill="url(#linear-gradient-3)"/>
        <path d="M379.44,508.58l-3.74-2.44-3.81-6.56-.72-3.66-2.11-1.99,1.15,2.42-.12,5.22,1.08,4.58-4.32-3.37v2.51l-3.72-2.51-1.08-7.85-.24,6.22.24,2.79,1.08,3.92-1.44,1.71-4.84-2.57.88,3-5.87-5.4-4.44-8.32.48,6.5,1.92,5.81-2.64-1.59-2.06-4.22.51,3.37s-2.04-1.15-2.88-1.55-1.68-3.45-1.68-3.45l-3.72-6.22.63,2.66,2.32,6.44,1.25,4.56,3.57,4.57-2.73-.42-5.87-2-3.76-6.8v2.21l-2.6-1.55-2.64-3.97-2.15-2.69v3.53l2.15,3.91,2.22,7.36,6.12,1.05,5.69,2.64,4.8.57-2.52-2h3.72l.6-1.21-1.8-4.22,4.19,1.16,6.31,3.06v-1.42l1.6-.57,3.6.57,2.94,2.07-1.86-3.7,5.92,2.44-.52-1.38-.12-3.2,4.2,2.14.12-3.73,2.28,1.59,5.71,2.14.25-3.73,2.19,2.57,1.32,1.16,2.28-2.14.52-3.31.56,4.43v1.02l3.72-2.14,3.25-1.59.59-3.06.6,3.78-1.19,3.02,3.71-.45,5.27-4.82,2.76-4.84-.72,4.84-2.28,3.12,1.68,3.2,4.44-1.65,5.87-4.68,1.56-2.69-1.2,5.08-1.32,2.88,5.72-1.45,2.91-2.29-2.04,4.8-2.49,1.99,2.85-.63,3.6-2.42-1.2,3.06-2.04,1.83h5.39l6.19-3.82,4.24-5.65-2.28,5.65,3.36-2.08,3.24-2.72-2.28,3.73h1.68l-2.62,2.1,5.8-2.05,3.06-8-.84-4.32-1.44,5.57-1.68,1.44.6-2.69-.24-3.19-1.68,3.19-3.12-1.63-.48,1.63-2.88,1.82v-3.13l-1.44,2.57-2.88,2.12h-2.88l2.06-5.53.58-2.16-5.63,5.48-2.17,1.35-1.68-1.25-1.59-2.88-2.72-4.79v4.27l-5.75,4.66-2.4-1.35-1.8-3.32-.36-8.13-.6,5.1-3,3.87-2.4,1.32-1.8,1.16.9-3.32v-4.27l-2.58,5.11-.48-7.53-1.2-4.02v7.68l-1.31,3.55-3.76,2.88v-4.73l-1.05,3.47-2.04-2.32.24-5.53-1.68,7.85-2.52,1.82-1.2-3.97-2.08,2.16-4.03-1.63-1.8-3.55.82,3.87,3.74,7.13Z" fill="url(#linear-gradient-4)"/>
        <polygon points="344.52 558.06 348.76 557.31 351.99 556.64 353.79 555.66 353.79 557.31 359.94 557.31 366.14 556.76 367.58 554.47 369.04 557.75 356.25 558.06 344.52 558.06" fill="#9b9bc4"/>
        <path d="M337.99,542.24l-21.6.76s-6.81-2.2-6.53-2.29,5.68-2.29,5.68-2.29l9.52-2.03s5.61-3.18,5.19-2.99-15.06,0-15.06,0h-5.01s-4.79-2.25-4.79-2.25l8.88-2.64-4.76-3.73,12.18-4.09,8.06-7.98-2.22-7.36h-4.31l-4.33-2.25-2.84-3.56s.85,3.66,1.49,4.37,3.01,3.08,3.01,3.08l-7.41-.5-5.19-5.9,1.71,5.53-1.42,2.44h-1.21l-4.22-5.47,1.38,6.01.36,1.59-3.41-.66s-4.97-3.35-5.4-3.92-1.92-2.86-1.92-2.86c0,0,1.21,3.47,1.42,3.81s3.84,4.4,3.84,4.4l1.42,1.23h-2.42l-6.18-5.71v2.63l-2.27-.34-3.19-1.77v2.79l.41,1.61-5.69-2.63-3.53-5.37s2.57,5.2,2.46,5.62,2.8,4.23,2.8,4.23l6.46,3.14-3.77.34-1.85.59-8-3.22,6.06,4.32,8.12,2.33-3.4,2.14-4.2.21-2.77,1.53-3.27.86-.23,1.63,1.94,1.74v.73l-4.8-.73-7.01-3.76,1.15,2.88-1.99.4-6.61-2.5-5.26-2.42,5.11,4.01,8.38,3.98v2.78l-4.83-1.36s-5.4-3.28-5.54-3.53-6.18-6.61-6.18-6.61l-4.97-.76s6.32,6.05,6.54,6.41,4.05,3.86,4.05,3.86l6.54,3.2,4.12,2.03,1.95,1.42,4.56,6.03,34.42,11.09,12.96,1.19,3.04-7.03-3.04-2.54-8.2,1.69,6.46-5,11.44-.25,1.42-.52,6.32-1.85Z" fill="url(#linear-gradient-5)"/>
        <path d="M441.35,543.45l7.17-1.84,5.92-3.55-5.63,1.51-14.77-1.14,15.95-2.87,3.73-2.16,5.14-2.24h-6.03s8.35-4.78,8.35-4.78l-3.57-.6,9.19-5.83-12.91,3.1,6.51-6.33-20.31,3.22,11.01-4.65-8.59-1.95-3.73-.53,5.8-2.05,5.16-10.32-1.78,5.46v1.12l-1.06,3.16,2.6.33,6.34-4.21-.05,2.28.16,2.32,5.66-7.79-1.48,6.01-.38,1.59v3.4s5.02-2.96,5.02-2.96l6.81-6.27-2.55,4.1-2.25,3.02-1.18.7h1.09l4-2.94,1.01,1.91,4.07-2.4,2.56-2.27.86,3.29-2.75,4.07,5.82-2.7,6.4-7.76s-2.76,5.2-2.64,5.62-2.42,4.51-2.42,4.51l-7.53,2.86,4.04.34,2.81.28,6.78-.8-5.53,2.21-8.72,2.33,3.65,2.14,2.89,1.29-4.03,3.16,12.13-1.85-3.84,2.5-8.88,4.25,11.43-3.07,4.61-.31,7.53-3.76-6.46,5.14-8.05,2.67,7.77-.17,9.57-2.26,5.32-3.01-4.48,4.45-4.52,2.3,5.19-1.36,5.95-3.53,4.03-3.49-5.2,6.28-5.24,3.31-4.42,2.03-2.09,1.42-4.89,6.03-36.95,11.09-13.91,1.19-9.11-7.98,8.05,1.58,5.54-.82-5.54-2.34-6.4-3.35,6.22-1.38Z" fill="url(#linear-gradient-6)"/>
        <polygon points="312.24 554.05 316.01 552.78 321.98 553.28 325.56 554.05 330.14 554.92 336.02 553.85 337.99 552.1 336.33 555.66 336.41 557.31 330.96 557.31 329.04 556.37 323.22 555.88 322.08 555 312.24 554.05" fill="#9b9bc4"/>
        <polygon points="383.04 557.72 386.52 556.27 389.01 554.7 391.04 555.88 394.8 555.88 398.03 555.88 401.26 556.27 408.93 555.97 408.1 554.47 412.05 556.09 419.1 556.27 408.96 557.19 383.04 557.72" fill="#9b9bc4"/>
        <polygon points="435.74 554.75 435.74 553.19 433.94 551.29 437.93 553.02 439.44 554.13 440.57 556.25 439.51 557.87 435.74 554.75" fill="#9b9bc4"/>
        <polygon points="298.73 533.41 299.63 530.92 301.44 529.1 294.88 530.92 290.9 531.42 285.1 532.55 281.15 533.11 290.74 534.35 294.88 534.35 298.73 533.41" fill="#eef"/>
        <ellipse cx="384" cy="528.55" rx="28.59" ry="9.99" fill="none"/>
        <polygon points="358.75 533.7 359.94 533.7 361.3 534.44 360.34 535.57 357.63 537.45 353.55 539.34 356.78 536.73 358.51 535.2 353.55 535.94 357.43 533.47 357.43 532.55 358.75 533.7" fill="#b2b2db"/>
        <polyline points="354.43 528.55 354.63 529.28 354.43 529.88 353.79 530.33 351.45 531.1 353.55 529.83 354.09 528.86 354.43 528.55" fill="#b2b2db"/>
        <polygon points="355.1 531.88 355.95 532.55 355.95 533.5 354.87 534.35 354.87 533.11 355.1 531.88" fill="#b2b2db"/>
        <polygon points="410.89 525.15 413.17 527.47 415.57 528.15 418.6 528.15 413.17 526.65 410.89 525.15" fill="#b2b2db"/>
        <polygon points="413.73 529.62 413.17 530.86 414.21 531.25 416.13 531.42 417.89 531.25 415.53 530.52 413.73 529.62" fill="#b2b2db"/>
        <polygon points="409.81 534.35 410.48 534.86 412.59 535.9 414.75 538.06 412.59 536.92 410.48 535.9 409.81 534.35" fill="#b2b2db"/>
        <path d="M411.97,533.11l1.2-1.23h4.08s3.28,1.3,3.68,1.38,2.88,0,2.88,0l-5.51.68-3.54-.68-2.47,1.08-.31-1.23Z" fill="#b2b2db"/>
        <polyline points="405.82 535 404.46 536.15 402.78 537.62 400.36 538.54 401.58 538.86 403.09 539.66 404.3 541.05 404.46 539.34 405.26 537.28 405.82 536.92 408.69 537.62 409.09 535.9 408.33 534.86 405.82 535" fill="#b2b2db"/>
        <polygon points="407.5 539.34 408.33 540.54 409.81 541.73 410.89 542.29 409.19 540.81 407.5 539.34" fill="#b2b2db"/>
        <polygon points="355.95 525.91 353.79 526.69 350.64 528.15 354.43 527.11 355.95 525.91" fill="#b2b2db"/>
        <polygon points="389.99 540.22 391.35 539.34 392.31 539.34 393.35 540.81 393.83 541.89 391.91 540.61 389.99 540.61 389.35 540.22 389.99 540.22" fill="#b2b2db"/>
        <polygon points="371.29 539.34 373.21 539.34 374.08 539.34 375.37 539.34 374.23 540.22 372.65 540.61 372.09 539.98 371.29 539.34" fill="#b2b2db"/>
        <polyline points="359.19 542.06 357.79 543.25 356.87 543.25 358.43 542.29" fill="#b2b2db"/>
        <polygon points="343 531.88 339.89 533.26 334.9 533.26 338.21 532.55 339.97 532.55 343 531.88" fill="#b2b2db"/>
        <polygon points="479.5 513.36 478.64 515.61 474.38 519.96 472.15 521.57 477.5 519.96 480.14 517.26 480.71 515.61 482.28 511.69 479.5 513.36" fill="#fff"/>
        <polygon points="334.85 498.45 334.85 500.45 335.87 502.77 337.01 506.52 335.87 505.28 334.25 501.56 334.25 500.45 334.85 498.45" fill="#fff"/>
        <polygon points="314.59 520.38 321.69 520.71 325.12 521.97 326.94 522.84 324.22 522.47 320.77 521.61 317.47 521.57 314.59 520.38" fill="#fff"/>
        <path d="M338.95,519.51l-2.42-.96v-1s.74-.36,1.21,0,1.55.72,1.55.72l-.34,1.24Z" fill="#fff"/>
        <polygon points="348.76 520.38 346.36 519.51 344.52 519.1 347.32 519.1 349.36 519.74 350.64 520.97 348.76 520.38" fill="#fff"/>
        <polygon points="353.55 514.99 353.79 516.32 354.87 517 355.95 517.68 355.41 517 354.43 516 353.55 514.99" fill="#fff"/>
        <polygon points="361.86 515.61 361.3 516.34 362.42 517 363.94 518.55 365 519.46 364.18 517.68 363.62 516.34 361.86 515.61" fill="#fff"/>
        <polygon points="369.02 518 369.97 517.4 371.29 517.4 372.41 517 372.81 517 372.41 518.52 370.49 518.46 369.02 518" fill="#fff"/>
        <polygon points="376.73 518.46 375.37 517.4 374.03 515.61 373.33 514 375.37 515.61 378.12 516.34 379.04 517.68 380.52 518.63 376.73 518.46" fill="#fff"/>
        <polygon points="390.61 515.61 392.23 514 394.8 514 398.51 512.8 397.91 514.99 394.92 515.61 392.79 515.61 390.61 515.61" fill="#fff"/>
        <polygon points="402.86 516.34 404.3 517.4 405.82 516.87 406.3 515.61 404.73 516.31 402.86 516.34" fill="#fff"/>
        <polygon points="382.02 514.99 382.02 515.61 383.8 515.61 384 514.99 382.64 514 382.02 514.99" fill="#fff"/>
        <polygon points="458.68 541.05 460.48 539.98 462.88 540.61 464.8 541.89 460.72 543.09 458.68 542.29 458.68 541.05" fill="#fff"/>
        <polygon points="335.63 546.45 332.21 547.32 330.96 548.75 329.46 550.44 332.54 548.45 334.9 547.32 335.63 546.45" fill="#fff"/>
        <polygon points="325.12 539.43 323.58 539.98 322.5 539.34 324.22 538.54 326.22 538.9 325.12 539.43" fill="#fff"/>
        <path d="M326.22,487.16l-5.67,2.04-4.3,1.71-3.85.1-3.52.55-.93-.34-4.1.22-1.36,1.53-3.73.49-8.58-.07-7.15.43-1.19.78-.68,2.62-1.08.39-6.59,1.7h-7.51l-3.55.81-2.98.75-5.25,3.06-1.47-1.58-1.17-.37-1.95,2.39.39,3.81-2.46.76-1.56,1.05-5.01,6.18-1.35,2.06-2.16.45-4.74,2.98,5.4,6.8,14.14,9.24,16.37,3.45s-5.18,3-4.91,2.93c.27-.06,4.52-.06,4.91-.12s4.45-1.25,4.45-1.25l26.85,9.66s-.57.81-.28.81,15.56,1.06,15.56,1.06l6.89.75,1.14.88,5.83.5,1.92.56,6.82.37.07,2.31,2.49-1.75,15.91.19,12.79-.31,1.28,2.06h1.35l1.14-2.06h5.11l-.36,3.87h2.27l1.14-3.87,27.99-.56,14.42-1.31,3.59,2.99,4.26-2.34.32-1.78h4.19l3.77,3.12,1.07-1.62-1.14-2.12,17.19-2.37,32.61-5.06,28.84-10.55,5.01-4,.75-8.38s.78-1.04.99-1.04-2.69-.62-2.69-.62l-3.59-1.82-.7-.78.7-4.58-4.54-2.03-4.82.47-3.9-2.37-.13-.96-3.36-5.13-1.36-1.3-2.52-1.4-3.93-3.69-2.5-.58-8.22.39-.73-.72-1.14-.56-7.51-.95-9.38-2.76h-5.9l-5.33-1.75h-2.4l-3.36-1.37-9.73-.28h-4.33l-3.38-1.37-9.8-1.22-9.8-.94h-73.98l-10.28.77Z" fill="none"/>
        <path d="M0,466.8v613.2s768,0,768,0V466.8s-124.92-5.07-384-5.07S0,466.8,0,466.8ZM420.29,487.33l9.8,1.22,3.38,1.37h4.33l9.73.28,3.36,1.37h2.4l5.33,1.75h5.9l9.38,2.76,7.51.95,1.14.56.73.72,8.22-.39,2.5.58,3.93,3.69,2.52,1.4,1.36,1.3,3.36,5.13.13.96,3.9,2.37,4.82-.47,4.54,2.03-.7,4.58.7.78,3.59,1.82s2.9.62,2.69.62-.99,1.04-.99,1.04l-.75,8.38-5.01,4-28.84,10.55-32.61,5.06-17.19,2.37,1.14,2.12-1.07,1.62-3.77-3.12h-4.19l-.32,1.78-4.26,2.34-3.59-2.99-14.42,1.31-27.99.56-1.14,3.87h-2.27l.36-3.87h-5.11l-1.14,2.06h-1.35l-1.28-2.06-12.79.31-15.91-.19-2.49,1.75-.07-2.31-6.82-.37-1.92-.56-5.83-.5-1.14-.88-6.89-.75s-15.27-1.06-15.56-1.06.28-.81.28-.81l-26.85-9.66s-4.05,1.19-4.45,1.25-4.65.06-4.91.12c-.27.06,4.91-2.93,4.91-2.93l-16.37-3.45-14.14-9.24-5.4-6.8,4.74-2.98,2.16-.45,1.35-2.06,5.01-6.18,1.56-1.05,2.46-.76-.39-3.81,1.95-2.39,1.17.37,1.47,1.58,5.25-3.06,2.98-.75,3.55-.81h7.51l6.59-1.7,1.08-.39.68-2.62,1.19-.78,7.15-.43,8.58.07,3.73-.49,1.36-1.53,4.1-.22.93.34,3.52-.55,3.85-.1,4.3-1.71,5.67-2.04,10.28-.77h73.98l9.8.94Z" fill="url(#linear-gradient-7)"/>
        <path d="M684.73,497.61l-32.18,3.53,9.59,3.3-18.75,2.16-28.98,1.69,12.57,4.6-4.05,6.58-41.56,6.48-55.56.47-2.26.54-.46,5.18-5.01,4-28.84,10.55-32.61,5.06-17.19,2.37,1.14,2.12-1.07,1.62-3.77-3.12h-4.19l-.32,1.78-4.26,2.34-3.59-2.99-14.42,1.31-27.99.56-1.14,3.87h-2.27l.36-3.87h-5.11l-1.14,2.06h-1.35l-1.28-2.06-12.79.31-15.91-.19-2.49,1.75-.07-2.31-6.82-.37-1.92-.56-5.83-.5-1.14-.88-6.89-.75s-15.27-1.06-15.56-1.06.28-.81.28-.81l-26.85-9.66-4.45,1.25-4.91.12,4.91-2.93-15.58-5.69-11.72-9.52,1.43-3.13-2.05-.29-.48-1.34-2.76-.57,2.16-1.15-.21-.67-.63-2.05-32.69,1.78-29.62-2.09-16.84-1.44,19.82-6.71-20.59-9.14,16.84-1.22,27.61-.07,41.72-4.95-45.53-.75-27.07-6.7-48.16,4.47-4.69-5.31-13-1.03L0,485.43v594.57s768,0,768,0V495.7l-83.27,1.91Z" fill="url(#linear-gradient-8)"/>
        <polyline points="245.96 512.73 232.72 514.99 214.03 516.52 186.9 516.52 206.93 524.03 216.43 533.41 216.43 541.16 252.25 537.71 268.62 541.16 253.03 535.47 241.31 525.95 242.74 522.81 240.69 522.52" fill="url(#linear-gradient-9)"/>
        <polygon points="249.85 506.93 245.43 508.58 225.97 508.58 243.44 506.93 249.59 504.37 249.85 506.93" fill="url(#linear-gradient-10)"/>
        <polygon points="265.47 499.34 261.2 499.56 244.44 499.56 262.29 498.45 270.44 497.58 273.47 498.45 280.07 498.45 274.25 499.37 267.24 499.58 265.47 499.34" fill="url(#linear-gradient-11)"/>
        <polygon points="299.99 490.92 251.19 490.92 276.83 491.87 290.5 492.43 297.55 492.96 301.05 492.43 302.8 492.96 303.84 491.43 307.94 491.22 315.63 490.92 299.99 490.92" fill="url(#linear-gradient-12)"/>
        <polygon points="201.65 504.81 200.82 505.08 200.74 505.79 200.32 505.25 199.63 505.47 199.11 507.27 194.71 508.58 185.76 508.58 195.35 507.44 197.39 506.41 199.57 505.05 201.65 504.81" fill="url(#linear-gradient-13)"/>
        <polygon points="299.63 553.19 289.19 560.79 275.72 573.06 260.42 583.98 203.26 617.67 281.15 586.95 302.8 575.59 319.88 562.19 320.55 565.49 330.43 561.62 330.96 556.94 329.04 556.37 323.22 555.88 322.08 555 299.63 553.19" fill="url(#linear-gradient-14)"/>
        <polygon points="267.67 547.32 252.71 553.19 227.76 561.62 255.73 556.09 261.59 553.19 268.62 552.03 273.17 549.1 265.22 549.99 267.67 547.32" fill="url(#linear-gradient-15)"/>
        <polygon points="299.63 553.19 307.84 556.85 318.49 556.85 320.55 558.76 328.38 555.97 323.22 555.88 322.08 555 299.63 553.19" fill="url(#linear-gradient-16)"/>
        <polygon points="356.25 558.05 365.06 557.74 364.06 566.8 364.35 570.32 364.21 582.89 349.02 599.86 345.13 579.52 350.89 566.63 349.08 564.75 351.21 557.99 356.25 558.05" fill="url(#linear-gradient-17)"/>
        <polygon points="454.55 489.92 463.94 490.92 480.71 490.92 463.52 492.16 458.72 492.35 454.55 491.13 454.55 489.92" fill="url(#linear-gradient-18)"/>
        <polygon points="491.01 496.83 490.39 497.59 519.16 497.59 501.16 496.83 494.21 495.69 491.01 496.83" fill="url(#linear-gradient-19)"/>
        <polygon points="504.77 502.13 506.27 503.6 506.27 504.44 518.55 504.44 508.11 503.29 504.77 502.13" fill="url(#linear-gradient-20)"/>
        <polygon points="530.81 511.37 533.34 512.36 534.06 514.52 559.86 514.52 536.21 512.88 534.06 511.37 530.81 511.37" fill="url(#linear-gradient-21)"/>
        <polygon points="550.76 511.75 558.91 509.66 599.03 511.75 550.76 511.75" fill="url(#linear-gradient-22)"/>
        <polygon points="315.85 483.95 307.7 482.81 267.58 483.95 315.85 483.95" fill="url(#linear-gradient-23)"/>
        <polygon points="471.59 477.73 454.99 476.58 373.31 477.73 471.59 477.73" fill="url(#linear-gradient-24)"/>
        <polygon points="174.15 476.78 190.75 475.63 272.43 476.78 174.15 476.78" fill="url(#linear-gradient-25)"/>
        <polygon points="477.5 553.3 489.73 555.3 490.21 551.29 522.1 567.02 503.4 564.44 500.52 568.16 489.25 559.58 477.5 553.3" fill="url(#linear-gradient-26)"/>
        <path d="M526.39,546.71l-6.81-8,7.07-3.29,1.44-4.14,77.8,2.43s12.23,27.44,12.11,27.87-.72,14.01-.72,14.01l-90.89-28.88Z" fill="url(#linear-gradient-27)"/>
        <polygon points="410.48 565.25 411.09 558.76 422.28 562.82 423.88 560.79 427.4 560.79 431.23 561.62 502.84 634.93 474.38 624.37 433.47 629.16 416.59 653.11 410.48 565.25" fill="url(#linear-gradient-28)"/>
        <polygon points="468.31 574.07 482.54 595.22 491.49 599.86 486.37 587.19 473.59 575.59 470.39 570.06 465.79 568.16 468.31 574.07" fill="url(#linear-gradient-29)"/>
        <path d="M504,486.53l15.22,1.08h18.94s10.66.6,11.2.6,29.68.72,29.68.72h29.37l-35.96,1.2h-19.15l-3.93-.48-8.57.48-6.83-1.2-8.75-.6h-6.47l-14.74-1.8Z" fill="url(#linear-gradient-30)"/>
        <path d="M239.61,519.46l-2.16,1.15,2.76.57.48,1.34,2.05.29-1.43,3.13,11.72,9.52,15.58,5.69-4.91,2.93,4.91-.12,4.45-1.25,26.85,9.66s-.57.81-.28.81,15.56,1.06,15.56,1.06l6.89.75,1.14.88,5.83.5,1.92.56,6.82.37.07,2.31,2.49-1.75,15.91.19,12.79-.31,1.28,2.06h1.35l1.14-2.06h5.11l-.36,3.87h2.27l1.14-3.87,27.99-.56,14.42-1.31,3.59,2.99,4.26-2.34.32-1.78h4.19l3.77,3.12,1.07-1.62-1.14-2.12,17.19-2.37,32.61-5.06,28.84-10.55,5.01-4,.81-2.41.6-4" fill="none" stroke="#9b9bc4" stroke-linecap="round" stroke-linejoin="round"/>
        <path d="M767.92,468.8c-111.63-4.46-224.58-5.91-336.37-7.01,83.53-.25,168.99-.06,252.39,1.19,28.05.44,56.08.95,84.14,1.82l-.16,4h0Z" fill="#bcbce8"/>
        <path d="M336.45,461.79c-111.81,1.1-224.72,2.55-336.37,7.01,0,0-.16-4-.16-4,111.74-3.14,224.68-3.24,336.53-3.01h0Z" fill="#bcbce8"/>
        <polyline points="318.63 490.53 326.22 489.92 325.38 489.13 327.54 487.7 331.86 486.74 334.85 487.56 336.5 486.39 342.4 486.39 349.24 487.13 353.79 486.39 355.59 487.27 356.91 486.39 363.14 486.39 365.06 489.41 366.14 488.55 366.14 486.39 372.49 487.13 376.21 486.39 378.12 486.39 378.99 487.41 380.97 486.39 390.47 486.39 392.29 487.27 397.31 486.39 404.86 487.13 405.82 488.55 406.54 486.39 410.48 486.39 419.49 487.25" fill="none" stroke="#9b9bc4" stroke-linecap="round" stroke-linejoin="round" stroke-width="2"/>
        <polygon points="467.31 495.61 469.95 496.4 466.18 501.56 466.6 504.4 468.57 504.67 464.38 512.36 468.75 509.78 471.81 503.4 472.71 496.98 474.57 497.19 476.25 503.35 475.95 508.78 480.5 501.88 481.4 497.03 479.24 496.34 482.12 496.08 475.11 495.61 464.38 492.66 458.68 492.34 454.55 491.13 454.55 489.92 450.89 490.71 450.29 496.08 449.45 499.77 451.55 496.82 453.71 497.5 453.77 492.92 456.65 493.76 456.29 501.14 458.56 501.14 459.46 502.35 457.06 502.61 454.73 508.67 461.68 502.03 463.18 501.4 462.94 499.29 465.28 493.87 464.74 499.35 465.79 499.4 467.31 495.61" fill="#9b9bc4"/>
        <polygon points="482.54 497.59 495.01 497.59 499.52 498.82 496.6 499.84 500.44 501.66 497.92 502.19 497.12 504.86 492.69 511.08 487.69 515.61 491.73 510.62 494.25 505.32 493.49 502.82 493.77 499.52 491.25 498.82 489.45 499.38 486.97 506.23 483.54 511.43 485.58 505.39 487.09 499.52 482.54 499.28 482.54 497.59" fill="#9b9bc4"/>
        <polygon points="500.44 503.6 500.08 505.28 501.8 504.9 501.8 504.19 502.84 503.6 500.44 503.6" fill="#9b9bc4"/>
        <polygon points="503.36 513.36 504.6 513.67 502.36 517.33 499.84 519.5 500.84 517.54 502.44 515.29 502.88 513.36 503.36 513.36" fill="#9b9bc4"/>
        <path d="M513.83,508.93l8.43-.7-12.55-.28v-1.02l-5.59-2.04h-2.32l-.92,1.3-.44,2.6-2.44,3.13-2.68,1.93-3.6,3.9,2.44-.95,1.92-1.55,3.8-2,3.36-.46,2.2-.91,1.08.67-.08,5.51-1.08,1.3.08,2.49,1.64-.84-1.36,3.65-4.72,3.9-5.51,3.58,3.92-1.83,5.99-4.11-.72,2.39,1.04,1.16,4.52-6.22,2.56-6.22-1.12-4.57s-2.4-.67-2.6-.67-3.24-1.12-3.24-1.12l-.68-.95h6.87l1.8-1.09ZM509.39,521.44l.96-5.83,1.04.21-.32,4.99-4.08,5.58,2.4-4.95Z" fill="#9b9bc4"/>
        <polygon points="514.01 512.88 515.21 513.94 515.21 515.99 516.46 515.61 517 517.1 515.86 519.5 517.84 519.5 520.96 517.31 521.32 515.61 523.08 515.22 518.55 513.89 514.01 512.88" fill="#9b9bc4"/>
        <polygon points="516.04 521 514.55 524.1 514.01 525.95 515.32 525 516.58 522.05 516.58 521 516.04 521" fill="#9b9bc4"/>
        <path d="M518.55,520.28v2.98l2.53-1.05s12.23-1.26,11.99-1.21-12.11,0-12.11,0l-2.41-.71Z" fill="#9b9bc4"/>
        <path d="M528.45,522.26l-5.37.21-1.59.79-2.95,6.85,1.4,3.11,3.14-1.07s.81-2.19.81-2.41.6-4,.6-4l1.31-1.11-.83-1.37,3.48-1Z" fill="#9b9bc4"/>
        <polygon points="496.24 520.28 494.09 519.96 484.55 526.17 493.73 522.2 496.24 520.28" fill="#9b9bc4"/>
        <polygon points="422.66 487.37 419.84 488.14 428.89 489.25 428.47 490.6 425.54 489.54 427.7 492 430.09 497.92 428.17 495.66 426.32 495.23 423.14 492.65 418.52 489.78 412.77 488.67 410.48 486.39 428.95 486.74 422.66 487.37" fill="#9b9bc4"/>
        <polygon points="430.09 488.55 431.89 489.92 431.89 492.97 430.39 491.23 431.89 494.92 433.93 498.5 435.55 499.29 437.17 496.71 437.58 494.92 436.63 492.45 439.62 492.87 439.02 491.18 442.5 494.71 443.88 494.76 444.24 492.92 445.2 492.97 444.72 491.02 447.65 490.92 450.53 493.92 450.89 490.71 449.09 489.92 444.9 489.08 438.06 488.81 436.69 488.55 433.63 489.08 430.09 488.55" fill="#9b9bc4"/>
        <path d="M266.4,536.66l-8.5-3.2-9.12-8.03-6.17-7.45,1.74-1.48,3.24,6.45-1.86-5.64.24-4.59-3.36,1.34-3.84,2.68.84,2.72-2.16,1.15,2.76.57.48,1.34,2.05.29-1.43,3.13,11.72,9.52,6.61,2.41,8.98,1.55-2.22-2.77ZM254.53,532.84l-2.28-1.1-3.12-2.82,2.52,1.29,4.62,3.2-1.74-.57Z" fill="#9b9bc4"/>
        <polygon points="245.3 508.39 251.54 506.52 251.54 511.94 250.22 512.25 250.34 516.78 253.03 516.78 254.17 519.47 251.3 518.3 249.14 516.31 247.52 511.67 248.84 510.77 245.9 510.14 247.7 509.25 245 509.01 245.3 508.39" fill="#9b9bc4"/>
        <polygon points="252.71 503.06 252.71 506.75 253.57 506.75 254.65 512.89 258.43 519.45 262.62 523.03 261.97 521.09 269.16 525.8 276.47 527.84 269.34 524.8 262.15 518.73 260.05 512.94 257.17 513.25 256.27 507.87 257.05 504.19 260.17 501.88 264.59 501.58 263.94 506.54 264.06 511.2 265.5 504.29 267.24 500.5 270.54 500.76 274.79 500.5 280.07 498.45 274.25 499.37 267.24 499.58 265.5 499.27 265.14 500.14 258.55 500.81 258.55 501.63 254.83 502.14 254.95 501.32 252.71 502.04 252.71 503.06" fill="#9b9bc4"/>
        <polygon points="273.47 494.94 280.75 494.94 280.75 498.24 282.58 500.26 283.38 503.32 284.42 506.62 286.82 508.58 285.94 506.2 286.82 505.71 285.14 499.02 284.9 494.26 288.74 494.75 290.26 500.99 290.26 494.69 291.14 494.69 293.77 499.02 297.13 503.63 298.57 506.99 300.89 508.58 299.53 505.46 298.25 503.14 296.57 499.02 295.13 494.02 298.81 494.02 300.89 495.12 301.29 493.59 302.8 492.79 301.05 492.43 297.45 492.98 290.5 492.43 283.3 493.16 277.87 494.2 273.47 494.94" fill="#9b9bc4"/>
        <polygon points="303.84 491.43 303.84 494.74 305.36 500.61 305.84 492.29 307.94 491.22 303.84 491.43" fill="#9b9bc4"/>
        <path d="M307.94,492.23l.37,2.39.8.31,1.12-3.12s2.4-.73,2.16-.8-3.52.55-3.52.55l-.93.67Z" fill="#9b9bc4"/>
        <path d="M316.23,490.96l-1.36,2.88v3.98l1.76-5.39,1.28-.31.48,6.49.96,4.16v-5.57l2.4-3.37s1.2,1.47,1.2,1.41,1.68-4.65,1.68-4.65l1.6-.67-7.59.61-2.4.43Z" fill="#9b9bc4"/>
        <path d="M263.7,514.99l2.04,3.48s4.38,4.37,4.56,4.37,5.81,2.53,6.11,2.58,4.74,1,4.74,1l-1.62-1.26-5.57-1.9-2.22-2.27-4.97-2.42-3.06-3.58Z" fill="#9b9bc4"/>
        <polygon points="266.88 503.93 264.6 511.57 264.96 514.73 267.6 514.46 272.81 519.47 281.15 522.47 286.84 523.63 284.14 522 277.97 519.73 274.49 517.05 269.46 511.15 268.2 508.58 266.88 503.93" fill="#9b9bc4"/>
        <polygon points="275.03 501.56 273.17 504.83 273.17 508.3 275.72 510.72 277.97 509.46 275.03 505.35 275.03 504.25 276.11 503.93 275.03 501.56" fill="#9b9bc4"/>
        <polygon points="268.62 541.16 267.91 544 263.7 544.09 268.62 541.16" fill="#9b9bc4"/>
        <polygon points="326.22 489.92 328.38 491.22 329.1 493.92 330.42 496.34 331.97 499.29 330.96 495.92 330.96 491.94 333.53 490.53 335.33 490.53 339.17 494.61 341.56 496.34 342.88 500.45 342.88 495.92 343.84 494.92 343.84 490.92 345.64 488.55 346.36 486.82 342.4 486.39 336.5 486.39 334.85 487.56 331.86 486.74 327.54 487.7 325.38 489.13 326.22 489.92" fill="#9b9bc4"/>
        <polygon points="353.79 486.39 354.19 492.96 355.1 495.92 356.75 502.77 357.55 500.45 359.94 506.14 358.83 498.58 359.94 496.27 358.99 490.92 356.87 489.92 357.71 486.39 356.87 486.39 355.59 487.27 353.79 486.39" fill="#9b9bc4"/>
        <polygon points="378.99 487.41 379.56 490.92 380.72 493.42 380.72 490.42 380.97 486.39 378.99 487.41" fill="#9b9bc4"/>
        <polygon points="366.14 488.55 366.14 493.92 366.86 495.92 366.86 498.58 365.66 494.92 364.44 493.92 364.44 491 363.14 486.39 365.06 489.41 366.14 488.55" fill="#9b9bc4"/>
        <polygon points="387.28 486.39 390.47 486.39 392.29 487.27 394.8 486.83 393.43 488.55 393.43 492.35 392.29 493.92 391.79 497.59 391.04 494.42 391.04 489.9 389.01 488.55 389.01 490.53 387.28 488.46 387.28 486.39" fill="#9b9bc4"/>
        <polygon points="404.86 487.13 405.82 488.55 405.82 490.53 405.34 493.92 404.86 495.92 402.22 500.45 404.02 495.92 403.42 491.99 402.22 488.55 401.14 489.92 401.14 491.22 399.7 493.42 399.7 491 398.51 488.55 399.1 486.39 404.86 487.13" fill="#9b9bc4"/>
        <polygon points="334.85 500.45 335.87 502.77 337.01 506.52 339.05 508.58 341.56 510.72 340.31 508.58 340.31 506.52 338.21 505.59 337.25 502.77 337.13 499.58 334.85 498.45 334.85 500.45" fill="#9b9bc4"/>
        <polygon points="401.26 502.77 399.46 503.93 399.46 505.28 400.36 505.28 401.26 504.02 401.26 502.77" fill="#9b9bc4"/>
        <polygon points="419.49 495.92 422.72 497.92 422.72 500.61 421.88 504.02 418.67 506.99 420.29 503.93 420.29 501.14 418.67 501.14 417.57 499.56 419.49 495.92" fill="#9b9bc4"/>
        <polygon points="315.67 510.72 317.27 512.99 323.5 515.61 328.38 515.61 332.77 515.61 328.38 513.78 323.66 513.78 318.63 511.56 315.67 510.72" fill="#9b9bc4"/>
        <polygon points="430.77 508.58 427.87 512.36 424.52 514.99 428.51 513.36 430.77 508.58" fill="#9b9bc4"/>
        <polyline points="337.78 557.31 337.85 559.62 340.34 557.87 340.34 559.62 334.85 567.79 329.46 573.7 334.85 565.11 337.78 557.31" fill="#9b9bc4"/>
        <polygon points="299.92 552.38 299.63 553.19 302.8 553.64 291.71 561.62 286.97 565.11 290.42 561.28 299.92 552.38" fill="#9b9bc4"/>
        <polygon points="426.36 559.32 428.66 560.96 433.94 566.04 432.62 563.04 429.36 557.56 426.97 558.87 423.38 555.88 426.36 559.32" fill="#9b9bc4"/>
        <polygon points="280.03 549.1 276.76 550.09 273.46 553.21 272.34 555.66 276.38 553.68 280.51 551.94 280.03 549.1" fill="#9b9bc4"/>
        <polygon points="315.25 489.27 316.69 488.85 317.47 488.46 315.97 488.46 314.59 488.86 315.25 489.27" fill="#9b9bc4"/>
        <polygon points="258.1 530.92 262.25 531.94 267.84 533.41 271.56 534.35 278.75 535.3 271.56 535.3 267.6 535.3 263.7 534.35 261.17 535.3 257.9 533.46 257.17 531.17 258.1 530.92" fill="#9b9bc4"/>
        <polygon points="288.66 541.49 291.06 540.54 292.97 540.54 297.69 540.54 301.44 539.43 296.25 541.81 293.13 541.81 290.34 542.62 288.66 542.29 288.66 541.49" fill="#9b9bc4"/>
        <polygon points="285.1 547.05 291.14 547.97 298.09 547.97 307.94 547.05 299.63 549.1 296.33 550.44 294.54 550.44 285.1 547.05" fill="#9b9bc4"/>
        <polygon points="365.06 521.06 369.04 520.03 369.85 520.55 370.81 519.46 374.68 519.1 375.85 519.1 377.69 518.55 380.48 518.55 380.97 519.46 381.44 520.24 381.44 519.12 382.32 518.55 384.96 518.55 385.6 519.46 386.52 518.55 392.06 518.96 393.35 519.46 394.21 519.21 397.87 519.81 398.51 521.06 398.95 520.03 401.91 520.76 402.16 521.43 403.5 521.97 406.1 522.21 408.65 523.48 408.65 524.89 409.47 524 410.89 525.15 412.59 528.55 413.17 529.62 412.33 529.89 409.29 533.2 409.49 533.98 408.45 533.73 405.82 535 404.46 535 403.46 535.86 398.95 537.06 398.51 538.06 397.91 537.28 393.59 538.06 393.75 539.02 393.83 540.22 393.11 539.58 392.72 538.06 390.61 538.54 387.92 538.44 386.52 538.54 382.32 539.02 382.32 539.74 381.44 538.54 377.75 538.3 376.81 539.34 376.31 538.17 372.33 538.06 370.86 537.42 369.02 537.28 368.42 537.66 367.78 537.28 366.73 536.51 363.17 535.39 362.34 536.14 362 534.92 359.94 533.95 356.78 531.42 355.41 531.42 356.11 530.74 355.41 528.55 354.43 528.55 355.72 527.08 357.79 524.89 358.27 523.35 359.94 523.15 362.49 521.97 364.25 521.32 365.06 521.43 365.06 521.06" fill="url(#radial-gradient-2)"/>
        <polygon points="355.95 527.83 357.87 526.19 358.11 524.89 359.25 524 360.26 525.53 362.12 527.27 365.06 527.83 362.24 527.83 359.37 527.57 358.59 526.69 356.87 527.57 355.95 527.83" fill="url(#linear-gradient-31)"/>
        <polygon points="355.95 528.55 356.25 529.62 356.11 530.74 355.41 531.42 356.78 531.42 359.94 533.95 361.76 533.95 364.7 533.95 360.86 533.11 359.07 531.42 360.92 531.42 361.76 530.8 357.93 530.15 356.55 529.38 355.95 528.55" fill="url(#linear-gradient-32)"/>
        <polygon points="360.82 523.79 361.76 523.79 364.9 524 365.66 524.71 367.34 526.27 369.02 526.11 366.94 525.03 366.54 523.79 366.46 522.83 366.42 521.55 367.71 520.38 365.86 521.27 365.66 522.55 364.7 522.11 361.5 523.32 360.5 523.32 360.82 523.79" fill="url(#linear-gradient-33)"/>
        <polygon points="368.66 521.57 369.43 523.32 371.29 524.89 370.63 522.95 369.97 521.57 368.66 521.57" fill="url(#linear-gradient-34)"/>
        <polygon points="366.73 536.51 368.42 537.66 369.02 537.28 370.86 537.42 372.33 538.06 376.31 538.17 376.81 539.34 377.75 538.3 379.38 538.4 381.44 538.54 379.72 538.06 378.78 537.28 376.45 537.28 375.01 536.51 372.74 536.92 371.29 536.26 369.04 536.64 369.02 535.9 367.94 536.64 366.73 536.51" fill="url(#linear-gradient-35)"/>
        <polygon points="370.81 519.46 374.68 519.1 375.85 519.1 376.22 520.5 377.65 522.4 376.44 521.57 375.48 520.71 373.56 520.71 374.03 521.97 375.31 522.84 373.15 521.97 372.45 520.93 370.81 519.46" fill="url(#linear-gradient-36)"/>
        <polygon points="382.58 519.4 382.02 518.98 382.32 518.55 384.96 518.55 385.6 519.46 384.72 519.51 384.56 520.48 384 519.2 382.72 519 382.58 519.4" fill="url(#linear-gradient-37)"/>
        <polygon points="386.52 538.54 387.92 538.44 390.61 538.54 392.72 538.06 393.11 539.58 393.83 540.22 393.59 538.06 395.63 537.68 394.13 536.92 392.39 536.22 391.4 536.78 389.47 537.28 388.92 536.92 387.33 537.86 386.52 538.54" fill="url(#linear-gradient-38)"/>
        <polygon points="397.91 537.28 398.51 538.06 398.95 537.06 403.46 535.86 404.46 535 403.1 535 400.52 535 399.53 535.92 395.91 535 394.92 534.23 396.41 536.22 397.7 536.78 397.91 537.28" fill="url(#linear-gradient-39)"/>
        <polygon points="409.25 525.11 410.34 525.71 411.43 528.98 410.68 529.62 409.05 530.42 408.5 530.07 409.35 528.55 409.25 527.49 407.36 529.03 405.83 529.62 402.31 530.22 406.87 528.29 408.16 525.91 409.25 525.11" fill="url(#linear-gradient-40)"/>
        <polygon points="393.35 519.46 393.35 520.24 396.31 520.38 396.79 520.97 396.79 521.97 397.75 520.71 398.51 521.06 397.87 519.81 394.21 519.21 393.35 519.46" fill="url(#linear-gradient-41)"/>
        <polygon points="408.02 523.67 405.82 522.84 404.7 523.32 403.42 525.47 401.3 527.19 400.26 527.47 401.7 527.47 404.98 526.27 406.87 524.63 407.62 524.89 408.33 524.27 408.02 523.67" fill="url(#linear-gradient-42)"/>
        <polygon points="400.42 521.97 401.58 522.84 401 524 399.06 525.15 400.26 523.03 400.42 521.97" fill="url(#linear-gradient-43)"/>
        <polygon points="368.02 534.35 371.13 534.23 374.23 533.26 372.69 534.35 371.12 534.86 369.45 534.86 368.02 534.35" fill="url(#linear-gradient-44)"/>
      </g>
      <path d="M384.46,536.79c-.14,0-.26-.03-.36-.09l-2.9-1.7c-1.01-.59-1.57-1.36-1.57-2.16s.56-1.57,1.57-2.16l1.82-1.06c.18-.11.29-.28.29-.46s-.11-.35-.29-.46c-.14-.08-.33-.13-.53-.13s-.38.05-.53.13l-1.82,1.06c-1.05.62-2.46.95-3.96.95s-2.9-.34-3.96-.95l-2.93-1.71s-.05-.05-.05-.05c.02-.01.15-.13.44-.13h14.53c.44,0,.68.2.68.29v8.49s-.19.14-.44.14h0ZM389.19,534.02c-.14,0-.26-.03-.36-.09l-1.7-.99c-.38-.22-.6-.52-.6-.8v-3.99c0-.82-1.02-1.47-2.32-1.47h-6.83c-.61,0-1.2-.14-1.63-.39l-1.7-.99c-.06-.03-.08-.06-.08-.07.02-.01.15-.13.44-.13h14.53c.44,0,.68.2.68.29v8.49s-.19.14-.44.14h0ZM393.93,531.25c-.14,0-.26-.03-.36-.09l-1.7-.99c-.38-.22-.6-.51-.6-.8v-3.99c0-.82-1.02-1.47-2.32-1.47h-6.83c-.61,0-1.2-.14-1.63-.39l-1.7-.99c-.06-.03-.08-.06-.08-.07.02-.01.15-.13.44-.13h14.53c.44,0,.68.2.68.29v8.49s-.19.14-.44.14h0Z" fill="#fff"/>
    </g>
  </g>
</svg>