<?xml version="1.0" encoding="UTF-8"?>
<svg id="Layer_2" data-name="Layer 2" xmlns="http://www.w3.org/2000/svg" viewBox="0 0 1840 1520">
  <g id="rocks1140_06" data-name="rocks1140_06">
    <rect width="1840" height="1520" fill="none"/>
    <path d="M1617.41,839.02l-27.04-8.21-11.52,5.61,1.32,18.36,23.78,2.35,13.36-9.03.1-9.08Z" fill="#a4a2f9"/>
    <path d="M243.78,620.67l-11.86-9.77-6.94.3-3.15,9.27,11.44,6.2,8.57-1.58,1.94-4.43Z" fill="#a4a2f9"/>
    <path d="M259.7,848.49l-6.11,5.11,3.89,3.05,4.37.44s2.7-4.22,2.26-5.35-1.04-4.74-1.04-4.74l-3.37,1.49Z" fill="#a2a2dd"/>
    <path d="M514.87,1120.38l-20.73,10.46-8.09,14.99,13.08-2.06,17.11-9.55,11.77-14.44-13.14.6Z" fill="#a4a2f9"/>
    <path d="M1473.75,402.02l-20.11,11.61-7.23,15.42,12.94-2.79,16.55-10.5,10.94-15.08-13.09,1.34Z" fill="#a2a2dd"/>
    <path d="M251.76,1008l-5.17,6.2,5.17,6.2,5.16-3.1,2.07-7.23-7.23-2.07Z" fill="#a2a2dd"/>
    <path d="M1606.32,337l-3.73,3.73.93,7.47,7.47-1.87,1.86-4.66-6.53-4.67Z" fill="#a2a2dd"/>
    <path d="M1372.98,999.39l-5.11,5.12,1.28,10.22,10.22-2.55,2.56-6.39-8.95-6.4Z" fill="#a2a2dd"/>
    <path d="M1396.57,1082l-8.24,12.36-1.03,11.34,8.24,9.27,7.21-8.24,8.25-12.37v-9.27l-14.43-3.09Z" fill="#a4a2f9"/>
    <path d="M1496.9,1248.1l-.65,14.29,6.84,5.31,12.35,1.92,1.9-11.57-8.94-11.9-11.5,1.96Z" fill="#444377"/>
    <g>
      <path d="M183.8,1073.61l-26.21,28.89,6.2,20.93,24.02,24.09,34.87,16.2h44.43l41.59-31.15-12.98-41.3-49.01-16.86-62.91-.8Z" fill="#7572cc"/>
      <path d="M183.8,1073.61l46.46,9.95,17.91-2.41,42.02,22.04,18.51,29.38,4.6-13.91-5.85-16.32-.3-17.27-63.11-19.07-56.23,3.18-4.01,4.43Z" fill="#9e9ee8"/>
    </g>
    <polygon points="1587.98 612.9 1593.25 604.99 1608.75 595.85 1615.63 601.24 1613.92 612.87 1603.13 626.63 1590.36 624.03 1587.98 612.9" fill="#a4a2f9"/>
    <polygon points="1219.02 1088.32 1222.67 1085.27 1231.17 1083.73 1240.45 1086.82 1238.13 1102.27 1231.68 1101.47 1219 1095.13 1219.02 1088.32" fill="#444377"/>
    <polygon points="264.93 400.01 260.09 404.85 261.3 414.53 270.98 412.11 273.4 406.06 264.93 400.01" fill="#a2a2dd"/>
    <polygon points="474.07 771.61 467.2 769.9 463.57 759 478.1 759 482.14 762.64 484.71 770.3 474.07 771.61" fill="#a4a2f9"/>
    <polygon points="563.98 689.37 558.56 697.9 570.96 701 575.61 698.52 577.51 692.83 575.56 687.99 563.98 689.37" fill="#444377"/>
  </g>
  <g id="rocks1140_05" data-name="rocks1140_05">
    <rect width="1840" height="1520" fill="none"/>
    <path d="M472.77,999l-8.38.28-5.94,5.03-3.87,7.14,3.84,10.55,8.47-1.42,7.69-11.81-1.82-9.77Z" fill="#a2a2dd"/>
    <g>
      <path d="M291.12,1319.83l-51.92-20.93-28.59,11.83,10.5,30.8,40.61,20.31,25.2-15.41,4.2-26.6Z" fill="#5e56af"/>
      <path d="M291.12,1319.83l-20.92,6.3-28.79-19.13-30.8,3.73,4.05-19.76,30.02-3.58,32.44,14.24,14,18.2Z" fill="#7572cc"/>
    </g>
    <g>
      <path d="M262.16,920.51l-14.25,1.23-4.36,7.48-.28,12.5,11.72.36,10.62-10.43-3.45-11.14Z" fill="#444377"/>
      <path d="M248.86,920.12l-.95,1.62,12.3,1.9,3.21,3.65-1.54,3.72,3.73.64,2.06-4.64.68-6.76-7.43-3.53-12.06,3.4Z" fill="#54548e"/>
    </g>
    <g>
      <path d="M1414.02,1442.25l10.59,19.1,18.6,13.83,9.73-16.44-2.67-16.33-9.93-13.54-11.27-1.09-15.04,14.46Z" fill="#444377"/>
      <path d="M1414.02,1442.25l16.66-10.88,12.07,5.87,7.52,5.19-9.93-13.54-12.04-6.17-6.99,2.09-7.29,17.46Z" fill="#54548e"/>
    </g>
    <polygon points="1607.23 1211.1 1582.03 1215.77 1573.63 1224.17 1569.89 1235.37 1582.03 1242.84 1603.5 1244.7 1623.08 1227.9 1607.23 1211.1" fill="#a4a2f9"/>
    <polygon points="1588.02 1291.75 1591.67 1288.7 1600.17 1287.16 1609.45 1290.25 1607.13 1305.71 1600.68 1304.9 1588 1298.56 1588.02 1291.75" fill="#444377"/>
    <polygon points="590.63 946.85 571.26 954.12 570.05 967.44 584.58 972.28 593.06 965.01 600.32 952.91 590.63 946.85" fill="#a4a2f9"/>
    <path d="M188.31,566.23l-1.21,10.9,7.26,8.48,25.43,8.48,12.11-8.48s-4.84-23-8.48-23-20.58-7.26-20.58-7.26l-14.53,10.9Z" fill="#a4a2f9"/>
  </g>
  <g id="rocks1140_04" data-name="rocks1140_04">
      <rect width="1840" height="1520" fill="none"/>
      <g>
        <path d="M301,922.22l70.61-18.22,36.2,28.15,43.54,25.85,24.44,46.88-44.66,29.5-61.89,6.16-56.52-48.75-11.72-69.55Z" fill="#5e56af"/>
        <path d="M371.61,904v8.71l22.99,15.95,15.52,28.45,59.12,35.18-17.89-34.3-43.54-25.85-36.2-28.15Z" fill="#7572cc"/>
      </g>
      <path d="M381.85,828.97l-13.17-21.85.2-3.13,1.36-5.6,6.74-10.72,4.19,1.27,6.88,7.28,5.43,12.47-5.04,14.43-6.58,5.86Z" fill="#a4a2f9"/>
      <path d="M1224.33,800.03l6.54,9.34,8.4,1.86,5.6-7.46-3.73-5.6-11.21-2.8-5.6,4.66Z" fill="#a4a2f9"/>
      <path d="M258.46,575l-2.87,11.77,8.57,10.81,17.41,15.47,5.22-11.18-10.06-14.92-18.27-11.95Z" fill="#a2a2dd"/>
      <g>
        <path d="M1436.8,953.37l1.99,7.93,8.4.7,5.6-2.1-5.6-11.9-10.39,5.37Z" fill="#444377"/>
        <path d="M1438.79,961.3l-4.2-7,3.19-4.92,4.51-1.38h4.9l-7,4.67-1.64,2.33.24,6.3Z" fill="#54548e"/>
      </g>
      <path d="M646.72,842l-17.36,20.7,8.68,10.3,16.79-1.12,10.21-17.81-7.6-10.22-10.73-1.85Z" fill="#5e56af"/>
      <g>
        <path d="M1230.47,951.92l-9.22,37.5,6.62,27.81,49.68,30.64,38.43,1.69,11.02-44.82-28.92-48.27-33.58-8.26-34.03,3.71Z" fill="#5e56af"/>
        <path d="M1227.87,1017.22l-6.62-27.81,9.22-37.5,34.03-3.71,33.58,8.26-28.58,2-26.57,6.12-10.28,20.42-4.78,32.22Z" fill="#7572cc"/>
      </g>
      <polygon points="1278.57 526.95 1270.33 539.32 1269.3 550.65 1277.54 559.93 1284.76 551.68 1293 539.32 1293 530.04 1278.57 526.95" fill="#a4a2f9"/>
      <g>
        <polygon points="1440.9 580.82 1445.84 555.43 1449.19 550.75 1481.01 547.09 1499.29 561.37 1492.7 583.19 1457.57 596.59 1440.9 580.82" fill="#444377"/>
        <polygon points="1445.84 555.43 1448.88 563.73 1443.58 573.58 1447.75 577.49 1446.92 581.89 1458.88 588.8 1457.57 596.59 1440.07 592.54 1437.61 571.12 1440.8 562.47 1445.84 555.43" fill="#54548e"/>
      </g>
      <polygon points="433.61 458.03 402.14 439.26 385.89 442.72 381.81 466.25 411.02 476.63 430.66 469.44 433.61 458.03" fill="#a4a2f9"/>
      <g>
        <path d="M1485.25,903.24l12.41,65.67,64.76,56.75,67.23,20.33,65.08-41.33,5.27-93.34-88.7-42.82-49.87-16.15-76.18,50.89Z" fill="#5e56af"/>
        <path d="M1538.53,1004.72l-40.86-35.8-12.41-65.67,14.83,27.31,3.24,35.33,35.21,38.84Z" fill="#7572cc"/>
      </g>
  </g>
  <g id="rocks1140_03" data-name="rocks1140_03">
    <rect width="1840" height="1520" fill="none"/>
    <path d="M367.64,1219.39l-10.32,24.46,16.18,3.11,13.6-5.36s1.55-16.61-1.46-19.31c-3.01-2.7-10.3-12.45-10.3-12.45l-7.7,9.55Z" fill="#5e56af"/>
    <g>
      <path d="M1562.5,418l-17.62,43.7,9.96,24.06,25.92-8.84,17.09-34.18-12.97-21.21-22.39-3.53Z" fill="#5e56af"/>
      <path d="M1562.5,418l5.3,17.61-16.1,24.23,3.14,25.92-16.63-3.41-3.01-25.27,11.98-27.3,15.32-11.78Z" fill="#7572cc"/>
    </g>
    <g>
      <path d="M309.2,1165.07l-27.79,17.59-17.82,24.65v34.86l35.65,15.3,39.76-29.51v-45.29l-16.69-16.71-13.11-.88Z" fill="#444377"/>
      <path d="M339,1208.11v-25.45l-16.69-16.71-13.11-.88,4.62,15.45,15.3,8.01,9.88,19.59Z" fill="#54548e"/>
    </g>
    <polygon points="1166.53 1367.44 1152.19 1411 1175.66 1447.09 1223.15 1481.94 1268 1462.03 1268 1401.29 1252.21 1367.44 1200.34 1358.85 1166.53 1367.44" fill="#5e56af"/>
  </g>
  <g id="rocks1140_02" data-name="rocks1140_02">
      <rect width="1840" height="1520" fill="none"/>
      <g>
        <path d="M638.06,1424.39l41.56-7.14,15.04,23.69,4.59,13.68-22.54,35.74-30.37,17.71-26.34-16.33,7.69-50.45,10.38-16.91Z" fill="#444377"/>
        <path d="M693.41,1435.72l-6-19.4-29.84-1.94-19.5,10.01,22.4-3.22,21.52,3.94,9.68,15.31,3,.53-1.25-5.22Z" fill="#54548e"/>
      </g>
      <g>
        <polygon points="1612.41 962.36 1596.98 936.49 1572.84 927.83 1550.14 942.29 1539.76 966.08 1542.03 983.78 1577.39 998.29 1611.46 986.91 1612.41 962.36" fill="#444377"/>
        <polygon points="1539.76 966.08 1538.48 956.04 1547.01 938.17 1564.53 924.85 1572.84 927.83 1551.29 949.97 1546.15 985.47 1542.03 983.78 1539.76 966.08" fill="#54548e"/>
      </g>
      <polygon points="1598.92 1359.48 1559.09 1336.75 1519.04 1352.54 1475.41 1392.12 1485.98 1440.04 1545.49 1452.16 1581.81 1443.45 1600.58 1394.33 1598.92 1359.48" fill="#5e56af"/>
      <g>
        <polygon points="527.99 1101.92 547.51 1095.03 559.22 1077.8 544.53 1048.04 515.69 1066.02 507.89 1087.42 527.99 1101.92" fill="#444377"/>
        <polygon points="547.51 1095.03 554.37 1082.11 548.12 1060.58 539.18 1051.37 544.53 1048.04 564 1059.29 564.17 1076.28 554.79 1092.46 547.51 1095.03" fill="#54548e"/>
      </g>
      <g>
        <polygon points="518.97 1490.66 534.87 1477.64 537.57 1472.5 543 1462.03 543.26 1446.79 542.45 1434.16 518.98 1426.75 500.25 1439.09 480.16 1470.61 487.56 1492.45 518.97 1490.66" fill="#444377"/>
        <polygon points="518.98 1426.75 500.25 1439.09 507.5 1445.28 515.33 1444.39 525.72 1434.77 532.64 1433.91 531.28 1437.12 534.83 1443.33 541.39 1448.7 538.23 1456.19 537.57 1472.5 542.74 1462.65 546.01 1447.21 542.45 1434.16 518.98 1426.75" fill="#54548e"/>
      </g>
      <g>
        <polygon points="349.9 1346 368.42 1346 392.16 1349.82 436.03 1378.34 441.62 1415.67 396.35 1432.65 361.37 1415.67 337.97 1388.36 349.9 1346" fill="#444377"/>
        <polygon points="368.42 1346 380.52 1346.58 408.7 1351.88 436.03 1378.34 421.89 1378.17 397.72 1369.68 392.28 1351.52 365.71 1347.25 368.42 1346" fill="#54548e"/>
      </g>
      <g>
        <path d="M1491.23,1068.73l-18.35,13.82-11.59,29.06,13.25,51.58,62.69,34.83,34.76-22.16,19.33-23.67-3.61-34.64-58.17-43.67-38.31-5.15Z" fill="#5e56af"/>
        <path d="M1461.3,1111.61l11.59-29.06,18.35-13.82,20.75,2.79-20.35,2.38-16.29,11.21-14.05,26.5Z" fill="#7572cc"/>
      </g>
  </g>
  <g id="rocks1140_01" data-name="rocks1140_01">
      <rect width="1840" height="1520" fill="none"/>
      <g>
        <polygon points="1593.96 672.97 1528.28 666.81 1510.54 672.45 1474.5 684.09 1439.51 718.3 1412.86 748.92 1449.7 818.83 1520.32 832.93 1637.29 806.31 1669.69 739.79 1593.96 672.97" fill="#444377"/>
        <polygon points="1449.7 818.83 1520.32 832.93 1517.71 802.43 1497.84 786.79 1452.43 785.3 1434.69 771.66 1445.05 767.39 1450.93 745.21 1448.08 718.14 1472.23 708.19 1510.54 672.45 1476.5 683.27 1434.18 711.13 1412.86 748.92 1449.7 818.83" fill="#54548e"/>
      </g>
      <g>
        <polygon points="1540.01 156.4 1531.58 195.14 1548.29 226.86 1593.34 267 1602.13 258.62 1646.31 233.61 1677 187.33 1671.01 139.93 1613.37 127.3 1540.01 156.4" fill="#444377"/>
        <polygon points="1531.58 195.14 1549.24 220.36 1593.34 254.3 1602.13 258.62 1593.34 267 1582.67 267 1540.01 222.28 1531.58 195.14" fill="#54548e"/>
      </g>
      <g>
        <polygon points="634.74 1299.43 641.04 1241.9 611.95 1198.41 540.41 1147.02 528.92 1160.53 468.61 1203.59 431.13 1275.46 447.07 1343.37 532.67 1352.89 634.74 1299.43" fill="#444377"/>
        <polygon points="641.04 1241.9 611.56 1207.99 542.35 1165.46 528.92 1160.53 540.41 1147.02 555.9 1145.39 624.67 1203.8 641.04 1241.9" fill="#54548e"/>
      </g>
      <g>
        <polygon points="1372.02 1397.87 1334.27 1371.67 1291.29 1330.3 1242.19 1210.1 1283.62 1126.1 1399.92 1155.54 1447.21 1239.63 1456.26 1328.4 1372.02 1397.87" fill="#444377"/>
        <polygon points="1334.27 1371.67 1310.43 1353.38 1260.49 1302.71 1242.19 1210.1 1270.79 1230.44 1308.04 1281.95 1293.45 1326.67 1341.56 1372.95 1334.27 1371.67" fill="#54548e"/>
      </g>
      <g>
        <polygon points="181.55 341 236.11 341 270.45 318.45 282.2 289.36 247.02 220.64 194.65 194.71 133.18 213.89 123 281.6 181.55 341" fill="#5e56af"/>
        <polygon points="181.55 341 236.11 341 270.45 318.45 282.2 289.36 259.14 308.65 210.61 312.05 161.31 320.47 181.55 341" fill="#7572cc"/>
      </g>
      <g>
        <polygon points="277.58 875.36 315.21 776.93 303.42 701.4 265.74 662.7 133.35 684.85 56.42 763.73 44.21 886.17 143.74 945.27 277.58 875.36" fill="#5e56af"/>
        <polygon points="277.58 875.36 315.21 776.93 303.42 701.4 265.74 662.7 280.2 715.92 252.07 805.52 231.31 899.53 277.58 875.36" fill="#7572cc"/>
      </g>
      <g>
        <path d="M1374.43,888.47l-3.43-.57-6.69,5.21-6.69,12.86,14.01,7.71,7-2.1,2.8-14.01-7-9.1Z" fill="#444377"/>
        <path d="M1364.94,910c.07-.45,0-16.47,0-16.47l6.06-2.64v-2.98l-1.48-.25-7.16-.19-4.75,18.51,7.32,4.02h.01Z" fill="#54548e"/>
      </g>
      <g>
        <path d="M1474.59,1073.61l14.28-31.51,25.55-3.85,17.16,20.66-20.89,25.09h-30.29l-5.81-10.39Z" fill="#a4a2f9"/>
        <path d="M1474.59,1073.61l14.28-31.51,25.55-3.85-18.54,7.11-11.81,13.66-9.48,14.59Z" fill="#e3e3ff"/>
      </g>
  </g>
</svg>