<?xml version="1.0" encoding="UTF-8"?>
<svg xmlns="http://www.w3.org/2000/svg" xmlns:xlink="http://www.w3.org/1999/xlink" viewBox="0 0 1440 1344">
  <defs>
    <radialGradient id="radial-gradient" cx="720" cy="118" fx="720" fy="118" r="2106" gradientTransform="translate(0 68.75) scale(1 .42)" gradientUnits="userSpaceOnUse">
      <stop offset="0" stop-color="#f8f8ff"/>
      <stop offset="1" stop-color="#fff" stop-opacity="0"/>
    </radialGradient>
    <linearGradient id="linear-gradient" x1="1177.17" y1="672.43" x2="1122.2" y2="361.7" gradientUnits="userSpaceOnUse">
      <stop offset="0" stop-color="#aea1e2"/>
      <stop offset="1" stop-color="#fff"/>
    </linearGradient>
    <linearGradient id="linear-gradient-2" x1="240.3" y1="686.05" x2="297.14" y2="370.41" xlink:href="#linear-gradient"/>
    <linearGradient id="linear-gradient-3" x1="709.26" y1="706.39" x2="709.26" y2="633.42" gradientUnits="userSpaceOnUse">
      <stop offset="0" stop-color="#c5c5ea" stop-opacity="0"/>
      <stop offset="1" stop-color="#c5c5ea"/>
    </linearGradient>
    <linearGradient id="linear-gradient-4" x1="724.6" y1="536.1" x2="724.6" y2="625.99" xlink:href="#linear-gradient-3"/>
    <linearGradient id="linear-gradient-5" x1="493.45" y1="585.68" x2="676.49" y2="633.61" xlink:href="#linear-gradient-3"/>
    <linearGradient id="linear-gradient-6" x1="928.49" y1="610.5" x2="729.7" y2="614.4" xlink:href="#linear-gradient-3"/>
    <linearGradient id="linear-gradient-7" x1="720" y1="489.26" x2="720" y2="1525.55" gradientUnits="userSpaceOnUse">
      <stop offset="0" stop-color="#f8f8ff"/>
      <stop offset=".13" stop-color="#ebebfc"/>
      <stop offset=".46" stop-color="#d3d3f7"/>
      <stop offset=".76" stop-color="#c5c4f4"/>
      <stop offset="1" stop-color="#c0bff3"/>
    </linearGradient>
    <linearGradient id="linear-gradient-8" x1="720" y1="460.51" x2="720" y2="1791.71" gradientUnits="userSpaceOnUse">
      <stop offset="0" stop-color="#c5c5ea" stop-opacity="0"/>
      <stop offset="1" stop-color="#7878b5"/>
    </linearGradient>
    <linearGradient id="linear-gradient-9" x1="403.99" y1="621.32" x2="500.53" y2="591.44" gradientUnits="userSpaceOnUse">
      <stop offset="0" stop-color="#c5c5ea" stop-opacity="0"/>
      <stop offset="1" stop-color="#7878ba"/>
    </linearGradient>
    <linearGradient id="linear-gradient-10" x1="429.12" y1="570.49" x2="498.29" y2="572.05" gradientUnits="userSpaceOnUse">
      <stop offset="0" stop-color="#c5c5ea" stop-opacity="0"/>
      <stop offset="1" stop-color="#b3b3e2"/>
    </linearGradient>
    <linearGradient id="linear-gradient-11" x1="466.9" y1="557.65" x2="549.57" y2="555.61" xlink:href="#linear-gradient-10"/>
    <linearGradient id="linear-gradient-12" x1="480.91" y1="545.54" x2="630.33" y2="541.84" xlink:href="#linear-gradient-10"/>
    <linearGradient id="linear-gradient-13" x1="359.33" y1="571.43" x2="416.57" y2="571.43" xlink:href="#linear-gradient-10"/>
    <linearGradient id="linear-gradient-14" x1="508.11" y1="763.61" x2="502.4" y2="613.83" gradientUnits="userSpaceOnUse">
      <stop offset="0" stop-color="#c5c5ea" stop-opacity="0"/>
      <stop offset="1" stop-color="#7b7baf"/>
    </linearGradient>
    <linearGradient id="linear-gradient-15" x1="463.23" y1="692.68" x2="491.4" y2="621.25" xlink:href="#linear-gradient-14"/>
    <linearGradient id="linear-gradient-16" x1="584.61" y1="683.92" x2="592.76" y2="656.69" xlink:href="#linear-gradient-10"/>
    <linearGradient id="linear-gradient-17" x1="669.07" y1="725.15" x2="664.02" y2="616.67" xlink:href="#linear-gradient-14"/>
    <linearGradient id="linear-gradient-18" x1="894.16" y1="542.98" x2="837.64" y2="542.98" xlink:href="#linear-gradient-10"/>
    <linearGradient id="linear-gradient-19" x1="966.08" y1="553.04" x2="891.16" y2="553.04" xlink:href="#linear-gradient-10"/>
    <linearGradient id="linear-gradient-20" x1="965.44" y1="565.19" x2="929.57" y2="565.19" xlink:href="#linear-gradient-10"/>
    <linearGradient id="linear-gradient-21" x1="1040.46" y1="582.85" x2="964.79" y2="582.85" xlink:href="#linear-gradient-10"/>
    <linearGradient id="linear-gradient-22" x1="1131.31" y1="579.72" x2="901.81" y2="577.47" xlink:href="#linear-gradient-10"/>
    <linearGradient id="linear-gradient-23" x1="502.61" y1="529.64" x2="891.86" y2="525.89" xlink:href="#linear-gradient-10"/>
    <linearGradient id="linear-gradient-24" x1="691.02" y1="519.11" x2="1483.57" y2="511.48" xlink:href="#linear-gradient-10"/>
    <linearGradient id="linear-gradient-25" x1="-32.36" y1="517.38" x2="760.2" y2="509.74" gradientTransform="translate(493.21) rotate(-180) scale(1 -1)" xlink:href="#linear-gradient-10"/>
    <linearGradient id="linear-gradient-26" x1="931.33" y1="681.23" x2="932.4" y2="635.85" xlink:href="#linear-gradient-14"/>
    <linearGradient id="linear-gradient-27" x1="1107.79" y1="677.31" x2="950.06" y2="549.16" xlink:href="#linear-gradient-14"/>
    <linearGradient id="linear-gradient-28" x1="850.79" y1="826.63" x2="856.86" y2="569.36" xlink:href="#linear-gradient-14"/>
    <linearGradient id="linear-gradient-29" x1="892.38" y1="736.48" x2="894.39" y2="651.57" xlink:href="#linear-gradient-14"/>
    <linearGradient id="linear-gradient-30" x1="952.76" y1="533.31" x2="1208.19" y2="548.2" xlink:href="#linear-gradient-3"/>
    <radialGradient id="radial-gradient-2" cx="720.73" cy="610.92" fx="720.73" fy="610.92" r="58.3" gradientUnits="userSpaceOnUse">
      <stop offset="0" stop-color="#c5c5ea" stop-opacity=".3"/>
      <stop offset="1" stop-color="#ababdb"/>
    </radialGradient>
    <linearGradient id="linear-gradient-31" x1="672.67" y1="624.71" x2="678.25" y2="606.07" xlink:href="#linear-gradient-10"/>
    <linearGradient id="linear-gradient-32" x1="672.08" y1="631.83" x2="676.96" y2="615.53" xlink:href="#linear-gradient-10"/>
    <linearGradient id="linear-gradient-33" x1="679.82" y1="621.13" x2="686.79" y2="597.85" xlink:href="#linear-gradient-10"/>
    <linearGradient id="linear-gradient-34" x1="691.48" y1="611.3" x2="694.87" y2="599.96" xlink:href="#linear-gradient-10"/>
    <linearGradient id="linear-gradient-35" x1="702.47" y1="624.04" x2="701.19" y2="632.11" xlink:href="#linear-gradient-10"/>
    <linearGradient id="linear-gradient-36" x1="703.13" y1="591.24" x2="701.21" y2="603.36" xlink:href="#linear-gradient-10"/>
    <linearGradient id="linear-gradient-37" x1="720.1" y1="591.52" x2="719.1" y2="597.81" xlink:href="#linear-gradient-10"/>
    <linearGradient id="linear-gradient-38" x1="733.93" y1="619.1" x2="732.29" y2="635" xlink:href="#linear-gradient-10"/>
    <linearGradient id="linear-gradient-39" x1="747.94" y1="615.64" x2="749.46" y2="629.77" xlink:href="#linear-gradient-10"/>
    <linearGradient id="linear-gradient-40" x1="748.05" y1="610.76" x2="764.33" y2="610.01" xlink:href="#linear-gradient-10"/>
    <linearGradient id="linear-gradient-41" x1="742.26" y1="593.31" x2="741.08" y2="600.75" xlink:href="#linear-gradient-10"/>
    <linearGradient id="linear-gradient-42" x1="758.87" y1="613.24" x2="755.96" y2="602.14" xlink:href="#linear-gradient-10"/>
    <linearGradient id="linear-gradient-43" x1="745.5" y1="607.24" x2="751.81" y2="599.67" xlink:href="#linear-gradient-10"/>
    <linearGradient id="linear-gradient-44" x1="697" y1="617.6" x2="695.82" y2="625.06" xlink:href="#linear-gradient-10"/>
  </defs>
  <g isolation="isolate">
    <g id="Layer_1" data-name="Layer 1">
      <rect width="1440" height="564" fill="none"/>
      <rect width="1440" height="540.18" fill="#dcd9ff"/>
      <rect width="1440" height="1344" fill="url(#radial-gradient)" mix-blend-mode="screen"/>
      <path d="M1440,310.28l-3.6.74-13.67-4.67s-11.5,3.5-11.67,2.83c-.17-.67-14.33,4.33-14.83,4.33s-10.33,10.33-10.33,10.33h-6.83s-10.33,7.17-10.33,7.67-11.17,3.17-11.17,3.17l-13,10.33-1.67,9.67-8.83-1.17-8.33,6.83-6.5,7.5h-8.33l-5.33,3-6.5-1.33h-6.5l-3.83,4.17-5,1.33-6-2-11,7.17-1.17,8h-7.5l-8.33,8.5,4,11.33-10.5.67-10.5,6-6.83,1.83-1.67,8.33,2.83,6-12.5,1.83-10.5,7.83-10-3.5-1.5-12.5-18-8.67-16.83,1.5-9.33,7.83-12.17,17.17-8,3.67-7.17,5.33s-8.67,1.17-9.5,1.17-20.17,5.26-20.17,5.26l-9.5,4.07-8.83-2.33,11-7.5-20.83-.5-16.83,1.67-7.33-7-8.83-1.5-17.83-11-26.33-7.5-11.5,6.33-4,8.67h-5.17l-.83,1.83-4.67,1.5-.5,5.5,5.17,6.33-6.17,5.5.17,4.33,4.17,1.5-7.83,1.5-9.33-1.5-17,7.83-9.67-1.67-8,2-1.17,6.17-8.6,1.73-9.4-3.73-12-1.9-5.67,3.56-11,3.83-14.33-.67-2.33,2.33h-23l-5.5,2.19,7.5,2.48,614.6,14.43v-196Z" fill="url(#linear-gradient)"/>
      <g>
        <path d="M1171.94,436.51c-1.42.53-13.13,3.67-13.13,3.67l-4-4.25,9-9.38,12,.63,16.95-1.01-.2-1.66-18-8.67-16.83,1.5-9.33,7.83-12.17,17.17-8,3.67-7.17,5.33s-8.67,1.17-9.5,1.17-20.17,5.26-20.17,5.26l-9.5,4.07-8.83-2.33,11-7.5-20.83-.5-16.83,1.67,11.55-1.14-7.52,5.89,11.39,6.75-15,3.05s-21.46-.8-22.5-.05c-.09.06-.1.07,0,0,0,0,0,0,0,0,.87-.64,9.75-7.25,9.75-7.25l-7.75-6-19.25,3.5-8.5-2,14.25-4,1-4.5-8.75,3-10.5-2.5h-6.75l20.25-11-9.86-7.29-12.14-3.46-11.5,6.33-4,8.67h-5.17l-.83,1.83-4.67,1.5-.5,5.5,5.17,6.33-6.17,5.5.17,4.33,4.17,1.5-7.83,1.5-9.33-1.5-17,7.83-9.67-1.67-8,2-1.17,6.17-8.6,1.73-9.4-3.73-12-1.9-5.67,3.56-11,3.83-14.33-.67-2.33,2.33h-23l-5.5,2.19,55.67.46,31.25-2.64,7.07,2.19,31.18-6.56,86.75-11.62-4,6.94h13.25l5.5-8.19,38.5-1.5,20.25-1.5s45.5-13,48.75-13.25c1.02-.08,5.1-.43,10.19-.87,3.25-5.79,8.7-15.36,9.69-16.3Z" fill="#fff"/>
        <path d="M1368.73,331.52c0,.5-11.17,3.17-11.17,3.17l-13,10.33-1.67,9.67-8.83-1.17-8.33,6.83-6.5,7.5h-8.33l-5.33,3-6.5-1.33h-6.5l-3.83,4.17-5,1.33-6-2-11,7.17-1.17,8h-7.5l-8.33,8.5,4,11.33-10.5.67-10.5,6-6.83,1.83-1.67,8.33,2.83,6-3.05,2.41-4.95,2.17-7,8.5s5.56.84,10.03,1.34l12.35-2.77,7.38-9.57,1.75-5.75,26.75-7-4.25-5.5,16.25-12.5h4l4.75-9,13.75-8.25,11.5-2,27.75-13.5,5-4.5,11.5-16.75,26-14-4.25-3.25-13.58.58Z" fill="#fff"/>
        <path d="M1396.23,313.52c-.5,0-10.33,10.33-10.33,10.33l4.17,3.58,11.25-.25,3-8.25,4.5-8.5,2.25-1.25c-.17-.67-14.33,4.33-14.83,4.33Z" fill="#fff"/>
      </g>
      <path d="M1089.06,462.93l4.62-5.78c-1.4.38-2.29.62-2.29.62l-9.5,4.07-8.83-2.33,5.99-4.08h-11.49l4.5,2.25-4.5,7.5,21.5-2.25Z" fill="#fafaff"/>
      <polygon points="0 318 0 548.34 582.22 489.83 563.72 483.72 544.89 479.56 534.22 478.36 514.22 469.39 514.22 463.22 498.56 459.56 493.53 459.56 487.39 455.86 480.89 454.72 470.06 447.72 460.56 447.72 452.56 445.72 445.56 445.72 442.56 444.06 417.56 451.56 386.89 462.06 394.39 473.22 385.89 472.72 378.89 470.56 352.72 468.22 348.39 464.56 336.06 463.39 328.06 461.06 328.06 456.72 305.06 447.06 295.72 446.72 273.72 437.06 259.56 430.83 247.06 434.06 260.89 443.39 254.06 448.39 243.22 451.39 236.72 446.56 231.22 438.22 219.22 436.06 188.06 421.72 185.72 410.89 180.72 405.56 176.06 399.89 150.72 395.72 130.72 395.72 120.72 390.39 113.06 389.39 113.89 382.22 104.72 360.56 93.06 349.89 74.22 347.39 73.56 338.22 55.39 327.72 34.39 327.72 27.06 328.72 17.22 317.56 9.56 319.39 1.06 317.56 0 318" fill="url(#linear-gradient-2)"/>
      <path d="M188.06,421.72l-2.33-10.83-5-5.33-4.67-5.67-25.33-4.17h-20l-10-5.33-7.67-1,.83-7.17-9.17-21.67-11.67-10.67-18.83-2.5-.67-9.17-18.17-10.5h-21l-7.33,1-9.83-11.17-7.67,1.83-8.5-1.83-1.06-.19v15.62c12.39,4.24,38.04,13.07,40.06,14.07,2.67,1.33,19.67,19.33,19.67,19.33l1.33,6.33-15.33-4.67-9,1-16.33-12-7.33,8,17.67,15.33,5.67,6.67,17,4-2.33-6.33,25.67,10-6-13,30.67,17.67,27,22.33,27.67-8.67,13.33,8.67-28.33,19.33-34.67-6.67-5.67,1-6.33-10.33-13-3.67,5.67-5.33-3.33-11.33-7,3.33-15.67-6.33,4.67,14.67-9.67,2-6.67-16.33-19,5-30.39-4.96v9.25l16.72,11.04,19.33-1.33,19.33,11.33,21.33,5.33,37,13s-8.33-9.33-7-9.33,36,4.67,36,4.67l15-13,17.33-2.23,29.33,3.9-16.33-13Z" fill="#fff"/>
      <polygon points="176.39 444.72 173.72 450.72 202.72 462.39 239.06 465.39 253.39 464.06 241.72 455.86 243.22 451.39 236.72 446.56 231.22 438.22 219.22 436.06 196.72 443.06 176.39 444.72" fill="#fff"/>
      <polygon points="268.72 453.72 285.39 465.39 260.39 468.06 299.39 471.06 335.06 475.06 365.06 478.36 402.06 483.06 440.39 486.09 399.72 476.39 394.39 473.22 385.89 472.72 378.89 470.56 352.72 468.22 348.39 464.56 336.06 463.39 328.06 461.06 328.06 456.72 305.06 447.06 295.72 446.72 273.72 437.06 259.56 430.83 247.06 434.06 260.89 443.39 268.72 453.72" fill="#fff"/>
      <path d="M563.72,483.72l-18.83-4.17-10.67-1.19-20-8.97v-6.17l-15.67-3.67h-5.02l-6.14-3.69-6.5-1.14-10.83-7h-9.5l-8-2h-7l-3-1.67-25,7.5-12.89,4.41,21.06,1.75,11.33,5s-15,6.67-13.33,6.67,21.67,10.33,22.67,10.33,39,2,39,2l36.27,4.36,29.33,3.74h31.23l-18.5-6.1Z" fill="#fff"/>
      <g>
        <path d="M1024.32,467.68s0,0,0,0c-.09.07-.08.06,0,0Z" fill="none" stroke="#dddaf2" stroke-miterlimit="10" stroke-width=".75"/>
        <path d="M994.56,447.93l10.5,2.5,8.75-3-1,4.5-14.25,4,8.5,2,19.25-3.5,7.75,6s-8.88,6.61-9.75,7.25c1.04-.75,22.5.05,22.5.05l15-3.05-11.39-6.75,7.52-5.89-11.55,1.14-7.33-7-8.83-1.5-17.83-11-14.19-4.04,9.86,7.29-20.25,11h6.75Z" fill="none" stroke="#dddaf2" stroke-miterlimit="10" stroke-width=".75"/>
      </g>
      <path d="M1440,311.26l-3.6-.25-13.67-4.67s-11.5,3.5-11.67,2.83c0,0,0,0,0,0h0s-2.25,1.25-2.25,1.25l-4.5,8.5-3,8.25-11.25.25-4.17-3.58h-6.83s-10.33,7.17-10.33,7.67l13.58-.58,4.25,3.25-26,14-11.5,16.75-5,4.5-27.75,13.5-11.5,2-13.75,8.25-4.75,9h-4l-16.25,12.5,4.25,5.5-26.75,7-1.75,5.75-7.38,9.57-12.35,2.77c-4.46-.5-10.03-1.34-10.03-1.34l7-8.5,4.95-2.17,3.05-2.41h0s0,0,0,0l-12.5,1.83-10.5,7.83-10-3.5-1.3-10.84-16.95,1.01-12-.63-9,9.38,4,4.25s11.71-3.14,13.13-3.67c-.98.93-6.44,10.51-9.69,16.3l-10.19.87-21.67,5.63-27.08,7.62-20.25,1.5-38.5,1.5-5.5,8.19h-13.25l4-6.94-33.31,4.46-53.44,7.16-31.18,6.56-7.07-2.19" fill="none" stroke="#dddaf2" stroke-miterlimit="10"/>
      <line x1="904.81" y1="487.18" x2="872.06" y2="489.95" fill="none" stroke="#c7c7e5" stroke-miterlimit="10" stroke-width=".5"/>
      <path d="M0,412.5h1.5l15.22,9.89,19.33-1.33,19.33,11.33,21.33,5.33,37,13s-8.33-9.33-7-9.33,36,4.67,36,4.67l15-13,17.33-2.23,29.33,3.9-16.33-13-2.33-10.83-5-5.33-4.67-5.67-25.33-4.17h-20l-10-5.33-7.67-1,.83-7.17-9.17-21.67-11.67-10.67-18.83-2.5-.67-9.17-18.17-10.5h-21l-7.33,1-9.83-11.17-7.67,1.83-7.06-1.89H0" fill="none" stroke="#dddaf2" stroke-miterlimit="10"/>
      <path d="M0,333.5h1.5s36.6,12.58,38.56,13.56c2.67,1.33,19.67,19.33,19.67,19.33l1.33,6.33-15.33-4.67-9,1-16.33-12-7.33,8,17.67,15.33,5.67,6.67,17,4-2.33-6.33,25.67,10-6-13,30.67,17.67,27,22.33,27.67-8.67,13.33,8.67-28.33,19.33-34.67-6.67-5.67,1-6.33-10.33-13-3.67,5.67-5.33-3.33-11.33-7,3.33-15.67-6.33,4.67,14.67-9.67,2-6.67-16.33-19,5-30.39-4.96" fill="none" stroke="#dddaf2" stroke-miterlimit="10"/>
      <polygon points="176.39 444.72 173.72 450.72 202.72 462.39 239.06 465.39 253.39 464.06 241.72 455.86 243.22 451.39 236.72 446.56 231.22 438.22 219.22 436.06 196.72 443.06 176.39 444.72" fill="none" stroke="#dddaf2" stroke-miterlimit="10"/>
      <polygon points="268.72 453.72 285.39 465.39 260.39 468.06 299.39 471.06 335.06 475.06 365.06 478.36 402.06 483.06 440.39 486.09 399.72 476.39 394.39 473.22 385.89 472.72 378.89 470.56 352.72 468.22 348.39 464.56 336.06 463.39 328.06 461.06 328.06 456.72 305.06 447.06 295.72 446.72 273.72 437.06 259.56 430.83 247.06 434.06 260.89 443.39 268.72 453.72" fill="none" stroke="#dddaf2" stroke-miterlimit="10"/>
      <path d="M563.72,483.72l-18.83-4.17-10.67-1.19-20-8.97v-6.17l-15.67-3.67h-5.02l-6.14-3.69-6.5-1.14-10.83-7h-9.5l-8-2h-7l-3-1.67-25,7.5-12.89,4.41,21.06,1.75,11.33,5s-15,6.67-13.33,6.67,21.67,10.33,22.67,10.33,39,2,39,2l36.27,4.36,29.33,3.74h31.23l-18.5-6.1Z" fill="none" stroke="#dddaf2" stroke-miterlimit="10"/>
      <polyline points="0 318 3 318 10 319 17.22 317.56 27.06 328.72 34.39 327.72 55.39 327.72 73.56 338.22 74.22 347.39 93.06 349.89 104.72 360.56 113.89 382.22 113.06 389.39 120.72 390.39 130.72 395.72 150.72 395.72 176.06 399.89 180.72 405.56 185.72 410.89 188.06 421.72 219.22 436.06 231.22 438.22 236.72 446.56 243.22 451.39 254.06 448.39 260.89 443.39 247.06 434.06 259.56 430.83 273.72 437.06 295.72 446.72 305.06 447.06 328.06 456.72 328.06 461.06 336.06 463.39 348.39 464.56 352.72 468.22 378.89 470.56 385.89 472.72 394.39 473.22 386.89 462.06 417.56 451.56 442.56 444.06 445.56 445.72 452.56 445.72 460.56 447.72 470.06 447.72 480.89 454.72 487.39 455.86 493.53 459.56 498.56 459.56 514.22 463.22 514.22 469.39 534.22 478.36 544.89 479.56 563.72 483.72 582.22 489.83 0 548" fill="none" stroke="#bfb2ed" stroke-miterlimit="10" stroke-width="2"/>
      <path d="M1440,506h-2l-612.6-14.15-7.5-2.48,5.5-2.19h23l2.33-2.33,14.33.67,11-3.83,5.67-3.56,12,1.9,9.4,3.73,8.6-1.73,1.17-6.17,8-2,9.67,1.67,17-7.83,9.33,1.5,7.83-1.5-4.17-1.5-.17-4.33,6.17-5.5-5.17-6.33.5-5.5,4.67-1.5.83-1.83h5.17l4-8.67,11.5-6.33,26.33,7.5,17.83,11,8.83,1.5,7.33,7,16.83-1.67,20.83.5-11,7.5,8.83,2.33,9.5-4.07s19.33-5.26,20.17-5.26,9.5-1.17,9.5-1.17l7.17-5.33,8-3.67,12.17-17.17,9.33-7.83,16.83-1.5,18,8.67,1.5,12.5,10,3.5,10.5-7.83,12.5-1.83-2.83-6,1.67-8.33,6.83-1.83,10.5-6,10.5-.67-4-11.33,8.33-8.5h7.5l1.17-8,11-7.17,6,2,5-1.33,3.83-4.17h6.5l6.5,1.33,5.33-3h8.33l6.5-7.5,8.33-6.83,8.83,1.17,1.67-9.67,13-10.33s11.17-2.67,11.17-3.17,10.33-7.67,10.33-7.67h6.83s9.83-10.33,10.33-10.33,14.67-5,14.83-4.33,11.67-2.83,11.67-2.83l13.67,4.67,3.6-.02" fill="none" stroke="#bfb2ed" stroke-miterlimit="10" stroke-width="2"/>
      <path d="M840.06,444.17l-4.17-1.17-6.17,1.17h10.33ZM744.56,413.81l-3-2.71-15.33,2.71h18.33ZM452.74,416.19l-33.11-9-12.4-8.25-20.47-1.75-9.56-6.25-14.95-7.75-5.38-6-13.75-3-10.76-5.62,20.33,2.37,17.04,5.25,30.19,2.75,40.95,6,33.48,6.25,19.43,5.25,56.49,5.92,23.31,5.33-65.46-20.25-49.32-29-19.13-15.75h-21.22l-41.85-15.25,11.96-1.92-32.58-23.08-55.89-57.5-16.5-8.51,2.16-30.49h-13.85l-15.74-15,36.77,6.75-21.02-17.25-67.48-111.25L184.6,0H0v306l38.23,13.44,58.29,15.75-1.2-6,53.5,19.5-7.77,3.25,69.05,27,86.98,15.75,37.34,7.26-4.86-.29,22.25,5.75,16.22.91,33.96,6.13,36.47,3.75,14.28-2ZM911.73,423.83l-14.67,1.67-17,2.71,23.5-.9,8.17-3.48ZM754.56,426l11.17.33,21.5-1.83,18.33-1.4,8.67-3.16,20.17-.23,6.17-1.05,24.17-3.67,28.17-5.5-14.71-.5,21.21-2.83,27.83-8.17-31.33,1.17-10.17.67h-7.1l-2.56,3.83-15.5,1.17-22.83,4.17s-5.17,4.83-5.67,4.83,7.67,1.33,7.67,1.33l-12.83,3.79h-13.17l9.67-3.79h-9.67l-11.5,3.79-32.83,1.88-32.33,6.48,17.5-1.31ZM463.81,436.39l-30.25-7.75v-2.75l-28.5-3,27.5,8.25,31.25,5.25ZM889.23,432.96l-7.5-.79-10.17,3.5,17.67-2.71ZM565.23,417.91l-16.5-5.17h-26.5s-24.5-1.67-24-1.33,15.83,5.17,16.33,5.33,36.33,4.5,36.33,4.5c0,0,8,2.83,8.67,2.83s21.33.5,21.33.5l10.5,3.5,23.17-.83-17.5-5.17-31.83-4.17ZM908.56,426.5l-9.5,3.86h19.67l6.33,3.95,49.5-10.31-38-.9-28,3.4ZM861.75,467.17l-3.19-2.17-20,.92-4,2.42-8.33,1.15-1.33-1.15h-9.67l-14.83,2.31,23.88.64,34.29-.64,45.33-3.9,12.83-3.9-40.5,3.08-14.48,1.25ZM429.06,441.35l11.5,3,24.75,3-23.25-6h-13ZM1440,0h-246.38s-11.06,73.42-11.06,73.42l-81.75,130.5,26.08-8.92-104.5,114.33,8.83.67-22.67,14.83-33.17,16-7,12.33,2.17,7.67-4.17,2.67-3.17,6.17-12.5.83-10.83,1.67s-15,4-15.5,4.17c-.5.17,3.67,1.83,3.67,1.83l19.67-1.5-18.17,4.5-28.44,11.5,37.44-4.67,53.83-11,39.5-13.83,28.18-5-3.51,8.5-9.17,4,3,2.33-19,6.17-23.17,10.83,35.5-6,11.33-3.17s-6.17,5.33-7.33,5.33c-1.05,0,9.44.95,11.86,1.01-2.64.19-15.19,1.49-15.19,1.49l-26.17,11.5-20.33,2.83h-7.83l-17.67,7.17-30.33,2.49h29.84l11.44,2.44,50.78-6.59,19.58-8.53,39.99-10.08,32.12-3.29,4.6-5.43-17.97-2.13,53.5-11.82,74.04-18.99,2.71-3.49,20.74-3.49,31.4-13.04s-9.3-2.28-9.89-2.28,16.13-7.27,16.13-7.27l70.5-15.66,68.44-23.68V0ZM467.31,427.58h-13.75l21,6h21l-11-3.75-17.25-2.25ZM663.23,412.97l-22.83,2.17,27.5,2.17s14.17-.83,15.33-.83,3.5-1.33,3.5-1.33h-15.67l-7.83-2.17ZM773.06,451.47h-8.83l-3.83-2.69h-14.67l-13,9.19-11.5-6.5-13,3-2.83,3.33-9.83,1.33-4.83,3.67h63.17l5-2.5,3.92,3.92h12.92l17.81-2.58-14.64-4.17-5.83-6Z" fill="#e6e6fc" opacity=".3"/>
      <rect y="11.22" width="1440" height="528.96" fill="none"/>
      <g>
        <path id="Orig_Path" data-name="Orig Path" d="M699.54,664.72h9.35l-.65,7.07h4.15l2.08-7.07,51.15-1.03,26.35-2.39,6.56,5.47,7.79-4.28.58-3.25h7.66l6.88,5.7,1.95-2.97-2.08-3.88,31.42-4.34,59.59-9.24,52.71-19.28,9.15-7.31,1.36-15.32s1.43-1.9,1.82-1.9-4.92-1.14-4.92-1.14l-6.56-3.32-1.28-1.42,1.28-8.38-8.29-3.72-8.8.87-7.13-4.34-.24-1.76-6.13-9.37-2.48-2.37-4.6-2.57-7.18-6.75-4.58-1.05-15.03.71-1.33-1.32-2.08-1.03-13.72-1.73-17.14-5.05h-10.77l-9.74-3.19h-4.38l-6.13-2.51-17.78-.51h-7.92l-6.17-2.5-17.92-2.24-17.92-1.71h-135.19l-18.79,1.41-10.37,3.72-4.68,3.06-15.75-.4-2.6-1.12-3.84-.28-5.55,1.05-8.91,1.34-13.63-.11-15.84,1.37-15.22,1.9-5.4,1.03-3.47,2.95,3.47,2.95,19.42.92-1.97.72-12.05,3.11h-13.73l-6.49,1.48-5.45,1.37-9.6,5.59-2.68-2.89-2.14-.67-3.56,4.36.71,6.96-4.49,1.38-2.85,1.93-9.15,11.29-2.47,3.76-3.94.82-8.65,5.45,9.87,12.44,25.83,16.88,29.91,14.72s-9.47,5.48-8.98,5.36,8.26-.11,8.98-.23,8.13-2.28,8.13-2.28l49.07,9.24s-1.04,1.48-.52,1.48,28.43,1.94,28.43,1.94l12.59,1.37,2.08,1.6,10.64.91,3.51,1.03,12.46.68.13,4.22,4.54-3.19,29.08.34,23.37-.57,2.34,3.76h2.47l2.08-3.76Z" fill="#eef"/>
        <path d="M718.25,590.25l-9.78,2.85-9.64-.06-6.86,1.26-11.27,5.03h-13.93s-10.88-1.37-11.76,0c-.88,1.37-9.93,0-9.93,0h-13.03l5.63,2.91-1.36,2.44-11.39,2.17-14.17-.3,9.57,3.53,11.72,2.29-5.66,4.8-6.06,1.56h6.06v4.98l-6.06,3.61-1.97,3.94s8.91.11,10.37-.18,11.49,0,11.49,0l2.24,4.98-2.29,4.95,12.81-2.77s-5.35,2.48-3.99,2.77,14.92-2.77,14.92-2.77l-.46,4.77-4.38,5.91s6.26-2.37,8.71-3.24,9.31-4.96,9.31-4.96l8.32-.95,1.17,5.4,9.35-8.03h10.52l2.84,5.86,6.07-5.86-.86,4.74v7.03l3.78-5.91,4.68-4.77,3.07,1.54,3.79,2.12,3.14-3.65,7.03,3.36,7.57,5.26-1.02-5.84,2.16-3.92,3.46-2.92,9.66,4.06,5.39,3.36h6.13l-1.62-1.82h8.63l10.44,1.24-4.71-3.86-2.81-3.37,10.81,1.97h10.19l-13.47-3.07-8.84-4.75,12.12-.62,13.73-1.94-6.16-.58,17.26-4.82h10.81l-22.78-3.37h-9.35l16.94-2.91,15.19-9.01,12.56-8.08-14.78,2.72-16.19,5.35,8.19-7.18,3.78-3.41-16.34,7.56h-7.14l8.89-7.56-13.44,5.24h-8.9l13.44-7.69h-9l-4.71-1.39,4.71-5.88v-3.64l-11.61,6.98-10,2.54,4.16-3.66-11.52,6.45h-9.66l-4.6-2.79-5.73,1.69-7.06,1.9-4.95-3.59-5.18,2.85-1.67-2.85h-4.68Z" fill="#fff"/>
        <polygon points="697.44 651.39 690.91 656.39 685.39 652.14 674.87 658.15 668.52 658.15 674.43 652.92 678.38 645.71 673.34 649.01 667.18 653.19 656.69 658.15 656.69 653.19 642.67 656.39 653.19 648.75 658 643 642.67 649.01 632.16 652.92 625.15 653.97 614.41 656.39 614.41 653.71 607.64 656.39 595.13 658.42 606.85 659.7 608.93 661.3 619.57 662.21 623.08 663.23 635.54 663.92 635.67 668.14 640.21 664.94 692.66 664.72 694.99 668.48 697.46 668.48 699.54 664.72 708.88 664.72 708.24 671.79 712.39 671.79 714.47 664.72 765.61 663.69 791.97 661.3 798.52 666.77 806.31 662.49 806.9 659.24 814.55 659.24 821.43 664.94 823.38 661.98 821.3 658.1 810.4 650.13 810.4 654.49 801.71 652.53 791.85 649.79 793.82 652.53 783.35 648.48 781.34 652.53 783.35 655.27 779.37 654.49 774.99 647.96 767.1 647.18 768.4 652.92 766.44 656.39 757.24 650.57 751.33 646.92 755.71 652.53 753.74 655.01 746.34 659.45 742.13 658.41 739.5 647.96 736.86 648.48 736.86 654.23 731.95 654.23 730.6 649.27 729.13 650.31 726.96 657.62 723.61 654.75 720 658.41 721.71 645.35 717.81 652.92 710.86 660.24 711.42 655.76 710.45 651.53 707.51 648.75 705.34 652.92 705.54 649.27 704.56 643.39 697.44 651.39" fill="url(#linear-gradient-3)"/>
        <path d="M711.68,574.87l-6.83-4.46-6.97-12-1.31-6.69-3.86-3.65,2.11,4.43-.22,9.53,1.97,8.37-7.89-6.16v4.58l-6.79-4.58-1.97-14.34-.44,11.36.44,5.1,1.97,7.16-2.63,3.13-8.84-4.7,1.61,5.48-10.73-9.88-8.11-15.21.88,11.89,3.51,10.62-4.82-2.91-3.77-7.72.92,6.16s-3.72-2.1-5.26-2.84c-1.53-.74-3.07-6.31-3.07-6.31l-6.79-11.36,1.14,4.86,4.23,11.77,2.29,8.33,6.52,8.34-4.99-.77-10.73-3.66-6.86-12.42v4.04l-4.75-2.84-4.83-7.26-3.93-4.91v6.45l3.93,7.15,4.06,13.45,11.18,1.93,10.4,4.83,8.77,1.04-4.6-3.66h6.79l1.1-2.21-3.28-7.7,7.66,2.12,11.54,5.58v-2.6l2.92-1.04,6.57,1.04,5.37,3.77-3.4-6.76,10.82,4.46-.96-2.52-.22-5.86,7.67,3.91.22-6.82,4.16,2.91,10.44,3.91.46-6.82,4,4.7,2.41,2.12,4.16-3.91.96-6.04,1.02,8.1v1.86l6.79-3.91,5.93-2.91,1.08-5.6,1.1,6.9-2.17,5.52,6.77-.82,9.64-8.81,5.04-8.85-1.31,8.85-4.16,5.71,3.07,5.86,8.11-3.02,10.73-8.55,2.85-4.91-2.19,9.28-2.41,5.26,10.45-2.64,5.32-4.18-3.72,8.76-4.56,3.64,5.21-1.16,6.57-4.43-2.19,5.58-3.72,3.34h9.86l11.32-6.98,7.74-10.32-4.16,10.32,6.13-3.8,5.91-4.96-4.16,6.82h3.07l-4.8,3.84,10.6-3.75,5.59-14.63-1.53-7.89-2.63,10.18-3.07,2.62,1.1-4.91-.44-5.83-3.07,5.83-5.7-2.98-.88,2.98-5.26,3.32v-5.73l-2.63,4.69-5.26,3.87h-5.26l3.76-10.1,1.06-3.95-10.28,10.01-3.96,2.46-3.07-2.29-2.91-5.27-4.98-8.76v7.8l-10.52,8.52-4.38-2.46-3.29-6.06-.66-14.86-1.1,9.32-5.48,7.07-4.38,2.4-3.29,2.12,1.64-6.06v-7.8l-4.71,9.34-.88-13.77-2.19-7.34v14.04l-2.39,6.49-6.87,5.27v-8.64l-1.91,6.35-3.72-4.24.44-10.1-3.07,14.34-4.6,3.32-2.19-7.26-3.8,3.94-7.37-2.98-3.29-6.49,1.49,7.07,6.83,13.03Z" fill="url(#linear-gradient-4)"/>
        <polygon points="647.85 665.29 655.6 663.92 661.51 662.69 664.8 660.9 664.8 663.92 676.04 663.92 687.36 662.9 689.99 658.73 692.66 664.72 669.29 665.29 647.85 665.29" fill="#9b9bc4"/>
        <path d="M635.93,636.38l-39.48,1.39s-12.45-4.02-11.93-4.18,10.39-4.18,10.39-4.18l17.4-3.71s10.26-5.81,9.48-5.46-27.52,0-27.52,0l-9.16-.02-8.75-4.09,16.23-4.83-8.7-6.81,22.26-7.47,14.73-14.58-4.06-13.45h-7.88l-7.92-4.11-5.19-6.5s1.56,6.68,2.73,7.99,5.5,5.63,5.5,5.63l-13.55-.91-9.48-10.78,3.12,10.1-2.6,4.46h-2.21l-7.71-9.99,2.52,10.99.65,2.91-6.23-1.21s-9.09-6.12-9.87-7.16-3.51-5.22-3.51-5.22c0,0,2.21,6.35,2.6,6.96s7.01,8.05,7.01,8.05l2.6,2.24h-4.41l-11.29-10.44v4.8l-4.15-.62-5.82-3.24v5.1l.75,2.94-10.41-4.8-6.46-9.81s4.69,9.5,4.49,10.28,5.12,7.72,5.12,7.72l11.81,5.74-6.88.62-3.38,1.08-14.62-5.88,11.07,7.89,14.84,4.26-6.22,3.91-7.67.38-5.07,2.79-5.97,1.58-.42,2.99,3.54,3.19v1.34l-8.76-1.34-12.82-6.86,2.1,5.26-3.63.73-12.07-4.57-9.61-4.42,9.35,7.34,15.32,7.27v5.08l-8.83-2.49s-9.87-6-10.13-6.46-11.29-12.07-11.29-12.07l-9.09-1.39s11.55,11.05,11.94,11.72,7.4,7.05,7.4,7.05l11.94,5.84,7.53,3.71,3.56,2.6,8.32,11.02,62.89,20.27,23.68,2.17,5.55-12.85-5.55-4.64-14.98,3.1,11.81-9.13,20.9-.46,2.6-.96,11.55-3.38Z" fill="url(#linear-gradient-5)"/>
        <path d="M824.79,638.59l13.09-3.36,10.82-6.49-10.28,2.76-26.98-2.08,29.15-5.25,6.81-3.94,9.4-4.09-11.01-.02,15.26-8.71-6.52-1.09,16.8-10.65-23.59,5.67,11.9-11.56-37.12,5.89,20.13-8.5-15.69-3.57-6.82-.97,10.6-3.75,9.43-18.86-3.25,9.97v2.04l-1.95,5.77,4.76.6,11.58-7.69-.08,4.17.3,4.24,10.35-14.23-2.7,10.99-.7,2.91-.02,6.22,9.2-5.41,12.45-11.46-4.65,7.5-4.11,5.53-2.16,1.29h1.99l7.31-5.37,1.84,3.48,7.44-4.38,4.68-4.15,1.57,6.01-5.03,7.45,10.63-4.93,11.7-14.19s-5.04,9.5-4.82,10.28-4.42,8.24-4.42,8.24l-13.76,5.23,7.39.62,5.14.51,12.39-1.47-10.1,4.05-15.93,4.26,6.68,3.91,5.28,2.35-7.36,5.77,22.17-3.38-7.02,4.58-16.23,7.77,20.89-5.61,8.43-.57,13.76-6.86-11.8,9.39-14.72,4.89,14.19-.31,17.49-4.13,9.72-5.5-8.18,8.14-8.27,4.21,9.48-2.49,10.87-6.46,7.37-6.38-9.5,11.48-9.58,6.05-8.08,3.71-3.82,2.6-8.94,11.02-67.53,20.27-25.42,2.17-16.66-14.58,14.72,2.88,10.13-1.49-10.13-4.28-11.69-6.13,11.36-2.52Z" fill="url(#linear-gradient-6)"/>
        <polygon points="588.86 657.95 595.76 655.64 606.66 656.55 613.21 657.95 621.58 659.55 632.33 657.6 635.93 654.39 632.89 660.9 633.03 663.92 623.08 663.92 619.57 662.21 608.93 661.3 606.85 659.7 588.86 657.95" fill="#9b9bc4"/>
        <polygon points="718.25 664.66 724.6 662.01 729.16 659.15 732.86 661.3 739.73 661.3 745.63 661.3 751.55 662.01 765.57 661.47 764.03 658.73 771.26 661.69 784.14 662.01 765.61 663.69 718.25 664.66" fill="#9b9bc4"/>
        <polygon points="814.55 659.24 814.55 656.39 811.26 652.92 818.55 656.08 821.3 658.1 823.38 661.98 821.43 664.94 814.55 659.24" fill="#9b9bc4"/>
        <polygon points="564.17 620.25 565.83 615.69 569.14 612.36 557.15 615.69 549.86 616.6 539.28 618.67 532.04 619.69 549.57 621.95 557.15 621.95 564.17 620.25" fill="#eef"/>
        <ellipse cx="720" cy="611.35" rx="52.24" ry="18.26" fill="none"/>
        <polygon points="673.85 620.77 676.04 620.77 678.52 622.11 676.77 624.19 671.81 627.62 664.36 631.07 670.26 626.31 673.41 623.51 664.36 624.87 671.44 620.34 671.44 618.67 673.85 620.77" fill="#b2b2db"/>
        <polyline points="665.96 611.35 666.33 612.69 665.96 613.79 664.8 614.61 660.52 616.03 664.36 613.69 665.34 611.93 665.96 611.35" fill="#b2b2db"/>
        <polygon points="667.18 617.45 668.74 618.67 668.74 620.41 666.77 621.95 666.77 619.7 667.18 617.45" fill="#b2b2db"/>
        <polygon points="769.14 605.15 773.31 609.38 777.69 610.62 783.24 610.62 773.31 607.89 769.14 605.15" fill="#b2b2db"/>
        <polygon points="774.33 613.32 773.31 615.59 775.2 616.29 778.71 616.6 781.92 616.29 777.61 614.96 774.33 613.32" fill="#b2b2db"/>
        <polygon points="767.17 621.95 768.4 622.89 772.24 624.79 776.19 628.73 772.24 626.65 768.4 624.79 767.17 621.95" fill="#b2b2db"/>
        <path d="M771.11,619.7l2.19-2.25h7.45s5.99,2.37,6.72,2.52,5.26,0,5.26,0l-10.08,1.25-6.46-1.25-4.51,1.98-.57-2.25Z" fill="#b2b2db"/>
        <polyline points="759.87 623.15 757.39 625.24 754.32 627.93 749.9 629.61 752.13 630.19 754.89 631.66 757.09 634.21 757.39 631.07 758.85 627.31 759.87 626.65 765.13 627.93 765.86 624.79 764.47 622.89 759.87 623.15" fill="#b2b2db"/>
        <polygon points="762.94 631.07 764.47 633.27 767.17 635.45 769.14 636.47 766.04 633.77 762.94 631.07" fill="#b2b2db"/>
        <polygon points="668.74 606.54 664.8 607.96 659.04 610.62 665.96 608.73 668.74 606.54" fill="#b2b2db"/>
        <polygon points="730.95 632.68 733.44 631.07 735.19 631.07 737.09 633.77 737.96 635.74 734.46 633.41 730.95 633.41 729.78 632.68 730.95 632.68" fill="#b2b2db"/>
        <polygon points="696.78 631.07 700.28 631.07 701.88 631.07 704.23 631.07 702.15 632.68 699.26 633.41 698.24 632.24 696.78 631.07" fill="#b2b2db"/>
        <polyline points="674.66 636.05 672.1 638.23 670.42 638.23 673.27 636.47" fill="#b2b2db"/>
        <polygon points="645.08 617.45 639.38 619.97 630.27 619.97 636.32 618.67 639.53 618.67 645.08 617.45" fill="#b2b2db"/>
        <polygon points="894.52 583.6 892.94 587.71 885.17 595.67 881.09 598.61 890.87 595.67 895.69 590.73 896.73 587.71 899.6 580.56 894.52 583.6" fill="#fff"/>
        <polygon points="630.18 556.36 630.18 560.01 632.05 564.25 634.13 571.09 632.05 568.83 629.09 562.04 629.09 560.01 630.18 556.36" fill="#fff"/>
        <polygon points="593.16 596.42 606.14 597.03 612.4 599.33 615.73 600.92 610.76 600.26 604.44 598.67 598.42 598.61 593.16 596.42" fill="#fff"/>
        <path d="M637.67,594.85l-4.42-1.76v-1.82s1.36-.66,2.21,0,2.83,1.31,2.83,1.31l-.61,2.26Z" fill="#fff"/>
        <polygon points="655.6 596.42 651.22 594.85 647.85 594.09 652.97 594.09 656.69 595.25 659.04 597.5 655.6 596.42" fill="#fff"/>
        <polygon points="664.36 586.58 664.8 589.01 666.77 590.25 668.74 591.49 667.75 590.25 665.96 588.43 664.36 586.58" fill="#fff"/>
        <polygon points="679.55 587.71 678.52 589.04 680.57 590.25 683.34 593.09 685.28 594.75 683.78 591.49 682.76 589.04 679.55 587.71" fill="#fff"/>
        <polygon points="692.62 592.08 694.37 590.98 696.78 590.98 698.82 590.25 699.55 590.25 698.82 593.03 695.32 592.92 692.62 592.08" fill="#fff"/>
        <polygon points="706.71 592.92 704.23 590.98 701.77 587.71 700.5 584.78 704.23 587.71 709.26 589.04 710.94 591.49 713.65 593.23 706.71 592.92" fill="#fff"/>
        <polygon points="732.08 587.71 735.04 584.78 739.73 584.78 746.51 582.58 745.41 586.58 739.96 587.71 736.06 587.71 732.08 587.71" fill="#fff"/>
        <polygon points="754.47 589.04 757.09 590.98 759.87 590.01 760.75 587.71 757.88 589 754.47 589.04" fill="#fff"/>
        <polygon points="716.39 586.58 716.39 587.71 719.63 587.71 720 586.58 717.52 584.78 716.39 586.58" fill="#fff"/>
        <polygon points="856.48 634.21 859.76 632.24 864.14 633.41 867.65 635.74 860.2 637.93 856.48 636.47 856.48 634.21" fill="#fff"/>
        <polygon points="631.61 644.07 625.36 645.67 623.08 648.27 620.33 651.37 625.97 647.72 630.27 645.67 631.61 644.07" fill="#fff"/>
        <polygon points="612.4 631.25 609.59 632.24 607.62 631.07 610.76 629.61 614.41 630.27 612.4 631.25" fill="#fff"/>
        <path d="M614.41,535.73l-10.37,3.72-7.86,3.12-7.03.18-6.43,1.01-1.71-.62-7.49.4-2.49,2.79-6.82.9-15.68-.13-13.06.78-2.18,1.43-1.25,4.8-1.97.72-12.05,3.11h-13.73l-6.49,1.48-5.45,1.37-9.6,5.59-2.68-2.89-2.14-.67-3.56,4.36.71,6.96-4.49,1.38-2.85,1.93-9.15,11.29-2.47,3.76-3.94.82-8.65,5.45,9.87,12.44,25.83,16.88,29.91,6.31s-9.47,5.48-8.98,5.36c.49-.11,8.26-.11,8.98-.23s8.13-2.28,8.13-2.28l49.07,17.65s-1.04,1.48-.52,1.48,28.43,1.94,28.43,1.94l12.59,1.37,2.08,1.6,10.64.91,3.5,1.03,12.46.68.13,4.22,4.54-3.19,29.08.34,23.37-.57,2.34,3.76h2.47l2.08-3.76h9.35l-.65,7.07h4.15l2.08-7.07,51.15-1.03,26.35-2.39,6.56,5.47,7.79-4.28.58-3.25h7.66l6.88,5.7,1.95-2.97-2.08-3.88,31.42-4.34,59.59-9.24,52.71-19.28,9.15-7.31,1.36-15.32s1.43-1.9,1.82-1.9-4.92-1.14-4.92-1.14l-6.56-3.32-1.28-1.42,1.28-8.38-8.29-3.72-8.8.87-7.13-4.34-.24-1.76-6.13-9.37-2.48-2.37-4.6-2.57-7.18-6.75-4.58-1.05-15.03.71-1.33-1.32-2.08-1.03-13.72-1.73-17.14-5.05h-10.77l-9.74-3.19h-4.38l-6.13-2.51-17.78-.51h-7.92l-6.17-2.5-17.92-2.24-17.92-1.71h-135.2l-18.79,1.41Z" fill="none"/>
        <path d="M0,498.52v845.48h1440V498.52s-246.56-9.26-720-9.26S0,498.52,0,498.52ZM786.31,536.03l17.92,2.24,6.17,2.5h7.92l17.78.51,6.13,2.51h4.38l9.74,3.19h10.77l17.14,5.05,13.72,1.73,2.08,1.03,1.33,1.32,15.03-.71,4.58,1.05,7.18,6.75,4.6,2.57,2.48,2.37,6.13,9.37.24,1.76,7.13,4.34,8.8-.87,8.29,3.72-1.28,8.38,1.28,1.42,6.56,3.32s5.31,1.14,4.92,1.14-1.82,1.9-1.82,1.9l-1.36,15.32-9.15,7.31-52.71,19.28-59.59,9.24-31.42,4.34,2.08,3.88-1.95,2.97-6.88-5.7h-7.66l-.58,3.25-7.79,4.28-6.56-5.47-26.35,2.39-51.15,1.03-2.08,7.07h-4.15l.65-7.07h-9.35l-2.08,3.76h-2.47l-2.34-3.76-23.37.57-29.08-.34-4.54,3.19-.13-4.22-12.46-.68-3.5-1.03-10.64-.91-2.08-1.6-12.59-1.37s-27.91-1.94-28.43-1.94.52-1.48.52-1.48l-49.07-17.65s-7.4,2.17-8.13,2.28-8.49.11-8.98.23c-.49.11,8.98-5.36,8.98-5.36l-29.91-6.31-25.83-16.88-9.87-12.44,8.65-5.45,3.94-.82,2.47-3.76,9.15-11.29,2.85-1.93,4.49-1.38-.71-6.96,3.56-4.36,2.14.67,2.68,2.89,9.6-5.59,5.45-1.37,6.49-1.48h13.73l12.05-3.11,1.97-.72,1.25-4.8,2.18-1.43,13.06-.78,15.68.13,6.82-.9,2.49-2.79,7.49-.4,1.71.62,6.43-1.01,7.03-.18,7.86-3.12,10.37-3.72,18.79-1.41h135.2l17.92,1.71Z" fill="url(#linear-gradient-7)"/>
        <path d="M1269.56,554.82l-58.81,6.45,17.53,6.03-34.27,3.95-52.96,3.08,22.98,8.41-7.4,12.03-75.94,11.84-101.54.87-4.13.99-.84,9.47-9.15,7.31-52.71,19.28-59.59,9.24-31.42,4.34,2.08,3.88-1.95,2.97-6.88-5.7h-7.66l-.58,3.25-7.79,4.28-6.56-5.47-26.35,2.39-51.15,1.03-2.08,7.07h-4.15l.65-7.07h-9.35l-2.08,3.76h-2.47l-2.34-3.76-23.37.57-29.08-.34-4.54,3.19-.13-4.22-12.46-.68-3.51-1.03-10.64-.91-2.08-1.6-12.59-1.37s-27.91-1.94-28.43-1.94.52-1.48.52-1.48l-49.07-17.65-8.13,2.28-8.98.23,8.98-5.36-28.48-10.4-21.42-17.4,2.61-5.73-3.75-.54-.88-2.44-5.04-1.05,3.94-2.1-.38-1.23-1.15-3.75-59.74,3.25-54.13-3.82-30.77-2.63,36.22-12.26-37.63-16.7,30.77-2.23,50.45-.13,76.23-9.04-83.21-1.37-49.46-12.25-88.02,8.16-8.57-9.7-23.76-1.88-212.99,3.38v811.44h1440v-792.68l-170.44,3.5Z" fill="url(#linear-gradient-8)"/>
        <polyline points="467.75 582.44 443.54 586.58 409.4 589.38 359.81 589.38 396.42 603.09 413.78 620.25 413.78 634.4 479.24 628.09 509.15 634.4 480.67 624 459.25 606.61 461.86 600.88 458.11 600.34" fill="url(#linear-gradient-9)"/>
        <polygon points="474.85 571.84 466.78 574.87 431.21 574.87 463.14 571.84 474.37 567.17 474.85 571.84" fill="url(#linear-gradient-10)"/>
        <polygon points="503.41 557.98 495.6 558.38 464.96 558.38 497.58 556.36 512.47 554.77 518.02 556.36 530.07 556.36 519.45 558.04 506.63 558.42 503.41 557.98" fill="url(#linear-gradient-11)"/>
        <polygon points="566.48 542.6 477.29 542.6 524.16 544.33 549.13 545.35 562.02 546.33 568.41 545.35 571.62 546.33 573.52 543.54 581.01 543.14 595.07 542.6 566.48 542.6" fill="url(#linear-gradient-12)"/>
        <polygon points="386.78 567.98 385.26 568.48 385.12 569.77 384.33 568.78 383.09 569.19 382.14 572.47 374.09 574.87 357.73 574.87 375.26 572.78 378.99 570.89 382.96 568.41 386.78 567.98" fill="url(#linear-gradient-13)"/>
        <polygon points="565.83 656.39 546.74 670.28 522.13 692.7 494.18 712.66 389.72 774.21 532.04 718.09 571.62 697.32 602.83 672.83 604.04 678.87 622.1 671.79 623.08 663.23 619.57 662.21 608.93 661.3 606.85 659.7 565.83 656.39" fill="url(#linear-gradient-14)"/>
        <polygon points="507.41 645.67 480.07 656.39 434.48 671.79 485.6 661.69 496.31 656.39 509.15 654.26 517.48 648.92 502.93 650.54 507.41 645.67" fill="url(#linear-gradient-15)"/>
        <polygon points="565.83 656.39 580.82 663.08 600.29 663.08 604.04 666.56 618.35 661.47 608.93 661.3 606.85 659.7 565.83 656.39" fill="url(#linear-gradient-16)"/>
        <polygon points="669.29 665.28 685.39 664.71 683.57 681.26 684.09 687.69 683.83 710.67 656.08 741.68 648.97 704.5 659.49 680.94 656.18 677.51 660.07 665.16 669.29 665.28" fill="url(#linear-gradient-17)"/>
        <polygon points="848.92 540.76 866.09 542.6 896.73 542.6 865.31 544.85 856.55 545.2 848.92 542.98 848.92 540.76" fill="url(#linear-gradient-18)"/>
        <polygon points="915.56 553.39 914.42 554.79 966.98 554.79 934.1 553.39 921.4 551.3 915.56 553.39" fill="url(#linear-gradient-19)"/>
        <polygon points="940.7 563.08 943.45 565.76 943.45 567.3 965.87 567.3 946.8 565.19 940.7 563.08" fill="url(#linear-gradient-20)"/>
        <polygon points="988.28 579.97 992.9 581.77 994.22 585.72 1041.37 585.72 998.14 582.73 994.22 579.97 988.28 579.97" fill="url(#linear-gradient-21)"/>
        <polygon points="1024.74 580.67 1039.63 576.84 1112.95 580.67 1024.74 580.67" fill="url(#linear-gradient-22)"/>
        <polygon points="595.46 529.86 580.56 527.77 507.25 529.86 595.46 529.86" fill="url(#linear-gradient-23)"/>
        <polygon points="880.06 518.48 849.73 516.39 700.46 518.48 880.06 518.48" fill="url(#linear-gradient-24)"/>
        <polygon points="336.52 516.75 366.85 514.65 516.12 516.75 336.52 516.75" fill="url(#linear-gradient-25)"/>
        <polygon points="890.87 656.58 913.21 660.24 914.09 652.92 972.36 681.65 938.19 676.95 932.93 683.74 912.34 668.07 890.87 656.58" fill="url(#linear-gradient-26)"/>
        <path d="M980.21,644.55l-12.45-14.61,12.92-6.01,2.63-7.57,142.17,4.44s22.34,50.14,22.13,50.93-1.31,25.59-1.31,25.59l-166.09-52.77Z" fill="url(#linear-gradient-27)"/>
        <polygon points="768.4 678.43 769.51 666.56 789.95 673.99 792.88 670.28 799.3 670.28 806.31 671.79 937.17 805.77 885.17 786.46 810.4 795.22 779.56 838.99 768.4 678.43" fill="url(#linear-gradient-28)"/>
        <polygon points="874.08 694.54 900.07 733.19 916.43 741.68 907.08 718.53 883.71 697.32 877.87 687.22 869.46 683.74 874.08 694.54" fill="url(#linear-gradient-29)"/>
        <path d="M939.28,534.57l27.82,1.97h34.61s19.48,1.1,20.47,1.1,54.23,1.31,54.23,1.31h53.67l-65.72,2.19h-35l-7.18-.88-15.65.88-12.49-2.19-15.99-1.1h-11.83l-26.94-3.29Z" fill="url(#linear-gradient-30)"/>
        <path d="M456.14,594.75l-3.94,2.1,5.04,1.05.88,2.44,3.75.54-2.61,5.73,21.42,17.4,28.48,10.4-8.98,5.36,8.98-.23,8.13-2.28,49.07,17.65s-1.04,1.48-.52,1.48,28.43,1.94,28.43,1.94l12.59,1.37,2.08,1.6,10.64.91,3.51,1.03,12.46.68.13,4.22,4.54-3.19,29.08.34,23.37-.57,2.34,3.76h2.47l2.08-3.76h9.35l-.65,7.07h4.15l2.08-7.07,51.15-1.03,26.35-2.39,6.56,5.47,7.79-4.28.58-3.25h7.66l6.88,5.7,1.95-2.97-2.08-3.88,31.42-4.34,59.59-9.24,52.71-19.28,9.15-7.31,1.48-4.4,1.1-7.32" fill="none" stroke="#9b9bc4" stroke-linecap="round" stroke-linejoin="round" stroke-width="2"/>
        <path d="M1439.92,500.52c-210.13-7.37-422.64-9.72-633.03-11.15,183.89-.01,370.37,1.04,554.03,5.07,26.38.59,52.75,1.24,79.14,2.09l-.15,4h0Z" fill="#bcbce8"/>
        <path d="M633.1,489.37c-204.99,1.31-413.4,4.12-618.22,10.56-4.51.08-10.59.04-14.88.07C0,500,0,496,0,496c3.87,0,11.16.07,14.8.02,204.84-5.14,413.33-6.64,618.3-6.65h0Z" fill="#bcbce8"/>
        <polyline points="600.54 541.88 614.41 540.76 612.88 539.32 616.82 536.71 624.71 534.95 630.18 536.45 633.2 534.31 643.98 534.31 656.47 535.66 664.8 534.31 668.08 535.92 670.49 534.31 681.88 534.31 685.39 539.84 687.36 538.26 687.36 534.31 698.97 535.66 705.76 534.31 709.26 534.31 710.84 536.19 714.47 534.31 731.83 534.31 735.15 535.92 744.32 534.31 758.12 535.66 759.87 538.26 761.18 534.31 768.4 534.31 784.86 535.89" fill="none" stroke="#9b9bc4" stroke-linecap="round" stroke-linejoin="round" stroke-width="2"/>
        <polygon points="872.25 551.16 877.07 552.6 870.17 562.04 870.94 567.24 874.55 567.72 866.88 581.77 874.88 577.05 880.46 565.41 882.11 553.66 885.5 554.05 888.57 565.31 888.02 575.22 896.35 562.61 897.99 553.76 894.05 552.51 899.3 552.03 886.49 551.16 866.88 545.77 856.48 545.19 848.92 542.98 848.92 540.76 842.24 542.21 841.14 552.03 839.61 558.76 843.44 553.37 847.39 554.63 847.5 546.25 852.75 547.79 852.1 561.27 856.26 561.27 857.9 563.48 853.52 563.96 849.25 575.03 861.95 562.9 864.69 561.75 864.25 557.9 868.53 547.98 867.54 557.99 869.46 558.09 872.25 551.16" fill="#9b9bc4"/>
        <polygon points="900.07 554.79 922.85 554.79 931.1 557.03 925.77 558.89 932.78 562.23 928.18 563.19 926.72 568.07 918.62 579.43 909.49 587.71 916.87 578.59 921.47 568.9 920.08 564.35 920.59 558.32 915.99 557.03 912.7 558.06 908.18 570.57 901.9 580.07 905.62 569.03 908.4 558.32 900.07 557.87 900.07 554.79" fill="#9b9bc4"/>
        <polygon points="932.78 565.76 932.13 568.84 935.27 568.13 935.27 566.85 937.17 565.76 932.78 565.76" fill="#9b9bc4"/>
        <polygon points="938.11 583.6 940.38 584.18 936.29 590.85 931.69 594.83 933.51 591.24 936.44 587.13 937.24 583.6 938.11 583.6" fill="#9b9bc4"/>
        <path d="M957.25,575.51l15.41-1.28-22.93-.51v-1.86l-10.22-3.72h-4.24l-1.68,2.37-.8,4.75-4.45,5.71-4.89,3.53-6.57,7.12,4.45-1.73,3.51-2.82,6.94-3.66,6.13-.83,4.02-1.67,1.97,1.22-.15,10.08-1.97,2.37.15,4.56,2.99-1.54-2.48,6.67-8.62,7.12-10.08,6.55,7.16-3.34,10.95-7.51-1.31,4.36,1.9,2.12,8.25-11.36,4.67-11.36-2.04-8.34s-4.38-1.22-4.75-1.22-5.91-2.05-5.91-2.05l-1.24-1.73h12.56l3.29-1.99ZM949.14,598.36l1.75-10.65,1.9.39-.58,9.11-7.45,10.2,4.38-9.05Z" fill="#9b9bc4"/>
        <polygon points="957.57 582.73 959.77 584.66 959.77 588.41 962.07 587.71 963.05 590.43 960.97 594.83 964.58 594.83 970.28 590.82 970.94 587.71 974.16 587 965.87 584.56 957.57 582.73" fill="#9b9bc4"/>
        <polygon points="961.3 597.56 958.56 603.24 957.57 606.61 959.98 604.87 962.28 599.48 962.28 597.56 961.3 597.56" fill="#9b9bc4"/>
        <path d="M965.87,596.25v5.45l4.63-1.93s22.34-2.31,21.91-2.21-22.13,0-22.13,0l-4.41-1.31Z" fill="#9b9bc4"/>
        <path d="M983.97,599.87l-9.81.39-2.9,1.44-5.4,12.51,2.55,5.68,5.74-1.96s1.48-4.01,1.48-4.4,1.1-7.32,1.1-7.32l2.4-2.02-1.52-2.5,6.35-1.83Z" fill="#9b9bc4"/>
        <polygon points="925.1 596.25 921.18 595.67 903.74 607.01 920.51 599.76 925.1 596.25" fill="#9b9bc4"/>
        <polygon points="790.65 536.1 785.5 537.51 802.04 539.54 801.27 542.01 795.91 540.07 799.85 544.56 804.23 555.4 800.73 551.25 797.33 550.46 791.52 545.75 783.09 540.51 772.58 538.48 768.4 534.31 802.15 534.96 790.65 536.1" fill="#9b9bc4"/>
        <polygon points="804.23 538.26 807.52 540.76 807.52 546.35 804.78 543.17 807.52 549.91 811.24 556.45 814.2 557.9 817.15 553.18 817.92 549.91 816.17 545.38 821.65 546.15 820.55 543.07 826.9 549.52 829.42 549.62 830.08 546.25 831.83 546.35 830.96 542.79 836.32 542.59 841.58 548.08 842.24 542.21 838.95 540.76 831.28 539.22 818.8 538.74 816.28 538.26 810.69 539.22 804.23 538.26" fill="#9b9bc4"/>
        <path d="M505.1,626.18l-15.54-5.85-16.67-14.67-11.28-13.62,3.18-2.71,5.91,11.79-3.4-10.3.44-8.38-6.13,2.44-7.01,4.89,1.53,4.98-3.94,2.1,5.04,1.05.88,2.44,3.75.54-2.61,5.73,21.42,17.4,12.07,4.41,16.41,2.84-4.05-5.06ZM483.41,619.2l-4.16-2.01-5.7-5.15,4.6,2.36,8.43,5.85-3.18-1.05Z" fill="#9b9bc4"/>
        <polygon points="466.54 574.52 477.93 571.09 477.93 581 475.52 581.58 475.74 589.85 480.67 589.85 482.75 594.77 477.5 592.63 473.55 588.99 470.6 580.51 473.01 578.87 467.64 577.72 470.92 576.08 466 575.66 466.54 574.52" fill="#9b9bc4"/>
        <polygon points="480.07 564.78 480.07 571.52 481.66 571.52 483.63 582.75 490.53 594.72 498.2 601.28 496.99 597.72 510.14 606.33 523.5 610.07 510.47 604.5 497.32 593.41 493.49 582.84 488.23 583.4 486.59 573.58 488.01 566.84 493.71 562.63 501.78 562.07 500.61 571.14 500.83 579.66 503.46 567.03 506.63 560.1 512.66 560.57 520.43 560.1 530.07 556.36 519.45 558.04 506.63 558.42 503.46 557.86 502.8 559.45 490.75 560.66 490.75 562.16 483.96 563.1 484.18 561.6 480.07 562.91 480.07 564.78" fill="#9b9bc4"/>
        <polygon points="518.02 549.93 531.31 549.93 531.31 555.97 534.67 559.66 536.13 565.25 538.03 571.29 542.41 574.87 540.81 570.51 542.41 569.62 539.35 557.4 538.91 548.7 545.92 549.6 548.69 561 548.69 549.49 550.3 549.49 555.12 557.4 561.25 565.81 563.88 571.96 568.12 574.87 565.63 569.17 563.3 564.92 560.23 557.4 557.6 548.26 564.32 548.26 568.12 550.27 568.85 547.47 571.62 546.02 568.41 545.35 561.84 546.36 549.13 545.35 535.99 546.69 526.06 548.59 518.02 549.93" fill="#9b9bc4"/>
        <polygon points="573.52 543.54 573.52 549.57 576.29 560.31 577.17 545.1 581.01 543.14 573.52 543.54" fill="#9b9bc4"/>
        <path d="M581.01,544.99l.69,4.36,1.46.56,2.04-5.7s4.38-1.34,3.94-1.45-6.43,1.01-6.43,1.01l-1.71,1.23Z" fill="#9b9bc4"/>
        <path d="M596.16,542.66l-2.48,5.26v7.27l3.21-9.84,2.34-.56.88,11.85,1.75,7.6v-10.18l4.38-6.15s2.19,2.68,2.19,2.57,3.07-8.5,3.07-8.5l2.92-1.23-13.87,1.12-4.38.78Z" fill="#9b9bc4"/>
        <path d="M500.17,586.58l3.72,6.35s8,7.99,8.32,7.99,10.62,4.62,11.17,4.72,8.65,1.83,8.65,1.83l-2.96-2.31-10.19-3.47-4.05-4.14-9.09-4.43-5.59-6.55Z" fill="#9b9bc4"/>
        <polygon points="505.97 566.37 501.81 580.33 502.47 586.1 507.29 585.62 516.82 594.77 532.04 600.25 542.45 602.37 537.52 599.39 526.24 595.25 519.89 590.34 510.68 579.56 508.38 574.87 505.97 566.37" fill="#9b9bc4"/>
        <polygon points="520.87 562.04 517.48 568.01 517.48 574.36 522.13 578.79 526.24 576.48 520.87 568.97 520.87 566.95 522.84 566.37 520.87 562.04" fill="#9b9bc4"/>
        <polygon points="509.15 634.4 507.86 639.59 500.17 639.76 509.15 634.4" fill="#9b9bc4"/>
        <polygon points="614.41 540.76 618.35 543.14 619.67 548.08 622.08 552.51 624.93 557.9 623.08 551.72 623.08 544.46 627.77 541.88 631.06 541.88 638.07 549.33 642.45 552.51 644.86 560.01 644.86 551.72 646.61 549.91 646.61 542.6 649.9 538.26 651.22 535.1 643.98 534.31 633.2 534.31 630.18 536.45 624.71 534.95 616.82 536.71 612.88 539.32 614.41 540.76" fill="#9b9bc4"/>
        <polygon points="664.8 534.31 665.52 546.33 667.18 551.72 670.2 564.25 671.66 560.01 676.04 570.41 674 556.6 676.04 552.36 674.29 542.6 670.42 540.76 671.95 534.31 670.42 534.31 668.08 535.92 664.8 534.31" fill="#9b9bc4"/>
        <polygon points="710.84 536.19 711.89 542.6 714.01 547.16 714.01 541.67 714.47 534.31 710.84 536.19" fill="#9b9bc4"/>
        <polygon points="687.36 538.26 687.36 548.08 688.67 551.72 688.67 556.6 686.48 549.91 684.26 548.08 684.26 542.74 681.88 534.31 685.39 539.84 687.36 538.26" fill="#9b9bc4"/>
        <polygon points="725.99 534.31 731.83 534.31 735.15 535.92 739.73 535.12 737.24 538.26 737.24 545.2 735.15 548.08 734.24 554.79 732.86 548.98 732.86 540.74 729.16 538.26 729.16 541.88 725.99 538.1 725.99 534.31" fill="#9b9bc4"/>
        <polygon points="758.12 535.66 759.87 538.26 759.87 541.88 758.99 548.08 758.12 551.72 753.3 560.01 756.58 551.72 755.49 544.55 753.3 538.26 751.33 540.76 751.33 543.14 748.7 547.16 748.7 542.74 746.51 538.26 747.6 534.31 758.12 535.66" fill="#9b9bc4"/>
        <polygon points="630.18 560.01 632.05 564.25 634.13 571.09 637.85 574.87 642.45 578.79 640.16 574.87 640.16 571.09 636.32 569.4 634.57 564.25 634.35 558.42 630.18 556.36 630.18 560.01" fill="#9b9bc4"/>
        <polygon points="751.55 564.25 748.26 566.37 748.26 568.83 749.9 568.83 751.55 566.54 751.55 564.25" fill="#9b9bc4"/>
        <polygon points="784.86 551.72 790.76 555.4 790.76 560.31 789.22 566.54 783.35 571.96 786.31 566.37 786.31 561.27 783.35 561.27 781.34 558.38 784.86 551.72" fill="#9b9bc4"/>
        <polygon points="595.13 578.79 598.05 582.93 609.45 587.71 618.35 587.71 626.39 587.71 618.35 584.37 609.74 584.37 600.54 580.32 595.13 578.79" fill="#9b9bc4"/>
        <polygon points="805.47 574.87 800.18 581.77 794.04 586.58 801.35 583.6 805.47 574.87" fill="#9b9bc4"/>
        <polyline points="635.54 663.92 635.67 668.14 640.21 664.94 640.21 668.14 630.18 683.06 620.33 693.87 630.18 678.17 635.54 663.92" fill="#9b9bc4"/>
        <polygon points="566.35 654.9 565.83 656.39 571.62 657.21 551.35 671.79 542.68 678.17 548.98 671.17 566.35 654.9" fill="#9b9bc4"/>
        <polygon points="797.4 667.58 801.62 670.58 811.26 679.87 808.85 674.38 802.89 664.37 798.52 666.77 791.97 661.3 797.4 667.58" fill="#9b9bc4"/>
        <polygon points="530.01 648.91 524.03 650.73 518 656.42 515.95 660.9 523.33 657.28 530.88 654.1 530.01 648.91" fill="#9b9bc4"/>
        <polygon points="594.37 539.58 597 538.81 598.42 538.1 595.68 538.1 593.16 538.84 594.37 539.58" fill="#9b9bc4"/>
        <polygon points="489.94 615.69 497.52 617.56 507.73 620.25 514.52 621.95 527.66 623.7 514.52 623.7 507.29 623.7 500.17 621.95 495.54 623.7 489.56 620.34 488.23 616.14 489.94 615.69" fill="#9b9bc4"/>
        <polygon points="545.77 635.01 550.15 633.27 553.66 633.27 562.27 633.27 569.14 631.25 559.65 635.6 553.95 635.6 548.84 637.08 545.77 636.47 545.77 635.01" fill="#9b9bc4"/>
        <polygon points="539.28 645.17 550.3 646.84 563 646.84 581.01 645.17 565.83 648.91 559.79 651.37 556.53 651.37 539.28 645.17" fill="#9b9bc4"/>
        <polygon points="685.39 597.68 692.66 595.79 694.15 596.74 695.9 594.75 702.96 594.09 705.1 594.09 708.46 593.09 713.57 593.09 714.47 594.75 715.33 596.17 715.33 594.12 716.93 593.09 721.75 593.09 722.93 594.75 724.6 593.09 734.74 593.83 737.09 594.75 738.65 594.29 745.35 595.39 746.51 597.68 747.33 595.79 752.73 597.12 753.19 598.36 755.63 599.33 760.39 599.77 765.04 602.1 765.04 604.68 766.54 603.05 769.14 605.15 772.24 611.35 773.31 613.32 771.77 613.81 766.22 619.86 766.59 621.29 764.67 620.82 759.87 623.15 757.39 623.15 755.56 624.72 747.33 626.92 746.51 628.73 745.41 627.31 737.53 628.73 737.82 630.49 737.96 632.68 736.65 631.51 735.94 628.74 732.08 629.61 727.15 629.44 724.6 629.61 716.93 630.49 716.93 631.8 715.33 629.61 708.59 629.17 706.86 631.07 705.95 628.94 698.68 628.73 695.98 627.57 692.62 627.31 691.52 628 690.35 627.31 688.43 625.9 681.94 623.86 680.42 625.23 679.79 623.01 676.04 621.22 670.26 616.6 667.76 616.6 669.03 615.36 667.76 611.35 665.96 611.35 668.32 608.68 672.1 604.68 672.97 601.86 676.04 601.48 680.69 599.33 683.91 598.15 685.39 598.36 685.39 597.68" fill="url(#radial-gradient-2)"/>
        <polygon points="668.74 610.04 672.24 607.05 672.68 604.68 674.76 603.05 676.63 605.84 680.02 609.02 685.39 610.04 680.24 610.04 674.98 609.57 673.56 607.96 670.42 609.57 668.74 610.04" fill="url(#linear-gradient-31)"/>
        <polygon points="668.74 611.35 669.29 613.32 669.03 615.36 667.76 616.6 670.26 616.6 676.04 621.22 679.36 621.22 684.73 621.22 677.72 619.7 674.43 616.6 677.83 616.6 679.36 615.48 672.35 614.28 669.83 612.89 668.74 611.35" fill="url(#linear-gradient-32)"/>
        <polygon points="677.65 602.67 679.36 602.67 685.1 603.05 686.48 604.35 689.55 607.19 692.62 606.9 688.82 604.93 688.09 602.67 687.94 600.91 687.87 598.58 690.23 596.42 686.85 598.07 686.48 600.4 684.73 599.6 678.89 601.81 677.06 601.81 677.65 602.67" fill="url(#linear-gradient-33)"/>
        <polygon points="691.96 598.61 693.38 601.81 696.78 604.68 695.57 601.13 694.37 598.61 691.96 598.61" fill="url(#linear-gradient-34)"/>
        <polygon points="688.43 625.9 691.52 628 692.62 627.31 695.98 627.57 698.68 628.73 705.95 628.94 706.86 631.07 708.59 629.17 711.56 629.37 715.33 629.61 712.19 628.73 710.45 627.31 706.2 627.31 703.57 625.9 699.43 626.65 696.78 625.45 692.66 626.15 692.62 624.79 690.65 626.15 688.43 625.9" fill="url(#linear-gradient-35)"/>
        <polygon points="695.9 594.75 702.96 594.09 705.1 594.09 705.79 596.65 708.39 600.13 706.18 598.61 704.44 597.04 700.93 597.04 701.77 599.33 704.12 600.92 700.16 599.33 698.9 597.44 695.9 594.75" fill="url(#linear-gradient-36)"/>
        <polygon points="717.41 594.63 716.39 593.87 716.93 593.09 721.75 593.09 722.93 594.75 721.31 594.85 721.02 596.6 720 594.27 717.66 593.9 717.41 594.63" fill="url(#linear-gradient-37)"/>
        <polygon points="724.6 629.61 727.15 629.44 732.08 629.61 735.94 628.74 736.65 631.51 737.96 632.68 737.53 628.73 741.25 628.04 738.51 626.65 735.34 625.37 733.52 626.41 729.99 627.31 729 626.65 726.09 628.38 724.6 629.61" fill="url(#linear-gradient-38)"/>
        <polygon points="745.41 627.31 746.51 628.73 747.33 626.92 755.56 624.72 757.39 623.15 754.9 623.15 750.19 623.15 748.38 624.83 741.77 623.15 739.96 621.75 742.67 625.37 745.03 626.41 745.41 627.31" fill="url(#linear-gradient-39)"/>
        <polygon points="766.13 605.08 768.13 606.17 770.12 612.14 768.76 613.32 765.77 614.79 764.78 614.14 766.32 611.35 766.13 609.43 762.69 612.24 759.88 613.32 753.45 614.41 761.79 610.88 764.14 606.54 766.13 605.08" fill="url(#linear-gradient-40)"/>
        <polygon points="737.09 594.75 737.09 596.17 742.49 596.42 743.37 597.5 743.37 599.33 745.12 597.04 746.51 597.68 745.35 595.39 738.65 594.29 737.09 594.75" fill="url(#linear-gradient-41)"/>
        <polygon points="763.89 602.45 759.87 600.92 757.83 601.81 755.49 605.73 751.62 608.87 749.72 609.38 752.35 609.38 758.34 607.19 761.79 604.2 763.16 604.68 764.47 603.54 763.89 602.45" fill="url(#linear-gradient-42)"/>
        <polygon points="750.01 599.33 752.13 600.92 751.07 603.05 747.53 605.15 749.72 601.28 750.01 599.33" fill="url(#linear-gradient-43)"/>
        <polygon points="690.79 621.95 696.49 621.75 702.15 619.97 699.33 621.95 696.47 622.89 693.42 622.89 690.79 621.95" fill="url(#linear-gradient-44)"/>
      </g>
      <path d="M720.85,626.41c-.25,0-.48-.06-.65-.16l-5.31-3.1c-1.85-1.08-2.87-2.48-2.87-3.95s1.02-2.87,2.87-3.95l3.32-1.94c.34-.2.53-.5.53-.84s-.19-.65-.53-.84c-.26-.15-.6-.24-.96-.24s-.7.08-.96.24l-3.32,1.94c-1.93,1.12-4.49,1.74-7.23,1.74s-5.31-.62-7.23-1.74l-5.36-3.13c-.07-.05-.09-.08-.1-.1.03-.02.28-.24.81-.24h26.55c.81,0,1.25.37,1.25.52v15.52c-.03.08-.36.26-.81.26h0ZM729.49,621.36c-.25,0-.48-.06-.65-.16l-3.11-1.81c-.7-.41-1.1-.94-1.1-1.46v-7.3c0-1.51-1.86-2.69-4.24-2.69h-12.48c-1.11,0-2.2-.26-2.97-.71l-3.1-1.81c-.1-.06-.14-.11-.15-.13.03-.02.28-.24.81-.24h26.55c.81,0,1.25.37,1.25.52v15.52c-.03.08-.36.26-.81.26h0ZM738.15,616.3c-.25,0-.48-.06-.65-.16l-3.1-1.81c-.7-.41-1.1-.94-1.1-1.46v-7.3c0-1.51-1.86-2.69-4.24-2.69h-12.48c-1.11,0-2.2-.26-2.97-.71l-3.1-1.81c-.1-.06-.14-.11-.15-.13.03-.02.28-.24.81-.24h26.55c.81,0,1.25.37,1.25.52v15.52c-.03.08-.36.26-.81.26h0Z" fill="#fff"/>
      <rect width="1440" height="1344" fill="none"/>
    </g>
  </g>
</svg>