<?xml version="1.0" encoding="UTF-8"?>
<svg xmlns="http://www.w3.org/2000/svg" xmlns:xlink="http://www.w3.org/1999/xlink" viewBox="0 0 7040 1980">
  <defs>
    <style>
      .cls-1 {
        fill: url(#linear-gradient-15);
      }

      .cls-2 {
        fill: url(#linear-gradient-13);
      }

      .cls-3 {
        fill: url(#linear-gradient-28);
      }

      .cls-4 {
        fill: url(#linear-gradient-42);
      }

      .cls-5 {
        fill: #bcbce8;
      }

      .cls-6 {
        stroke-width: .75px;
      }

      .cls-6, .cls-7, .cls-8, .cls-9, .cls-10, .cls-11 {
        fill: none;
      }

      .cls-6, .cls-7, .cls-8, .cls-10, .cls-12 {
        stroke-miterlimit: 10;
      }

      .cls-6, .cls-7, .cls-12 {
        stroke: #dddaf2;
      }

      .cls-13 {
        fill: url(#linear-gradient-2);
      }

      .cls-14 {
        fill: url(#linear-gradient-43);
      }

      .cls-15 {
        fill: url(#linear-gradient-25);
      }

      .cls-16 {
        fill: url(#linear-gradient-10);
      }

      .cls-17 {
        fill: url(#linear-gradient-12);
      }

      .cls-18 {
        fill: url(#linear-gradient-40);
      }

      .cls-19 {
        fill: url(#linear-gradient-27);
      }

      .cls-20 {
        fill: url(#linear-gradient-37);
      }

      .cls-21, .cls-12 {
        fill: #fff;
      }

      .cls-22 {
        fill: url(#linear-gradient-39);
      }

      .cls-8 {
        stroke: #bfb2ed;
      }

      .cls-8, .cls-11 {
        stroke-width: 2px;
      }

      .cls-23 {
        fill: #eef;
      }

      .cls-24 {
        fill: url(#linear-gradient-26);
      }

      .cls-25 {
        fill: url(#linear-gradient-4);
      }

      .cls-26 {
        fill: url(#linear-gradient-35);
      }

      .cls-27 {
        fill: url(#linear-gradient-30);
      }

      .cls-10 {
        stroke: #c7c7e5;
        stroke-width: .5px;
      }

      .cls-28 {
        fill: url(#linear-gradient-44);
      }

      .cls-29 {
        fill: url(#linear-gradient-3);
      }

      .cls-30 {
        fill: url(#linear-gradient-34);
      }

      .cls-31 {
        fill: #e6e6fc;
        opacity: .3;
      }

      .cls-32 {
        fill: url(#linear-gradient-5);
      }

      .cls-33 {
        fill: url(#radial-gradient);
        mix-blend-mode: screen;
      }

      .cls-34 {
        fill: url(#linear-gradient-38);
      }

      .cls-35 {
        fill: url(#linear-gradient-22);
      }

      .cls-36 {
        fill: url(#linear-gradient-24);
      }

      .cls-37 {
        isolation: isolate;
      }

      .cls-38 {
        fill: #fafaff;
      }

      .cls-39 {
        fill: url(#linear-gradient-33);
      }

      .cls-40 {
        fill: url(#linear-gradient-8);
      }

      .cls-41 {
        fill: #9b9bc4;
      }

      .cls-42 {
        fill: url(#radial-gradient-2);
      }

      .cls-43 {
        fill: #dcd9ff;
      }

      .cls-44 {
        fill: url(#linear-gradient-14);
      }

      .cls-45 {
        fill: url(#linear-gradient-29);
      }

      .cls-46 {
        fill: url(#linear-gradient-20);
      }

      .cls-47 {
        fill: url(#linear-gradient-17);
      }

      .cls-48 {
        fill: url(#linear-gradient-7);
      }

      .cls-49 {
        fill: url(#linear-gradient-9);
      }

      .cls-50 {
        fill: url(#linear-gradient-11);
      }

      .cls-51 {
        fill: url(#linear-gradient-19);
      }

      .cls-52 {
        fill: url(#linear-gradient-6);
      }

      .cls-53 {
        fill: url(#linear-gradient-36);
      }

      .cls-54 {
        fill: url(#linear-gradient-21);
      }

      .cls-11 {
        stroke: #9b9bc4;
        stroke-linecap: round;
        stroke-linejoin: round;
      }

      .cls-55 {
        fill: url(#linear-gradient-32);
      }

      .cls-56 {
        fill: url(#linear-gradient-41);
      }

      .cls-57 {
        fill: #b2b2db;
      }

      .cls-58 {
        fill: url(#linear-gradient-16);
      }

      .cls-59 {
        fill: url(#linear-gradient);
      }

      .cls-60 {
        fill: url(#linear-gradient-23);
      }

      .cls-61 {
        fill: url(#linear-gradient-31);
      }

      .cls-62 {
        fill: url(#linear-gradient-18);
      }
    </style>
    <radialGradient id="radial-gradient" cx="3559.57" cy="-.47" fx="3559.57" fy="-.47" r="5934.89" gradientTransform="translate(-.08 -.27) scale(1 .43)" gradientUnits="userSpaceOnUse">
      <stop offset="0" stop-color="#f8f8ff"/>
      <stop offset="1" stop-color="#fff" stop-opacity="0"/>
    </radialGradient>
    <linearGradient id="linear-gradient" x1="5527.53" y1="1008.16" x2="5355.55" y2="64.19" gradientUnits="userSpaceOnUse">
      <stop offset="0" stop-color="#aea1e2"/>
      <stop offset="1" stop-color="#fff"/>
    </linearGradient>
    <linearGradient id="linear-gradient-2" x1="1381.4" y1="1072.51" x2="1667.4" y2="31.17" xlink:href="#linear-gradient"/>
    <linearGradient id="linear-gradient-3" x1="3448.55" y1="696.8" x2="5402.19" y2="677.98" gradientUnits="userSpaceOnUse">
      <stop offset="0" stop-color="#c5c5ea" stop-opacity="0"/>
      <stop offset="1" stop-color="#b3b3e2"/>
    </linearGradient>
    <linearGradient id="linear-gradient-4" x1="3052.49" y1="692.52" x2="5006.13" y2="673.7" gradientTransform="translate(6093.21) rotate(-180) scale(1 -1)" xlink:href="#linear-gradient-3"/>
    <linearGradient id="linear-gradient-5" x1="3520" y1="623.23" x2="3520" y2="2268.19" gradientUnits="userSpaceOnUse">
      <stop offset="0" stop-color="#f8f8ff"/>
      <stop offset=".13" stop-color="#ebebfc"/>
      <stop offset=".46" stop-color="#d3d3f7"/>
      <stop offset=".76" stop-color="#c5c4f4"/>
      <stop offset="1" stop-color="#c0bff3"/>
    </linearGradient>
    <linearGradient id="linear-gradient-6" x1="3520" y1="620.58" x2="3520" y2="1977.36" gradientUnits="userSpaceOnUse">
      <stop offset="0" stop-color="#f8f8ff"/>
      <stop offset=".33" stop-color="#d8d8f0"/>
      <stop offset=".77" stop-color="#b4b3de"/>
      <stop offset="1" stop-color="#a6a5d8"/>
    </linearGradient>
    <linearGradient id="linear-gradient-7" x1="3493.52" y1="1158.44" x2="3493.52" y2="978.57" gradientUnits="userSpaceOnUse">
      <stop offset="0" stop-color="#c5c5ea" stop-opacity="0"/>
      <stop offset="1" stop-color="#c5c5ea"/>
    </linearGradient>
    <linearGradient id="linear-gradient-8" x1="3531.34" y1="738.67" x2="3531.34" y2="960.26" xlink:href="#linear-gradient-7"/>
    <linearGradient id="linear-gradient-9" x1="2961.56" y1="860.9" x2="3412.76" y2="979.03" xlink:href="#linear-gradient-7"/>
    <linearGradient id="linear-gradient-10" x1="4033.93" y1="922.07" x2="3543.9" y2="931.68" xlink:href="#linear-gradient-7"/>
    <linearGradient id="linear-gradient-11" x1="2741.05" y1="948.75" x2="2979.01" y2="875.1" gradientUnits="userSpaceOnUse">
      <stop offset="0" stop-color="#c5c5ea" stop-opacity="0"/>
      <stop offset="1" stop-color="#7878ba"/>
    </linearGradient>
    <linearGradient id="linear-gradient-12" x1="2802.98" y1="823.45" x2="2973.49" y2="827.28" xlink:href="#linear-gradient-3"/>
    <linearGradient id="linear-gradient-13" x1="2896.12" y1="791.8" x2="3099.9" y2="786.76" xlink:href="#linear-gradient-3"/>
    <linearGradient id="linear-gradient-14" x1="2930.65" y1="761.95" x2="3298.97" y2="752.84" xlink:href="#linear-gradient-3"/>
    <linearGradient id="linear-gradient-15" x1="2630.96" y1="825.75" x2="2772.04" y2="825.75" xlink:href="#linear-gradient-3"/>
    <linearGradient id="linear-gradient-16" x1="2997.69" y1="1299.5" x2="2983.61" y2="930.28" gradientUnits="userSpaceOnUse">
      <stop offset="0" stop-color="#c5c5ea" stop-opacity="0"/>
      <stop offset="1" stop-color="#7b7baf"/>
    </linearGradient>
    <linearGradient id="linear-gradient-17" x1="2887.08" y1="1124.63" x2="2956.5" y2="948.56" xlink:href="#linear-gradient-16"/>
    <linearGradient id="linear-gradient-18" x1="3188.28" y1="1102.27" x2="3207.79" y2="1037.07" xlink:href="#linear-gradient-3"/>
    <linearGradient id="linear-gradient-19" x1="3394.45" y1="1204.68" x2="3382.01" y2="937.28" xlink:href="#linear-gradient-16"/>
    <linearGradient id="linear-gradient-20" x1="3949.29" y1="755.65" x2="3809.97" y2="755.65" xlink:href="#linear-gradient-3"/>
    <linearGradient id="linear-gradient-21" x1="4126.59" y1="780.45" x2="3941.91" y2="780.45" xlink:href="#linear-gradient-3"/>
    <linearGradient id="linear-gradient-22" x1="4125" y1="810.39" x2="4036.58" y2="810.39" xlink:href="#linear-gradient-3"/>
    <linearGradient id="linear-gradient-23" x1="4309.92" y1="853.91" x2="4123.39" y2="853.91" xlink:href="#linear-gradient-3"/>
    <linearGradient id="linear-gradient-24" x1="4533.89" y1="846.21" x2="3968.17" y2="840.66" xlink:href="#linear-gradient-3"/>
    <linearGradient id="linear-gradient-25" x1="2984.13" y1="722.75" x2="3943.62" y2="713.5" xlink:href="#linear-gradient-3"/>
    <linearGradient id="linear-gradient-26" x1="4040.93" y1="1096.41" x2="4043.57" y2="984.55" xlink:href="#linear-gradient-16"/>
    <linearGradient id="linear-gradient-27" x1="4475.89" y1="1086.77" x2="4087.09" y2="770.87" xlink:href="#linear-gradient-16"/>
    <linearGradient id="linear-gradient-28" x1="3842.39" y1="1454.83" x2="3857.36" y2="820.66" xlink:href="#linear-gradient-16"/>
    <linearGradient id="linear-gradient-29" x1="3944.92" y1="1232.6" x2="3949.86" y2="1023.31" xlink:href="#linear-gradient-16"/>
    <linearGradient id="linear-gradient-30" x1="4093.74" y1="731.8" x2="4723.37" y2="768.52" xlink:href="#linear-gradient-7"/>
    <radialGradient id="radial-gradient-2" cx="3522.86" cy="923.36" fx="3522.86" fy="923.36" r="143.74" gradientTransform="translate(-.08)" gradientUnits="userSpaceOnUse">
      <stop offset="0" stop-color="#c5c5ea" stop-opacity=".3"/>
      <stop offset="1" stop-color="#ababdb"/>
    </radialGradient>
    <linearGradient id="linear-gradient-31" x1="3403.34" y1="957.09" x2="3417.09" y2="911.14" xlink:href="#linear-gradient-3"/>
    <linearGradient id="linear-gradient-32" x1="3401.89" y1="974.65" x2="3413.91" y2="934.48" xlink:href="#linear-gradient-3"/>
    <linearGradient id="linear-gradient-33" x1="3420.96" y1="948.27" x2="3438.13" y2="890.89" xlink:href="#linear-gradient-3"/>
    <linearGradient id="linear-gradient-34" x1="3449.7" y1="924.05" x2="3458.06" y2="896.1" xlink:href="#linear-gradient-3"/>
    <linearGradient id="linear-gradient-35" x1="3476.78" y1="955.44" x2="3473.63" y2="975.34" xlink:href="#linear-gradient-3"/>
    <linearGradient id="linear-gradient-36" x1="3478.41" y1="874.6" x2="3473.68" y2="904.48" xlink:href="#linear-gradient-3"/>
    <linearGradient id="linear-gradient-37" x1="3520.24" y1="875.28" x2="3517.79" y2="890.79" xlink:href="#linear-gradient-3"/>
    <linearGradient id="linear-gradient-38" x1="3554.33" y1="943.27" x2="3550.29" y2="982.46" xlink:href="#linear-gradient-3"/>
    <linearGradient id="linear-gradient-39" x1="3588.88" y1="934.74" x2="3592.61" y2="969.57" xlink:href="#linear-gradient-3"/>
    <linearGradient id="linear-gradient-40" x1="3589.15" y1="922.73" x2="3629.27" y2="920.86" xlink:href="#linear-gradient-3"/>
    <linearGradient id="linear-gradient-41" x1="3574.86" y1="879.69" x2="3571.96" y2="898.04" xlink:href="#linear-gradient-3"/>
    <linearGradient id="linear-gradient-42" x1="3615.81" y1="928.83" x2="3608.65" y2="901.46" xlink:href="#linear-gradient-3"/>
    <linearGradient id="linear-gradient-43" x1="3582.86" y1="914.03" x2="3598.41" y2="895.37" xlink:href="#linear-gradient-3"/>
    <linearGradient id="linear-gradient-44" x1="3463.31" y1="939.57" x2="3460.4" y2="957.97" xlink:href="#linear-gradient-3"/>
  </defs>
  <g class="cls-37">
    <g id="Background">
      <g>
        <g>
          <rect class="cls-43" width="7040" height="748.74"/>
          <path class="cls-33" d="M0,0v668.5s1205.42-45.28,3520-45.28,3520,45.28,3520,45.28V0H0Z"/>
          <path class="cls-59" d="M5294.79,181.64h-2.77l-6.11,2.21-33.69-11.5s-28.35,8.63-28.76,6.98c-.41-1.64-35.33,10.68-36.56,10.68s-25.47,25.47-25.47,25.47h-16.84s-25.47,17.67-25.47,18.9-27.53,7.81-27.53,7.81l-32.04,25.47-4.11,23.83-21.77-2.88-20.54,16.84-16.02,18.49h-20.54l-13.15,7.4-16.02-3.29h-16.02l-9.45,10.27-12.33,3.29-14.79-4.93-27.11,17.67-2.88,19.72h-18.49l-20.54,20.95,9.86,27.94-25.88,1.64-25.88,14.79-16.84,4.52-4.11,20.54,6.98,14.79-30.81,4.52-25.88,19.31-24.65-8.63-3.7-30.81-44.37-21.36-41.49,3.7-23.01,19.31-29.99,42.32-19.72,9.04-17.67,13.15s-21.36,2.88-23.42,2.88-49.71,12.97-49.71,12.97l-23.42,10.04-21.77-5.75,27.11-18.49-51.35-1.23-41.49,4.11-18.08-17.25-21.77-3.7-43.96-27.11-64.91-18.49-28.35,15.61-9.86,21.36h-12.74l-2.05,4.52-11.5,3.7-1.23,13.56,12.74,15.61-15.2,13.56.41,10.68,10.27,3.7-19.31,3.7-23.01-3.7-41.9,19.31-23.83-4.11-19.72,4.93-2.88,15.2-21.21,4.26-23.16-9.19-29.58-4.67-13.97,8.78-27.11,9.45-35.33-1.64-5.75,5.75h-56.69l-13.56,5.39,18.49,6.11,3260.2,76.51V0h-996.42l-62.33,13.75-20.17,12.83-44-9.17-73.33,60.5h-23.83l-22,9.17-22-9.17-29.33,22h-18.33l-12.83,12.83-47.67-29.33-12.83,14.67-1.83,16.5-34.83,11-16.5-14.67-22,3.67-99.23,39.53-25.44-1.03-20.17,18.33-53.17-12.83-34.83,14.67-12.83,8.25-39.29.14Z"/>
          <g>
            <path class="cls-21" d="M4634.03,493.19c-3.51,1.32-32.37,9.05-32.37,9.05l-9.86-10.48,22.18-23.11,29.58,1.54,41.78-2.49-.49-4.09-44.37-21.36-41.49,3.7-23.01,19.31-29.99,42.32-19.72,9.04-17.67,13.15s-21.36,2.88-23.42,2.88-49.71,12.97-49.71,12.97l-23.42,10.04-21.77-5.75,27.11-18.49-51.35-1.23-41.49,4.11,28.46-2.82-18.54,14.53,28.08,16.64-36.97,7.52s-52.89-1.97-55.45-.13c-.21.16-.24.17-.01,0,0,0,0,0,.01,0,2.14-1.58,24.02-17.87,24.02-17.87l-19.1-14.79-47.45,8.63-20.95-4.93,35.13-9.86,2.46-11.09-21.57,7.39-25.88-6.16h-16.64l49.92-27.11-24.3-17.97-29.93-8.52-28.35,15.61-9.86,21.36h-12.74l-2.05,4.52-11.5,3.7-1.23,13.56,12.74,15.61-15.2,13.56.41,10.68,10.27,3.7-19.31,3.7-23.01-3.7-41.9,19.31-23.83-4.11-19.72,4.93-2.88,15.2-21.21,4.26-23.16-9.19-29.58-4.67-13.97,8.78-27.11,9.45-35.33-1.64-5.75,5.75h-56.69l-13.56,5.39,137.22,1.12,77.03-6.51,17.43,5.39,76.86-16.18,213.84-28.66-9.86,17.1h32.66l13.56-20.18,94.9-3.7,49.92-3.7s112.16-32.04,120.17-32.66c2.52-.19,12.56-1.06,25.13-2.16,8.01-14.26,21.45-37.87,23.88-40.17Z"/>
            <path class="cls-21" d="M5119.11,234.38c0,1.23-27.53,7.81-27.53,7.81l-32.04,25.47-4.11,23.83-21.77-2.88-20.54,16.84-16.02,18.49h-20.54l-13.15,7.39-16.02-3.29h-16.02l-9.45,10.27-12.33,3.29-14.79-4.93-27.11,17.67-2.88,19.72h-18.49l-20.54,20.95,9.86,27.94-25.88,1.64-25.88,14.79-16.84,4.52-4.11,20.54,6.98,14.79-7.51,5.95-12.21,5.35-17.25,20.95s13.72,2.07,24.71,3.29l30.44-6.82,18.18-23.59,4.31-14.17,65.94-17.25-10.48-13.56,40.06-30.81h9.86l11.71-22.18,33.89-20.34,28.35-4.93,68.4-33.28,12.32-11.09,28.35-41.29,64.09-34.51-10.48-8.01-33.48,1.44Z"/>
            <path class="cls-21" d="M5186.9,190.01c-1.23,0-25.47,25.47-25.47,25.47l10.27,8.83,27.73-.62,7.4-20.34,11.09-20.95,5.55-3.08c-.41-1.64-35.33,10.68-36.56,10.68Z"/>
          </g>
          <path class="cls-38" d="M4429.73,558.32l11.39-14.24c-3.45.93-5.64,1.53-5.64,1.53l-23.42,10.04-21.77-5.75,14.76-10.07h-28.32l11.09,5.55-11.09,18.49,53-5.55Z"/>
          <polygon class="cls-13" points="1745.21 199.66 1686.67 221.83 1635.33 212.67 1629.83 187 1606.92 178.75 1561.08 199.83 1538.17 166.83 1459.33 158.58 1426.33 148.5 1401.58 145.75 1380.5 158.58 1352.08 158.58 1249.42 89.83 1240.25 75.17 1213.67 67.83 1197.17 82.5 1177 96.25 1110.08 103.58 1068.83 92.58 1033.08 59.58 1018.42 57.75 997.33 64.17 973.5 66.92 946 37.58 929.5 40.33 894.67 32.08 840.58 0 0 0 0 692.08 1745.21 768.84 3180.37 624.61 3134.78 609.57 3088.36 599.3 3062.06 596.36 3012.76 574.24 3012.76 559.04 2974.15 550 2961.77 550 2946.62 540.9 2930.6 538.09 2903.89 520.83 2880.48 520.83 2860.76 515.9 2843.5 515.9 2836.11 511.79 2774.48 530.28 2698.89 556.16 2717.38 583.69 2696.42 582.46 2679.17 577.12 2614.67 571.36 2603.99 562.33 2573.59 559.45 2553.87 553.7 2553.87 543.02 2497.17 519.19 2474.16 518.37 2419.93 494.54 2385.01 479.18 2354.2 487.14 2388.3 510.15 2371.46 522.48 2344.75 529.87 2328.73 517.96 2315.17 497.41 2285.59 492.07 2208.77 456.74 2203.02 430.04 2190.69 416.89 2179.19 402.92 2116.74 392.65 2067.44 392.65 2042.79 379.51 2023.89 377.04 2025.95 359.38 2003.35 305.97 1974.59 279.67 1928.17 273.51 1926.53 250.92 1881.75 225.03 1829.98 225.03 1811.9 227.5 1787.67 199.97 1768.77 204.49 1747.82 199.97 1745.21 199.66"/>
          <path class="cls-21" d="M2208.77,456.74l-5.75-26.7-12.32-13.15-11.5-13.97-62.45-10.27h-49.3l-24.65-13.15-18.9-2.46,2.05-17.67-22.6-53.41-28.76-26.29-46.42-6.16-1.64-22.6-44.78-25.88h-51.76l-18.08,2.46-24.24-27.53-18.9,4.52-20.95-4.52-2.61-.31-58.54,22.17,58.54,16.17c30.53,10.46,93.77,32.21,98.74,34.69,6.57,3.29,48.48,47.66,48.48,47.66l3.29,15.61-37.8-11.5-22.18,2.46-40.26-29.58-18.08,19.72,43.55,37.8,13.97,16.43,41.91,9.86-5.75-15.61,63.27,24.65-14.79-32.04,75.59,43.55,66.55,55.05,68.2-21.36,32.87,21.36-69.84,47.66-85.45-16.43-13.97,2.46-15.61-25.47-32.05-9.04,13.97-13.15-8.22-27.94-17.25,8.22-38.62-15.61,11.5,36.15-23.83,4.93-16.43-40.26-46.83,12.32-74.91-12.23v22.8l41.22,27.22,47.66-3.29,47.66,27.94,52.59,13.15,91.2,32.04s-20.54-23.01-17.25-23.01,88.74,11.5,88.74,11.5l36.98-32.04,42.73-5.49,72.31,9.6-40.26-32.04Z"/>
          <polygon class="cls-21" points="2180.01 513.44 2173.44 528.23 2244.92 556.99 2334.48 564.38 2369.81 561.09 2341.05 540.9 2344.75 529.87 2328.73 517.96 2315.17 497.41 2285.59 492.07 2230.13 509.33 2180.01 513.44"/>
          <polygon class="cls-21" points="2407.61 535.62 2448.69 564.38 2387.07 570.95 2483.2 578.35 2571.12 588.21 2645.07 596.36 2736.27 607.93 2830.77 615.39 2730.52 591.5 2717.38 583.69 2696.42 582.46 2679.17 577.12 2614.67 571.36 2603.99 562.33 2573.59 559.45 2553.87 553.7 2553.87 543.02 2497.17 519.19 2474.16 518.37 2419.93 494.54 2385.01 479.18 2354.2 487.14 2388.3 510.15 2407.61 535.62"/>
          <path class="cls-21" d="M3134.78,609.57l-46.42-10.27-26.29-2.94-49.3-22.12v-15.2l-38.62-9.04h-12.38l-15.15-9.1-16.02-2.81-26.7-17.25h-23.42l-19.72-4.93h-17.25l-7.39-4.11-61.62,18.49-31.77,10.88,51.9,4.32,27.94,12.32s-36.97,16.43-32.87,16.43,53.41,25.47,55.87,25.47,96.13,4.93,96.13,4.93l89.4,10.75,72.3,9.22h76.98l-45.59-15.04Z"/>
          <g>
            <path class="cls-6" d="M4270.14,570.03s0,0-.01,0c-.22.17-.2.15.01,0Z"/>
            <path class="cls-6" d="M4196.79,521.35l25.88,6.16,21.57-7.39-2.46,11.09-35.13,9.86,20.95,4.93,47.45-8.63,19.1,14.79s-21.88,16.28-24.02,17.87c2.56-1.84,55.45.13,55.45.13l36.97-7.52-28.08-16.64,18.54-14.53-28.46,2.82-18.08-17.25-21.77-3.7-43.96-27.11-34.98-9.96,24.3,17.97-49.92,27.11h16.64Z"/>
          </g>
          <path class="cls-7" d="M5294.79,180.95h-2.08l-6.8,2.9-33.69-11.5s-28.35,8.63-28.76,6.98c0,0,0,0,0,0h0s-5.55,3.08-5.55,3.08l-11.09,20.95-7.4,20.34-27.73.62-10.27-8.83h-16.84s-25.47,17.67-25.47,18.9l33.48-1.44,10.48,8.01-64.09,34.51-28.35,41.29-12.32,11.09-68.4,33.28-28.35,4.93-33.89,20.34-11.71,22.18h-9.86l-40.06,30.81,10.48,13.56-65.94,17.25-4.31,14.17-18.18,23.59-30.44,6.82c-11-1.22-24.71-3.29-24.71-3.29l17.25-20.95,12.21-5.35,7.51-5.95h0s0,0,0,0l-30.81,4.52-25.88,19.31-24.65-8.63-3.21-26.73-41.78,2.49-29.58-1.54-22.18,23.11,9.86,10.48s28.86-7.73,32.37-9.05c-2.43,2.3-15.86,25.91-23.88,40.17l-25.13,2.16-53.41,13.87-66.76,18.79-49.92,3.7-94.9,3.7-13.56,20.18h-32.66l9.86-17.1-82.1,11-131.74,17.65-76.86,16.18-17.43-5.39"/>
          <path class="cls-7" d="M1745.21,431.91h2.08l39.14,26.47,47.66-3.29,47.66,27.94,52.59,13.15,91.2,32.04s-20.54-23.01-17.25-23.01,88.74,11.5,88.74,11.5l36.97-32.04,42.73-5.49,72.31,9.6-40.26-32.04-5.75-26.7-12.32-13.15-11.5-13.97-62.45-10.27h-49.3l-24.65-13.15-18.9-2.46,2.05-17.67-22.6-53.41-28.76-26.29-46.42-6.16-1.64-22.6-44.78-25.88h-51.76l-18.08,2.46-24.24-27.53-18.9,4.52-21.48-5.52h-2.08"/>
          <polygon class="cls-7" points="2180.01 513.44 2173.44 528.23 2244.92 556.99 2334.48 564.38 2369.81 561.09 2341.05 540.9 2344.75 529.87 2328.73 517.96 2315.17 497.41 2285.59 492.07 2230.13 509.33 2180.01 513.44"/>
          <polygon class="cls-7" points="2407.61 535.62 2448.69 564.38 2387.07 570.95 2483.2 578.35 2571.12 588.21 2645.07 596.36 2736.27 607.93 2830.77 615.39 2730.52 591.5 2717.38 583.69 2696.42 582.46 2679.17 577.12 2614.67 571.36 2603.99 562.33 2573.59 559.45 2553.87 553.7 2553.87 543.02 2497.17 519.19 2474.16 518.37 2419.93 494.54 2385.01 479.18 2354.2 487.14 2388.3 510.15 2407.61 535.62"/>
          <path class="cls-7" d="M3134.78,609.57l-46.42-10.27-26.29-2.94-49.3-22.12v-15.2l-38.62-9.04h-12.38l-15.15-9.1-16.02-2.81-26.7-17.25h-23.42l-19.72-4.93h-17.25l-7.39-4.11-61.62,18.49-31.77,10.88,51.9,4.32,27.94,12.32s-36.97,16.43-32.87,16.43,53.41,25.47,55.87,25.47,96.13,4.93,96.13,4.93l89.4,10.75,72.3,9.22h76.98l-45.59-15.04Z"/>
          <g>
            <polygon class="cls-31" points="3580.55 437.23 3573.15 430.56 3535.36 437.23 3548.09 437.23 3580.55 437.23"/>
            <polygon class="cls-31" points="2802.84 505.12 2831.19 512.51 2892.2 519.91 2834.89 505.12 2802.84 505.12"/>
            <polygon class="cls-31" points="3815.95 512.07 3805.68 509.19 3790.48 512.07 3815.95 512.07"/>
            <polygon class="cls-31" points="2861.21 443.1 2779.59 420.92 2749.01 400.58 2698.54 396.27 2674.96 380.86 2638.12 361.76 2624.86 346.97 2590.97 339.57 2564.44 325.73 2614.54 331.56 2656.54 344.5 2730.96 351.28 2831.9 366.07 2914.42 381.48 2962.31 394.42 3101.56 409 3159.03 422.15 2997.68 372.23 2876.11 300.75 2828.95 261.92 2776.64 261.92 2673.49 224.33 2702.96 219.59 2622.65 162.71 2484.87 20.97 2444.19 0 1106.42 0 1238.42 15.58 1454.75 98.08 1745.21 171.94 1839.44 204.61 1983.11 243.44 1980.17 228.65 2112.05 276.71 2092.89 284.73 2263.09 351.28 2477.5 390.1 2569.55 407.99 2557.58 407.26 2612.42 421.44 2652.4 423.68 2736.11 438.79 2826 448.03 2861.21 443.1"/>
            <path class="cls-31" d="M3605.2,467.29l27.53.82,53-4.52,45.19-3.44,21.36-7.78,49.71-.56,15.2-2.59,59.57-9.04,69.43-13.56-36.27-1.23,52.29-6.98,68.61-20.13-77.24,2.88-25.06,1.64h-17.51l-6.32,9.45-38.21,2.88-56.28,10.27s-12.74,11.91-13.97,11.91,18.9,3.29,18.9,3.29l-31.63,9.34h-32.46l23.83-9.34h-23.83l-28.35,9.34-80.93,4.63-79.7,15.97,43.14-3.23Z"/>
            <polygon class="cls-31" points="3992.61 461.95 3956.46 466.05 3914.55 472.73 3972.48 470.52 3992.61 461.95"/>
            <polygon class="cls-31" points="3937.15 484.44 3918.66 482.49 3893.6 491.11 3937.15 484.44"/>
            <polygon class="cls-31" points="2888.5 492.9 2813.94 473.79 2813.94 467.01 2743.68 459.62 2811.47 479.96 2888.5 492.9"/>
            <polygon class="cls-31" points="3984.8 468.52 3961.39 478.03 4009.86 478.03 4025.48 487.78 4147.49 462.36 4053.82 460.15 3984.8 468.52"/>
            <polygon class="cls-31" points="2897.13 471.19 2863.24 471.19 2915 485.98 2946.43 485.98 2966.76 485.98 2939.65 476.73 2897.13 471.19"/>
            <path class="cls-31" d="M5294.79,0h-865.14l-164.25,179.7,21.77,1.64-55.87,36.56-81.76,39.44-17.25,30.4,5.34,18.9-10.27,6.57-7.81,15.2-30.81,2.05-26.7,4.11s-36.97,9.86-38.21,10.27c-1.23.41,9.04,4.52,9.04,4.52l48.48-3.7-44.78,11.09-70.1,28.35,92.28-11.5,132.7-27.11,97.37-34.1,69.46-12.32-8.66,20.95-22.6,9.86,7.39,5.75-46.83,15.2-57.11,26.7,87.51-14.79,27.94-7.81s-15.2,13.15-18.08,13.15c-2.6,0,23.28,2.34,29.23,2.5-6.5.48-37.44,3.67-37.44,3.67l-64.5,28.35-50.12,6.98h-19.31l-43.55,17.67-74.77,6.14h73.56l28.19,6,125.18-16.24,48.25-21.02,98.57-24.84,79.16-8.12,11.33-13.38-44.3-5.26,131.86-29.14,182.51-46.82,6.69-8.6,51.12-8.6,77.4-32.13s-22.93-5.61-24.37-5.61,39.77-17.91,39.77-17.91l173.78-38.6s97.37-33.32,168.7-58.38V0Z"/>
            <polygon class="cls-31" points="3869.41 568.76 3861.55 563.42 3812.25 565.68 3802.4 571.64 3781.85 574.48 3778.57 571.64 3754.74 571.64 3718.17 577.32 3777.03 578.9 3861.55 577.32 3973.3 567.7 4004.93 558.08 3905.1 565.68 3869.41 568.76"/>
            <path class="cls-31" d="M3138.49,447.33l-40.67-12.74h-65.32s-60.39-4.11-59.16-3.29c1.23.82,39.03,12.74,40.26,13.15,1.23.41,89.56,11.09,89.56,11.09,0,0,19.72,6.98,21.36,6.98s52.59,1.23,52.59,1.23l25.88,8.63,57.11-2.05-43.14-12.74-78.47-10.27Z"/>
            <path class="cls-31" d="M3380.06,435.17l-56.28,5.34,67.79,5.34s34.92-2.05,37.8-2.05,8.63-3.29,8.63-3.29h-38.62l-19.31-5.34Z"/>
            <polygon class="cls-31" points="3650.8 530.07 3629.02 530.07 3619.58 523.44 3583.42 523.44 3551.38 546.1 3523.03 530.07 3490.99 537.47 3484 545.69 3459.76 548.97 3447.85 558.01 3603.55 558.01 3615.88 551.85 3625.53 561.5 3657.37 561.5 3701.27 555.14 3665.18 544.86 3650.8 530.07"/>
          </g>
          <polygon class="cls-12" points="1652.75 327.25 1617.92 331.83 1580.33 321.75 1564.75 287.83 1534.5 269.5 1504.25 276.83 1496 300.67 1448.33 276.83 1438.25 247.5 1375.92 239.18 1451.08 220 1487.75 239.18 1532.67 244.75 1573 242.92 1581.25 270.42 1602.33 297 1642.67 288.75 1678.42 312.58 1672 331.83 1652.75 327.25"/>
          <polygon class="cls-21" points="797.5 0 840.58 0 894.67 32.08 929.5 40.33 946 37.58 973.5 66.92 997.33 64.17 1018.42 57.75 1033.08 59.58 1068.83 92.58 1110.08 103.58 1177 96.25 1197.17 82.5 1213.67 67.83 1240.25 75.17 1249.42 89.83 1352.08 158.58 1380.5 158.58 1401.58 145.75 1426.33 148.5 1459.33 158.58 1538.17 166.83 1561.08 199.83 1606.92 178.75 1629.83 187 1635.33 212.67 1686.67 221.83 1734.33 224.02 1759.56 243.34 1694.92 250.25 1632.58 239.18 1605.08 220 1595.92 204.42 1543.67 228.25 1483.17 199.66 1414.42 184.25 1367.67 191.58 1357.58 176.92 1321.83 181.5 1305.33 154 1170.58 161.33 1041.33 185.17 1015.67 166.83 1028.5 147.58 1008.33 137.5 952.42 132.92 898.33 136.58 874.5 121 883.67 106.33 862.58 91.67 826.83 74.25 656.33 51.33 588.5 18.33 571.08 0 797.5 0"/>
          <path class="cls-7" d="M1745.21,408.34h2.08l72.83,12.25,46.83-12.32,16.43,40.26,23.83-4.93-11.5-36.15,38.62,15.61,17.25-8.22,8.22,27.94-13.97,13.15,32.04,9.04,15.61,25.47,13.97-2.46,85.45,16.43,69.84-47.66-32.87-21.36-68.2,21.36-66.55-55.05-75.59-43.55,14.79,32.04-63.27-24.65,5.75,15.61-41.9-9.86-13.97-16.43-43.55-37.8,18.08-19.72,40.26,29.58,22.18-2.46,37.8,11.5-3.29-15.61s-41.9-44.37-48.48-47.66c-3.74-1.87-84.39-29.35-84.39-29.35l-64.64,6.91-62.33-11.07-27.5-19.18-9.17-15.58-52.25,23.83-60.5-28.59-68.75-15.41-46.75,7.33-10.08-14.67-35.75,4.58-16.5-27.5-134.75,7.33-129.25,23.83-25.67-18.33,12.83-19.25-20.17-10.08-55.92-4.58-54.08,3.67-23.83-15.58,9.17-14.67-21.08-14.67-35.75-17.42-170.5-22.92-67.83-33L571.08.24v-.24"/>
          <polygon class="cls-21" points="5252.22 172.35 5285.91 183.85 5294.79 181.64 5334.08 181.64 5346.92 173.25 5381.75 158.58 5434.92 171.42 5455.08 153.08 5480.52 154.11 5579.75 114.58 5601.75 110.92 5618.25 125.58 5653.08 114.58 5654.92 98.08 5667.75 83.42 5715.42 112.75 5728.25 99.92 5746.58 99.92 5775.92 77.92 5797.92 87.08 5819.92 77.92 5843.75 77.92 5917.08 17.42 5961.08 26.58 5981.25 13.75 6043.58 0 6139.53 0 6139.53 .34 6062.53 33.31 6043.58 28.42 6031.36 31.47 6028.92 45.53 6013.64 65.08 5989.81 59.58 5970.86 63.25 5965.36 101.14 5938.47 109.69 5910.97 99.92 5888.97 87.08 5876.75 99.31 5873.69 113.97 5878.58 128.03 5844.36 143.31 5816.86 163.47 5773.47 172.35 5736.81 163.47 5717.86 159.19 5703.19 172.35 5686.69 186.69 5664.08 179.18 5661.03 161.03 5639.64 151.25 5626.81 157.97 5598.69 172.35 5606.03 189.14 5591.97 197.69 5566.92 201.75 5543.08 191.58 5486.86 182.42 5456.92 201.75 5408.03 240.47 5378.08 232.94 5359.75 212.97 5337.75 220.2 5304.14 224.32 5268.69 208.08 5263.19 182.42 5252.22 172.35"/>
          <polyline class="cls-7" points="6139.53 0 6139.53 .34 6062.53 33.31 6043.58 28.42 6031.36 31.47 6028.92 45.53 6013.64 65.08 5989.81 59.58 5970.86 63.25 5965.36 101.14 5938.47 109.69 5910.97 99.92 5888.97 87.08 5876.75 99.31 5873.69 113.97 5878.58 128.03 5844.36 143.31 5816.86 163.47 5773.47 172.35 5736.81 163.47 5717.86 159.19 5703.19 172.35 5686.69 186.69 5664.08 179.18 5661.03 161.03 5639.64 151.25 5626.81 157.97 5598.69 172.35 5606.03 189.14 5591.97 197.69 5566.92 201.75 5543.08 191.58 5486.86 182.42 5456.92 201.75 5408.03 240.47 5378.08 232.94 5359.75 212.97 5337.75 220.2 5304.14 224.32 5268.69 208.08 5263.19 182.42 5252.22 172.35 5285.91 183.85 5294.79 181.64 5334.08 181.64 5346.92 173.25 5381.75 158.58 5434.92 171.42 5455.08 153.08 5480.52 154.11 5579.75 114.58 5601.75 110.92 5618.25 125.58 5653.08 114.58 5654.92 98.08 5667.75 83.42 5715.42 112.75 5728.25 99.92 5746.58 99.92 5775.92 77.92 5797.92 87.08 5819.92 77.92 5843.75 77.92 5917.08 17.42 5961.08 26.58 5981.25 13.75 6043.58 .52 6043.58 0"/>
          <path class="cls-8" d="M5294.79,665.34l-1514.99-35.74-18.49-6.11,13.56-5.39h56.69l5.75-5.75,35.33,1.64,27.11-9.45,13.97-8.78,29.58,4.67,23.16,9.19,21.21-4.26,2.88-15.2,19.72-4.93,23.83,4.11,41.9-19.31,23.01,3.7,19.31-3.7-10.27-3.7-.41-10.68,15.2-13.56-12.74-15.61,1.23-13.56,11.5-3.7,2.05-4.52h12.74l9.86-21.36,28.35-15.61,64.91,18.49,43.96,27.11,21.77,3.7,18.08,17.25,41.49-4.11,51.35,1.23-27.11,18.49,21.77,5.75,23.42-10.04s47.66-12.97,49.71-12.97,23.42-2.88,23.42-2.88l17.67-13.15,19.72-9.04,29.99-42.32,23.01-19.31,41.49-3.7,44.37,21.36,3.7,30.81,24.65,8.63,25.88-19.31,30.81-4.52-6.98-14.79,4.11-20.54,16.84-4.52,25.88-14.79,25.88-1.64-9.86-27.94,20.54-20.95h18.49l2.88-19.72,27.11-17.67,14.79,4.93,12.32-3.29,9.45-10.27h16.02l16.02,3.29,13.15-7.39h20.54l16.02-18.49,20.54-16.84,21.77,2.88,4.11-23.83,32.04-25.47s27.53-6.57,27.53-7.81,25.47-18.9,25.47-18.9h16.84s24.24-25.47,25.47-25.47,36.15-12.32,36.56-10.68c.41,1.64,28.76-6.98,28.76-6.98l33.69,11.5,6.11-2.21h42.07s12.83-8.39,12.83-8.39l34.83-14.67,53.17,12.83,20.17-18.33,25.44,1.03,99.23-39.53,22-3.67,16.5,14.67,34.83-11,1.83-16.5,12.83-14.67,47.67,29.33,12.83-12.83h18.33l29.33-22,22,9.17,22-9.17h23.83l73.33-60.5,44,9.17,20.17-12.83,62.33-12.81v-.94"/>
          <polyline class="cls-8" points="1745.21 768.15 1749.29 768.43 3180.37 624.61 3134.78 609.57 3088.36 599.3 3062.06 596.36 3012.76 574.24 3012.76 559.04 2974.15 550 2961.77 550 2946.62 540.9 2930.6 538.09 2903.89 520.83 2880.48 520.83 2860.76 515.9 2843.5 515.9 2836.11 511.79 2774.48 530.28 2698.89 556.16 2717.38 583.69 2696.42 582.46 2679.17 577.12 2614.67 571.36 2603.99 562.33 2573.59 559.45 2553.87 553.7 2553.87 543.02 2497.17 519.19 2474.16 518.37 2419.93 494.54 2385.01 479.18 2354.2 487.14 2388.3 510.15 2371.46 522.48 2344.75 529.87 2328.73 517.96 2315.17 497.41 2285.59 492.07 2208.77 456.74 2203.02 430.04 2190.69 416.89 2179.19 402.92 2116.74 392.65 2067.44 392.65 2042.79 379.51 2023.89 377.04 2025.95 359.38 2003.35 305.97 1974.59 279.67 1928.17 273.51 1926.53 250.92 1881.75 225.03 1829.98 225.03 1811.9 227.5 1787.67 199.97 1768.77 204.49 1747.98 199.66 1745.21 199.66 1686.67 221.83 1635.33 212.67 1629.83 187 1606.92 178.75 1561.08 199.66 1538.17 166.83 1459.33 158.58 1426.33 148.5 1401.58 145.75 1380.5 158.58 1352.08 158.58 1249.42 89.83 1240.25 75.17 1213.67 67.83 1197.17 82.5 1177 96.25 1110.08 103.58 1068.83 92.58 1033.08 59.58 1018.42 57.75 997.33 64.17 973.5 66.92 958.83 51.33 946 37.58 929.5 40.33 894.67 32.08 840.58 .54 840.58 0"/>
        </g>
        <line class="cls-10" x1="3975.56" y1="618.1" x2="3894.83" y2="624.92"/>
        <polygon class="cls-29" points="3914.55 695.26 3839.79 690.1 3471.83 695.26 3914.55 695.26"/>
        <polygon class="cls-25" points="2574.73 690.97 2649.49 685.81 3017.45 690.97 2574.73 690.97"/>
        <path class="cls-32" d="M0,668.5v1311.5h7040V668.5s-1205.42-45.28-3520-45.28S0,668.5,0,668.5Z"/>
        <path class="cls-52" d="M0,668.5v1311.5h7040V668.5s-1205.42-45.28-3520-45.28S0,668.5,0,668.5Z"/>
        <path id="Orig_Path" data-name="Orig Path" class="cls-23" d="M3469.56,1055.71h23.04l-1.6,17.44h10.24l5.12-17.44,126.08-2.53,64.96-5.89,16.16,13.49,19.2-10.55,1.44-8.01h18.88l16.96,14.06,4.8-7.31-5.12-9.56,77.44-10.69,146.88-22.78,129.92-47.53,22.56-18.02,3.36-37.76s3.52-4.69,4.48-4.69-12.12-2.81-12.12-2.81l-16.16-8.19-3.17-3.5,3.17-20.65-20.44-9.17-21.69,2.14-17.58-10.69-.6-4.34-15.12-23.1-6.12-5.85-11.34-6.33-17.7-16.63-11.28-2.59-37.04,1.75-3.28-3.25-5.13-2.53-33.83-4.27-42.24-12.44h-26.56l-24-7.87h-10.8l-15.12-6.19-43.84-1.26h-19.52l-15.21-6.17-44.16-5.51-44.16-4.22h-333.25l-46.32,3.48-25.56,9.17-11.54,7.54-38.82-.98-6.41-2.77-9.47-.7-13.68,2.6-21.96,3.3-33.6-.28-39.04,3.37-37.52,4.68-13.32,2.53-8.55,7.28,8.55,7.28,47.88,2.27-4.86,1.76-29.7,7.67h-33.84l-16,3.66-13.44,3.37-23.66,13.77-6.61-7.12-5.26-1.66-8.77,10.76,1.75,17.15-11.07,3.41-7.02,4.75-22.55,27.84-6.08,9.28-9.71,2.03-21.33,13.44,24.32,30.65,63.68,41.62,73.73,36.28s-23.35,13.5-22.14,13.22,20.35-.28,22.14-.56c1.79-.28,20.03-5.62,20.03-5.62l120.96,22.78s-2.56,3.66-1.28,3.66,70.08,4.78,70.08,4.78l31.04,3.37,5.12,3.95,26.24,2.24,8.64,2.53,30.72,1.69.32,10.41,11.2-7.87,71.68.84,57.6-1.41,5.76,9.28h6.08l5.12-9.28Z"/>
        <path class="cls-21" d="M3515.68,872.15l-24.12,7.02-23.76-.15-16.92,3.11-27.77,12.41h-34.33s-26.82-3.37-28.98,0c-2.16,3.37-24.48,0-24.48,0h-32.13l13.87,7.18-3.34,6.02-28.08,5.34-34.92-.74,23.58,8.69,28.89,5.64-13.95,11.82-14.94,3.84h14.94v12.28l-14.94,8.9-4.86,9.71s21.96.28,25.56-.44,28.32,0,28.32,0l5.52,12.27-5.65,12.2,31.57-6.84s-13.2,6.12-9.84,6.84c3.36.72,36.77-6.84,36.77-6.84l-1.14,11.77-10.81,14.57s15.44-5.85,21.47-7.99c6.03-2.15,22.95-12.23,22.95-12.23l20.52-2.34,2.88,13.32,23.04-19.79h25.92l7,14.45,14.96-14.45-2.11,11.68v17.34l9.31-14.57,11.54-11.77,7.56,3.78,9.34,5.22,7.74-9,17.33,8.28,18.67,12.96-2.52-14.4,5.34-9.66,8.52-7.19,23.81,10.01,13.27,8.28h15.12l-4-4.5h21.28l25.74,3.06-11.61-9.52-6.93-8.3,26.64,4.86h25.11l-33.21-7.56-21.78-11.7,29.88-1.54,33.84-4.78-15.17-1.43,42.53-11.88h26.64l-56.16-8.32h-23.04l41.76-7.16,37.44-22.21,30.96-19.91-36.43,6.71-39.91,13.2,20.19-17.69,9.31-8.42-40.27,18.63h-17.6l21.92-18.63-33.12,12.91h-21.93l33.13-18.95h-22.18l-11.61-3.44,11.61-14.48v-8.98l-28.62,17.2-24.66,6.26,10.26-9.03-28.39,15.9h-23.81l-11.34-6.87-14.13,4.16-17.41,4.68-12.2-8.84-12.78,7.02-4.12-7.02h-11.54Z"/>
        <polygon class="cls-48" points="3464.38 1022.86 3448.3 1035.18 3434.68 1024.72 3408.76 1039.52 3393.1 1039.52 3407.68 1026.65 3417.4 1008.86 3404.98 1016.99 3389.8 1027.29 3363.94 1039.52 3363.94 1027.29 3329.38 1035.18 3355.3 1016.35 3367.18 1002.18 3329.38 1016.99 3303.46 1026.65 3286.18 1029.22 3259.72 1035.18 3259.72 1028.58 3243.02 1035.18 3212.2 1040.2 3241.09 1043.34 3246.21 1047.29 3272.44 1049.53 3281.08 1052.06 3311.8 1053.74 3312.12 1064.15 3323.32 1056.28 3452.6 1055.71 3458.36 1064.99 3464.44 1064.99 3469.56 1055.71 3492.6 1055.71 3491 1073.15 3501.24 1073.15 3506.36 1055.71 3632.44 1053.18 3697.4 1047.29 3713.56 1060.78 3732.76 1050.23 3734.2 1042.21 3753.08 1042.21 3770.04 1056.28 3774.84 1048.96 3769.72 1039.4 3742.84 1019.75 3742.84 1030.51 3721.42 1025.68 3697.12 1018.92 3701.98 1025.68 3676.16 1015.7 3671.2 1025.68 3676.16 1032.44 3666.34 1030.51 3655.54 1014.42 3636.1 1012.48 3639.3 1026.65 3634.48 1035.18 3611.8 1020.85 3597.22 1011.84 3608.02 1025.68 3603.16 1031.8 3584.93 1042.74 3574.54 1040.17 3568.06 1014.42 3561.55 1015.7 3561.55 1029.87 3549.46 1029.87 3546.12 1017.63 3542.52 1020.21 3537.15 1038.24 3528.91 1031.15 3519.99 1040.17 3524.22 1007.98 3514.6 1026.65 3497.47 1044.67 3498.85 1033.64 3496.47 1023.21 3489.22 1016.35 3483.86 1026.65 3484.36 1017.63 3481.94 1003.15 3464.38 1022.86"/>
        <path class="cls-40" d="M3499.48,834.25l-16.85-10.99-17.17-29.57-3.24-16.5-9.52-8.99,5.2,10.91-.54,23.49,4.86,20.64-19.44-15.19v11.3l-16.74-11.3-4.86-35.34-1.08,28,1.08,12.58,4.86,17.65-6.48,7.73-21.78-11.59,3.96,13.52-26.46-24.35-19.98-37.49,2.16,29.3,8.64,26.19-11.88-7.17-9.3-19.02,2.28,15.19s-9.18-5.19-12.96-7c-3.78-1.81-7.56-15.54-7.56-15.54l-16.74-28,2.82,11.99,10.43,29,5.65,20.54,16.08,20.56-12.3-1.9-26.46-9.02-16.92-30.61v9.97l-11.7-7-11.91-17.9-9.69-12.11v15.9l9.69,17.62,10.01,33.16,27.55,4.75,25.65,11.91,21.61,2.58-11.35-9.03h16.74l2.7-5.46-8.09-18.99,18.89,5.23,28.44,13.76v-6.41l7.2-2.57,16.2,2.57,13.23,9.3-8.37-16.66,26.66,10.99-2.36-6.21-.54-14.43,18.9,9.65.54-16.82,10.26,7.17,25.72,9.65,1.14-16.82,9.85,11.59,5.94,5.23,10.26-9.65,2.36-14.89,2.5,19.96v4.59l16.74-9.65,14.62-7.17,2.66-13.79,2.7,17.01-5.36,13.6,16.7-2.01,23.76-21.71,12.42-21.82-3.24,21.82-10.26,14.07,7.56,14.43,19.98-7.44,26.46-21.07,7.02-12.11-5.4,22.88-5.94,12.95,25.76-6.52,13.11-10.3-9.18,21.6-11.23,8.98,12.85-2.85,16.2-10.91-5.4,13.76-9.18,8.23h24.3l27.9-17.2,19.08-25.43-10.26,25.43,15.12-9.37,14.58-12.23-10.26,16.82h7.56l-11.82,9.46,26.12-9.24,13.78-36.06-3.78-19.45-6.48,25.1-7.56,6.47,2.7-12.11-1.08-14.37-7.56,14.37-14.04-7.35-2.16,7.35-12.96,8.19v-14.12l-6.48,11.57-12.96,9.55h-12.96l9.26-24.9,2.62-9.74-25.34,24.68-9.76,6.07-7.56-5.65-7.17-13-12.26-21.6v19.24l-25.92,21-10.8-6.07-8.1-14.94-1.62-36.62-2.7,22.97-13.5,17.43-10.8,5.92-8.1,5.23,4.05-14.94v-19.24l-11.61,23.02-2.16-33.93-5.4-18.09v34.6l-5.9,16.01-16.93,13v-21.3l-4.71,15.65-9.18-10.44,1.08-24.9-7.56,35.34-11.34,8.19-5.4-17.9-9.37,9.71-18.17-7.35-8.1-16.01,3.67,17.43,16.85,32.11Z"/>
        <polygon class="cls-41" points="3342.16 1057.12 3361.24 1053.74 3375.82 1050.72 3383.92 1046.3 3383.92 1053.74 3411.64 1053.74 3439.54 1051.25 3446.02 1040.96 3452.6 1055.71 3395 1057.12 3342.16 1057.12"/>
        <path class="cls-49" d="M3312.76,985.88l-97.32,3.43s-30.68-9.92-29.4-10.3,25.6-10.3,25.6-10.3l42.88-9.16s25.28-14.31,23.36-13.45c-1.92.86-67.84,0-67.84,0l-22.59-.04-21.57-10.08,40-11.91-21.44-16.79,54.88-18.43,36.32-35.95-10.01-33.16h-19.43l-19.52-10.13-12.8-16.02s3.84,16.48,6.72,19.68c2.88,3.21,13.56,13.89,13.56,13.89l-33.4-2.24-23.37-26.58,7.69,24.9-6.4,10.99h-5.44l-19-24.62,6.2,27.09,1.6,7.18-15.36-2.99s-22.4-15.09-24.32-17.66c-1.92-2.56-8.64-12.86-8.64-12.86,0,0,5.44,15.64,6.4,17.17.96,1.53,17.28,19.84,17.28,19.84l6.4,5.52h-10.88l-27.84-25.74v11.83l-10.24-1.53-14.35-7.99v12.57l1.84,7.25-25.65-11.83-15.92-24.19s11.56,23.42,11.06,25.33c-.5,1.91,12.62,19.04,12.62,19.04l29.12,14.15-16.96,1.53-8.32,2.67-36.03-14.5,27.29,19.46,36.58,10.49-15.32,9.65-18.91.93-12.49,6.88-14.71,3.89-1.05,7.36,8.74,7.85v3.3l-21.6-3.3-31.59-16.92,5.18,12.97-8.96,1.8-29.76-11.26-23.68-10.9,23.04,18.08,37.76,17.92v12.51l-21.76-6.13s-24.32-14.78-24.96-15.92-27.84-29.76-27.84-29.76l-22.4-3.43s28.48,27.25,29.44,28.88c.96,1.64,18.24,17.37,18.24,17.37l29.44,14.41,18.56,9.16,8.77,6.42,20.52,27.15,155.03,49.97,58.36,5.34,13.68-31.66-13.68-11.44-36.92,7.63,29.12-22.51,51.52-1.14,6.4-2.35,28.48-8.33Z"/>
        <path class="cls-16" d="M3778.31,991.32l32.28-8.29,26.68-15.99-25.34,6.81-66.51-5.13,71.85-12.93,16.78-9.71,23.16-10.08-27.14-.05,37.61-21.48-16.08-2.68,41.42-26.26-58.15,13.98,29.34-28.5-91.5,14.52,49.62-20.95-38.68-8.79-16.82-2.4,26.12-9.24,23.24-46.5-8,24.58v5.03l-4.8,14.22,11.73,1.48,28.54-18.95-.2,10.27.74,10.46,25.5-35.08-6.66,27.09-1.72,7.18-.06,15.33,22.67-13.33,30.68-28.26-11.47,18.48-10.14,13.62-5.34,3.17h4.92l18.03-13.24,4.53,8.59,18.33-10.79,11.53-10.24,3.88,14.82-12.4,18.35,26.2-12.14,28.85-34.98s-12.41,23.42-11.88,25.33c.54,1.91-10.9,20.31-10.9,20.31l-33.92,12.88,18.21,1.53,12.68,1.27,30.53-3.61-24.89,9.97-39.28,10.49,16.46,9.65,13.01,5.8-18.14,14.22,54.65-8.32-17.3,11.28-40.01,19.15,51.48-13.82,20.77-1.4,33.92-16.92-29.08,23.15-36.28,12.05,34.99-.77,43.1-10.19,23.97-13.55-20.16,20.06-20.38,10.37,23.36-6.13,26.8-15.92,18.16-15.73-23.41,28.29-23.62,14.9-19.93,9.16-9.42,6.42-22.03,27.15-166.46,49.97-62.66,5.34-41.06-35.94,36.28,7.11,24.96-3.67-24.96-10.54-28.81-15.1,28.01-6.22Z"/>
        <polygon class="cls-41" points="3196.75 1039.04 3213.75 1033.35 3240.61 1035.58 3256.76 1039.04 3277.4 1042.98 3303.89 1038.17 3312.76 1030.25 3305.27 1046.3 3305.61 1053.74 3281.08 1053.74 3272.44 1049.53 3246.21 1047.29 3241.09 1043.34 3196.75 1039.04"/>
        <polygon class="cls-41" points="3515.68 1055.58 3531.34 1049.04 3542.58 1042 3551.71 1047.29 3568.64 1047.29 3583.18 1047.29 3597.76 1049.04 3632.32 1047.72 3628.54 1040.96 3646.36 1048.27 3678.12 1049.04 3632.44 1053.18 3515.68 1055.58"/>
        <polygon class="cls-41" points="3753.08 1042.21 3753.08 1035.18 3744.97 1026.65 3762.92 1034.43 3769.72 1039.4 3774.84 1048.96 3770.04 1056.28 3753.08 1042.21"/>
        <polygon class="cls-23" points="3135.89 946.1 3139.97 934.87 3148.13 926.66 3118.58 934.87 3100.61 937.1 3074.52 942.22 3056.69 944.74 3099.89 950.3 3118.58 950.3 3135.89 946.1"/>
        <ellipse class="cls-9" cx="3520" cy="924.17" rx="128.77" ry="45.01"/>
        <polygon class="cls-57" points="3406.24 947.38 3411.64 947.38 3417.76 950.7 3413.44 955.82 3401.2 964.27 3382.84 972.78 3397.38 961.05 3405.16 954.15 3382.84 957.5 3400.3 946.33 3400.3 942.22 3406.24 947.38"/>
        <polyline class="cls-57" points="3386.8 924.17 3387.7 927.47 3386.8 930.18 3383.92 932.21 3373.39 935.7 3382.84 929.94 3385.27 925.59 3386.8 924.17"/>
        <polygon class="cls-57" points="3389.8 939.21 3393.64 942.22 3393.64 946.5 3388.78 950.3 3388.78 944.76 3389.8 939.21"/>
        <polygon class="cls-57" points="3641.14 908.88 3651.4 919.32 3662.2 922.38 3675.88 922.38 3651.4 915.63 3641.14 908.88"/>
        <polygon class="cls-57" points="3653.92 929.01 3651.4 934.62 3656.08 936.34 3664.72 937.1 3672.64 936.34 3662.02 933.06 3653.92 929.01"/>
        <polygon class="cls-57" points="3636.28 950.3 3639.3 952.62 3648.77 957.3 3658.51 967.02 3648.77 961.89 3639.3 957.3 3636.28 950.3"/>
        <path class="cls-57" d="M3646,944.76l5.4-5.55h18.36s14.76,5.85,16.56,6.21c1.8.36,12.96,0,12.96,0l-24.84,3.08-15.93-3.08-11.11,4.88-1.4-5.55Z"/>
        <polyline class="cls-57" points="3618.28 953.25 3612.16 958.41 3604.6 965.04 3593.71 969.18 3599.2 970.62 3605.99 974.22 3611.44 980.52 3612.16 972.78 3615.76 963.5 3618.28 961.89 3631.24 965.04 3633.04 957.3 3629.62 952.62 3618.28 953.25"/>
        <polygon class="cls-57" points="3625.84 972.78 3629.62 978.2 3636.28 983.58 3641.14 986.1 3633.49 979.44 3625.84 972.78"/>
        <polygon class="cls-57" points="3393.64 912.32 3383.92 915.82 3369.74 922.38 3386.8 917.7 3393.64 912.32"/>
        <polygon class="cls-57" points="3547 976.74 3553.12 972.78 3557.44 972.78 3562.12 979.44 3564.28 984.3 3555.64 978.54 3547 978.54 3544.12 976.74 3547 976.74"/>
        <polygon class="cls-57" points="3462.76 972.78 3471.4 972.78 3475.33 972.78 3481.12 972.78 3475.99 976.74 3468.88 978.54 3466.36 975.66 3462.76 972.78"/>
        <polyline class="cls-57" points="3408.23 985.05 3401.92 990.42 3397.78 990.42 3404.8 986.1"/>
        <polygon class="cls-57" points="3335.32 939.21 3321.28 945.42 3298.81 945.42 3313.72 942.22 3321.64 942.22 3335.32 939.21"/>
        <polygon class="cls-21" points="3950.19 855.76 3946.3 865.89 3927.13 885.51 3917.07 892.77 3941.19 885.51 3953.07 873.34 3955.63 865.89 3962.7 848.27 3950.19 855.76"/>
        <polygon class="cls-21" points="3298.6 788.61 3298.6 797.62 3303.2 808.06 3308.32 824.94 3303.2 819.36 3295.9 802.61 3295.9 797.62 3298.6 788.61"/>
        <polygon class="cls-21" points="3207.35 887.37 3239.33 888.86 3254.76 894.53 3262.96 898.45 3250.72 896.82 3235.16 892.91 3220.31 892.77 3207.35 887.37"/>
        <path class="cls-21" d="M3317.07,883.49l-10.9-4.33v-4.49s3.34-1.62,5.45,0,6.97,3.24,6.97,3.24l-1.51,5.57Z"/>
        <polygon class="cls-21" points="3361.24 887.37 3350.45 883.49 3342.16 881.62 3354.76 881.62 3363.94 884.49 3369.74 890.03 3361.24 887.37"/>
        <polygon class="cls-21" points="3382.84 863.12 3383.92 869.1 3388.78 872.15 3393.64 875.22 3391.21 872.15 3386.8 867.66 3382.84 863.12"/>
        <polygon class="cls-21" points="3420.28 865.89 3417.76 869.17 3422.8 872.15 3429.64 879.17 3434.41 883.26 3430.72 875.22 3428.2 869.17 3420.28 865.89"/>
        <polygon class="cls-21" points="3452.5 876.66 3456.82 873.96 3462.76 873.96 3467.8 872.15 3469.6 872.15 3467.8 879.02 3459.16 878.73 3452.5 876.66"/>
        <polygon class="cls-21" points="3487.24 878.73 3481.12 873.96 3475.07 865.89 3471.94 858.66 3481.12 865.89 3493.52 869.17 3497.67 875.22 3504.34 879.5 3487.24 878.73"/>
        <polygon class="cls-21" points="3549.79 865.89 3557.08 858.66 3568.64 858.66 3585.34 853.26 3582.64 863.12 3569.19 865.89 3559.6 865.89 3549.79 865.89"/>
        <polygon class="cls-21" points="3604.96 869.17 3611.44 873.96 3618.28 871.57 3620.44 865.89 3613.37 869.08 3604.96 869.17"/>
        <polygon class="cls-21" points="3511.09 863.12 3511.09 865.89 3519.1 865.89 3520 863.12 3513.88 858.66 3511.09 863.12"/>
        <polygon class="cls-21" points="3856.41 980.52 3864.51 975.66 3875.31 978.54 3883.95 984.3 3865.59 989.7 3856.41 986.1 3856.41 980.52"/>
        <polygon class="cls-21" points="3302.11 1004.82 3286.72 1008.77 3281.08 1015.17 3274.3 1022.82 3288.21 1013.82 3298.81 1008.77 3302.11 1004.82"/>
        <polygon class="cls-21" points="3254.76 973.22 3247.85 975.66 3242.99 972.78 3250.72 969.18 3259.72 970.8 3254.76 973.22"/>
        <path class="cls-9" d="M3259.72,737.76l-25.56,9.17-19.38,7.69-17.34.45-15.84,2.48-4.21-1.53-18.47.98-6.13,6.88-16.81,2.22-38.64-.32-32.2,1.92-5.37,3.52-3.08,11.82-4.86,1.76-29.7,7.67h-33.84l-16,3.66-13.44,3.37-23.66,13.77-6.61-7.12-5.26-1.66-8.77,10.76,1.76,17.15-11.07,3.41-7.02,4.75-22.55,27.84-6.08,9.28-9.71,2.03-21.33,13.44,24.32,30.65,63.68,41.62,73.73,15.55s-23.35,13.5-22.14,13.22c1.21-.28,20.35-.28,22.14-.56,1.79-.28,20.03-5.62,20.03-5.62l120.96,43.51s-2.56,3.66-1.28,3.66,70.08,4.78,70.08,4.78l31.04,3.37,5.12,3.95,26.24,2.24,8.64,2.53,30.72,1.69.32,10.41,11.2-7.87,71.68.84,57.6-1.41,5.76,9.28h6.08l5.12-9.28h23.04l-1.6,17.44h10.24l5.12-17.44,126.08-2.53,64.96-5.89,16.16,13.49,19.2-10.55,1.44-8.01h18.88l16.96,14.06,4.8-7.31-5.12-9.56,77.44-10.69,146.88-22.78,129.92-47.53,22.56-18.02,3.36-37.76s3.52-4.69,4.48-4.69-12.12-2.81-12.12-2.81l-16.16-8.19-3.17-3.5,3.17-20.65-20.44-9.17-21.69,2.14-17.58-10.69-.6-4.34-15.12-23.1-6.12-5.85-11.34-6.33-17.7-16.63-11.28-2.59-37.04,1.75-3.28-3.25-5.13-2.53-33.83-4.27-42.24-12.44h-26.56l-24-7.87h-10.8l-15.12-6.19-43.84-1.26h-19.52l-15.21-6.17-44.16-5.51-44.16-4.22h-333.25l-46.32,3.48Z"/>
        <polyline class="cls-50" points="2898.2 852.92 2838.53 863.12 2754.37 870 2632.14 870 2722.38 903.82 2765.17 946.1 2765.17 980.99 2926.53 965.44 3000.26 980.99 2930.06 955.36 2877.25 912.47 2883.69 898.36 2874.44 897.03"/>
        <polygon class="cls-17" points="2915.71 826.79 2895.81 834.25 2808.13 834.25 2886.85 826.79 2914.54 815.27 2915.71 826.79"/>
        <polygon class="cls-2" points="2986.1 792.6 2966.85 793.61 2891.33 793.61 2971.73 788.61 3008.45 784.71 3022.13 788.61 3051.83 788.61 3025.64 792.77 2994.05 793.69 2986.1 792.6"/>
        <polygon class="cls-44" points="3141.57 754.7 2921.73 754.7 3037.25 758.96 3098.81 761.48 3130.58 763.89 3146.33 761.48 3154.25 763.89 3158.93 757.01 3177.4 756.03 3212.04 754.7 3141.57 754.7"/>
        <polygon class="cls-1" points="2698.61 817.26 2694.87 818.48 2694.52 821.68 2692.59 819.23 2689.52 820.23 2687.18 828.32 2667.34 834.25 2627.02 834.25 2670.22 829.09 2679.42 824.44 2689.21 818.33 2698.61 817.26"/>
        <polygon class="cls-58" points="3139.97 1035.18 3092.93 1069.42 3032.25 1124.7 2963.35 1173.89 2705.86 1325.62 3056.69 1187.28 3154.25 1136.09 3231.17 1075.72 3234.17 1090.59 3278.68 1073.15 3281.08 1052.06 3272.44 1049.53 3246.21 1047.29 3241.09 1043.34 3139.97 1035.18"/>
        <polygon class="cls-47" points="2995.97 1008.77 2928.58 1035.18 2816.2 1073.15 2942.21 1048.25 2968.61 1035.18 3000.26 1029.94 3020.78 1016.78 2984.93 1020.78 2995.97 1008.77"/>
        <polygon class="cls-62" points="3139.97 1035.18 3176.93 1051.68 3224.93 1051.68 3234.17 1060.27 3272.44 1049.53 3246.21 1047.29 3241.09 1043.34 3139.97 1035.18"/>
        <polygon class="cls-51" points="3395 1057.1 3434.68 1055.69 3430.2 1096.51 3431.48 1112.34 3430.84 1168.99 3362.43 1245.42 3344.92 1153.77 3370.84 1095.71 3362.68 1087.25 3372.28 1056.82 3395 1057.1"/>
        <polygon class="cls-46" points="3837.78 750.17 3880.11 754.7 3955.63 754.7 3878.19 760.26 3856.6 761.12 3837.78 755.63 3837.78 750.17"/>
        <polygon class="cls-54" points="4002.04 781.3 3999.25 784.74 4128.81 784.74 4047.76 781.3 4016.44 776.15 4002.04 781.3"/>
        <polygon class="cls-35" points="4064.03 805.19 4070.79 811.79 4070.79 815.58 4126.06 815.58 4079.07 810.39 4064.03 805.19"/>
        <polygon class="cls-60" points="4181.31 846.82 4192.69 851.26 4195.94 860.99 4312.16 860.99 4205.62 853.63 4195.94 846.82 4181.31 846.82"/>
        <polygon class="cls-36" points="4271.17 848.54 4307.89 839.09 4488.61 848.54 4271.17 848.54"/>
        <polygon class="cls-15" points="3213.01 723.3 3176.29 718.14 2995.57 723.3 3213.01 723.3"/>
        <polygon class="cls-24" points="3941.19 1035.66 3996.27 1044.67 3998.43 1026.65 4142.07 1097.46 4057.83 1085.87 4044.87 1102.61 3994.11 1063.99 3941.19 1035.66"/>
        <path class="cls-19" d="M4161.42,1006.02l-30.69-36.02,31.86-14.81,6.48-18.67,350.45,10.94s55.08,123.6,54.54,125.53c-.54,1.93-3.24,63.09-3.24,63.09l-409.4-130.07Z"/>
        <polygon class="cls-3" points="3639.3 1089.52 3642.04 1060.27 3692.44 1078.58 3699.64 1069.42 3715.48 1069.42 3732.76 1073.15 4055.31 1403.41 3927.13 1355.81 3742.84 1377.41 3666.82 1485.29 3639.3 1089.52"/>
        <polygon class="cls-45" points="3899.79 1129.22 3963.87 1224.5 4004.19 1245.42 3981.15 1188.36 3923.55 1136.09 3909.15 1111.19 3888.41 1102.61 3899.79 1129.22"/>
        <path class="cls-27" d="M4060.53,734.91l68.58,4.86h85.32s48.01,2.7,50.46,2.7,133.67,3.24,133.67,3.24h132.3l-162,5.4h-86.28l-17.7-2.16-38.58,2.16-30.78-5.4-39.42-2.7h-29.16l-66.42-8.1Z"/>
        <path class="cls-11" d="M2869.58,883.26l-9.72,5.17,12.42,2.58,2.16,6.03,9.24,1.33-6.43,14.11,52.81,42.88,70.2,25.63-22.14,13.22,22.14-.56,20.03-5.62,120.96,43.51s-2.56,3.66-1.28,3.66,70.08,4.78,70.08,4.78l31.04,3.37,5.12,3.95,26.24,2.24,8.64,2.53,30.72,1.69.32,10.41,11.2-7.87,71.68.84,57.6-1.41,5.76,9.28h6.08l5.12-9.28h23.04l-1.6,17.44h10.24l5.12-17.44,126.08-2.53,64.96-5.89,16.16,13.49,19.2-10.55,1.44-8.01h18.88l16.96,14.06,4.8-7.31-5.12-9.56,77.44-10.69,146.88-22.78,129.92-47.53,22.56-18.02,3.66-10.84,2.7-18.03"/>
        <polyline class="cls-11" points="3225.53 752.93 3259.72 750.17 3255.95 746.61 3265.66 740.18 3285.11 735.85 3298.6 739.53 3306.04 734.28 3332.62 734.28 3363.4 737.6 3383.92 734.28 3392.02 738.24 3397.96 734.28 3426.04 734.28 3434.68 747.9 3439.54 744 3439.54 734.28 3468.16 737.6 3484.9 734.28 3493.52 734.28 3497.42 738.89 3506.37 734.28 3549.16 734.28 3557.35 738.24 3579.94 734.28 3613.96 737.6 3618.28 744 3621.52 734.28 3639.3 734.28 3679.89 738.15"/>
        <polygon class="cls-41" points="3895.29 775.8 3907.17 779.36 3890.16 802.61 3892.05 815.43 3900.96 816.61 3882.06 851.26 3901.77 839.63 3915.54 810.92 3919.59 781.97 3927.96 782.92 3935.52 810.68 3934.17 835.12 3954.69 804.04 3958.74 782.21 3949.02 779.12 3961.98 777.94 3930.39 775.8 3882.06 762.51 3856.41 761.09 3837.78 755.63 3837.78 750.17 3821.31 753.73 3818.61 777.94 3814.83 794.55 3824.28 781.26 3834 784.34 3834.27 763.7 3847.23 767.5 3845.61 800.71 3855.87 800.71 3859.92 806.17 3849.12 807.36 3838.59 834.65 3869.91 804.75 3876.66 801.9 3875.58 792.41 3886.11 767.97 3883.68 792.65 3888.41 792.88 3895.29 775.8"/>
        <polygon class="cls-41" points="3963.87 784.74 4020.03 784.74 4040.37 790.27 4027.23 794.86 4044.51 803.09 4033.17 805.46 4029.57 817.48 4009.59 845.48 3987.09 865.89 4005.27 843.43 4016.61 819.54 4013.19 808.31 4014.45 793.44 4003.11 790.27 3995.01 792.81 3983.85 823.65 3968.37 847.06 3977.55 819.86 3984.39 793.44 3963.87 792.33 3963.87 784.74"/>
        <polygon class="cls-41" points="4044.51 811.79 4042.89 819.38 4050.63 817.64 4050.63 814.48 4055.31 811.79 4044.51 811.79"/>
        <polygon class="cls-41" points="4057.65 855.76 4063.23 857.19 4053.15 873.64 4041.81 883.45 4046.31 874.59 4053.51 864.46 4055.49 855.76 4057.65 855.76"/>
        <path class="cls-41" d="M4104.81,835.83l37.98-3.16-56.52-1.27v-4.59l-25.2-9.17h-10.44l-4.14,5.85-1.98,11.71-10.98,14.08-12.06,8.7-16.2,17.56,10.98-4.27,8.64-6.96,17.1-9.02,15.12-2.06,9.9-4.11,4.86,3.01-.36,24.84-4.86,5.85.36,11.23,7.38-3.8-6.12,16.45-21.24,17.56-24.84,16.14,17.64-8.23,27-18.51-3.24,10.76,4.68,5.22,20.34-28,11.52-28-5.04-20.56s-10.8-3.01-11.7-3.01-14.58-5.06-14.58-5.06l-3.06-4.27h30.96l8.1-4.9ZM4084.83,892.15l4.32-26.26,4.68.95-1.44,22.46-18.36,25.15,10.8-22.3Z"/>
        <polygon class="cls-41" points="4105.62 853.63 4111.02 858.37 4111.02 867.63 4116.69 865.89 4119.12 872.61 4113.99 883.45 4122.9 883.45 4136.94 873.56 4138.56 865.89 4146.51 864.14 4126.06 858.14 4105.62 853.63"/>
        <polygon class="cls-41" points="4114.8 890.17 4108.05 904.17 4105.62 912.47 4111.56 908.2 4117.23 894.92 4117.23 890.17 4114.8 890.17"/>
        <path class="cls-41" d="M4126.06,886.95v13.42l11.41-4.75s55.08-5.69,54-5.46c-1.08.24-54.54,0-54.54,0l-10.87-3.22Z"/>
        <path class="cls-41" d="M4170.69,895.86l-24.18.95-7.14,3.56-13.3,30.85,6.28,14,14.16-4.82s3.66-9.89,3.66-10.84,2.7-18.03,2.7-18.03l5.91-4.98-3.75-6.17,15.66-4.51Z"/>
        <polygon class="cls-41" points="4025.58 886.95 4015.9 885.51 3972.92 913.48 4014.26 895.6 4025.58 886.95"/>
        <polygon class="cls-41" points="3694.15 738.69 3681.46 742.16 3722.23 747.15 3720.34 753.23 3707.11 748.46 3716.83 759.53 3727.63 786.24 3718.99 776.03 3710.62 774.08 3696.31 762.46 3675.52 749.54 3649.6 744.55 3639.3 734.28 3722.5 735.86 3694.15 738.69"/>
        <polygon class="cls-41" points="3727.63 744 3735.73 750.17 3735.73 763.94 3728.98 756.11 3735.73 772.72 3744.91 788.85 3752.2 792.41 3759.49 780.78 3761.38 772.72 3757.06 761.56 3770.56 763.46 3767.86 755.87 3783.52 771.77 3789.72 772 3791.34 763.7 3795.66 763.94 3793.5 755.16 3806.73 754.68 3819.7 768.21 3821.31 753.73 3813.21 750.17 3794.31 746.38 3763.54 745.19 3757.33 744 3743.56 746.38 3727.63 744"/>
        <path class="cls-41" d="M2990.27,960.74l-38.29-14.42-41.08-36.16-27.81-33.57,7.83-6.67,14.58,29.05-8.37-25.39,1.08-20.66-15.12,6.03-17.28,12.05,3.78,12.27-9.72,5.17,12.42,2.58,2.16,6.03,9.24,1.33-6.43,14.11,52.81,42.88,29.76,10.86,40.44,7-9.99-12.48ZM2936.81,943.52l-10.26-4.95-14.04-12.7,11.34,5.81,20.79,14.42-7.83-2.58Z"/>
        <polygon class="cls-41" points="2895.23 833.37 2923.31 824.94 2923.31 849.37 2917.37 850.77 2917.91 871.16 2930.06 871.16 2935.19 883.29 2922.23 878.02 2912.51 869.05 2905.22 848.14 2911.16 844.09 2897.93 841.28 2906.03 837.24 2893.88 836.19 2895.23 833.37"/>
        <polygon class="cls-41" points="2928.58 809.37 2928.58 825.98 2932.49 825.98 2937.35 853.66 2954.36 883.19 2973.26 899.33 2970.29 890.57 3002.69 911.79 3035.63 921.02 3003.5 907.29 2971.1 879.96 2961.65 853.89 2948.69 855.28 2944.64 831.06 2948.15 814.45 2962.19 804.07 2982.1 802.68 2979.2 825.06 2979.74 846.05 2986.22 814.91 2994.05 797.84 3008.9 798.99 3028.07 797.84 3051.83 788.61 3025.64 792.77 2994.05 793.69 2986.22 792.3 2984.6 796.23 2954.9 799.22 2954.9 802.91 2938.16 805.22 2938.7 801.53 2928.58 804.76 2928.58 809.37"/>
        <polygon class="cls-41" points="3022.13 772.78 3054.89 772.78 3054.89 787.66 3063.17 796.76 3066.77 810.54 3071.45 825.43 3082.25 834.25 3078.29 823.5 3082.25 821.29 3074.69 791.18 3073.61 769.75 3090.89 771.95 3097.73 800.07 3097.73 771.68 3101.69 771.68 3113.57 791.18 3128.69 811.92 3135.17 827.08 3145.61 834.25 3139.49 820.19 3133.73 809.72 3126.17 791.18 3119.69 768.64 3136.25 768.64 3145.61 773.6 3147.41 766.71 3154.25 763.13 3146.33 761.48 3130.13 763.96 3098.81 761.48 3066.41 764.78 3041.93 769.47 3022.13 772.78"/>
        <polygon class="cls-41" points="3158.93 757.01 3158.93 771.89 3165.77 798.36 3167.93 760.87 3177.4 756.03 3158.93 757.01"/>
        <path class="cls-41" d="M3177.4,760.59l1.69,10.75,3.6,1.38,5.04-14.06s10.8-3.31,9.72-3.58c-1.08-.28-15.84,2.48-15.84,2.48l-4.21,3.03Z"/>
        <path class="cls-41" d="M3214.73,754.86l-6.12,12.96v17.92l7.92-24.26,5.76-1.38,2.16,29.22,4.32,18.74v-25.09l10.8-15.16s5.4,6.62,5.4,6.34,7.56-20.95,7.56-20.95l7.2-3.03-34.2,2.76-10.8,1.93Z"/>
        <path class="cls-41" d="M2978.12,863.12l9.18,15.66s19.71,19.69,20.52,19.69,26.19,11.39,27.54,11.63,21.33,4.51,21.33,4.51l-7.29-5.69-25.11-8.54-9.99-10.2-22.41-10.91-13.77-16.14Z"/>
        <polygon class="cls-41" points="2992.43 813.29 2982.17 847.7 2983.79 861.93 2995.67 860.75 3019.16 883.29 3056.69 896.81 3082.34 902.03 3070.19 894.68 3042.38 884.47 3026.72 872.37 3004.04 845.8 2998.37 834.25 2992.43 813.29"/>
        <polygon class="cls-41" points="3029.15 802.61 3020.78 817.32 3020.78 832.98 3032.25 843.9 3042.38 838.2 3029.15 819.7 3029.15 814.71 3034.01 813.29 3029.15 802.61"/>
        <polygon class="cls-41" points="3000.26 980.99 2997.08 993.79 2978.12 994.2 3000.26 980.99"/>
        <polygon class="cls-41" points="3259.72 750.17 3269.44 756.03 3272.68 768.21 3278.62 779.12 3285.64 792.41 3281.08 777.19 3281.08 759.29 3292.66 752.93 3300.76 752.93 3318.04 771.29 3328.84 779.12 3334.78 797.62 3334.78 777.19 3339.1 772.72 3339.1 754.7 3347.2 744 3350.45 736.2 3332.62 734.28 3306.04 734.28 3298.6 739.53 3285.11 735.85 3265.66 740.18 3255.95 746.61 3259.72 750.17"/>
        <polygon class="cls-41" points="3383.92 734.28 3385.71 763.89 3389.8 777.19 3397.24 808.06 3400.84 797.62 3411.64 823.26 3406.6 789.2 3411.64 778.77 3407.32 754.7 3397.78 750.17 3401.56 734.28 3397.78 734.28 3392.02 738.24 3383.92 734.28"/>
        <polygon class="cls-41" points="3497.42 738.89 3500.02 754.7 3505.23 765.95 3505.23 752.42 3506.37 734.28 3497.42 738.89"/>
        <polygon class="cls-41" points="3439.54 744 3439.54 768.21 3442.78 777.19 3442.78 789.2 3437.38 772.72 3431.91 768.21 3431.91 755.06 3426.04 734.28 3434.68 747.9 3439.54 744"/>
        <polygon class="cls-41" points="3534.78 734.28 3549.16 734.28 3557.35 738.24 3568.64 736.26 3562.5 744 3562.5 761.12 3557.35 768.21 3555.1 784.74 3551.71 770.43 3551.71 750.11 3542.58 744 3542.58 752.93 3534.78 743.6 3534.78 734.28"/>
        <polygon class="cls-41" points="3613.96 737.6 3618.28 744 3618.28 752.93 3616.12 768.21 3613.96 777.19 3602.08 797.62 3610.18 777.19 3607.48 759.51 3602.08 744 3597.22 750.17 3597.22 756.03 3590.74 765.95 3590.74 755.06 3585.34 744 3588.04 734.28 3613.96 737.6"/>
        <polygon class="cls-41" points="3298.6 797.62 3303.2 808.06 3308.32 824.94 3317.5 834.25 3328.84 843.9 3323.19 834.25 3323.19 824.94 3313.72 820.76 3309.4 808.06 3308.86 793.69 3298.6 788.61 3298.6 797.62"/>
        <polygon class="cls-41" points="3597.76 808.06 3589.66 813.29 3589.66 819.36 3593.71 819.36 3597.76 813.71 3597.76 808.06"/>
        <polygon class="cls-41" points="3679.89 777.19 3694.42 786.24 3694.42 798.36 3690.64 813.71 3676.16 827.08 3683.46 813.29 3683.46 800.71 3676.16 800.71 3671.2 793.61 3679.89 777.19"/>
        <polygon class="cls-41" points="3212.2 843.9 3219.41 854.11 3247.49 865.89 3269.44 865.89 3289.24 865.89 3269.44 857.66 3248.21 857.66 3225.53 847.68 3212.2 843.9"/>
        <polygon class="cls-41" points="3730.68 834.25 3717.64 851.26 3702.52 863.12 3720.52 855.76 3730.68 834.25"/>
        <polyline class="cls-41" points="3311.8 1053.74 3312.12 1064.15 3323.32 1056.28 3323.32 1064.15 3298.6 1100.94 3274.3 1127.58 3298.6 1088.88 3311.8 1053.74"/>
        <polygon class="cls-41" points="3141.25 1031.53 3139.97 1035.18 3154.25 1037.22 3104.29 1073.15 3082.91 1088.88 3098.45 1071.63 3141.25 1031.53"/>
        <polygon class="cls-41" points="3710.8 1062.78 3721.18 1070.18 3744.97 1093.07 3739 1079.55 3724.32 1054.86 3713.56 1060.78 3697.4 1047.29 3710.8 1062.78"/>
        <polygon class="cls-41" points="3051.67 1016.76 3036.93 1021.24 3022.08 1035.25 3017.01 1046.3 3035.21 1037.38 3053.83 1029.54 3051.67 1016.76"/>
        <polygon class="cls-41" points="3210.32 747.24 3216.8 745.35 3220.31 743.6 3213.56 743.6 3207.35 745.42 3210.32 747.24"/>
        <polygon class="cls-41" points="2952.9 934.87 2971.58 939.48 2996.75 946.1 3013.49 950.3 3045.89 954.6 3013.49 954.6 2995.67 954.6 2978.12 950.3 2966.71 954.6 2951.98 946.32 2948.69 935.99 2952.9 934.87"/>
        <polygon class="cls-41" points="3090.53 982.5 3101.33 978.2 3109.97 978.2 3131.21 978.2 3148.13 973.22 3124.73 983.94 3110.69 983.94 3098.09 987.59 3090.53 986.1 3090.53 982.5"/>
        <polygon class="cls-41" points="3074.52 1007.52 3101.69 1011.66 3133.01 1011.66 3177.4 1007.52 3139.97 1016.76 3125.09 1022.82 3117.04 1022.82 3074.52 1007.52"/>
        <polygon class="cls-42" points="3434.68 890.47 3452.6 885.82 3456.28 888.14 3460.6 883.26 3478 881.62 3483.28 881.62 3491.56 879.17 3504.16 879.17 3506.37 883.26 3508.48 886.74 3508.48 881.7 3512.43 879.17 3524.32 879.17 3527.22 883.26 3531.34 879.17 3556.32 880.99 3562.12 883.26 3565.97 882.12 3582.5 884.82 3585.34 890.47 3587.36 885.81 3600.68 889.1 3601.81 892.14 3607.84 894.53 3619.56 895.63 3631.03 901.37 3631.03 907.73 3634.72 903.71 3641.14 908.88 3648.77 924.17 3651.4 929.01 3647.61 930.22 3633.94 945.15 3634.84 948.66 3630.12 947.51 3618.28 953.25 3612.16 953.25 3607.66 957.14 3587.36 962.54 3585.34 967.02 3582.64 963.5 3563.2 967.02 3563.92 971.34 3564.28 976.74 3561.04 973.86 3559.28 967.04 3549.79 969.18 3537.64 968.76 3531.34 969.18 3512.43 971.34 3512.43 974.58 3508.48 969.18 3491.86 968.1 3487.6 972.78 3485.36 967.53 3467.44 967.02 3460.8 964.15 3452.5 963.5 3449.8 965.22 3446.92 963.5 3442.18 960.03 3426.19 955 3422.44 958.38 3420.88 952.9 3411.64 948.5 3397.38 937.1 3391.23 937.1 3394.35 934.05 3391.23 924.17 3386.8 924.17 3392.61 917.58 3401.92 907.73 3404.08 900.78 3411.64 899.85 3423.11 894.53 3431.03 891.64 3434.68 892.14 3434.68 890.47"/>
        <polygon class="cls-61" points="3393.64 920.93 3402.28 913.56 3403.36 907.73 3408.49 903.71 3413.08 910.59 3421.45 918.42 3434.68 920.93 3421.99 920.93 3409.03 919.77 3405.52 915.82 3397.78 919.77 3393.64 920.93"/>
        <polygon class="cls-55" points="3393.64 924.17 3394.99 929.01 3394.35 934.05 3391.23 937.1 3397.38 937.1 3411.64 948.5 3419.83 948.5 3433.06 948.5 3415.78 944.76 3407.68 937.1 3416.05 937.1 3419.83 934.35 3402.55 931.38 3396.34 927.95 3393.64 924.17"/>
        <polygon class="cls-39" points="3415.6 902.76 3419.83 902.76 3433.96 903.71 3437.38 906.9 3444.94 913.92 3452.5 913.2 3443.14 908.34 3441.34 902.76 3440.98 898.44 3440.8 892.68 3446.62 887.37 3438.28 891.42 3437.38 897.18 3433.06 895.2 3418.66 900.65 3414.16 900.65 3415.6 902.76"/>
        <polygon class="cls-30" points="3450.88 892.77 3454.39 900.65 3462.76 907.73 3459.79 898.98 3456.82 892.77 3450.88 892.77"/>
        <polygon class="cls-26" points="3442.18 960.03 3449.8 965.22 3452.5 963.5 3460.8 964.15 3467.44 967.02 3485.36 967.53 3487.6 972.78 3491.86 968.1 3499.2 968.58 3508.48 969.18 3500.74 967.02 3496.47 963.5 3485.98 963.5 3479.5 960.03 3469.28 961.89 3462.76 958.92 3452.6 960.64 3452.5 957.3 3447.64 960.64 3442.18 960.03"/>
        <polygon class="cls-53" points="3460.6 883.26 3478 881.62 3483.28 881.62 3484.96 887.93 3491.38 896.5 3485.92 892.77 3481.63 888.9 3472.99 888.9 3475.07 894.53 3480.86 898.45 3471.11 894.53 3467.99 889.87 3460.6 883.26"/>
        <polygon class="cls-20" points="3513.61 882.96 3511.09 881.07 3512.43 879.17 3524.32 879.17 3527.22 883.26 3523.24 883.49 3522.52 887.82 3520 882.06 3514.24 881.16 3513.61 882.96"/>
        <polygon class="cls-34" points="3531.34 969.18 3537.64 968.76 3549.79 969.18 3559.28 967.04 3561.04 973.86 3564.28 976.74 3563.2 967.02 3572.38 965.3 3565.62 961.89 3557.8 958.73 3553.34 961.29 3544.63 963.5 3542.17 961.89 3535.02 966.14 3531.34 969.18"/>
        <polygon class="cls-22" points="3582.64 963.5 3585.34 967.02 3587.36 962.54 3607.66 957.14 3612.16 953.25 3606.03 953.25 3594.42 953.25 3589.96 957.39 3573.66 953.25 3569.19 949.79 3575.89 958.73 3581.7 961.29 3582.64 963.5"/>
        <polygon class="cls-18" points="3633.72 908.71 3638.63 911.39 3643.55 926.13 3640.2 929.01 3632.83 932.64 3630.37 931.04 3634.17 924.17 3633.72 919.43 3625.24 926.35 3618.31 929.01 3602.46 931.71 3623 923 3628.81 912.32 3633.72 908.71"/>
        <polygon class="cls-56" points="3562.12 883.26 3562.12 886.74 3575.44 887.37 3577.6 890.03 3577.6 894.53 3581.92 888.9 3585.34 890.47 3582.5 884.82 3565.97 882.12 3562.12 883.26"/>
        <polygon class="cls-4" points="3628.18 902.22 3618.28 898.45 3613.24 900.65 3607.48 910.32 3597.94 918.06 3593.26 919.32 3599.74 919.32 3614.5 913.92 3623 906.54 3626.38 907.73 3629.62 904.92 3628.18 902.22"/>
        <polygon class="cls-14" points="3593.98 894.53 3599.2 898.45 3596.59 903.71 3587.86 908.89 3593.26 899.34 3593.98 894.53"/>
        <polygon class="cls-28" points="3448 950.3 3462.04 949.79 3475.99 945.42 3469.06 950.3 3462 952.62 3454.48 952.62 3448 950.3"/>
        <path class="cls-21" d="M3525.1,963.77c-.65,0-1.25-.14-1.7-.41l-13.85-8.1c-4.83-2.82-7.48-6.48-7.48-10.31s2.66-7.49,7.48-10.31l8.68-5.07c.88-.51,1.38-1.32,1.38-2.2s-.5-1.69-1.38-2.2c-.69-.4-1.58-.62-2.51-.62s-1.82.22-2.51.62l-8.68,5.07c-5.03,2.94-11.73,4.55-18.88,4.55s-13.85-1.62-18.88-4.55l-14-8.18c-.17-.12-.25-.22-.26-.25.08-.06.73-.62,2.11-.62h69.33c2.12,0,3.27.97,3.27,1.36v40.52c-.09.2-.93.68-2.11.68h0ZM3547.67,950.56c-.65,0-1.25-.15-1.7-.41l-8.11-4.74c-1.82-1.07-2.87-2.46-2.87-3.81v-19.05c0-3.93-4.86-7.01-11.07-7.01h-32.6c-2.9,0-5.73-.68-7.76-1.86l-8.1-4.74c-.27-.16-.38-.3-.39-.34.07-.06.73-.62,2.11-.62h69.33c2.12,0,3.27.97,3.27,1.37v40.52c-.09.2-.93.69-2.11.69h0ZM3570.27,937.36c-.65,0-1.25-.14-1.7-.41l-8.1-4.74c-1.82-1.07-2.87-2.46-2.87-3.8v-19.05c0-3.93-4.86-7.02-11.07-7.02h-32.6c-2.91,0-5.74-.68-7.76-1.86l-8.11-4.74c-.27-.16-.38-.3-.39-.34.07-.06.73-.62,2.11-.62h69.33c2.12,0,3.27.97,3.27,1.36v40.52c-.09.2-.93.68-2.11.68h0Z"/>
        <g>
          <path class="cls-5" d="M7039.85,672.5c-1097.86-36.1-2206.46-45.16-3305.35-49.15,821.82.35,1658.52,5.64,2479.36,20.81,270.7,5.3,556.35,11.27,826.29,20.34,0,0-.3,7.99-.3,7.99h0Z"/>
          <path class="cls-5" d="M3305.5,623.36c-1099.03,3.99-2207.36,13.04-3305.35,49.14,0,0-.3-7.99-.3-7.99,1098.03-33.45,2206.68-39.82,3305.65-41.15h0Z"/>
        </g>
      </g>
    </g>
  </g>
</svg>