<?xml version="1.0" encoding="UTF-8"?>
<svg xmlns="http://www.w3.org/2000/svg" xmlns:xlink="http://www.w3.org/1999/xlink" viewBox="0 0 2560 1428">
  <defs>
    <radialGradient id="radial-gradient" cx="1294" cy="-1" fx="1294" fy="-1" r="3834.02" gradientTransform="translate(0 -.63) scale(1 .37)" gradientUnits="userSpaceOnUse">
      <stop offset="0" stop-color="#f8f8ff"/>
      <stop offset="1" stop-color="#fff" stop-opacity="0"/>
    </radialGradient>
    <linearGradient id="linear-gradient" x1="2092.77" y1="775.11" x2="1995.05" y2="222.69" gradientUnits="userSpaceOnUse">
      <stop offset="0" stop-color="#aea1e2"/>
      <stop offset="1" stop-color="#fff"/>
    </linearGradient>
    <linearGradient id="linear-gradient-2" x1="427.11" y1="799.31" x2="528.17" y2="238.17" xlink:href="#linear-gradient"/>
    <linearGradient id="linear-gradient-3" x1="1260.9" y1="835.48" x2="1260.9" y2="705.75" gradientUnits="userSpaceOnUse">
      <stop offset="0" stop-color="#c5c5ea" stop-opacity="0"/>
      <stop offset="1" stop-color="#c5c5ea"/>
    </linearGradient>
    <linearGradient id="linear-gradient-4" x1="1288.18" y1="532.74" x2="1288.18" y2="692.55" xlink:href="#linear-gradient-3"/>
    <linearGradient id="linear-gradient-5" x1="877.25" y1="620.89" x2="1202.65" y2="706.09" xlink:href="#linear-gradient-3"/>
    <linearGradient id="linear-gradient-6" x1="1650.65" y1="665.01" x2="1297.24" y2="671.94" xlink:href="#linear-gradient-3"/>
    <linearGradient id="linear-gradient-7" x1="1280" y1="449.48" x2="1280" y2="1635.85" gradientUnits="userSpaceOnUse">
      <stop offset="0" stop-color="#f8f8ff"/>
      <stop offset=".13" stop-color="#ebebfc"/>
      <stop offset=".46" stop-color="#d3d3f7"/>
      <stop offset=".76" stop-color="#c5c4f4"/>
      <stop offset="1" stop-color="#c0bff3"/>
    </linearGradient>
    <linearGradient id="linear-gradient-8" x1="1280" y1="443.95" x2="1280" y2="1926.66" gradientUnits="userSpaceOnUse">
      <stop offset="0" stop-color="#c5c5ea" stop-opacity="0"/>
      <stop offset="1" stop-color="#7878b5"/>
    </linearGradient>
    <linearGradient id="linear-gradient-9" x1="718.21" y1="684.25" x2="889.83" y2="631.13" gradientUnits="userSpaceOnUse">
      <stop offset="0" stop-color="#c5c5ea" stop-opacity="0"/>
      <stop offset="1" stop-color="#7878ba"/>
    </linearGradient>
    <linearGradient id="linear-gradient-10" x1="762.87" y1="593.88" x2="885.85" y2="596.65" gradientUnits="userSpaceOnUse">
      <stop offset="0" stop-color="#c5c5ea" stop-opacity="0"/>
      <stop offset="1" stop-color="#b3b3e2"/>
    </linearGradient>
    <linearGradient id="linear-gradient-11" x1="830.05" y1="571.05" x2="977.02" y2="567.42" xlink:href="#linear-gradient-10"/>
    <linearGradient id="linear-gradient-12" x1="854.95" y1="549.53" x2="1120.59" y2="542.95" xlink:href="#linear-gradient-10"/>
    <linearGradient id="linear-gradient-13" x1="638.81" y1="595.54" x2="740.56" y2="595.54" xlink:href="#linear-gradient-10"/>
    <linearGradient id="linear-gradient-14" x1="903.31" y1="937.21" x2="893.15" y2="670.93" gradientUnits="userSpaceOnUse">
      <stop offset="0" stop-color="#c5c5ea" stop-opacity="0"/>
      <stop offset="1" stop-color="#7b7baf"/>
    </linearGradient>
    <linearGradient id="linear-gradient-15" x1="823.53" y1="811.1" x2="873.6" y2="684.11" xlink:href="#linear-gradient-14"/>
    <linearGradient id="linear-gradient-16" x1="1039.31" y1="795.53" x2="1053.8" y2="747.13" xlink:href="#linear-gradient-10"/>
    <linearGradient id="linear-gradient-17" x1="1189.45" y1="868.83" x2="1180.48" y2="675.98" xlink:href="#linear-gradient-14"/>
    <linearGradient id="linear-gradient-18" x1="1589.61" y1="544.98" x2="1489.13" y2="544.98" xlink:href="#linear-gradient-10"/>
    <linearGradient id="linear-gradient-19" x1="1717.48" y1="562.87" x2="1584.29" y2="562.87" xlink:href="#linear-gradient-10"/>
    <linearGradient id="linear-gradient-20" x1="1716.33" y1="584.46" x2="1652.56" y2="584.46" xlink:href="#linear-gradient-10"/>
    <linearGradient id="linear-gradient-21" x1="1849.7" y1="615.85" x2="1715.17" y2="615.85" xlink:href="#linear-gradient-10"/>
    <linearGradient id="linear-gradient-22" x1="2011.23" y1="610.3" x2="1603.23" y2="606.3" xlink:href="#linear-gradient-10"/>
    <linearGradient id="linear-gradient-23" x1="893.52" y1="521.25" x2="1585.52" y2="514.59" xlink:href="#linear-gradient-10"/>
    <linearGradient id="linear-gradient-24" x1="1228.47" y1="502.54" x2="2637.46" y2="488.97" xlink:href="#linear-gradient-10"/>
    <linearGradient id="linear-gradient-25" x1="13474.87" y1="499.46" x2="14883.86" y2="485.88" gradientTransform="translate(14409.21) rotate(-180) scale(1 -1)" xlink:href="#linear-gradient-10"/>
    <linearGradient id="linear-gradient-26" x1="1655.7" y1="790.75" x2="1657.6" y2="710.07" xlink:href="#linear-gradient-14"/>
    <linearGradient id="linear-gradient-27" x1="1969.4" y1="783.79" x2="1689" y2="555.96" xlink:href="#linear-gradient-14"/>
    <linearGradient id="linear-gradient-28" x1="1512.51" y1="1049.24" x2="1523.3" y2="591.87" xlink:href="#linear-gradient-14"/>
    <linearGradient id="linear-gradient-29" x1="1586.45" y1="888.97" x2="1590.02" y2="738.02" xlink:href="#linear-gradient-14"/>
    <linearGradient id="linear-gradient-30" x1="1693.79" y1="527.78" x2="2147.88" y2="554.26" xlink:href="#linear-gradient-3"/>
    <radialGradient id="radial-gradient-2" cx="1281.3" cy="665.75" fx="1281.3" fy="665.75" r="103.64" gradientUnits="userSpaceOnUse">
      <stop offset="0" stop-color="#c5c5ea" stop-opacity=".3"/>
      <stop offset="1" stop-color="#ababdb"/>
    </radialGradient>
    <linearGradient id="linear-gradient-31" x1="1195.86" y1="690.27" x2="1205.78" y2="657.13" xlink:href="#linear-gradient-10"/>
    <linearGradient id="linear-gradient-32" x1="1194.82" y1="702.93" x2="1203.48" y2="673.96" xlink:href="#linear-gradient-10"/>
    <linearGradient id="linear-gradient-33" x1="1208.57" y1="683.9" x2="1220.95" y2="642.52" xlink:href="#linear-gradient-10"/>
    <linearGradient id="linear-gradient-34" x1="1229.3" y1="666.44" x2="1235.33" y2="646.28" xlink:href="#linear-gradient-10"/>
    <linearGradient id="linear-gradient-35" x1="1248.83" y1="689.07" x2="1246.56" y2="703.43" xlink:href="#linear-gradient-10"/>
    <linearGradient id="linear-gradient-36" x1="1250" y1="630.77" x2="1246.6" y2="652.32" xlink:href="#linear-gradient-10"/>
    <linearGradient id="linear-gradient-37" x1="1280.17" y1="631.26" x2="1278.41" y2="642.45" xlink:href="#linear-gradient-10"/>
    <linearGradient id="linear-gradient-38" x1="1304.76" y1="680.3" x2="1301.84" y2="708.56" xlink:href="#linear-gradient-10"/>
    <linearGradient id="linear-gradient-39" x1="1329.67" y1="674.14" x2="1332.37" y2="699.27" xlink:href="#linear-gradient-10"/>
    <linearGradient id="linear-gradient-40" x1="1329.87" y1="665.48" x2="1358.81" y2="664.14" xlink:href="#linear-gradient-10"/>
    <linearGradient id="linear-gradient-41" x1="1319.57" y1="634.45" x2="1317.48" y2="647.67" xlink:href="#linear-gradient-10"/>
    <linearGradient id="linear-gradient-42" x1="1349.1" y1="669.88" x2="1343.94" y2="650.14" xlink:href="#linear-gradient-10"/>
    <linearGradient id="linear-gradient-43" x1="1325.34" y1="659.21" x2="1336.55" y2="645.75" xlink:href="#linear-gradient-10"/>
    <linearGradient id="linear-gradient-44" x1="1239.11" y1="677.63" x2="1237.01" y2="690.9" xlink:href="#linear-gradient-10"/>
  </defs>
  <g isolation="isolate">
    <g id="Layer_1" data-name="Layer 1">
      <rect width="2560" height="540" fill="#dcd9ff"/>
      <rect width="2560" height="1428" fill="url(#radial-gradient)" mix-blend-mode="screen"/>
      <path d="M2560,131h-2l-4.41,1.59-24.3-8.3s-20.44,6.22-20.74,5.04c-.3-1.19-25.48,7.7-26.37,7.7s-18.37,18.37-18.37,18.37h-12.15s-18.37,12.74-18.37,13.63-19.85,5.63-19.85,5.63l-23.11,18.37-2.96,17.19-15.7-2.07-14.81,12.15-11.56,13.33h-14.81l-9.48,5.33-11.56-2.37h-11.56l-6.81,7.41-8.89,2.37-10.67-3.56-19.56,12.74-2.07,14.22h-13.33l-14.81,15.11,7.11,20.15-18.67,1.19-18.67,10.67-12.15,3.26-2.96,14.81,5.04,10.67-22.22,3.26-18.67,13.93-17.78-6.22-2.67-22.22-32-15.41-29.93,2.67-16.59,13.93-21.63,30.52-14.22,6.52-12.74,9.48s-15.41,2.07-16.89,2.07-35.85,9.35-35.85,9.35l-16.89,7.24-15.7-4.15,19.56-13.33-37.04-.89-29.93,2.96-13.04-12.44-15.7-2.67-31.7-19.56-46.81-13.33-20.44,11.26-7.11,15.41h-9.19l-1.48,3.26-8.3,2.67-.89,9.78,9.19,11.26-10.96,9.78.3,7.7,7.41,2.67-13.93,2.67-16.59-2.67-30.22,13.93-17.19-2.96-14.22,3.56-2.07,10.96-15.29,3.07-16.71-6.63-21.33-3.37-10.07,6.33-19.56,6.81-25.48-1.19-4.15,4.15h-40.89l-9.78,3.89,13.33,4.41,1092.63,25.66V131Z" fill="url(#linear-gradient)"/>
      <g>
        <path d="M2083.46,355.7c-2.53.95-23.34,6.53-23.34,6.53l-7.11-7.56,16-16.67,21.33,1.11,30.13-1.79-.35-2.95-32-15.41-29.93,2.67-16.59,13.93-21.63,30.52-14.22,6.52-12.74,9.48s-15.41,2.07-16.89,2.07-35.85,9.35-35.85,9.35l-16.89,7.24-15.7-4.15,19.56-13.33-37.04-.89-29.93,2.96,20.53-2.03-13.37,10.48,20.25,12-26.67,5.42s-38.15-1.42-39.99-.09c-.15.11-.17.13,0,0,0,0,0,0,0,0,1.54-1.14,17.32-12.89,17.32-12.89l-13.78-10.67-34.22,6.22-15.11-3.56,25.33-7.11,1.78-8-15.56,5.33-18.67-4.44h-12l36-19.56-17.52-12.96-21.59-6.15-20.44,11.26-7.11,15.41h-9.19l-1.48,3.26-8.3,2.67-.89,9.78,9.19,11.26-10.96,9.78.3,7.7,7.41,2.67-13.93,2.67-16.59-2.67-30.22,13.93-17.19-2.96-14.22,3.56-2.07,10.96-15.29,3.07-16.71-6.63-21.33-3.37-10.07,6.33-19.56,6.81-25.48-1.19-4.15,4.15h-40.89l-9.78,3.89,98.96.81,55.56-4.7,12.57,3.89,55.43-11.67,154.22-20.67-7.11,12.33h23.56l9.78-14.56,68.44-2.67,36-2.67s80.89-23.11,86.67-23.56c1.82-.14,9.06-.76,18.12-1.55,5.78-10.29,15.47-27.32,17.22-28.97Z" fill="#fff"/>
        <path d="M2433.3,169.04c0,.89-19.85,5.63-19.85,5.63l-23.11,18.37-2.96,17.19-15.7-2.07-14.81,12.15-11.56,13.33h-14.81l-9.48,5.33-11.56-2.37h-11.56l-6.81,7.41-8.89,2.37-10.67-3.56-19.56,12.74-2.07,14.22h-13.33l-14.81,15.11,7.11,20.15-18.67,1.19-18.67,10.67-12.15,3.26-2.96,14.81,5.04,10.67-5.42,4.29-8.81,3.86-12.44,15.11s9.89,1.49,17.82,2.37l21.95-4.92,13.11-17.01,3.11-10.22,47.56-12.44-7.56-9.78,28.89-22.22h7.11l8.44-16,24.44-14.67,20.44-3.56,49.33-24,8.89-8,20.44-29.78,46.22-24.89-7.56-5.78-24.15,1.04Z" fill="#fff"/>
        <path d="M2482.19,137.04c-.89,0-18.37,18.37-18.37,18.37l7.41,6.37,20-.44,5.33-14.67,8-15.11,4-2.22c-.3-1.19-25.48,7.7-26.37,7.7Z" fill="#fff"/>
      </g>
      <path d="M1936.11,402.67l8.22-10.27c-2.49.67-4.07,1.1-4.07,1.1l-16.89,7.24-15.7-4.15,10.65-7.26h-20.42l8,4-8,13.33,38.22-4Z" fill="#fafaff"/>
      <polygon points="0 144 0 554.5 1035.06 450.48 1002.17 439.63 968.69 432.22 949.73 430.1 914.17 414.15 914.17 403.19 886.32 396.67 877.4 396.67 866.47 390.1 854.92 388.07 835.66 375.63 818.77 375.63 804.55 372.07 792.1 372.07 786.77 369.11 742.32 382.45 687.8 401.11 701.14 420.96 686.03 420.07 673.58 416.22 627.06 412.07 619.36 405.56 597.43 403.48 583.21 399.33 583.21 391.63 542.32 374.45 525.73 373.85 486.62 356.67 461.43 345.59 439.21 351.33 463.8 367.93 451.66 376.82 432.4 382.15 420.84 373.56 411.06 358.74 389.73 354.89 334.32 329.41 330.17 310.15 321.29 300.67 312.99 290.59 267.95 283.19 232.4 283.19 214.62 273.7 200.99 271.93 202.47 259.19 186.17 220.67 165.43 201.7 131.95 197.26 130.77 180.96 98.47 162.3 61.14 162.3 48.1 164.07 30.62 144.22 16.99 147.48 1.88 144.22 0 144" fill="url(#linear-gradient-2)"/>
      <path d="M334.32,329.41l-4.15-19.26-8.89-9.48-8.3-10.07-45.04-7.41h-35.56l-17.78-9.48-13.63-1.78,1.48-12.74-16.3-38.52-20.74-18.96-33.48-4.44-1.19-16.3-32.3-18.67h-37.33l-13.04,1.78-17.48-19.85-13.63,3.26-15.11-3.26-1.88-.22v27.65c22.02,7.54,67.63,23.23,71.21,25.02,4.74,2.37,34.96,34.37,34.96,34.37l2.37,11.26-27.26-8.3-16,1.78-29.04-21.33-13.04,14.22,31.41,27.26,10.07,11.85,30.22,7.11-4.15-11.26,45.63,17.78-10.67-23.11,54.52,31.41,48,39.7,49.19-15.41,23.7,15.41-50.37,34.37-61.63-11.85-10.07,1.78-11.26-18.37-23.11-6.52,10.07-9.48-5.93-20.15-12.44,5.93-27.85-11.26,8.3,26.07-17.19,3.56-11.85-29.04-33.78,8.89L0,294.51v16.45l29.73,19.63,34.37-2.37,34.37,20.15,37.93,9.48,65.78,23.11s-14.81-16.59-12.44-16.59,64,8.3,64,8.3l26.67-23.11,30.81-3.96,52.15,6.93-29.04-23.11Z" fill="#fff"/>
      <polygon points="313.58 370.3 308.84 380.96 360.4 401.7 424.99 407.04 450.47 404.67 429.73 390.1 432.4 382.15 420.84 373.56 411.06 358.74 389.73 354.89 349.73 367.33 313.58 370.3" fill="#fff"/>
      <polygon points="477.73 386.3 507.36 407.04 462.92 411.78 532.25 417.11 595.66 424.22 648.99 430.1 714.77 438.45 782.92 443.83 710.62 426.59 701.14 420.96 686.03 420.07 673.58 416.22 627.06 412.07 619.36 405.56 597.43 403.48 583.21 399.33 583.21 391.63 542.32 374.45 525.73 373.85 486.62 356.67 461.43 345.59 439.21 351.33 463.8 367.93 477.73 386.3" fill="#fff"/>
      <path d="M1002.18,439.63l-33.48-7.41-18.96-2.12-35.56-15.95v-10.96l-27.85-6.52h-8.93l-10.92-6.57-11.56-2.03-19.26-12.44h-16.89l-14.22-3.56h-12.44l-5.33-2.96-44.44,13.33-22.91,7.85,37.43,3.12,20.15,8.89s-26.67,11.85-23.7,11.85,38.52,18.37,40.3,18.37,69.33,3.56,69.33,3.56l64.48,7.75,52.14,6.65h55.52l-32.88-10.85Z" fill="#fff"/>
      <g>
        <path d="M1821.01,411.11s0,0,0,0c-.16.12-.15.11,0,0Z" fill="none" stroke="#dddaf2" stroke-miterlimit="10" stroke-width=".75"/>
        <path d="M1768.11,376l18.67,4.44,15.56-5.33-1.78,8-25.33,7.11,15.11,3.56,34.22-6.22,13.78,10.67s-15.78,11.74-17.32,12.89c1.84-1.33,39.99.09,39.99.09l26.67-5.42-20.25-12,13.37-10.48-20.53,2.03-13.04-12.44-15.7-2.67-31.7-19.56-25.23-7.19,17.52,12.96-36,19.56h12Z" fill="none" stroke="#dddaf2" stroke-miterlimit="10" stroke-width=".75"/>
      </g>
      <path d="M2560,130.5h-1.5l-4.91,2.09-24.3-8.3s-20.44,6.22-20.74,5.04c0,0,0,0,0,0h0s-4,2.22-4,2.22l-8,15.11-5.33,14.67-20,.44-7.41-6.37h-12.15s-18.37,12.74-18.37,13.63l24.15-1.04,7.56,5.78-46.22,24.89-20.44,29.78-8.89,8-49.33,24-20.44,3.56-24.44,14.67-8.44,16h-7.11l-28.89,22.22,7.56,9.78-47.56,12.44-3.11,10.22-13.11,17.01-21.95,4.92c-7.93-.88-17.82-2.37-17.82-2.37l12.44-15.11,8.81-3.86,5.42-4.29h0s0,0,0,0l-22.22,3.26-18.67,13.93-17.78-6.22-2.31-19.27-30.13,1.79-21.33-1.11-16,16.67,7.11,7.56s20.82-5.58,23.34-6.53c-1.75,1.66-11.44,18.68-17.22,28.97l-18.12,1.55-38.52,10.01-48.15,13.55-36,2.67-68.44,2.67-9.78,14.56h-23.56l7.11-12.33-59.21,7.93-95.01,12.73-55.43,11.67-12.57-3.89" fill="none" stroke="#dddaf2" stroke-miterlimit="10"/>
      <line x1="1608.56" y1="445.78" x2="1550.34" y2="450.7" fill="none" stroke="#c7c7e5" stroke-miterlimit="10" stroke-width=".5"/>
      <path d="M0,311.5h1.5l28.23,19.09,34.37-2.37,34.37,20.15,37.93,9.48,65.78,23.11s-14.81-16.59-12.44-16.59,64,8.3,64,8.3l26.67-23.11,30.81-3.96,52.15,6.93-29.04-23.11-4.15-19.26-8.89-9.48-8.3-10.07-45.04-7.41h-35.56l-17.78-9.48-13.63-1.78,1.48-12.74-16.3-38.52-20.74-18.96-33.48-4.44-1.19-16.3-32.3-18.67h-37.33l-13.04,1.78-17.48-19.85-13.63,3.26-15.49-3.98H0" fill="none" stroke="#dddaf2" stroke-miterlimit="10"/>
      <path d="M0,172.5h1.5s66.21,22.42,69.71,24.17c4.74,2.37,34.96,34.37,34.96,34.37l2.37,11.26-27.26-8.3-16,1.78-29.04-21.33-13.04,14.22,31.41,27.26,10.07,11.85,30.22,7.11-4.15-11.26,45.63,17.78-10.67-23.11,54.52,31.41,48,39.7,49.19-15.41,23.7,15.41-50.37,34.37-61.63-11.85-10.07,1.78-11.26-18.37-23.11-6.52,10.07-9.48-5.93-20.15-12.44,5.93-27.85-11.26,8.3,26.07-17.19,3.56-11.85-29.04-33.78,8.89-52.53-8.83H0" fill="none" stroke="#dddaf2" stroke-miterlimit="10"/>
      <polygon points="313.58 370.3 308.84 380.96 360.4 401.7 424.99 407.04 450.47 404.67 429.73 390.1 432.4 382.15 420.84 373.56 411.06 358.74 389.73 354.89 349.73 367.33 313.58 370.3" fill="none" stroke="#dddaf2" stroke-miterlimit="10"/>
      <polygon points="477.73 386.3 507.36 407.04 462.92 411.78 532.25 417.11 595.66 424.22 648.99 430.1 714.77 438.45 782.92 443.83 710.62 426.59 701.14 420.96 686.03 420.07 673.58 416.22 627.06 412.07 619.36 405.56 597.43 403.48 583.21 399.33 583.21 391.63 542.32 374.45 525.73 373.85 486.62 356.67 461.43 345.59 439.21 351.33 463.8 367.93 477.73 386.3" fill="none" stroke="#dddaf2" stroke-miterlimit="10"/>
      <path d="M1002.18,439.63l-33.48-7.41-18.96-2.12-35.56-15.95v-10.96l-27.85-6.52h-8.93l-10.92-6.57-11.56-2.03-19.26-12.44h-16.89l-14.22-3.56h-12.44l-5.33-2.96-44.44,13.33-22.91,7.85,37.43,3.12,20.15,8.89s-26.67,11.85-23.7,11.85,38.52,18.37,40.3,18.37,69.33,3.56,69.33,3.56l64.48,7.75,52.14,6.65h55.52l-32.88-10.85Z" fill="none" stroke="#dddaf2" stroke-miterlimit="10"/>
      <polyline points="0 144 2 144 16.99 147.48 30.62 144.22 48.1 164.07 61.14 162.3 98.47 162.3 130.77 180.96 131.95 197.26 165.43 201.7 186.18 220.67 202.47 259.19 200.99 271.93 214.62 273.7 232.4 283.19 267.95 283.19 312.99 290.59 321.29 300.67 330.18 310.15 334.32 329.41 389.73 354.89 411.06 358.74 420.84 373.56 432.4 382.15 451.66 376.82 463.8 367.93 439.21 351.33 461.43 345.59 486.62 356.67 525.73 373.85 542.32 374.45 583.21 391.63 583.21 399.33 597.43 403.48 619.36 405.56 627.06 412.07 673.58 416.22 686.03 420.07 701.14 420.96 687.8 401.11 742.32 382.45 786.77 369.11 792.1 372.07 804.55 372.07 818.77 375.63 835.66 375.63 854.92 388.07 866.47 390.1 877.4 396.67 886.32 396.67 914.18 403.19 914.18 414.15 949.73 430.1 968.69 432.22 1002.18 439.63 1035.06 450.48 2.94 554.2 0 554" fill="none" stroke="#bfb2ed" stroke-miterlimit="10" stroke-width="2"/>
      <path d="M2560,479.85l-1092.63-25.78-13.33-4.41,9.78-3.89h40.89l4.15-4.15,25.48,1.19,19.56-6.81,10.07-6.33,21.33,3.37,16.71,6.63,15.29-3.07,2.07-10.96,14.22-3.56,17.19,2.96,30.22-13.93,16.59,2.67,13.93-2.67-7.41-2.67-.3-7.7,10.96-9.78-9.19-11.26.89-9.78,8.3-2.67,1.48-3.26h9.19l7.11-15.41,20.44-11.26,46.81,13.33,31.7,19.56,15.7,2.67,13.04,12.44,29.93-2.96,37.04.89-19.56,13.33,15.7,4.15,16.89-7.24s34.37-9.35,35.85-9.35,16.89-2.07,16.89-2.07l12.74-9.48,14.22-6.52,21.63-30.52,16.59-13.93,29.93-2.67,32,15.41,2.67,22.22,17.78,6.22,18.67-13.93,22.22-3.26-5.04-10.67,2.96-14.81,12.15-3.26,18.67-10.67,18.67-1.19-7.11-20.15,14.81-15.11h13.33l2.07-14.22,19.56-12.74,10.67,3.56,8.89-2.37,6.81-7.41h11.56l11.56,2.37,9.48-5.33h14.81l11.56-13.33,14.81-12.15,15.7,2.07,2.96-17.19,23.11-18.37s19.85-4.74,19.85-5.63,18.37-13.63,18.37-13.63h12.15s17.48-18.37,18.37-18.37,26.07-8.89,26.37-7.7,20.74-5.04,20.74-5.04l24.3,8.3,4.41-1.59h2" fill="none" stroke="#bfb2ed" stroke-miterlimit="10" stroke-width="2"/>
      <g>
        <polygon points="1323.67 315.33 1318.33 310.52 1291.07 315.33 1300.26 315.33 1323.67 315.33" fill="#e6e6fc" opacity=".3"/>
        <polygon points="762.78 364.3 783.22 369.63 827.22 374.96 785.89 364.3 762.78 364.3" fill="#e6e6fc" opacity=".3"/>
        <polygon points="1493.44 369.31 1486.04 367.23 1475.07 369.31 1493.44 369.31" fill="#e6e6fc" opacity=".3"/>
        <polygon points="804.87 319.57 746 303.57 723.95 288.9 687.55 285.79 670.55 274.68 643.98 260.9 634.41 250.24 609.97 244.9 590.84 234.92 626.97 239.12 657.26 248.46 710.93 253.35 783.73 264.01 843.25 275.12 877.79 284.46 978.22 294.98 1019.67 304.46 903.29 268.46 815.62 216.9 781.61 188.9 743.88 188.9 669.48 161.79 690.74 158.37 632.82 117.35 533.45 15.12 504.11 0 0 0 0 124 67.96 147.57 171.58 175.57 169.45 164.9 264.57 199.57 250.75 205.35 373.5 253.35 528.14 281.35 594.53 294.25 585.89 293.72 625.44 303.95 654.27 305.57 714.65 316.46 779.48 323.12 804.87 319.57" fill="#e6e6fc" opacity=".3"/>
        <path d="M1341.44,337.01l19.85.59,38.22-3.26,32.59-2.48,15.41-5.61,35.85-.41,10.96-1.87,42.96-6.52,50.07-9.78-26.16-.89,37.72-5.04,49.48-14.52-55.7,2.07-18.07,1.19h-12.63l-4.56,6.81-27.56,2.07-40.59,7.41s-9.19,8.59-10.07,8.59,13.63,2.37,13.63,2.37l-22.81,6.74h-23.41l17.19-6.74h-17.19l-20.44,6.74-58.37,3.34-57.48,11.52,31.11-2.33Z" fill="#e6e6fc" opacity=".3"/>
        <polygon points="1620.85 333.16 1594.78 336.12 1564.56 340.94 1606.33 339.34 1620.85 333.16" fill="#e6e6fc" opacity=".3"/>
        <polygon points="1580.85 349.39 1567.52 347.98 1549.44 354.2 1580.85 349.39" fill="#e6e6fc" opacity=".3"/>
        <polygon points="824.56 355.48 770.78 341.71 770.78 336.82 720.11 331.48 769 346.15 824.56 355.48" fill="#e6e6fc" opacity=".3"/>
        <polygon points="1615.22 337.9 1598.33 344.76 1633.3 344.76 1644.56 351.79 1732.56 333.46 1665 331.86 1615.22 337.9" fill="#e6e6fc" opacity=".3"/>
        <polygon points="830.78 339.83 806.33 339.83 843.67 350.49 866.33 350.49 881 350.49 861.44 343.83 830.78 339.83" fill="#e6e6fc" opacity=".3"/>
        <path d="M2560,0h-623.95l-118.46,129.6,15.7,1.19-40.3,26.37-58.96,28.44-12.44,21.93,3.85,13.63-7.41,4.74-5.63,10.96-22.22,1.48-19.26,2.96s-26.67,7.11-27.56,7.41c-.89.3,6.52,3.26,6.52,3.26l34.96-2.67-32.3,8-50.55,20.44,66.55-8.3,95.7-19.56,70.22-24.59,50.09-8.89-6.24,15.11-16.3,7.11,5.33,4.15-33.78,10.96-41.19,19.26,63.11-10.67,20.15-5.63s-10.96,9.48-13.04,9.48c-1.87,0,16.79,1.69,21.08,1.8-4.69.34-27.01,2.64-27.01,2.64l-46.52,20.44-36.15,5.04h-13.93l-31.41,12.74-53.93,4.42h53.05l20.33,4.33,90.28-11.72,34.8-15.16,71.09-17.92,57.09-5.86,8.17-9.65-31.95-3.79,95.1-21.02,131.63-33.77,4.82-6.2,36.87-6.2,55.82-23.17s-16.54-4.05-17.57-4.05,28.68-12.92,28.68-12.92l125.33-27.84s70.22-24.03,121.67-42.1V0Z" fill="#e6e6fc" opacity=".3"/>
        <polygon points="1532 410.2 1526.33 406.35 1490.78 407.98 1483.67 412.27 1468.85 414.32 1466.48 412.27 1449.3 412.27 1422.93 416.37 1465.37 417.51 1526.33 416.37 1606.93 409.43 1629.74 402.49 1557.74 407.98 1532 410.2" fill="#e6e6fc" opacity=".3"/>
        <path d="M1004.85,322.62l-29.33-9.19h-47.11s-43.56-2.96-42.67-2.37c.89.59,28.15,9.19,29.04,9.48.89.3,64.59,8,64.59,8,0,0,14.22,5.04,15.41,5.04s37.93.89,37.93.89l18.67,6.22,41.19-1.48-31.11-9.19-56.59-7.41Z" fill="#e6e6fc" opacity=".3"/>
        <path d="M1179.07,313.85l-40.59,3.85,48.89,3.85s25.19-1.48,27.26-1.48,6.22-2.37,6.22-2.37h-27.85l-13.93-3.85Z" fill="#e6e6fc" opacity=".3"/>
        <polygon points="1374.33 382.3 1358.63 382.3 1351.81 377.51 1325.74 377.51 1302.63 393.85 1282.19 382.3 1259.07 387.63 1254.04 393.56 1236.56 395.93 1227.96 402.44 1340.26 402.44 1349.15 398 1356.11 404.96 1379.07 404.96 1410.74 400.37 1384.7 392.96 1374.33 382.3" fill="#e6e6fc" opacity=".3"/>
      </g>
      <g>
        <path id="Orig_Path" data-name="Orig Path" d="M1243.62,761.39h16.62l-1.15,12.57h7.39l3.69-12.57,90.93-1.83,46.85-4.25,11.65,9.73,13.85-7.61,1.04-5.78h13.62l12.23,10.14,3.46-5.27-3.69-6.9,55.85-7.71,105.93-16.43,93.7-34.28,16.27-12.99,2.42-27.23s2.54-3.38,3.23-3.38-8.74-2.03-8.74-2.03l-11.66-5.9-2.28-2.53,2.28-14.89-14.75-6.61-15.64,1.54-12.68-7.71-.43-3.13-10.9-16.66-4.41-4.22-8.18-4.56-12.77-11.99-8.14-1.87-26.71,1.26-2.37-2.35-3.7-1.83-24.4-3.08-30.46-8.97h-19.16l-17.31-5.68h-7.79l-10.9-4.46-31.62-.91h-14.08l-10.97-4.45-31.85-3.97-31.85-3.04h-240.35l-33.41,2.51-18.43,6.62-8.32,5.44-28-.7-4.62-2-6.83-.51-9.87,1.87-15.84,2.38-24.23-.2-28.16,2.43-27.06,3.37-9.61,1.83-6.17,5.25,6.17,5.25,34.53,1.64-3.51,1.27-21.42,5.53h-24.41l-11.54,2.64-9.69,2.43-17.06,9.93-4.77-5.13-3.8-1.2-6.33,7.76,1.27,12.37-7.98,2.46-5.06,3.42-16.26,20.08-4.38,6.69-7,1.46-15.38,9.69,17.54,22.11,45.93,30.02,53.17,26.16s-16.84,9.74-15.97,9.53,14.68-.2,15.97-.41,14.45-4.06,14.45-4.06l87.24,16.43s-1.85,2.64-.92,2.64,50.54,3.45,50.54,3.45l22.39,2.43,3.69,2.85,18.92,1.61,6.23,1.83,22.16,1.22.23,7.5,8.08-5.68,51.7.61,41.54-1.01,4.15,6.69h4.38l3.69-6.69Z" fill="#eef"/>
        <path d="M1276.88,629l-17.4,5.06-17.14-.11-12.2,2.24-20.03,8.95h-24.76s-19.34-2.43-20.9,0-17.65,0-17.65,0h-23.17l10,5.18-2.41,4.34-20.25,3.85-25.19-.54,17.01,6.27,20.84,4.07-10.06,8.53-10.77,2.77h10.77v8.86l-10.77,6.42-3.51,7.01s15.84.2,18.44-.32,20.42,0,20.42,0l3.98,8.85-4.08,8.8,22.77-4.93s-9.52,4.41-7.1,4.93,26.52-4.93,26.52-4.93l-.83,8.49-7.79,10.51s11.14-4.22,15.48-5.77,16.55-8.82,16.55-8.82l14.8-1.68,2.08,9.61,16.62-14.27h18.69l5.05,10.42,10.79-10.42-1.53,8.43v12.51l6.72-10.51,8.32-8.49,5.45,2.73,6.74,3.76,5.58-6.49,12.5,5.97,13.46,9.35-1.82-10.39,3.85-6.97,6.15-5.18,17.17,7.22,9.57,5.97h10.9l-2.89-3.24h15.35l18.56,2.2-8.37-6.87-5-5.98,19.21,3.51h18.11l-23.95-5.45-15.71-8.44,21.55-1.11,24.41-3.45-10.94-1.03,30.68-8.57h19.21l-40.5-6h-16.62l30.12-5.17,27-16.02,22.33-14.36-26.28,4.84-28.79,9.52,14.56-12.76,6.72-6.07-29.05,13.44h-12.69l15.81-13.44-23.89,9.31h-15.82l23.9-13.67h-16l-8.37-2.48,8.37-10.45v-6.47l-20.64,12.41-17.78,4.51,7.4-6.51-20.48,11.47h-17.17l-8.18-4.96-10.19,3-12.55,3.38-8.8-6.38-9.22,5.06-2.97-5.06h-8.32Z" fill="#fff"/>
        <polygon points="1239.89 737.7 1228.29 746.59 1218.47 739.04 1199.77 749.72 1188.48 749.72 1198.99 740.43 1206.01 727.6 1197.05 733.47 1186.1 740.89 1167.45 749.72 1167.45 740.89 1142.53 746.59 1161.22 733 1169.79 722.79 1142.53 733.47 1123.83 740.43 1111.37 742.29 1092.29 746.59 1092.29 741.82 1080.24 746.59 1058.01 750.2 1078.84 752.47 1082.54 755.32 1101.46 756.93 1107.69 758.76 1129.85 759.97 1130.08 767.48 1138.15 761.8 1231.39 761.39 1235.55 768.09 1239.93 768.09 1243.62 761.39 1260.24 761.39 1259.09 773.97 1266.47 773.97 1270.16 761.39 1361.09 759.57 1407.94 755.32 1419.6 765.04 1433.44 757.44 1434.48 751.66 1448.1 751.66 1460.33 761.8 1463.79 756.53 1460.1 749.63 1440.71 735.46 1440.71 743.22 1425.26 739.73 1407.74 734.86 1411.24 739.73 1392.63 732.54 1389.05 739.73 1392.63 744.61 1385.54 743.22 1377.75 731.61 1363.73 730.22 1366.04 740.43 1362.56 746.59 1346.21 736.25 1335.69 729.75 1343.48 739.73 1339.97 744.14 1326.83 752.04 1319.33 750.18 1314.66 731.61 1309.97 732.54 1309.97 742.75 1301.24 742.75 1298.84 733.93 1296.24 735.79 1292.37 748.79 1286.42 743.68 1279.99 750.18 1283.04 726.97 1276.11 740.43 1263.75 753.43 1264.75 745.47 1263.03 737.95 1257.8 733 1253.94 740.43 1254.3 733.93 1252.55 723.48 1239.89 737.7" fill="url(#linear-gradient-3)"/>
        <path d="M1265.2,601.67l-12.15-7.93-12.38-21.33-2.34-11.9-6.86-6.48,3.75,7.87-.39,16.94,3.51,14.89-14.02-10.96v8.15l-12.07-8.15-3.51-25.49-.78,20.19.78,9.07,3.51,12.73-4.67,5.57-15.71-8.36,2.86,9.75-19.08-17.56-14.41-27.04,1.56,21.13,6.23,18.89-8.57-5.17-6.71-13.72,1.64,10.96s-6.62-3.74-9.35-5.05-5.45-11.21-5.45-11.21l-12.07-20.19,2.03,8.65,7.52,20.92,4.08,14.81,11.6,14.83-8.87-1.37-19.08-6.5-12.2-22.08v7.19l-8.44-5.05-8.59-12.91-6.99-8.74v11.47l6.99,12.71,7.22,23.91,19.87,3.42,18.5,8.59,15.58,1.86-8.18-6.51h12.07l1.95-3.94-5.84-13.7,13.62,3.77,20.51,9.93v-4.62l5.19-1.85,11.68,1.85,9.54,6.71-6.04-12.01,19.23,7.93-1.71-4.48-.39-10.41,13.63,6.96.39-12.13,7.4,5.17,18.55,6.96.82-12.13,7.11,8.36,4.28,3.77,7.4-6.96,1.7-10.74,1.81,14.39v3.31l12.07-6.96,10.55-5.17,1.92-9.95,1.95,12.27-3.86,9.81,12.04-1.45,17.14-15.66,8.96-15.74-2.34,15.74-7.4,10.15,5.45,10.41,14.41-5.37,19.08-15.2,5.06-8.74-3.89,16.5-4.28,9.34,18.58-4.7,9.46-7.43-6.62,15.58-8.1,6.47,9.27-2.05,11.68-7.87-3.89,9.93-6.62,5.93h17.53l20.12-12.41,13.76-18.34-7.4,18.34,10.9-6.76,10.52-8.82-7.4,12.13h5.45l-8.53,6.82,18.84-6.67,9.94-26.01-2.73-14.03-4.67,18.1-5.45,4.66,1.95-8.74-.78-10.37-5.45,10.37-10.13-5.3-1.56,5.3-9.35,5.91v-10.18l-4.67,8.35-9.35,6.88h-9.35l6.68-17.96,1.89-7.03-18.28,17.8-7.04,4.38-5.45-4.07-5.17-9.37-8.85-15.58v13.87l-18.69,15.15-7.79-4.38-5.84-10.77-1.17-26.41-1.95,16.57-9.74,12.57-7.79,4.27-5.84,3.77,2.92-10.77v-13.87l-8.37,16.6-1.56-24.47-3.89-13.05v24.95l-4.25,11.54-12.21,9.37v-15.36l-3.4,11.29-6.62-7.53.78-17.96-5.45,25.49-8.18,5.91-3.89-12.91-6.76,7-13.1-5.3-5.84-11.54,2.65,12.57,12.15,23.16Z" fill="url(#linear-gradient-4)"/>
        <polygon points="1151.74 762.41 1165.5 759.97 1176.02 757.79 1181.86 754.6 1181.86 759.97 1201.85 759.97 1221.97 758.17 1226.65 750.75 1231.39 761.39 1189.85 762.41 1151.74 762.41" fill="#9b9bc4"/>
        <path d="M1130.54,711.03l-70.19,2.48s-22.12-7.15-21.2-7.43,18.46-7.43,18.46-7.43l30.92-6.6s18.23-10.32,16.85-9.7-48.93,0-48.93,0l-16.29-.03-15.56-7.27,28.85-8.59-15.46-12.11,39.58-13.29,26.19-25.93-7.22-23.91h-14.01l-14.08-7.3-9.23-11.56s2.77,11.88,4.85,14.2,9.78,10.02,9.78,10.02l-24.09-1.62-16.85-19.17,5.55,17.96-4.62,7.93h-3.92l-13.7-17.76,4.47,19.53,1.15,5.18-11.08-2.16s-16.15-10.88-17.54-12.73-6.23-9.28-6.23-9.28c0,0,3.92,11.28,4.62,12.38s12.46,14.31,12.46,14.31l4.62,3.98h-7.85l-20.08-18.56v8.53l-7.39-1.1-10.35-5.76v9.06l1.33,5.23-18.5-8.53-11.48-17.44s8.34,16.89,7.98,18.27,9.1,13.73,9.1,13.73l21,10.21-12.23,1.1-6,1.93-25.99-10.46,19.68,14.03,26.38,7.57-11.05,6.96-13.64.67-9.01,4.96-10.61,2.8-.75,5.31,6.3,5.66v2.38l-15.58-2.38-22.78-12.2,3.74,9.35-6.46,1.3-21.46-8.12-17.08-7.86,16.62,13.04,27.23,12.93v9.02l-15.69-4.42s-17.54-10.66-18-11.48-20.08-21.46-20.08-21.46l-16.15-2.48s20.54,19.65,21.23,20.83,13.15,12.53,13.15,12.53l21.23,10.39,13.39,6.6,6.32,4.63,14.8,19.58,111.81,36.04,42.09,3.85,9.86-22.84-9.86-8.25-26.63,5.5,21-16.23,37.16-.83,4.62-1.7,20.54-6.01Z" fill="url(#linear-gradient-5)"/>
        <path d="M1466.3,714.95l23.28-5.98,19.24-11.53-18.28,4.91-47.97-3.7,51.82-9.33,12.11-7,16.71-7.27-19.58-.04,27.13-15.49-11.6-1.94,29.87-18.94-41.94,10.09,21.16-20.56-65.99,10.47,35.78-15.11-27.9-6.34-12.13-1.73,18.84-6.67,16.76-33.54-5.77,17.73v3.63l-3.46,10.25,8.46,1.07,20.59-13.67-.15,7.41.53,7.55,18.39-25.3-4.8,19.53-1.24,5.18-.04,11.05,16.35-9.61,22.12-20.38-8.27,13.33-7.31,9.83-3.85,2.29h3.55l13-9.55,3.27,6.19,13.22-7.78,8.32-7.38,2.8,10.69-8.94,13.24,18.9-8.76,20.81-25.23s-8.95,16.89-8.56,18.27-7.86,14.65-7.86,14.65l-24.46,9.29,13.13,1.1,9.14.91,22.02-2.6-17.95,7.19-28.33,7.57,11.87,6.96,9.38,4.19-13.08,10.25,39.41-6-12.48,8.14-28.86,13.81,37.13-9.97,14.98-1.01,24.46-12.2-20.97,16.7-26.16,8.69,25.24-.55,31.09-7.35,17.28-9.77-14.54,14.47-14.7,7.48,16.85-4.42,19.33-11.48,13.1-11.34-16.88,20.41-17.03,10.75-14.37,6.6-6.79,4.63-15.89,19.58-120.05,36.04-45.19,3.85-29.61-25.92,26.16,5.13,18-2.65-18-7.6-20.78-10.89,20.2-4.49Z" fill="url(#linear-gradient-6)"/>
        <polygon points="1046.87 749.37 1059.13 745.26 1078.5 746.87 1090.15 749.37 1105.03 752.21 1124.14 748.74 1130.54 743.03 1125.13 754.6 1125.38 759.97 1107.69 759.97 1101.46 756.93 1082.54 755.32 1078.84 752.47 1046.87 749.37" fill="#9b9bc4"/>
        <polygon points="1276.88 761.3 1288.18 756.58 1296.29 751.5 1302.87 755.32 1315.08 755.32 1325.57 755.32 1336.08 756.58 1361.01 755.63 1358.28 750.75 1371.13 756.02 1394.04 756.58 1361.09 759.57 1276.88 761.3" fill="#9b9bc4"/>
        <polygon points="1448.1 751.66 1448.1 746.59 1442.25 740.43 1455.19 746.04 1460.1 749.63 1463.79 756.53 1460.33 761.8 1448.1 751.66" fill="#9b9bc4"/>
        <polygon points="1002.97 682.34 1005.92 674.24 1011.8 668.31 990.49 674.24 977.53 675.85 958.71 679.54 945.85 681.36 977.01 685.37 990.49 685.37 1002.97 682.34" fill="#eef"/>
        <ellipse cx="1280" cy="666.53" rx="92.87" ry="32.46" fill="none"/>
        <polygon points="1197.96 683.26 1201.85 683.26 1206.26 685.66 1203.15 689.35 1194.32 695.44 1181.08 701.58 1191.57 693.12 1197.18 688.15 1181.08 690.56 1193.67 682.51 1193.67 679.54 1197.96 683.26" fill="#b2b2db"/>
        <polyline points="1183.94 666.53 1184.59 668.9 1183.94 670.86 1181.86 672.32 1174.27 674.84 1181.08 670.68 1182.83 667.55 1183.94 666.53" fill="#b2b2db"/>
        <polygon points="1186.1 677.37 1188.87 679.54 1188.87 682.63 1185.36 685.37 1185.36 681.37 1186.1 677.37" fill="#b2b2db"/>
        <polygon points="1367.37 655.5 1374.77 663.03 1382.55 665.23 1392.42 665.23 1374.77 660.36 1367.37 655.5" fill="#b2b2db"/>
        <polygon points="1376.58 670.02 1374.77 674.06 1378.14 675.3 1384.37 675.85 1390.08 675.3 1382.42 672.93 1376.58 670.02" fill="#b2b2db"/>
        <polygon points="1363.86 685.37 1366.04 687.04 1372.87 690.42 1379.89 697.43 1372.87 693.73 1366.04 690.42 1363.86 685.37" fill="#b2b2db"/>
        <path d="M1370.87,681.37l3.89-4h13.24s10.64,4.22,11.94,4.48,9.35,0,9.35,0l-17.91,2.22-11.49-2.22-8.02,3.52-1.01-4Z" fill="#b2b2db"/>
        <polyline points="1350.88 687.5 1346.47 691.21 1341.01 696 1333.16 698.98 1337.12 700.02 1342.02 702.62 1345.95 707.16 1346.47 701.58 1349.06 694.89 1350.88 693.73 1360.23 696 1361.52 690.42 1359.06 687.04 1350.88 687.5" fill="#b2b2db"/>
        <polygon points="1356.33 701.58 1359.06 705.49 1363.86 709.37 1367.37 711.19 1361.85 706.38 1356.33 701.58" fill="#b2b2db"/>
        <polygon points="1188.87 657.98 1181.86 660.5 1171.63 665.23 1183.94 661.86 1188.87 657.98" fill="#b2b2db"/>
        <polygon points="1299.47 704.44 1303.89 701.58 1307 701.58 1310.38 706.38 1311.93 709.89 1305.7 705.73 1299.47 705.73 1297.4 704.44 1299.47 704.44" fill="#b2b2db"/>
        <polygon points="1238.72 701.58 1244.95 701.58 1247.79 701.58 1251.96 701.58 1248.26 704.44 1243.13 705.73 1241.31 703.66 1238.72 701.58" fill="#b2b2db"/>
        <polyline points="1199.39 710.43 1194.84 714.3 1191.86 714.3 1196.92 711.19" fill="#b2b2db"/>
        <polygon points="1146.81 677.37 1136.68 681.85 1120.48 681.85 1131.23 679.54 1136.94 679.54 1146.81 677.37" fill="#b2b2db"/>
        <polygon points="1590.26 617.19 1587.45 624.49 1573.63 638.64 1566.37 643.88 1583.77 638.64 1592.34 629.86 1594.18 624.49 1599.28 611.78 1590.26 617.19" fill="#fff"/>
        <polygon points="1120.33 568.76 1120.33 575.25 1123.64 582.78 1127.34 594.95 1123.64 590.93 1118.38 578.85 1118.38 575.25 1120.33 568.76" fill="#fff"/>
        <polygon points="1054.51 639.98 1077.57 641.06 1088.7 645.15 1094.62 647.97 1085.79 646.8 1074.57 643.98 1063.86 643.88 1054.51 639.98" fill="#fff"/>
        <path d="M1133.64,637.19l-7.86-3.12v-3.24s2.41-1.17,3.93,0,5.02,2.34,5.02,2.34l-1.09,4.02Z" fill="#fff"/>
        <polygon points="1165.5 639.98 1157.72 637.19 1151.74 635.83 1160.83 635.83 1167.45 637.91 1171.63 641.9 1165.5 639.98" fill="#fff"/>
        <polygon points="1181.08 622.49 1181.86 626.81 1185.36 629 1188.87 631.22 1187.12 629 1183.94 625.77 1181.08 622.49" fill="#fff"/>
        <polygon points="1208.08 624.49 1206.26 626.86 1209.9 629 1214.83 634.07 1218.27 637.02 1215.61 631.22 1213.79 626.86 1208.08 624.49" fill="#fff"/>
        <polygon points="1231.32 632.26 1234.43 630.31 1238.72 630.31 1242.35 629 1243.65 629 1242.35 633.96 1236.12 633.75 1231.32 632.26" fill="#fff"/>
        <polygon points="1256.37 633.75 1251.96 630.31 1247.6 624.49 1245.34 619.28 1251.96 624.49 1260.9 626.86 1263.89 631.22 1268.7 634.3 1256.37 633.75" fill="#fff"/>
        <polygon points="1301.48 624.49 1306.74 619.28 1315.08 619.28 1327.12 615.38 1325.18 622.49 1315.48 624.49 1308.56 624.49 1301.48 624.49" fill="#fff"/>
        <polygon points="1341.27 626.86 1345.95 630.31 1350.88 628.58 1352.44 624.49 1347.34 626.79 1341.27 626.86" fill="#fff"/>
        <polygon points="1273.57 622.49 1273.57 624.49 1279.35 624.49 1280 622.49 1275.59 619.28 1273.57 622.49" fill="#fff"/>
        <polygon points="1522.63 707.16 1528.47 703.66 1536.26 705.73 1542.49 709.89 1529.25 713.78 1522.63 711.19 1522.63 707.16" fill="#fff"/>
        <polygon points="1122.86 724.69 1111.76 727.53 1107.69 732.15 1102.8 737.67 1112.83 731.18 1120.48 727.53 1122.86 724.69" fill="#fff"/>
        <polygon points="1088.7 701.9 1083.72 703.66 1080.21 701.58 1085.79 698.98 1092.29 700.15 1088.7 701.9" fill="#fff"/>
        <path d="M1092.29,532.08l-18.43,6.62-13.98,5.55-12.51.33-11.42,1.79-3.04-1.1-13.32.7-4.42,4.96-12.12,1.6-27.87-.23-23.23,1.38-3.87,2.54-2.22,8.53-3.51,1.27-21.42,5.53h-24.41l-11.54,2.64-9.69,2.43-17.06,9.93-4.77-5.13-3.8-1.2-6.33,7.76,1.27,12.37-7.98,2.46-5.06,3.42-16.26,20.08-4.38,6.69-7,1.46-15.38,9.69,17.54,22.11,45.93,30.02,53.17,11.21s-16.84,9.74-15.97,9.53c.87-.2,14.68-.2,15.97-.41s14.45-4.06,14.45-4.06l87.24,31.38s-1.85,2.64-.92,2.64,50.54,3.45,50.54,3.45l22.39,2.43,3.69,2.85,18.92,1.61,6.23,1.83,22.16,1.22.23,7.5,8.08-5.68,51.7.61,41.54-1.01,4.15,6.69h4.38l3.69-6.69h16.62l-1.15,12.57h7.39l3.69-12.57,90.93-1.83,46.85-4.25,11.65,9.73,13.85-7.61,1.04-5.78h13.62l12.23,10.14,3.46-5.27-3.69-6.9,55.85-7.71,105.93-16.43,93.7-34.28,16.27-12.99,2.42-27.23s2.54-3.38,3.23-3.38-8.74-2.03-8.74-2.03l-11.66-5.9-2.28-2.53,2.28-14.89-14.75-6.61-15.64,1.54-12.68-7.71-.43-3.13-10.9-16.66-4.41-4.22-8.18-4.56-12.77-11.99-8.14-1.87-26.71,1.26-2.37-2.35-3.7-1.83-24.4-3.08-30.46-8.97h-19.16l-17.31-5.68h-7.79l-10.9-4.46-31.62-.91h-14.08l-10.97-4.45-31.85-3.97-31.85-3.04h-240.35l-33.41,2.51Z" fill="none"/>
        <path d="M0,465.94v962.06h2560V465.94s-438.33-16.46-1280-16.46S0,465.94,0,465.94ZM1397.89,532.61l31.85,3.97,10.97,4.45h14.08l31.62.91,10.9,4.46h7.79l17.31,5.68h19.16l30.46,8.97,24.4,3.08,3.7,1.83,2.37,2.35,26.71-1.26,8.14,1.87,12.77,11.99,8.18,4.56,4.41,4.22,10.9,16.66.43,3.13,12.68,7.71,15.64-1.54,14.75,6.61-2.28,14.89,2.28,2.53,11.66,5.9s9.43,2.03,8.74,2.03-3.23,3.38-3.23,3.38l-2.42,27.23-16.27,12.99-93.7,34.28-105.93,16.43-55.85,7.71,3.69,6.9-3.46,5.27-12.23-10.14h-13.62l-1.04,5.78-13.85,7.61-11.65-9.73-46.85,4.25-90.93,1.83-3.69,12.57h-7.39l1.15-12.57h-16.62l-3.69,6.69h-4.38l-4.15-6.69-41.54,1.01-51.7-.61-8.08,5.68-.23-7.5-22.16-1.22-6.23-1.83-18.92-1.61-3.69-2.85-22.39-2.43s-49.62-3.45-50.54-3.45.92-2.64.92-2.64l-87.24-31.38s-13.15,3.85-14.45,4.06-15.09.2-15.97.41c-.87.2,15.97-9.53,15.97-9.53l-53.17-11.21-45.93-30.02-17.54-22.11,15.38-9.69,7-1.46,4.38-6.69,16.26-20.08,5.06-3.42,7.98-2.46-1.27-12.37,6.33-7.76,3.8,1.2,4.77,5.13,17.06-9.93,9.69-2.43,11.54-2.64h24.41l21.42-5.53,3.51-1.27,2.22-8.53,3.87-2.54,23.23-1.38,27.87.23,12.12-1.6,4.42-4.96,13.32-.7,3.04,1.1,11.42-1.79,12.51-.33,13.98-5.55,18.43-6.62,33.41-2.51h240.35l31.85,3.04Z" fill="url(#linear-gradient-7)"/>
        <path d="M2256.99,566.02l-104.54,11.47,31.16,10.72-60.93,7.02-94.16,5.47,40.85,14.95-13.15,21.39-135.01,21.05-180.51,1.54-7.35,1.76-1.5,16.83-16.27,12.99-93.7,34.28-105.93,16.43-55.85,7.71,3.69,6.9-3.46,5.27-12.23-10.14h-13.62l-1.04,5.78-13.85,7.61-11.65-9.73-46.85,4.25-90.93,1.83-3.69,12.57h-7.39l1.15-12.57h-16.62l-3.69,6.69h-4.38l-4.15-6.69-41.54,1.01-51.7-.61-8.08,5.68-.23-7.5-22.16-1.22-6.23-1.83-18.92-1.61-3.69-2.85-22.39-2.43s-49.62-3.45-50.54-3.45.92-2.64.92-2.64l-87.24-31.38-14.45,4.06-15.97.41,15.97-9.53-50.63-18.48-38.09-30.93,4.64-10.18-6.67-.96-1.56-4.35-8.96-1.86,7.01-3.73-.67-2.19-2.05-6.66-106.21,5.79-96.24-6.79-54.7-4.68,64.39-21.79-66.9-29.68,54.7-3.97,89.69-.24,135.52-16.07-147.93-2.43-87.93-21.78-156.47,14.51-15.23-17.25-42.23-3.35L0,526.44v901.56h2560v-868.19l-303.01,6.21Z" fill="url(#linear-gradient-8)"/>
        <polyline points="831.55 615.13 788.52 622.49 727.82 627.45 639.66 627.45 704.74 651.85 735.61 682.34 735.61 707.5 851.98 696.29 905.16 707.5 854.53 689.02 816.44 658.09 821.08 647.91 814.42 646.95" fill="url(#linear-gradient-9)"/>
        <polygon points="844.18 596.29 829.83 601.67 766.59 601.67 823.37 596.29 843.33 587.98 844.18 596.29" fill="url(#linear-gradient-10)"/>
        <polygon points="894.94 571.63 881.06 572.36 826.6 572.36 884.58 568.76 911.06 565.94 920.93 568.76 942.35 568.76 923.46 571.75 900.68 572.42 894.94 571.63" fill="url(#linear-gradient-11)"/>
        <polygon points="1007.07 544.3 848.52 544.3 931.83 547.37 976.23 549.19 999.14 550.93 1010.5 549.19 1016.21 550.93 1019.59 545.96 1032.91 545.26 1057.9 544.3 1007.07 544.3" fill="url(#linear-gradient-12)"/>
        <polygon points="687.61 589.42 684.91 590.3 684.65 592.61 683.26 590.84 681.04 591.56 679.36 597.4 665.05 601.67 635.97 601.67 667.13 597.95 673.76 594.6 680.83 590.19 687.61 589.42" fill="url(#linear-gradient-13)"/>
        <polygon points="1005.92 746.59 971.99 771.28 928.23 811.15 878.54 846.63 692.83 956.05 945.85 856.28 1016.21 819.36 1071.69 775.82 1073.85 786.55 1105.96 773.97 1107.69 758.76 1101.46 756.93 1082.54 755.32 1078.84 752.47 1005.92 746.59" fill="url(#linear-gradient-14)"/>
        <polygon points="902.06 727.53 853.46 746.59 772.41 773.97 863.29 756.01 882.33 746.59 905.16 742.8 919.96 733.31 894.1 736.2 902.06 727.53" fill="url(#linear-gradient-15)"/>
        <polygon points="1005.92 746.59 1032.57 758.49 1067.19 758.49 1073.85 764.68 1099.29 755.63 1082.54 755.32 1078.84 752.47 1005.92 746.59" fill="url(#linear-gradient-16)"/>
        <polygon points="1189.85 762.39 1218.47 761.38 1215.24 790.81 1216.16 802.23 1215.7 843.09 1166.36 898.21 1153.73 832.11 1172.43 790.24 1166.54 784.14 1173.46 762.19 1189.85 762.39" fill="url(#linear-gradient-17)"/>
        <polygon points="1509.19 541.03 1539.72 544.3 1594.18 544.3 1538.33 548.31 1522.76 548.93 1509.19 544.97 1509.19 541.03" fill="url(#linear-gradient-18)"/>
        <polygon points="1627.65 563.49 1625.64 565.96 1719.08 565.96 1660.63 563.49 1638.04 559.77 1627.65 563.49" fill="url(#linear-gradient-19)"/>
        <polygon points="1672.36 580.72 1677.24 585.47 1677.24 588.21 1717.1 588.21 1683.21 584.46 1672.36 580.72" fill="url(#linear-gradient-20)"/>
        <polygon points="1756.94 610.74 1765.15 613.94 1767.5 620.95 1851.32 620.95 1774.48 615.65 1767.5 610.74 1756.94 610.74" fill="url(#linear-gradient-21)"/>
        <polygon points="1821.75 611.97 1848.24 605.16 1978.57 611.97 1821.75 611.97" fill="url(#linear-gradient-22)"/>
        <polygon points="1058.59 521.65 1032.11 517.93 901.77 521.65 1058.59 521.65" fill="url(#linear-gradient-23)"/>
        <polygon points="1564.56 501.43 1510.63 497.71 1245.26 501.43 1564.56 501.43" fill="url(#linear-gradient-24)"/>
        <polygon points="598.26 498.34 652.18 494.62 917.55 498.34 598.26 498.34" fill="url(#linear-gradient-25)"/>
        <polygon points="1583.77 746.93 1623.49 753.43 1625.05 740.43 1728.64 791.5 1667.89 783.14 1658.54 795.22 1621.93 767.36 1583.77 746.93" fill="url(#linear-gradient-26)"/>
        <path d="M1742.6,725.55l-22.13-25.98,22.98-10.68,4.67-13.46,252.75,7.89s39.72,89.14,39.33,90.54-2.34,45.5-2.34,45.5l-295.27-93.81Z" fill="url(#linear-gradient-27)"/>
        <polygon points="1366.04 785.78 1368.02 764.68 1404.36 777.88 1409.56 771.28 1420.98 771.28 1433.44 773.97 1666.07 1012.15 1573.63 977.83 1440.71 993.41 1385.89 1071.21 1366.04 785.78" fill="url(#linear-gradient-28)"/>
        <polygon points="1553.91 814.41 1600.13 883.12 1629.2 898.21 1612.59 857.06 1571.05 819.36 1560.66 801.41 1545.7 795.22 1553.91 814.41" fill="url(#linear-gradient-29)"/>
        <path d="M1669.84,530.02l49.46,3.51h61.53s34.62,1.95,36.39,1.95,96.41,2.34,96.41,2.34h95.41l-116.83,3.89h-62.22l-12.76-1.56-27.83,1.56-22.2-3.89-28.43-1.95h-21.03l-47.9-5.84Z" fill="url(#linear-gradient-30)"/>
        <path d="M810.91,637.02l-7.01,3.73,8.96,1.86,1.56,4.35,6.67.96-4.64,10.18,38.09,30.93,50.63,18.48-15.97,9.53,15.97-.41,14.45-4.06,87.24,31.38s-1.85,2.64-.92,2.64,50.54,3.45,50.54,3.45l22.39,2.43,3.69,2.85,18.92,1.61,6.23,1.83,22.16,1.22.23,7.5,8.08-5.68,51.7.61,41.54-1.01,4.15,6.69h4.38l3.69-6.69h16.62l-1.15,12.57h7.39l3.69-12.57,90.93-1.83,46.85-4.25,11.65,9.73,13.85-7.61,1.04-5.78h13.62l12.23,10.14,3.46-5.27-3.69-6.9,55.85-7.71,105.93-16.43,93.7-34.28,16.27-12.99,2.64-7.81,1.95-13.01" fill="none" stroke="#9b9bc4" stroke-linecap="round" stroke-linejoin="round" stroke-width="2"/>
        <path d="M2560.03,467.94c-372.45-12.13-752.66-16.45-1125.54-18.28,367.03.63,741.38,3.12,1108,13.89,0,0,8.77.29,8.77.29,0,0,4.37.15,4.37.15,1.45.02,2.9-.04,4.34-.05,0,0,.06,4,.06,4h0Z" fill="#bcbce8"/>
        <path d="M1125.52,449.67c-373.93,2.03-751.97,5.69-1125.44,18.27,0,0-.15-4-.15-4,373.48-11.26,751.7-13.57,1125.59-14.28h0Z" fill="#bcbce8"/>
        <polyline points="1067.62 543.02 1092.29 541.03 1089.56 538.47 1096.57 533.82 1110.6 530.7 1120.33 533.36 1125.69 529.57 1144.86 529.57 1167.06 531.97 1181.86 529.57 1187.7 532.43 1191.98 529.57 1212.24 529.57 1218.47 539.39 1221.97 536.58 1221.97 529.57 1242.61 531.97 1254.69 529.57 1260.9 529.57 1263.71 532.89 1270.17 529.57 1301.03 529.57 1306.93 532.43 1323.23 529.57 1347.76 531.97 1350.88 536.58 1353.22 529.57 1366.04 529.57 1395.31 532.36" fill="none" stroke="#9b9bc4" stroke-linecap="round" stroke-linejoin="round" stroke-width="2"/>
        <polygon points="1550.67 559.52 1559.23 562.08 1546.97 578.85 1548.33 588.1 1554.75 588.95 1541.12 613.94 1555.34 605.55 1565.27 584.84 1568.19 563.97 1574.23 564.65 1579.68 584.67 1578.71 602.3 1593.5 579.88 1596.43 564.14 1589.42 561.91 1598.76 561.06 1575.98 559.52 1541.12 549.93 1522.63 548.91 1509.19 544.97 1509.19 541.03 1497.31 543.6 1495.36 561.06 1492.64 573.04 1499.45 563.45 1506.46 565.68 1506.66 550.79 1516 553.53 1514.84 577.48 1522.24 577.48 1525.16 581.42 1517.37 582.28 1509.77 601.96 1532.36 580.39 1537.23 578.34 1536.45 571.5 1544.05 553.87 1542.29 571.67 1545.7 571.84 1550.67 559.52" fill="#9b9bc4"/>
        <polygon points="1600.13 565.96 1640.63 565.96 1655.3 569.96 1645.82 573.26 1658.28 579.2 1650.1 580.91 1647.51 589.58 1633.1 609.77 1616.87 624.49 1629.98 608.29 1638.16 591.06 1635.7 582.96 1636.6 572.24 1628.43 569.96 1622.58 571.78 1614.54 594.03 1603.37 610.91 1609.99 591.29 1614.92 572.24 1600.13 571.44 1600.13 565.96" fill="#9b9bc4"/>
        <polygon points="1658.28 585.47 1657.11 590.95 1662.7 589.69 1662.7 587.41 1666.07 585.47 1658.28 585.47" fill="#9b9bc4"/>
        <polygon points="1667.76 617.19 1671.78 618.21 1664.51 630.08 1656.34 637.15 1659.58 630.76 1664.77 623.46 1666.2 617.19 1667.76 617.19" fill="#9b9bc4"/>
        <path d="M1701.77,602.81l27.39-2.28-40.76-.91v-3.31l-18.17-6.62h-7.53l-2.99,4.22-1.43,8.44-7.92,10.15-8.7,6.27-11.68,12.66,7.92-3.08,6.23-5.02,12.33-6.5,10.9-1.48,7.14-2.97,3.51,2.17-.26,17.91-3.51,4.22.26,8.1,5.32-2.74-4.41,11.87-15.32,12.66-17.91,11.64,12.72-5.93,19.47-13.35-2.34,7.76,3.38,3.76,14.67-20.19,8.31-20.19-3.63-14.83s-7.79-2.17-8.44-2.17-10.52-3.65-10.52-3.65l-2.21-3.08h22.33l5.84-3.54ZM1687.36,643.43l3.12-18.94,3.38.68-1.04,16.2-13.24,18.14,7.79-16.09Z" fill="#9b9bc4"/>
        <polygon points="1702.36 615.65 1706.25 619.07 1706.25 625.74 1710.34 624.49 1712.09 629.34 1708.39 637.15 1714.82 637.15 1724.94 630.02 1726.11 624.49 1731.85 623.23 1717.1 618.9 1702.36 615.65" fill="#9b9bc4"/>
        <polygon points="1708.98 642 1704.11 652.1 1702.36 658.09 1706.64 655.01 1710.73 645.42 1710.73 642 1708.98 642" fill="#9b9bc4"/>
        <path d="M1717.1,639.68v9.68l8.23-3.42s39.72-4.11,38.94-3.94-39.33,0-39.33,0l-7.84-2.32Z" fill="#9b9bc4"/>
        <path d="M1749.28,646.11l-17.44.68-5.15,2.57-9.6,22.25,4.53,10.1,10.21-3.48s2.64-7.13,2.64-7.81,1.95-13.01,1.95-13.01l4.26-3.59-2.7-4.45,11.29-3.25Z" fill="#9b9bc4"/>
        <polygon points="1644.63 639.68 1637.65 638.64 1606.65 658.81 1636.47 645.92 1644.63 639.68" fill="#9b9bc4"/>
        <polygon points="1405.6 532.75 1396.44 535.26 1425.85 538.86 1424.48 543.24 1414.94 539.8 1421.95 547.78 1429.74 567.05 1423.51 559.69 1417.47 558.28 1407.15 549.9 1392.16 540.58 1373.47 536.98 1366.04 529.57 1426.04 530.71 1405.6 532.75" fill="#9b9bc4"/>
        <polygon points="1429.74 536.58 1435.58 541.03 1435.58 550.96 1430.72 545.31 1435.58 557.29 1442.2 568.93 1447.46 571.5 1452.72 563.11 1454.08 557.29 1450.97 549.25 1460.7 550.62 1458.76 545.14 1470.05 556.61 1474.53 556.78 1475.7 550.79 1478.81 550.96 1477.25 544.63 1486.8 544.29 1496.15 554.04 1497.31 543.6 1491.47 541.03 1477.84 538.3 1455.64 537.44 1451.16 536.58 1441.23 538.3 1429.74 536.58" fill="#9b9bc4"/>
        <path d="M897.95,692.89l-27.62-10.4-29.63-26.08-20.06-24.21,5.65-4.81,10.52,20.95-6.04-18.31.78-14.9-10.9,4.35-12.46,8.69,2.73,8.85-7.01,3.73,8.96,1.86,1.56,4.35,6.67.96-4.64,10.18,38.09,30.93,21.46,7.83,29.17,5.05-7.2-9ZM859.4,680.48l-7.4-3.57-10.13-9.16,8.18,4.19,14.99,10.4-5.65-1.86Z" fill="#9b9bc4"/>
        <polygon points="829.41 601.04 849.66 594.95 849.66 612.57 845.38 613.59 845.77 628.29 854.53 628.29 858.23 637.04 848.88 633.24 841.87 626.77 836.61 611.69 840.9 608.77 831.36 606.74 837.2 603.83 828.44 603.07 829.41 601.04" fill="#9b9bc4"/>
        <polygon points="853.46 583.73 853.46 595.71 856.28 595.71 859.79 615.67 872.05 636.96 885.68 648.61 883.54 642.29 906.91 657.59 930.67 664.25 907.49 654.35 884.13 634.64 877.31 615.84 867.96 616.84 865.04 599.37 867.58 587.39 877.7 579.9 892.06 578.91 889.97 595.04 890.36 610.18 895.03 587.72 900.68 575.41 911.39 576.24 925.21 575.41 942.35 568.76 923.46 571.75 900.68 572.42 895.03 571.42 893.86 574.25 872.44 576.41 872.44 579.07 860.37 580.74 860.76 578.07 853.46 580.4 853.46 583.73" fill="#9b9bc4"/>
        <polygon points="920.93 557.34 944.56 557.34 944.56 568.07 950.53 574.63 953.12 584.57 956.5 595.31 964.29 601.67 961.43 593.92 964.29 592.33 958.84 570.61 958.06 555.15 970.52 556.74 975.45 577.02 975.45 556.54 978.31 556.54 986.88 570.61 997.78 585.57 1002.45 596.5 1009.98 601.67 1005.57 591.53 1001.42 583.98 995.96 570.61 991.29 554.35 1003.23 554.35 1009.98 557.93 1011.28 552.96 1016.21 550.38 1010.5 549.19 998.82 550.97 976.23 549.19 952.86 551.57 935.21 554.95 920.93 557.34" fill="#9b9bc4"/>
        <polygon points="1019.59 545.96 1019.59 556.7 1024.52 575.78 1026.08 548.75 1032.91 545.26 1019.59 545.96" fill="#9b9bc4"/>
        <path d="M1032.91,548.55l1.22,7.75,2.6.99,3.63-10.14s7.79-2.39,7.01-2.58-11.42,1.79-11.42,1.79l-3.04,2.19Z" fill="#9b9bc4"/>
        <path d="M1059.83,544.41l-4.41,9.34v12.92l5.71-17.5,4.15-.99,1.56,21.07,3.12,13.52v-18.09l7.79-10.93s3.89,4.77,3.89,4.57,5.45-15.11,5.45-15.11l5.19-2.19-24.66,1.99-7.79,1.39Z" fill="#9b9bc4"/>
        <path d="M889.19,622.49l6.62,11.29s14.21,14.2,14.8,14.2,18.89,8.21,19.86,8.39,15.38,3.25,15.38,3.25l-5.26-4.11-18.11-6.16-7.2-7.36-16.16-7.87-9.93-11.64Z" fill="#9b9bc4"/>
        <polygon points="899.51 586.55 892.11 611.37 893.28 621.64 901.85 620.78 918.79 637.04 945.85 646.79 964.35 650.56 955.59 645.25 935.53 637.89 924.24 629.17 907.88 610 903.79 601.67 899.51 586.55" fill="#9b9bc4"/>
        <polygon points="925.99 578.85 919.96 589.46 919.96 600.76 928.23 608.63 935.53 604.52 925.99 591.18 925.99 587.58 929.5 586.55 925.99 578.85" fill="#9b9bc4"/>
        <polygon points="905.16 707.5 902.87 716.73 889.19 717.03 905.16 707.5" fill="#9b9bc4"/>
        <polygon points="1092.29 541.03 1099.29 545.26 1101.63 554.04 1105.92 561.91 1110.98 571.5 1107.69 560.52 1107.69 547.61 1116.04 543.02 1121.88 543.02 1134.35 556.26 1142.14 561.91 1146.42 575.25 1146.42 560.52 1149.54 557.29 1149.54 544.3 1155.38 536.58 1157.72 530.96 1144.86 529.57 1125.69 529.57 1120.33 533.36 1110.6 530.7 1096.57 533.82 1089.56 538.47 1092.29 541.03" fill="#9b9bc4"/>
        <polygon points="1181.86 529.57 1183.15 550.93 1186.1 560.52 1191.47 582.78 1194.06 575.25 1201.85 593.74 1198.22 569.18 1201.85 561.66 1198.74 544.3 1191.86 541.03 1194.58 529.57 1191.86 529.57 1187.7 532.43 1181.86 529.57" fill="#9b9bc4"/>
        <polygon points="1263.71 532.89 1265.59 544.3 1269.34 552.41 1269.34 542.65 1270.17 529.57 1263.71 532.89" fill="#9b9bc4"/>
        <polygon points="1221.97 536.58 1221.97 554.04 1224.31 560.52 1224.31 569.18 1220.41 557.29 1216.47 554.04 1216.47 544.56 1212.24 529.57 1218.47 539.39 1221.97 536.58" fill="#9b9bc4"/>
        <polygon points="1290.66 529.57 1301.03 529.57 1306.93 532.43 1315.08 531 1310.65 536.58 1310.65 548.93 1306.93 554.04 1305.31 565.96 1302.87 555.64 1302.87 540.99 1296.29 536.58 1296.29 543.02 1290.66 536.3 1290.66 529.57" fill="#9b9bc4"/>
        <polygon points="1347.76 531.97 1350.88 536.58 1350.88 543.02 1349.32 554.04 1347.76 560.52 1339.2 575.25 1345.04 560.52 1343.09 547.77 1339.2 536.58 1335.69 541.03 1335.69 545.26 1331.02 552.41 1331.02 544.56 1327.12 536.58 1329.07 529.57 1347.76 531.97" fill="#9b9bc4"/>
        <polygon points="1120.33 575.25 1123.64 582.78 1127.34 594.95 1133.96 601.67 1142.14 608.63 1138.06 601.67 1138.06 594.95 1131.23 591.94 1128.12 582.78 1127.73 572.42 1120.33 568.76 1120.33 575.25" fill="#9b9bc4"/>
        <polygon points="1336.08 582.78 1330.24 586.55 1330.24 590.93 1333.16 590.93 1336.08 586.86 1336.08 582.78" fill="#9b9bc4"/>
        <polygon points="1395.31 560.52 1405.79 567.05 1405.79 575.78 1403.07 586.86 1392.63 596.5 1397.89 586.55 1397.89 577.48 1392.63 577.48 1389.05 572.36 1395.31 560.52" fill="#9b9bc4"/>
        <polygon points="1058.01 608.63 1063.21 616 1083.46 624.49 1099.29 624.49 1113.58 624.49 1099.29 618.56 1083.98 618.56 1067.62 611.36 1058.01 608.63" fill="#9b9bc4"/>
        <polygon points="1431.94 601.67 1422.54 613.94 1411.63 622.49 1424.61 617.19 1431.94 601.67" fill="#9b9bc4"/>
        <polyline points="1129.85 759.97 1130.08 767.48 1138.15 761.8 1138.15 767.48 1120.33 794.01 1102.8 813.22 1120.33 785.31 1129.85 759.97" fill="#9b9bc4"/>
        <polygon points="1006.84 743.95 1005.92 746.59 1016.21 748.05 980.18 773.97 964.76 785.31 975.97 772.87 1006.84 743.95" fill="#9b9bc4"/>
        <polygon points="1417.6 766.49 1425.09 771.83 1442.25 788.34 1437.95 778.58 1427.36 760.78 1419.6 765.04 1407.94 755.32 1417.6 766.49" fill="#9b9bc4"/>
        <polygon points="942.23 733.3 931.61 736.53 920.9 746.64 917.24 754.6 930.36 748.17 943.79 742.52 942.23 733.3" fill="#9b9bc4"/>
        <polygon points="1056.65 538.92 1061.33 537.56 1063.86 536.3 1058.99 536.3 1054.51 537.61 1056.65 538.92" fill="#9b9bc4"/>
        <polygon points="871 674.24 884.47 677.56 902.63 682.34 914.7 685.37 938.07 688.47 914.7 688.47 901.85 688.47 889.19 685.37 880.96 688.47 870.33 682.5 867.96 675.05 871 674.24" fill="#9b9bc4"/>
        <polygon points="970.26 708.59 978.05 705.49 984.28 705.49 999.6 705.49 1011.8 701.9 994.92 709.63 984.8 709.63 975.71 712.26 970.26 711.19 970.26 708.59" fill="#9b9bc4"/>
        <polygon points="958.71 726.64 978.31 729.62 1000.9 729.62 1032.91 726.64 1005.92 733.3 995.18 737.67 989.38 737.67 958.71 726.64" fill="#9b9bc4"/>
        <polygon points="1218.47 642.21 1231.39 638.86 1234.05 640.54 1237.16 637.02 1249.71 635.83 1253.52 635.83 1259.49 634.07 1268.58 634.07 1270.17 637.02 1271.69 639.53 1271.69 635.89 1274.54 634.07 1283.12 634.07 1285.2 637.02 1288.18 634.07 1306.2 635.38 1310.38 637.02 1313.16 636.2 1325.07 638.14 1327.12 642.21 1328.58 638.86 1338.19 641.23 1339 643.42 1343.35 645.15 1351.8 645.94 1360.08 650.08 1360.08 654.66 1362.74 651.77 1367.37 655.5 1372.87 666.53 1374.77 670.02 1372.03 670.89 1362.18 681.66 1362.82 684.19 1359.42 683.36 1350.88 687.5 1346.47 687.5 1343.22 690.3 1328.58 694.19 1327.12 697.43 1325.18 694.89 1311.16 697.43 1311.68 700.54 1311.93 704.44 1309.6 702.36 1308.33 697.44 1301.48 698.98 1292.72 698.68 1288.18 698.98 1274.54 700.54 1274.54 702.88 1271.69 698.98 1259.71 698.21 1256.63 701.58 1255.02 697.79 1242.09 697.43 1237.3 695.36 1231.32 694.89 1229.37 696.13 1227.29 694.89 1223.88 692.39 1212.34 688.76 1209.64 691.2 1208.52 687.25 1201.85 684.07 1191.57 675.85 1187.13 675.85 1189.38 673.64 1187.13 666.53 1183.94 666.53 1188.13 661.77 1194.84 654.66 1196.4 649.65 1201.85 648.98 1210.12 645.15 1215.83 643.06 1218.47 643.42 1218.47 642.21" fill="url(#radial-gradient-2)"/>
        <polygon points="1188.87 664.19 1195.1 658.87 1195.88 654.66 1199.58 651.77 1202.89 656.73 1208.93 662.38 1218.47 664.19 1209.32 664.19 1199.97 663.35 1197.44 660.5 1191.86 663.35 1188.87 664.19" fill="url(#linear-gradient-31)"/>
        <polygon points="1188.87 666.53 1189.84 670.02 1189.38 673.64 1187.13 675.85 1191.57 675.85 1201.85 684.07 1207.76 684.07 1217.3 684.07 1204.84 681.37 1198.99 675.85 1205.03 675.85 1207.76 673.86 1195.3 671.72 1190.82 669.25 1188.87 666.53" fill="url(#linear-gradient-32)"/>
        <polygon points="1204.71 651.08 1207.76 651.08 1217.95 651.77 1220.41 654.07 1225.87 659.13 1231.32 658.61 1224.57 655.11 1223.27 651.08 1223.01 647.97 1222.88 643.81 1227.08 639.98 1221.06 642.9 1220.41 647.06 1217.3 645.63 1206.91 649.56 1203.67 649.56 1204.71 651.08" fill="url(#linear-gradient-33)"/>
        <polygon points="1230.15 643.88 1232.68 649.56 1238.72 654.66 1236.58 648.36 1234.43 643.88 1230.15 643.88" fill="url(#linear-gradient-34)"/>
        <polygon points="1223.88 692.39 1229.37 696.13 1231.32 694.89 1237.3 695.36 1242.09 697.43 1255.02 697.79 1256.63 701.58 1259.71 698.21 1265 698.55 1271.69 698.98 1266.11 697.43 1263.03 694.89 1255.46 694.89 1250.79 692.39 1243.42 693.73 1238.72 691.58 1231.39 692.82 1231.32 690.42 1227.81 692.82 1223.88 692.39" fill="url(#linear-gradient-35)"/>
        <polygon points="1237.16 637.02 1249.71 635.83 1253.52 635.83 1254.73 640.38 1259.36 646.57 1255.42 643.88 1252.33 641.08 1246.1 641.08 1247.6 645.15 1251.77 647.97 1244.74 645.15 1242.49 641.79 1237.16 637.02" fill="url(#linear-gradient-36)"/>
        <polygon points="1275.39 636.8 1273.57 635.44 1274.54 634.07 1283.12 634.07 1285.2 637.02 1282.34 637.19 1281.82 640.31 1280 636.15 1275.85 635.5 1275.39 636.8" fill="url(#linear-gradient-37)"/>
        <polygon points="1288.18 698.98 1292.72 698.68 1301.48 698.98 1308.33 697.44 1309.6 702.36 1311.93 704.44 1311.16 697.43 1317.78 696.19 1312.9 693.73 1307.26 691.44 1304.04 693.29 1297.76 694.89 1295.99 693.73 1290.83 696.79 1288.18 698.98" fill="url(#linear-gradient-38)"/>
        <polygon points="1325.18 694.89 1327.12 697.43 1328.58 694.19 1343.22 690.3 1346.47 687.5 1342.05 687.5 1333.67 687.5 1330.45 690.48 1318.7 687.5 1315.48 685 1320.31 691.44 1324.5 693.29 1325.18 694.89" fill="url(#linear-gradient-39)"/>
        <polygon points="1362.02 655.37 1365.56 657.31 1369.1 667.93 1366.69 670.02 1361.37 672.63 1359.6 671.48 1362.34 666.53 1362.02 663.1 1355.9 668.09 1350.91 670.02 1339.47 671.96 1354.29 665.68 1358.47 657.98 1362.02 655.37" fill="url(#linear-gradient-40)"/>
        <polygon points="1310.38 637.02 1310.38 639.53 1319.98 639.98 1321.54 641.9 1321.54 645.15 1324.66 641.08 1327.12 642.21 1325.07 638.14 1313.16 636.2 1310.38 637.02" fill="url(#linear-gradient-41)"/>
        <polygon points="1358.02 650.69 1350.88 647.97 1347.24 649.56 1343.09 656.53 1336.21 662.12 1332.83 663.03 1337.51 663.03 1348.15 659.13 1354.29 653.81 1356.72 654.66 1359.06 652.64 1358.02 650.69" fill="url(#linear-gradient-42)"/>
        <polygon points="1333.35 645.15 1337.12 647.97 1335.24 651.77 1328.94 655.5 1332.83 648.62 1333.35 645.15" fill="url(#linear-gradient-43)"/>
        <polygon points="1228.07 685.37 1238.2 685 1248.26 681.85 1243.26 685.37 1238.17 687.04 1232.75 687.04 1228.07 685.37" fill="url(#linear-gradient-44)"/>
      </g>
      <path d="M1283.68,695.08c-.47,0-.9-.1-1.23-.29l-9.99-5.85c-3.48-2.03-5.4-4.67-5.4-7.43s1.92-5.4,5.4-7.43l6.26-3.66c.63-.37,1-.95,1-1.59s-.36-1.22-1-1.59c-.49-.29-1.14-.45-1.81-.45s-1.31.16-1.81.45l-6.26,3.66c-3.63,2.12-8.46,3.28-13.62,3.28s-9.99-1.17-13.62-3.28l-10.1-5.9c-.13-.09-.18-.16-.19-.18.05-.05.53-.45,1.53-.45h50c1.53,0,2.36.7,2.36.98v29.23c-.07.15-.67.49-1.53.49h0ZM1299.96,685.56c-.47,0-.9-.11-1.23-.29l-5.85-3.42c-1.31-.77-2.07-1.77-2.07-2.75v-13.74c0-2.84-3.51-5.06-7.98-5.06h-23.51c-2.1,0-4.13-.49-5.6-1.34l-5.85-3.42c-.2-.11-.27-.21-.28-.24.05-.05.53-.45,1.52-.45h50c1.53,0,2.36.7,2.36.99v29.22c-.07.15-.67.49-1.52.49h0ZM1316.25,676.04c-.47,0-.9-.1-1.23-.29l-5.85-3.42c-1.31-.77-2.07-1.77-2.07-2.74v-13.74c0-2.84-3.51-5.06-7.99-5.06h-23.51c-2.1,0-4.14-.49-5.59-1.34l-5.85-3.42c-.2-.11-.27-.21-.28-.24.05-.05.53-.45,1.52-.45h50c1.53,0,2.36.7,2.36.98v29.23c-.07.15-.67.49-1.52.49h0Z" fill="#fff"/>
    </g>
  </g>
</svg>