<svg width="1680" height="1040" viewBox="0 0 1680 1040" fill="none" xmlns="http://www.w3.org/2000/svg">
<g id="Card Rocks 01" clip-path="url(#clip0_2804_54080)">
<g id="Rock 25">
<path id="Vector" d="M738.89 587.25L496.81 692.5L454.71 903L617.85 1008.25L812.56 876.69L891.5 771.44L738.89 587.25Z" fill="url(#paint0_linear_2804_54080)"/>
<path id="Vector_2" d="M454.71 903H641.53L733.63 818.8L812.56 876.69L617.85 1008.25L454.71 903Z" fill="url(#paint1_linear_2804_54080)"/>
<path id="Vector_3" d="M733.63 818.8L738.89 587.25L496.81 692.5L683.04 865.05L733.63 818.8Z" fill="url(#paint2_linear_2804_54080)"/>
</g>
<g id="Rock 24">
<path id="Vector_4" d="M189 735L327 691L458 765L539 963L351 1128L145 1099L99 868L189 735Z" fill="url(#paint3_linear_2804_54080)"/>
<path id="Vector_5" d="M141.75 804.83L233.83 765.33L425.99 785.08L539 963L458 765L327 691L189 735L141.75 804.83Z" fill="url(#paint4_linear_2804_54080)"/>
<path id="Vector_6" d="M145 1099L319 978L478.93 1015.73L351 1128L145 1099Z" fill="url(#paint5_linear_2804_54080)"/>
</g>
<g id="Rock 23">
<path id="Vector_7" d="M522.5 659L573.5 751H641L711.5 661L641.5 530L569.5 538L522.5 659Z" fill="url(#paint6_linear_2804_54080)"/>
<path id="Vector_8" d="M557.87 722.8L624.5 669L693.59 683.86L641 751H573.5L557.87 722.8Z" fill="url(#paint7_linear_2804_54080)"/>
<path id="Vector_9" d="M693.59 683.86L624.5 669L602.5 576L641.5 530L711.5 661L693.59 683.86Z" fill="url(#paint8_linear_2804_54080)"/>
</g>
<g id="Rock 22">
<path id="Vector_10" d="M1378.3 854.76L1371.37 875.03L1380.59 885.22L1403.81 883.57L1414.03 855.1L1402.99 845.33L1378.3 854.76Z" fill="url(#paint9_linear_2804_54080)"/>
<path id="Vector_11" d="M1373.5 868.811L1390.72 871.531L1397.92 883.991L1380.59 885.221L1371.37 875.031L1373.5 868.811Z" fill="url(#paint10_linear_2804_54080)"/>
<path id="Vector_12" d="M1397.92 883.99L1390.72 871.53L1401.76 855.5L1414.03 855.1L1403.81 883.57L1397.92 883.99Z" fill="url(#paint11_linear_2804_54080)"/>
</g>
<g id="Rock 21">
<path id="Vector_13" d="M387.5 631L404.5 627L417.5 608L424.5 586L390.5 575L368.5 597L387.5 631Z" fill="url(#paint12_linear_2804_54080)"/>
<path id="Vector_14" d="M390.5 575L395.5 601L417.65 607.92L424.5 586L390.5 575Z" fill="url(#paint13_linear_2804_54080)"/>
<path id="Vector_15" d="M395.5 601L417.5 608L404.5 627L387.5 631L395.5 601Z" fill="url(#paint14_linear_2804_54080)"/>
</g>
<g id="Rock 20">
<path id="Vector_16" d="M785 551L780 579L827.5 616L854.5 604L844.5 584L801 551H785Z" fill="url(#paint15_linear_2804_54080)"/>
<path id="Vector_17" d="M785 551L792 564L828.5 587L844.5 584L801 551H785Z" fill="url(#paint16_linear_2804_54080)"/>
<path id="Vector_18" d="M828.5 587L844.5 584L854.5 604L827.5 616L828.5 587Z" fill="url(#paint17_linear_2804_54080)"/>
</g>
<g id="Rock 19">
<path id="Vector_19" d="M760.87 749.97L715.27 881.06L723.82 920.95L817.859 946.6L934.7 895.31L957.5 774.19L857.76 692.98L760.87 749.97Z" fill="url(#paint18_linear_2804_54080)"/>
<path id="Vector_20" d="M715.27 881.06L830.69 853.99L844.83 934.76L817.859 946.6L723.82 920.95L715.27 881.06Z" fill="url(#paint19_linear_2804_54080)"/>
<path id="Vector_21" d="M715.27 881.06L830.69 853.99L857.76 692.98L760.87 749.97L715.27 881.06Z" fill="url(#paint20_linear_2804_54080)"/>
</g>
<g id="Rock 18">
<path id="Vector_22" d="M710.79 452.54L821.93 538.04L837.61 540.88L893.18 526.64L934.5 439.72L884.63 396.97L847.58 392.7L710.79 452.54Z" fill="url(#paint21_linear_2804_54080)"/>
<path id="Vector_23" d="M730.28 467.53L793.44 475.34L832.86 515.24L883.2 495.29L904.57 441.14L934.5 439.72L893.18 526.64L837.61 540.88L821.93 538.04L730.28 467.53Z" fill="url(#paint22_linear_2804_54080)"/>
<path id="Vector_24" d="M904.57 441.14L847.58 392.7L884.63 396.97L934.5 439.72L904.57 441.14Z" fill="url(#paint23_linear_2804_54080)"/>
</g>
<g id="Rock 17">
<path id="Vector_25" d="M810.53 747.49L813.38 778.84L844.73 788.81L871.8 797.36V756.04L836.89 747.49H810.53Z" fill="url(#paint24_linear_2804_54080)"/>
<path id="Vector_26" d="M810.53 747.49L839.03 787L813.38 778.84L810.53 747.49Z" fill="url(#paint25_linear_2804_54080)"/>
<path id="Vector_27" d="M839.03 787L871.8 756.04L836.89 747.49H810.53L839.03 787Z" fill="url(#paint26_linear_2804_54080)"/>
</g>
<g id="Rock 16">
<path id="Vector_28" d="M878.93 885.7L888.9 935.57H928.8L945.9 904.22L906.71 885.7H878.93Z" fill="url(#paint27_linear_2804_54080)"/>
<path id="Vector_29" d="M882.84 905.25L924.52 915.62L945.9 904.22L928.8 935.57H884.15L882.84 905.25Z" fill="url(#paint28_linear_2804_54080)"/>
<path id="Vector_30" d="M945.899 904.22L924.519 915.62L903.279 910.34L906.709 885.7L945.899 904.22Z" fill="url(#paint29_linear_2804_54080)"/>
</g>
<g id="Rock 15">
<path id="Vector_31" d="M227.38 498L183.48 538.76V635.96L227.38 698.67L312.03 726.88L440.58 679.85L354.36 498H227.38Z" fill="url(#paint30_linear_2804_54080)"/>
<path id="Vector_32" d="M183.48 538.76L265 551.3L349.66 629.69L362.2 676.72L440.58 679.85L312.03 726.88L227.38 698.67L183.48 635.96V538.76Z" fill="url(#paint31_linear_2804_54080)"/>
<path id="Vector_33" d="M183.48 538.76L265 551.3L349.66 629.69L399.82 593.89L354.36 498H227.38L183.48 538.76Z" fill="url(#paint32_linear_2804_54080)"/>
</g>
<g id="Rock 14">
<path id="Vector_34" d="M645.25 1028.19L710.79 1066.66L774.91 1059.53L780.61 944.12L663.77 1006.81L645.25 1028.19Z" fill="url(#paint33_linear_2804_54080)"/>
<path id="Vector_35" d="M710.79 1066.66L754.01 1042.44L778.26 991.69L774.91 1059.53L710.79 1066.66Z" fill="url(#paint34_linear_2804_54080)"/>
<path id="Vector_36" d="M754.01 1042.44L663.77 1006.81L780.609 944.12L778.26 991.69L754.01 1042.44Z" fill="url(#paint35_linear_2804_54080)"/>
</g>
<g id="Rock 13">
<path id="Vector_37" d="M670.63 742.59L660.66 761.12L684.88 819.54L727.63 809.56L733.33 799.59L726.2 749.72L714.8 735.47L670.63 742.59Z" fill="url(#paint36_linear_2804_54080)"/>
<path id="Vector_38" d="M684.88 819.539L710.53 788.189L733.33 799.589L727.63 809.559L684.88 819.539Z" fill="url(#paint37_linear_2804_54080)"/>
<path id="Vector_39" d="M670.63 742.59L710.53 788.19L714.8 735.47L670.63 742.59Z" fill="url(#paint38_linear_2804_54080)"/>
</g>
<g id="Rock 12">
<path id="Vector_40" d="M674 450.4L657.45 446.93L617.95 478.93L635.39 509.6L644.37 511.72L681.19 494.85L689.57 482.82L674 450.4Z" fill="url(#paint39_linear_2804_54080)"/>
<path id="Vector_41" d="M617.95 478.93L647.96 491.55L644.37 511.72L635.39 509.6L617.95 478.93Z" fill="url(#paint40_linear_2804_54080)"/>
<path id="Vector_42" d="M674 450.399L647.96 491.549L689.57 482.819L674 450.399Z" fill="url(#paint41_linear_2804_54080)"/>
</g>
<g id="Rock 11">
<path id="Vector_43" d="M870.141 226L863.73 237.4L864.44 257.35L901.49 248.8L888.67 226H870.141Z" fill="url(#paint42_linear_2804_54080)"/>
<path id="Vector_44" d="M864.19 250.22L901.49 248.8L864.44 257.35L864.19 250.22Z" fill="url(#paint43_linear_2804_54080)"/>
<path id="Vector_45" d="M870.141 226L874.891 237.4L901.491 248.8L888.671 226H870.141Z" fill="url(#paint44_linear_2804_54080)"/>
</g>
<g id="Rock 10">
<path id="Vector_46" d="M452.21 488.05L422.63 521.86V633.84L528.27 585.24L532.5 538.76L511.37 488.05H452.21Z" fill="url(#paint45_linear_2804_54080)"/>
<path id="Vector_47" d="M422.63 633.84L457.84 572.57L502.92 557.07L530.61 559.59L528.27 585.24L422.63 633.84Z" fill="url(#paint46_linear_2804_54080)"/>
<path id="Vector_48" d="M457.84 572.57L422.63 521.86L452.21 488.05H511.37L502.92 557.07L457.84 572.57Z" fill="url(#paint47_linear_2804_54080)"/>
</g>
<g id="Rock 09">
<path id="Vector_49" d="M481.38 409.45L464.99 426.55V465.02L474.97 476.42H497.77L528.4 456.47L529.11 439.37L481.38 409.45Z" fill="url(#paint48_linear_2804_54080)"/>
<path id="Vector_50" d="M474.971 476.42L494.921 467.87L502.041 445.07L528.401 456.47L497.771 476.42H474.971Z" fill="url(#paint49_linear_2804_54080)"/>
<path id="Vector_51" d="M481.38 409.45L479.24 425.12L502.04 445.07L528.4 456.47L529.11 439.37L481.38 409.45Z" fill="url(#paint50_linear_2804_54080)"/>
</g>
<g id="Rock 08">
<path id="Vector_52" d="M299.01 845.8L293.31 857.2V911.35L313.26 939.85L368.12 944.12L368.83 914.2L299.01 845.8Z" fill="url(#paint51_linear_2804_54080)"/>
<path id="Vector_53" d="M293.31 911.35L323.23 919.9L368.12 944.12L313.26 939.85L293.31 911.35Z" fill="url(#paint52_linear_2804_54080)"/>
<path id="Vector_54" d="M299.01 845.8L293.31 857.2L337.01 895.67L368.83 914.2L299.01 845.8Z" fill="url(#paint53_linear_2804_54080)"/>
</g>
<g id="Rock 07">
<path id="Vector_55" d="M1158.79 750.18L1145.02 777.72V908.56L1193.22 977.42L1325.78 987.75L1327.5 915.44L1158.79 750.18Z" fill="url(#paint54_linear_2804_54080)"/>
<path id="Vector_56" d="M1145.02 908.56L1217.32 929.22L1325.78 987.75L1193.22 977.42L1145.02 908.56Z" fill="url(#paint55_linear_2804_54080)"/>
<path id="Vector_57" d="M1158.79 750.18L1145.02 777.72L1250.6 870.68L1327.5 915.44L1158.79 750.18Z" fill="url(#paint56_linear_2804_54080)"/>
</g>
<g id="Rock 06">
<path id="Vector_58" d="M240.59 691.92V722.55L256.26 731.82L307.56 724.69L310.41 669.12L251.99 681.95L240.59 691.92Z" fill="url(#paint57_linear_2804_54080)"/>
<path id="Vector_59" d="M307.56 724.69L260.54 710.44L240.59 722.55L256.26 731.82L307.56 724.69Z" fill="url(#paint58_linear_2804_54080)"/>
<path id="Vector_60" d="M307.56 724.69L260.54 710.44L251.99 681.95L310.41 669.12L307.56 724.69Z" fill="url(#paint59_linear_2804_54080)"/>
</g>
<g id="Rock 05">
<path id="Vector_61" d="M754.61 314.65L748.91 346L767.44 353.12L795.93 355.97L803.77 327.48L795.93 313.23L754.61 314.65Z" fill="url(#paint60_linear_2804_54080)"/>
<path id="Vector_62" d="M748.91 346H778.84L803.77 327.48L795.93 355.97L767.44 353.12L748.91 346Z" fill="url(#paint61_linear_2804_54080)"/>
<path id="Vector_63" d="M761.74 314.41L778.84 346L803.77 327.48L795.93 313.23L761.74 314.41Z" fill="url(#paint62_linear_2804_54080)"/>
</g>
<g id="Rock 04">
<path id="Vector_64" d="M396.54 711.98L412.21 773.25L446.41 783.23L496.28 754.73L536.17 699.16L507.67 647.86L473.48 630.77L396.54 711.98Z" fill="url(#paint63_linear_2804_54080)"/>
<path id="Vector_65" d="M513.57 730.639L489.15 704.859L429.31 706.279L397.99 717.669L412.21 773.249L446.41 783.229L496.28 754.729L513.57 730.639Z" fill="url(#paint64_linear_2804_54080)"/>
<path id="Vector_66" d="M489.15 704.86L507.67 647.86L473.48 630.77L429.31 706.28L489.15 704.86Z" fill="url(#paint65_linear_2804_54080)"/>
</g>
<g id="Rock 03">
<path id="Vector_67" d="M294.02 439.34L275.5 452.16L278.35 469.26L312.55 569H345.32L398.04 531.95L403.74 512.01L390.91 499.18L294.02 439.34Z" fill="url(#paint66_linear_2804_54080)"/>
<path id="Vector_68" d="M312.55 569L336.77 513.43L390.91 499.18L403.74 512.01L398.04 531.95L345.32 569H312.55Z" fill="url(#paint67_linear_2804_54080)"/>
<path id="Vector_69" d="M283.48 446.64L336.77 513.43L390.91 499.18L294.02 439.34L283.48 446.64Z" fill="url(#paint68_linear_2804_54080)"/>
</g>
<g id="Rock 02">
<path id="Vector_70" d="M622.5 384.27L665.25 378.57L676.64 388.55L672.37 408.49L633.9 404.22L622.5 393.53V384.27Z" fill="url(#paint69_linear_2804_54080)"/>
<path id="Vector_71" d="M622.5 384.271L653.85 394.251L652.51 406.29L633.9 404.221L622.5 393.531V384.271Z" fill="url(#paint70_linear_2804_54080)"/>
<path id="Vector_72" d="M622.5 384.27L653.85 394.25L676.64 388.55L665.25 378.57L622.5 384.27Z" fill="url(#paint71_linear_2804_54080)"/>
</g>
<g id="Rock 01">
<path id="Vector_73" d="M504.9 935.57L518.44 944.12L645.25 977.6L660.92 897.1L659.5 867.18L650.95 852.93L581.84 845.8L504.9 935.57Z" fill="url(#paint72_linear_2804_54080)"/>
<path id="Vector_74" d="M518.44 944.12L601.08 895.67L660.92 897.1L645.25 977.6L518.44 944.12Z" fill="url(#paint73_linear_2804_54080)"/>
<path id="Vector_75" d="M581.841 845.8L601.081 870.03V895.67L660.921 897.1L659.501 867.18L650.951 852.93L581.841 845.8Z" fill="url(#paint74_linear_2804_54080)"/>
</g>
</g>
<defs>
<linearGradient id="paint0_linear_2804_54080" x1="790.85" y1="403.35" x2="519.92" y2="1324.14" gradientUnits="userSpaceOnUse">
<stop stop-color="#494791"/>
<stop offset="1" stop-color="#32326B"/>
</linearGradient>
<linearGradient id="paint1_linear_2804_54080" x1="48.42" y1="1117.7" x2="783.26" y2="873.57" gradientUnits="userSpaceOnUse">
<stop stop-color="#3E3D7E"/>
<stop offset="1" stop-color="#372D66"/>
</linearGradient>
<linearGradient id="paint2_linear_2804_54080" x1="496.81" y1="726.15" x2="738.89" y2="726.15" gradientUnits="userSpaceOnUse">
<stop stop-color="#514D9E"/>
<stop offset="1" stop-color="#37327C"/>
</linearGradient>
<linearGradient id="paint3_linear_2804_54080" x1="99" y1="909.5" x2="539" y2="909.5" gradientUnits="userSpaceOnUse">
<stop stop-color="#494791"/>
<stop offset="1" stop-color="#32326B"/>
</linearGradient>
<linearGradient id="paint4_linear_2804_54080" x1="141.75" y1="827" x2="539" y2="827" gradientUnits="userSpaceOnUse">
<stop stop-color="#514D9E"/>
<stop offset="1" stop-color="#37327C"/>
</linearGradient>
<linearGradient id="paint5_linear_2804_54080" x1="143.7" y1="1098.82" x2="477.7" y2="1018.82" gradientUnits="userSpaceOnUse">
<stop stop-color="#3E3D7E"/>
<stop offset="1" stop-color="#372D66"/>
</linearGradient>
<linearGradient id="paint6_linear_2804_54080" x1="682.62" y1="436.97" x2="539.62" y2="922.97" gradientUnits="userSpaceOnUse">
<stop stop-color="#494791"/>
<stop offset="1" stop-color="#32326B"/>
</linearGradient>
<linearGradient id="paint7_linear_2804_54080" x1="387.04" y1="791.63" x2="685.04" y2="692.63" gradientUnits="userSpaceOnUse">
<stop stop-color="#3E3D7E"/>
<stop offset="1" stop-color="#372D66"/>
</linearGradient>
<linearGradient id="paint8_linear_2804_54080" x1="541.74" y1="515.84" x2="787.18" y2="740.83" gradientUnits="userSpaceOnUse">
<stop stop-color="#514D9E"/>
<stop offset="1" stop-color="#37327C"/>
</linearGradient>
<linearGradient id="paint9_linear_2804_54080" x1="1433.73" y1="848.586" x2="1340.82" y2="893.398" gradientUnits="userSpaceOnUse">
<stop stop-color="#494791"/>
<stop offset="1" stop-color="#32326B"/>
</linearGradient>
<linearGradient id="paint10_linear_2804_54080" x1="1339.81" y1="852.412" x2="1395.47" y2="883.88" gradientUnits="userSpaceOnUse">
<stop stop-color="#3E3D7E"/>
<stop offset="1" stop-color="#372D66"/>
</linearGradient>
<linearGradient id="paint11_linear_2804_54080" x1="1402.58" y1="838.094" x2="1402.14" y2="905.891" gradientUnits="userSpaceOnUse">
<stop stop-color="#514D9E"/>
<stop offset="1" stop-color="#37327C"/>
</linearGradient>
<linearGradient id="paint12_linear_2804_54080" x1="408.95" y1="572.4" x2="384.42" y2="618.7" gradientUnits="userSpaceOnUse">
<stop stop-color="#494791"/>
<stop offset="1" stop-color="#32326B"/>
</linearGradient>
<linearGradient id="paint13_linear_2804_54080" x1="421.65" y1="569.18" x2="384.39" y2="616.41" gradientUnits="userSpaceOnUse">
<stop stop-color="#514D9E"/>
<stop offset="1" stop-color="#37327C"/>
</linearGradient>
<linearGradient id="paint14_linear_2804_54080" x1="361.84" y1="630.57" x2="410.61" y2="609.39" gradientUnits="userSpaceOnUse">
<stop stop-color="#3E3D7E"/>
<stop offset="1" stop-color="#372D66"/>
</linearGradient>
<linearGradient id="paint15_linear_2804_54080" x1="802.65" y1="547.3" x2="826.65" y2="619.97" gradientUnits="userSpaceOnUse">
<stop stop-color="#494791"/>
<stop offset="1" stop-color="#32326B"/>
</linearGradient>
<linearGradient id="paint16_linear_2804_54080" x1="760.26" y1="520.84" x2="874.32" y2="625.4" gradientUnits="userSpaceOnUse">
<stop stop-color="#514D9E"/>
<stop offset="1" stop-color="#37327C"/>
</linearGradient>
<linearGradient id="paint17_linear_2804_54080" x1="786.85" y1="615.17" x2="848.97" y2="594.53" gradientUnits="userSpaceOnUse">
<stop stop-color="#3E3D7E"/>
<stop offset="1" stop-color="#372D66"/>
</linearGradient>
<linearGradient id="paint18_linear_2804_54080" x1="912.04" y1="592.31" x2="753.39" y2="1131.5" gradientUnits="userSpaceOnUse">
<stop stop-color="#494791"/>
<stop offset="1" stop-color="#32326B"/>
</linearGradient>
<linearGradient id="paint19_linear_2804_54080" x1="574.45" y1="977.66" x2="833.25" y2="891.68" gradientUnits="userSpaceOnUse">
<stop stop-color="#3E3D7E"/>
<stop offset="1" stop-color="#372D66"/>
</linearGradient>
<linearGradient id="paint20_linear_2804_54080" x1="715.27" y1="787.02" x2="857.76" y2="787.02" gradientUnits="userSpaceOnUse">
<stop stop-color="#514D9E"/>
<stop offset="1" stop-color="#37327C"/>
</linearGradient>
<linearGradient id="paint21_linear_2804_54080" x1="859.74" y1="320.07" x2="765.09" y2="641.72" gradientUnits="userSpaceOnUse">
<stop stop-color="#494791"/>
<stop offset="1" stop-color="#32326B"/>
</linearGradient>
<linearGradient id="paint22_linear_2804_54080" x1="496.76" y1="601.72" x2="924.63" y2="459.58" gradientUnits="userSpaceOnUse">
<stop stop-color="#3E3D7E"/>
<stop offset="1" stop-color="#372D66"/>
</linearGradient>
<linearGradient id="paint23_linear_2804_54080" x1="847.58" y1="416.92" x2="934.5" y2="416.92" gradientUnits="userSpaceOnUse">
<stop stop-color="#514D9E"/>
<stop offset="1" stop-color="#37327C"/>
</linearGradient>
<linearGradient id="paint24_linear_2804_54080" x1="843.6" y1="745.67" x2="837.75" y2="810" gradientUnits="userSpaceOnUse">
<stop stop-color="#494791"/>
<stop offset="1" stop-color="#32326B"/>
</linearGradient>
<linearGradient id="paint25_linear_2804_54080" x1="784.14" y1="780.75" x2="830.11" y2="765.47" gradientUnits="userSpaceOnUse">
<stop stop-color="#3E3D7E"/>
<stop offset="1" stop-color="#372D66"/>
</linearGradient>
<linearGradient id="paint26_linear_2804_54080" x1="862.49" y1="734.2" x2="784.79" y2="802.29" gradientUnits="userSpaceOnUse">
<stop stop-color="#514D9E"/>
<stop offset="1" stop-color="#37327C"/>
</linearGradient>
<linearGradient id="paint27_linear_2804_54080" x1="920.98" y1="865.86" x2="888.28" y2="976.99" gradientUnits="userSpaceOnUse">
<stop stop-color="#494791"/>
<stop offset="1" stop-color="#32326B"/>
</linearGradient>
<linearGradient id="paint28_linear_2804_54080" x1="797.1" y1="956.53" x2="941.74" y2="908.47" gradientUnits="userSpaceOnUse">
<stop stop-color="#3E3D7E"/>
<stop offset="1" stop-color="#372D66"/>
</linearGradient>
<linearGradient id="paint29_linear_2804_54080" x1="917.129" y1="876.71" x2="928.709" y2="924.18" gradientUnits="userSpaceOnUse">
<stop stop-color="#514D9E"/>
<stop offset="1" stop-color="#37327C"/>
</linearGradient>
<linearGradient id="paint30_linear_2804_54080" x1="374.05" y1="398.52" x2="230.86" y2="885.19" gradientUnits="userSpaceOnUse">
<stop stop-color="#494791"/>
<stop offset="1" stop-color="#32326B"/>
</linearGradient>
<linearGradient id="paint31_linear_2804_54080" x1="-95.6295" y1="746.9" x2="390.5" y2="585.4" gradientUnits="userSpaceOnUse">
<stop stop-color="#3E3D7E"/>
<stop offset="1" stop-color="#372D66"/>
</linearGradient>
<linearGradient id="paint32_linear_2804_54080" x1="183.48" y1="563.84" x2="399.82" y2="563.84" gradientUnits="userSpaceOnUse">
<stop stop-color="#514D9E"/>
<stop offset="1" stop-color="#37327C"/>
</linearGradient>
<linearGradient id="paint33_linear_2804_54080" x1="759.61" y1="875.53" x2="674.72" y2="1164.05" gradientUnits="userSpaceOnUse">
<stop stop-color="#494791"/>
<stop offset="1" stop-color="#32326B"/>
</linearGradient>
<linearGradient id="paint34_linear_2804_54080" x1="596.66" y1="1085.38" x2="781.83" y2="1023.87" gradientUnits="userSpaceOnUse">
<stop stop-color="#3E3D7E"/>
<stop offset="1" stop-color="#372D66"/>
</linearGradient>
<linearGradient id="paint35_linear_2804_54080" x1="663.77" y1="993.28" x2="780.609" y2="993.28" gradientUnits="userSpaceOnUse">
<stop stop-color="#514D9E"/>
<stop offset="1" stop-color="#37327C"/>
</linearGradient>
<linearGradient id="paint36_linear_2804_54080" x1="721.54" y1="696.94" x2="666.43" y2="884.22" gradientUnits="userSpaceOnUse">
<stop stop-color="#494791"/>
<stop offset="1" stop-color="#32326B"/>
</linearGradient>
<linearGradient id="paint37_linear_2804_54080" x1="617.48" y1="832.629" x2="727.87" y2="795.949" gradientUnits="userSpaceOnUse">
<stop stop-color="#3E3D7E"/>
<stop offset="1" stop-color="#372D66"/>
</linearGradient>
<linearGradient id="paint38_linear_2804_54080" x1="729.7" y1="731.03" x2="633.63" y2="815.41" gradientUnits="userSpaceOnUse">
<stop stop-color="#514D9E"/>
<stop offset="1" stop-color="#37327C"/>
</linearGradient>
<linearGradient id="paint39_linear_2804_54080" x1="720.834" y1="479.206" x2="563.912" y2="479.459" gradientUnits="userSpaceOnUse">
<stop stop-color="#494791"/>
<stop offset="1" stop-color="#32326B"/>
</linearGradient>
<linearGradient id="paint40_linear_2804_54080" x1="592.502" y1="429.978" x2="645.956" y2="506.691" gradientUnits="userSpaceOnUse">
<stop stop-color="#3E3D7E"/>
<stop offset="1" stop-color="#372D66"/>
</linearGradient>
<linearGradient id="paint41_linear_2804_54080" x1="686.06" y1="460.559" x2="645.8" y2="517.519" gradientUnits="userSpaceOnUse">
<stop stop-color="#514D9E"/>
<stop offset="1" stop-color="#37327C"/>
</linearGradient>
<linearGradient id="paint42_linear_2804_54080" x1="892.27" y1="210.28" x2="869.44" y2="287.86" gradientUnits="userSpaceOnUse">
<stop stop-color="#494791"/>
<stop offset="1" stop-color="#32326B"/>
</linearGradient>
<linearGradient id="paint43_linear_2804_54080" x1="817.13" y1="271.34" x2="897.08" y2="244.78" gradientUnits="userSpaceOnUse">
<stop stop-color="#3E3D7E"/>
<stop offset="1" stop-color="#372D66"/>
</linearGradient>
<linearGradient id="paint44_linear_2804_54080" x1="870.141" y1="237.4" x2="901.491" y2="237.4" gradientUnits="userSpaceOnUse">
<stop stop-color="#514D9E"/>
<stop offset="1" stop-color="#37327C"/>
</linearGradient>
<linearGradient id="paint45_linear_2804_54080" x1="516.36" y1="414.53" x2="414.36" y2="761.18" gradientUnits="userSpaceOnUse">
<stop stop-color="#494791"/>
<stop offset="1" stop-color="#32326B"/>
</linearGradient>
<linearGradient id="paint46_linear_2804_54080" x1="259.5" y1="662.99" x2="525.38" y2="574.66" gradientUnits="userSpaceOnUse">
<stop stop-color="#3E3D7E"/>
<stop offset="1" stop-color="#372D66"/>
</linearGradient>
<linearGradient id="paint47_linear_2804_54080" x1="422.63" y1="530.31" x2="511.37" y2="530.31" gradientUnits="userSpaceOnUse">
<stop stop-color="#514D9E"/>
<stop offset="1" stop-color="#37327C"/>
</linearGradient>
<linearGradient id="paint48_linear_2804_54080" x1="512.29" y1="388.51" x2="471.44" y2="527.36" gradientUnits="userSpaceOnUse">
<stop stop-color="#494791"/>
<stop offset="1" stop-color="#32326B"/>
</linearGradient>
<linearGradient id="paint49_linear_2804_54080" x1="402.291" y1="493.17" x2="522.681" y2="453.18" gradientUnits="userSpaceOnUse">
<stop stop-color="#3E3D7E"/>
<stop offset="1" stop-color="#372D66"/>
</linearGradient>
<linearGradient id="paint50_linear_2804_54080" x1="479.24" y1="432.96" x2="529.11" y2="432.96" gradientUnits="userSpaceOnUse">
<stop stop-color="#514D9E"/>
<stop offset="1" stop-color="#37327C"/>
</linearGradient>
<linearGradient id="paint51_linear_2804_54080" x1="353.65" y1="822.69" x2="300.34" y2="1003.87" gradientUnits="userSpaceOnUse">
<stop stop-color="#494791"/>
<stop offset="1" stop-color="#32326B"/>
</linearGradient>
<linearGradient id="paint52_linear_2804_54080" x1="226.93" y1="962.21" x2="355.06" y2="919.65" gradientUnits="userSpaceOnUse">
<stop stop-color="#3E3D7E"/>
<stop offset="1" stop-color="#372D66"/>
</linearGradient>
<linearGradient id="paint53_linear_2804_54080" x1="293.31" y1="880" x2="368.83" y2="880" gradientUnits="userSpaceOnUse">
<stop stop-color="#514D9E"/>
<stop offset="1" stop-color="#37327C"/>
</linearGradient>
<linearGradient id="paint54_linear_2804_54080" x1="1290.84" y1="694.32" x2="1162.02" y2="1132.13" gradientUnits="userSpaceOnUse">
<stop stop-color="#494791"/>
<stop offset="1" stop-color="#32326B"/>
</linearGradient>
<linearGradient id="paint55_linear_2804_54080" x1="984.62" y1="1031.46" x2="1294.22" y2="928.61" gradientUnits="userSpaceOnUse">
<stop stop-color="#3E3D7E"/>
<stop offset="1" stop-color="#372D66"/>
</linearGradient>
<linearGradient id="paint56_linear_2804_54080" x1="1145.02" y1="832.81" x2="1327.5" y2="832.81" gradientUnits="userSpaceOnUse">
<stop stop-color="#514D9E"/>
<stop offset="1" stop-color="#37327C"/>
</linearGradient>
<linearGradient id="paint57_linear_2804_54080" x1="296.87" y1="630.84" x2="250.22" y2="789.39" gradientUnits="userSpaceOnUse">
<stop stop-color="#494791"/>
<stop offset="1" stop-color="#32326B"/>
</linearGradient>
<linearGradient id="paint58_linear_2804_54080" x1="165.67" y1="756.89" x2="298.49" y2="712.77" gradientUnits="userSpaceOnUse">
<stop stop-color="#3E3D7E"/>
<stop offset="1" stop-color="#372D66"/>
</linearGradient>
<linearGradient id="paint59_linear_2804_54080" x1="251.99" y1="696.91" x2="310.41" y2="696.91" gradientUnits="userSpaceOnUse">
<stop stop-color="#514D9E"/>
<stop offset="1" stop-color="#37327C"/>
</linearGradient>
<linearGradient id="paint60_linear_2804_54080" x1="788.6" y1="290.01" x2="759.96" y2="387.37" gradientUnits="userSpaceOnUse">
<stop stop-color="#494791"/>
<stop offset="1" stop-color="#32326B"/>
</linearGradient>
<linearGradient id="paint61_linear_2804_54080" x1="681.11" y1="381.17" x2="803.41" y2="340.54" gradientUnits="userSpaceOnUse">
<stop stop-color="#3E3D7E"/>
<stop offset="1" stop-color="#372D66"/>
</linearGradient>
<linearGradient id="paint62_linear_2804_54080" x1="761.74" y1="329.61" x2="803.77" y2="329.61" gradientUnits="userSpaceOnUse">
<stop stop-color="#514D9E"/>
<stop offset="1" stop-color="#37327C"/>
</linearGradient>
<linearGradient id="paint63_linear_2804_54080" x1="506.14" y1="570.36" x2="410.9" y2="894.04" gradientUnits="userSpaceOnUse">
<stop stop-color="#494791"/>
<stop offset="1" stop-color="#32326B"/>
</linearGradient>
<linearGradient id="paint64_linear_2804_54080" x1="270.69" y1="800.289" x2="502.24" y2="723.369" gradientUnits="userSpaceOnUse">
<stop stop-color="#3E3D7E"/>
<stop offset="1" stop-color="#372D66"/>
</linearGradient>
<linearGradient id="paint65_linear_2804_54080" x1="429.31" y1="668.52" x2="507.67" y2="668.52" gradientUnits="userSpaceOnUse">
<stop stop-color="#514D9E"/>
<stop offset="1" stop-color="#37327C"/>
</linearGradient>
<linearGradient id="paint66_linear_2804_54080" x1="362.31" y1="405.25" x2="288.61" y2="655.72" gradientUnits="userSpaceOnUse">
<stop stop-color="#494791"/>
<stop offset="1" stop-color="#32326B"/>
</linearGradient>
<linearGradient id="paint67_linear_2804_54080" x1="177.85" y1="595.43" x2="398.6" y2="522.1" gradientUnits="userSpaceOnUse">
<stop stop-color="#3E3D7E"/>
<stop offset="1" stop-color="#372D66"/>
</linearGradient>
<linearGradient id="paint68_linear_2804_54080" x1="283.48" y1="476.38" x2="390.91" y2="476.38" gradientUnits="userSpaceOnUse">
<stop stop-color="#514D9E"/>
<stop offset="1" stop-color="#37327C"/>
</linearGradient>
<linearGradient id="paint69_linear_2804_54080" x1="657.8" y1="361.17" x2="637.11" y2="431.49" gradientUnits="userSpaceOnUse">
<stop stop-color="#494791"/>
<stop offset="1" stop-color="#32326B"/>
</linearGradient>
<linearGradient id="paint70_linear_2804_54080" x1="588.01" y1="411.72" x2="650.37" y2="391.001" gradientUnits="userSpaceOnUse">
<stop stop-color="#3E3D7E"/>
<stop offset="1" stop-color="#372D66"/>
</linearGradient>
<linearGradient id="paint71_linear_2804_54080" x1="622.5" y1="386.41" x2="676.64" y2="386.41" gradientUnits="userSpaceOnUse">
<stop stop-color="#514D9E"/>
<stop offset="1" stop-color="#37327C"/>
</linearGradient>
<linearGradient id="paint72_linear_2804_54080" x1="624.57" y1="788.38" x2="547.33" y2="1050.89" gradientUnits="userSpaceOnUse">
<stop stop-color="#494791"/>
<stop offset="1" stop-color="#32326B"/>
</linearGradient>
<linearGradient id="paint73_linear_2804_54080" x1="341.09" y1="1030.35" x2="658.02" y2="925.06" gradientUnits="userSpaceOnUse">
<stop stop-color="#3E3D7E"/>
<stop offset="1" stop-color="#372D66"/>
</linearGradient>
<linearGradient id="paint74_linear_2804_54080" x1="581.841" y1="871.45" x2="660.921" y2="871.45" gradientUnits="userSpaceOnUse">
<stop stop-color="#514D9E"/>
<stop offset="1" stop-color="#37327C"/>
</linearGradient>
<clipPath id="clip0_2804_54080">
<rect width="1680" height="1040" fill="white"/>
</clipPath>
</defs>
</svg>
