<svg preserveAspectRatio="none" width="100%" height="100%" overflow="visible" style="display: block;" viewBox="0 0 20.0006 17.7782" fill="none" xmlns="http://www.w3.org/2000/svg">
<g id="Group">
<path id="Vector" d="M8.52316 0.85307L0.228747 15.2184C0.0789206 15.4778 2.77297e-05 15.7721 7.30859e-09 16.0716C-2.77151e-05 16.3712 0.0788107 16.6655 0.228589 16.925C0.378367 17.1844 0.593807 17.3999 0.85325 17.5496C1.11269 17.6994 1.40699 17.7783 1.70657 17.7782H18.2941C18.5936 17.7783 18.8879 17.6994 19.1474 17.5496C19.4068 17.3999 19.6223 17.1844 19.772 16.925C19.9218 16.6655 20.0006 16.3712 20.0006 16.0716C20.0006 15.7721 19.9217 15.4778 19.7719 15.2184L11.4784 0.85307C11.3286 0.593703 11.1132 0.378324 10.8538 0.228579C10.5945 0.078834 10.3002 0 10.0008 0C9.70126 0 9.40704 0.078834 9.14767 0.228579C8.8883 0.378324 8.67291 0.593703 8.52316 0.85307Z" fill="var(--fill-0, #DB1E5A)"/>
<g id="Group_2">
<path id="Vector_2" d="M10.1089 5.28364H9.89258C9.35989 5.28364 8.92806 5.71547 8.92806 6.24816V10.8584C8.92806 11.391 9.35989 11.8229 9.89258 11.8229H10.1089C10.6416 11.8229 11.0735 11.391 11.0735 10.8584V6.24816C11.0735 5.71547 10.6416 5.28364 10.1089 5.28364Z" fill="var(--fill-0, #FFF7ED)"/>
<path id="Vector_3" d="M10.0008 15.4792C10.5932 15.4792 11.0735 14.999 11.0735 14.4065C11.0735 13.8141 10.5932 13.3338 10.0008 13.3338C9.40833 13.3338 8.92807 13.8141 8.92807 14.4065C8.92807 14.999 9.40833 15.4792 10.0008 15.4792Z" fill="var(--fill-0, #FFF7ED)"/>
</g>
</g>
</svg>
