<?xml version="1.0" encoding="UTF-8"?>
<svg id="Layer_2" data-name="Layer 2" xmlns="http://www.w3.org/2000/svg" xmlns:xlink="http://www.w3.org/1999/xlink" viewBox="0 0 2560 1080">
  <defs>
    <style>
      .cls-1 {
        fill: url(#linear-gradient-2);
      }

      .cls-2 {
        fill: #fff;
      }

      .cls-3, .cls-4, .cls-5 {
        fill: none;
      }

      .cls-6 {
        fill: url(#linear-gradient-4);
      }

      .cls-7 {
        fill: url(#linear-gradient-3);
      }

      .cls-8 {
        fill: url(#linear-gradient-5);
      }

      .cls-4 {
        stroke: #f8f8ff;
      }

      .cls-4, .cls-5 {
        stroke-linecap: round;
        stroke-linejoin: round;
        stroke-width: 2px;
      }

      .cls-5 {
        stroke: #f3f3ff;
      }

      .cls-9 {
        fill: url(#linear-gradient-7);
      }

      .cls-10 {
        fill: url(#linear-gradient-6);
      }

      .cls-11 {
        fill: url(#linear-gradient);
      }
    </style>
    <linearGradient id="linear-gradient" x1="1093.44" y1="614.57" x2="1076.92" y2="630.25" gradientUnits="userSpaceOnUse">
      <stop offset="0" stop-color="#fafaff"/>
      <stop offset="1" stop-color="#fff"/>
    </linearGradient>
    <linearGradient id="linear-gradient-2" x1="795.29" y1="248.54" x2="710.59" y2="240.02" xlink:href="#linear-gradient"/>
    <linearGradient id="linear-gradient-3" x1="274.66" y1="908.21" x2="647.52" y2="901.4" xlink:href="#linear-gradient"/>
    <linearGradient id="linear-gradient-4" x1="1217.26" y1="843.04" x2="1274.26" y2="763.54" xlink:href="#linear-gradient"/>
    <linearGradient id="linear-gradient-5" x1="1767.03" y1="500.95" x2="1772.08" y2="525.18" xlink:href="#linear-gradient"/>
    <linearGradient id="linear-gradient-6" x1="1765.1" y1="1039.85" x2="2080.1" y2="861.35" xlink:href="#linear-gradient"/>
    <linearGradient id="linear-gradient-7" x1="2144.46" y1="1583.5" x2="2052.17" y2="1671.11" gradientTransform="translate(-424.9 1191.1) rotate(-45.78)" xlink:href="#linear-gradient"/>
  </defs>
  <g id="Rocs_C_xport" data-name="Rocs C xport">
    <g>
      <rect class="cls-3" width="2560" height="1080"/>
      <g id="Rock_B02" data-name="Rock B02">
        <polygon class="cls-2" points="1075 586 1053 606 1083 642 1114 642 1114 614 1098 591 1075 586"/>
        <polygon class="cls-11" points="1053 606 1088 632 1107 629 1114 642 1083.5 642 1053 606"/>
        <polyline class="cls-4" points="1053 606 1088 632 1107 629 1114 614"/>
        <line class="cls-4" x1="1107" y1="629" x2="1114" y2="642"/>
        <line class="cls-4" x1="1088" y1="632" x2="1083" y2="642"/>
        <polygon class="cls-5" points="1075 586 1053 606 1083 642 1114 642 1114 614 1098 591 1075 586"/>
      </g>
      <g id="Rock_B04" data-name="Rock B04">
        <polygon class="cls-2" points="726 140 681 183 709 241 810 270 848 214 821 171 795 136 759 140 726 140"/>
        <polygon class="cls-1" points="750 224 709 241 810 270 750 224"/>
        <polyline class="cls-4" points="810 270 750 224 766 160 795 136"/>
        <polyline class="cls-4" points="766 160 730.33 160 681 183"/>
        <line class="cls-4" x1="726" y1="140" x2="730.33" y2="160"/>
        <line class="cls-4" x1="750" y1="224" x2="709" y2="241"/>
        <polygon class="cls-5" points="726 140 681 183 709 241 810 270 848 214 821 171 795 136 759 140 726 140"/>
      </g>
      <g id="Rock_B06" data-name="Rock B06">
        <polygon class="cls-2" points="287.5 698 335.5 650 485.5 626 630.5 710 611.5 889 471.5 961 278.5 973 239 844 287.5 698"/>
        <polygon class="cls-7" points="239 844 299.5 904 415.5 916 587.5 874 611.5 889 471.5 961 278.5 973 239 844"/>
        <polyline class="cls-4" points="630.5 710 587.5 874 415.5 916 299.5 904 239 844 351.5 657 485.5 626"/>
        <line class="cls-4" x1="415.5" y1="916" x2="471.5" y2="961"/>
        <line class="cls-4" x1="611.5" y1="889" x2="587.5" y2="874"/>
        <line class="cls-4" x1="299.5" y1="904" x2="278.5" y2="973"/>
        <line class="cls-4" x1="351.5" y1="657" x2="287.5" y2="698"/>
        <polygon class="cls-5" points="287.5 698 335.5 650 485.5 626 630.5 710 611.5 889 471.5 961 278.5 973 239 844 287.5 698"/>
      </g>
      <g id="Rock_B09" data-name="Rock B09">
        <polygon class="cls-2" points="1242 842 1201 808.5 1214 783 1226 735 1257 735 1282 778.5 1270.5 826 1242 842"/>
        <polygon class="cls-6" points="1201 808.5 1241.5 842 1270.5 826 1282 778.5 1269 806 1244 821 1201 808.5"/>
        <polyline class="cls-4" points="1201 808.5 1244 821 1269 806 1282 778.5"/>
        <polyline class="cls-4" points="1214 783 1249.94 762 1257 735"/>
        <line class="cls-4" x1="1244" y1="821" x2="1241.5" y2="842"/>
        <polyline class="cls-4" points="1270.5 826 1269 806 1249.94 762"/>
        <polygon class="cls-5" points="1242 842 1201 808.5 1214 783 1226 735 1257 735 1282 778.5 1270.5 826 1242 842"/>
      </g>
      <g id="Rock_B12" data-name="Rock B12">
        <polygon class="cls-2" points="1722.5 445 1715 516 1747 528 1782.5 528 1790 488 1771 453 1722.5 445"/>
        <polygon class="cls-8" points="1747 528 1775 518 1790 488 1782.5 528 1747 528"/>
        <polyline class="cls-4" points="1715 516 1740 470 1771.07 453.13"/>
        <polyline class="cls-4" points="1790 486.5 1775 518 1782.5 528"/>
        <polyline class="cls-4" points="1775 518 1747 528 1740 470 1722.5 445"/>
        <polygon class="cls-5" points="1722.5 445 1715 516 1747 528 1782.5 528 1790 488 1771 453 1722.5 445"/>
      </g>
      <g id="Rock_B14" data-name="Rock B14">
        <polygon class="cls-2" points="1721 855 1875 735 1980 795 2018 888 1949 1004 1806 1074 1743 984 1721 855"/>
        <polygon class="cls-10" points="1743 984 1840 991 1957 879 2018 888 1949 1004 1806 1074 1743 984"/>
        <polyline class="cls-4" points="1806 1074 1840 991 1957 879 2018 888"/>
        <polyline class="cls-4" points="1957 879 1957 809 1980 795"/>
        <line class="cls-4" x1="1840" y1="991" x2="1743" y2="984"/>
        <line class="cls-4" x1="1957" y1="809" x2="1875" y2="735"/>
        <polygon class="cls-5" points="1721 855 1875 735 1980 795 2018 888 1949 1004 1806 1074 1743 984 1721 855"/>
      </g>
      <g id="Rock_B01" data-name="Rock B01">
        <polygon class="cls-2" points="2129.41 900.02 2165.53 903.77 2282.86 873.52 2318.25 824.24 2287.25 729.2 2177.79 714.78 2102.39 775.17 2090.68 860.24 2129.41 900.02"/>
        <polygon class="cls-9" points="2139.89 851.61 2090.68 860.24 2129.41 900.02 2165.53 903.77 2282.86 873.52 2318.25 824.24 2189.36 758.82 2139.89 851.61"/>
        <polyline class="cls-4" points="2139.89 851.61 2189.01 759.18 2176.28 715.22"/>
        <line class="cls-4" x1="2189.01" y1="759.18" x2="2318.25" y2="824.24"/>
        <polyline class="cls-4" points="2090.68 860.24 2139.89 851.61 2165.53 903.77"/>
        <polygon class="cls-5" points="2129.41 900.02 2165.53 903.77 2282.86 873.52 2318.25 824.24 2287.25 729.2 2177.79 714.78 2102.39 775.17 2090.68 860.24 2129.41 900.02"/>
      </g>
    </g>
  </g>
</svg>